%TF.GenerationSoftware,KiCad,Pcbnew,8.0.3*%
%TF.CreationDate,2024-07-16T23:19:02+08:00*%
%TF.ProjectId,mspm0,6d73706d-302e-46b6-9963-61645f706362,rev?*%
%TF.SameCoordinates,Original*%
%TF.FileFunction,Drillmap*%
%TF.FilePolarity,Positive*%
%FSLAX45Y45*%
G04 Gerber Fmt 4.5, Leading zero omitted, Abs format (unit mm)*
G04 Created by KiCad (PCBNEW 8.0.3) date 2024-07-16 23:19:02*
%MOMM*%
%LPD*%
G01*
G04 APERTURE LIST*
%ADD10C,0.100000*%
%ADD11C,0.200000*%
%ADD12C,0.110000*%
%ADD13C,0.320000*%
G04 APERTURE END LIST*
D10*
X18405000Y-10660000D02*
G75*
G02*
X17715000Y-10660000I-345000J0D01*
G01*
X17715000Y-2765000D02*
G75*
G02*
X18405000Y-2765000I345000J0D01*
G01*
X11735000Y-2765000D02*
G75*
G02*
X12425000Y-2765000I345000J0D01*
G01*
X17715000Y-2765000D02*
G75*
G02*
X17370000Y-3110000I-345000J0D01*
G01*
X12420000Y-10660000D02*
G75*
G02*
X11730000Y-10660000I-345000J0D01*
G01*
X12770000Y-3110000D02*
X17370000Y-3110000D01*
X12420000Y-10660000D02*
G75*
G02*
X12765000Y-10315000I345000J0D01*
G01*
X17370000Y-10315000D02*
G75*
G02*
X17715000Y-10660000I0J-345000D01*
G01*
X18405000Y-2765000D02*
X18405000Y-10660000D01*
X12770000Y-3110000D02*
G75*
G02*
X12425000Y-2765000I0J345000D01*
G01*
X17370000Y-10315000D02*
X12765000Y-10315000D01*
X11735000Y-2765000D02*
X11730000Y-10660000D01*
D11*
D10*
X11775000Y-3175000D02*
X11805000Y-3205000D01*
X11805000Y-3175000D02*
X11775000Y-3205000D01*
X11775000Y-4505000D02*
X11805000Y-4535000D01*
X11805000Y-4505000D02*
X11775000Y-4535000D01*
X11775000Y-5485000D02*
X11805000Y-5515000D01*
X11805000Y-5485000D02*
X11775000Y-5515000D01*
X11775000Y-5555000D02*
X11805000Y-5585000D01*
X11805000Y-5555000D02*
X11775000Y-5585000D01*
X11775000Y-5625000D02*
X11805000Y-5655000D01*
X11805000Y-5625000D02*
X11775000Y-5655000D01*
X11845000Y-5485000D02*
X11875000Y-5515000D01*
X11875000Y-5485000D02*
X11845000Y-5515000D01*
X11845000Y-5555000D02*
X11875000Y-5585000D01*
X11875000Y-5555000D02*
X11845000Y-5585000D01*
X11845000Y-5625000D02*
X11875000Y-5655000D01*
X11875000Y-5625000D02*
X11845000Y-5655000D01*
X11882500Y-9665000D02*
X11912500Y-9695000D01*
X11912500Y-9665000D02*
X11882500Y-9695000D01*
X11882500Y-10225000D02*
X11912500Y-10255000D01*
X11912500Y-10225000D02*
X11882500Y-10255000D01*
X11885000Y-9105000D02*
X11915000Y-9135000D01*
X11915000Y-9105000D02*
X11885000Y-9135000D01*
X11907500Y-4395000D02*
X11937500Y-4425000D01*
X11937500Y-4395000D02*
X11907500Y-4425000D01*
X11915000Y-5485000D02*
X11945000Y-5515000D01*
X11945000Y-5485000D02*
X11915000Y-5515000D01*
X11915000Y-5555000D02*
X11945000Y-5585000D01*
X11945000Y-5555000D02*
X11915000Y-5585000D01*
X11915000Y-5625000D02*
X11945000Y-5655000D01*
X11945000Y-5625000D02*
X11915000Y-5655000D01*
X11995000Y-4405000D02*
X12025000Y-4435000D01*
X12025000Y-4405000D02*
X11995000Y-4435000D01*
X12005000Y-6125000D02*
X12035000Y-6155000D01*
X12035000Y-6125000D02*
X12005000Y-6155000D01*
X12015000Y-5725000D02*
X12045000Y-5755000D01*
X12045000Y-5725000D02*
X12015000Y-5755000D01*
X12025000Y-4545000D02*
X12055000Y-4575000D01*
X12055000Y-4545000D02*
X12025000Y-4575000D01*
X12060240Y-8540000D02*
X12090240Y-8570000D01*
X12090240Y-8540000D02*
X12060240Y-8570000D01*
X12085000Y-4545000D02*
X12115000Y-4575000D01*
X12115000Y-4545000D02*
X12085000Y-4575000D01*
X12085000Y-7815000D02*
X12115000Y-7845000D01*
X12115000Y-7815000D02*
X12085000Y-7845000D01*
X12115000Y-4405000D02*
X12145000Y-4435000D01*
X12145000Y-4405000D02*
X12115000Y-4435000D01*
X12132500Y-4245000D02*
X12162500Y-4275000D01*
X12162500Y-4245000D02*
X12132500Y-4275000D01*
X12142500Y-4165000D02*
X12172500Y-4195000D01*
X12172500Y-4165000D02*
X12142500Y-4195000D01*
X12195000Y-5255000D02*
X12225000Y-5285000D01*
X12225000Y-5255000D02*
X12195000Y-5285000D01*
X12285000Y-4555000D02*
X12315000Y-4585000D01*
X12315000Y-4555000D02*
X12285000Y-4585000D01*
X12295000Y-4685000D02*
X12325000Y-4715000D01*
X12325000Y-4685000D02*
X12295000Y-4715000D01*
X12350000Y-4905000D02*
X12380000Y-4935000D01*
X12380000Y-4905000D02*
X12350000Y-4935000D01*
X12360000Y-8460000D02*
X12390000Y-8490000D01*
X12390000Y-8460000D02*
X12360000Y-8490000D01*
X12360000Y-8610000D02*
X12390000Y-8640000D01*
X12390000Y-8610000D02*
X12360000Y-8640000D01*
X12552500Y-4285000D02*
X12582500Y-4315000D01*
X12582500Y-4285000D02*
X12552500Y-4315000D01*
X12620000Y-4935000D02*
X12650000Y-4965000D01*
X12650000Y-4935000D02*
X12620000Y-4965000D01*
X12665000Y-5155000D02*
X12695000Y-5185000D01*
X12695000Y-5155000D02*
X12665000Y-5185000D01*
X12665000Y-5215000D02*
X12695000Y-5245000D01*
X12695000Y-5215000D02*
X12665000Y-5245000D01*
X12665000Y-5275000D02*
X12695000Y-5305000D01*
X12695000Y-5275000D02*
X12665000Y-5305000D01*
X12665000Y-5335000D02*
X12695000Y-5365000D01*
X12695000Y-5335000D02*
X12665000Y-5365000D01*
X12665000Y-5395000D02*
X12695000Y-5425000D01*
X12695000Y-5395000D02*
X12665000Y-5425000D01*
X12695000Y-5845000D02*
X12725000Y-5875000D01*
X12725000Y-5845000D02*
X12695000Y-5875000D01*
X12735000Y-6085000D02*
X12765000Y-6115000D01*
X12765000Y-6085000D02*
X12735000Y-6115000D01*
X12755000Y-5845000D02*
X12785000Y-5875000D01*
X12785000Y-5845000D02*
X12755000Y-5875000D01*
X12795000Y-6085000D02*
X12825000Y-6115000D01*
X12825000Y-6085000D02*
X12795000Y-6115000D01*
X12815000Y-5845000D02*
X12845000Y-5875000D01*
X12845000Y-5845000D02*
X12815000Y-5875000D01*
X12855000Y-6085000D02*
X12885000Y-6115000D01*
X12885000Y-6085000D02*
X12855000Y-6115000D01*
X12858750Y-5085000D02*
X12888750Y-5115000D01*
X12888750Y-5085000D02*
X12858750Y-5115000D01*
X12860000Y-5005000D02*
X12890000Y-5035000D01*
X12890000Y-5005000D02*
X12860000Y-5035000D01*
X12895000Y-9235000D02*
X12925000Y-9265000D01*
X12925000Y-9235000D02*
X12895000Y-9265000D01*
X12895000Y-9385000D02*
X12925000Y-9415000D01*
X12925000Y-9385000D02*
X12895000Y-9415000D01*
X12895000Y-9535000D02*
X12925000Y-9565000D01*
X12925000Y-9535000D02*
X12895000Y-9565000D01*
X12915000Y-6085000D02*
X12945000Y-6115000D01*
X12945000Y-6085000D02*
X12915000Y-6115000D01*
X12975000Y-6085000D02*
X13005000Y-6115000D01*
X13005000Y-6085000D02*
X12975000Y-6115000D01*
X12995000Y-8005000D02*
X13025000Y-8035000D01*
X13025000Y-8005000D02*
X12995000Y-8035000D01*
X13035000Y-6085000D02*
X13065000Y-6115000D01*
X13065000Y-6085000D02*
X13035000Y-6115000D01*
X13055000Y-5845000D02*
X13085000Y-5875000D01*
X13085000Y-5845000D02*
X13055000Y-5875000D01*
X13095000Y-6085000D02*
X13125000Y-6115000D01*
X13125000Y-6085000D02*
X13095000Y-6115000D01*
X13105000Y-4265000D02*
X13135000Y-4295000D01*
X13135000Y-4265000D02*
X13105000Y-4295000D01*
X13105000Y-5325000D02*
X13135000Y-5355000D01*
X13135000Y-5325000D02*
X13105000Y-5355000D01*
X13115000Y-5845000D02*
X13145000Y-5875000D01*
X13145000Y-5845000D02*
X13115000Y-5875000D01*
X13165000Y-4265000D02*
X13195000Y-4295000D01*
X13195000Y-4265000D02*
X13165000Y-4295000D01*
X13175000Y-5845000D02*
X13205000Y-5875000D01*
X13205000Y-5845000D02*
X13175000Y-5875000D01*
X13225000Y-4265000D02*
X13255000Y-4295000D01*
X13255000Y-4265000D02*
X13225000Y-4295000D01*
X13225000Y-5330000D02*
X13255000Y-5360000D01*
X13255000Y-5330000D02*
X13225000Y-5360000D01*
X13225000Y-5710000D02*
X13255000Y-5740000D01*
X13255000Y-5710000D02*
X13225000Y-5740000D01*
X13265000Y-5005000D02*
X13295000Y-5035000D01*
X13295000Y-5005000D02*
X13265000Y-5035000D01*
X13275000Y-9125000D02*
X13305000Y-9155000D01*
X13305000Y-9125000D02*
X13275000Y-9155000D01*
X13330000Y-5005000D02*
X13360000Y-5035000D01*
X13360000Y-5005000D02*
X13330000Y-5035000D01*
X13330000Y-5490000D02*
X13360000Y-5520000D01*
X13360000Y-5490000D02*
X13330000Y-5520000D01*
X13395000Y-5005000D02*
X13425000Y-5035000D01*
X13425000Y-5005000D02*
X13395000Y-5035000D01*
X13458750Y-8025000D02*
X13488750Y-8055000D01*
X13488750Y-8025000D02*
X13458750Y-8055000D01*
X13538750Y-8025000D02*
X13568750Y-8055000D01*
X13568750Y-8025000D02*
X13538750Y-8055000D01*
X13610000Y-3860000D02*
X13640000Y-3890000D01*
X13640000Y-3860000D02*
X13610000Y-3890000D01*
X13610000Y-3925000D02*
X13640000Y-3955000D01*
X13640000Y-3925000D02*
X13610000Y-3955000D01*
X13610000Y-3990000D02*
X13640000Y-4020000D01*
X13640000Y-3990000D02*
X13610000Y-4020000D01*
X13610000Y-4055000D02*
X13640000Y-4085000D01*
X13640000Y-4055000D02*
X13610000Y-4085000D01*
X13610000Y-4120000D02*
X13640000Y-4150000D01*
X13640000Y-4120000D02*
X13610000Y-4150000D01*
X13618750Y-8025000D02*
X13648750Y-8055000D01*
X13648750Y-8025000D02*
X13618750Y-8055000D01*
X13630000Y-7845000D02*
X13660000Y-7875000D01*
X13660000Y-7845000D02*
X13630000Y-7875000D01*
X13658750Y-5085000D02*
X13688750Y-5115000D01*
X13688750Y-5085000D02*
X13658750Y-5115000D01*
X13685000Y-7790000D02*
X13715000Y-7820000D01*
X13715000Y-7790000D02*
X13685000Y-7820000D01*
X13715000Y-8540000D02*
X13745000Y-8570000D01*
X13745000Y-8540000D02*
X13715000Y-8570000D01*
X13740000Y-7845000D02*
X13770000Y-7875000D01*
X13770000Y-7845000D02*
X13740000Y-7875000D01*
X13773353Y-8592940D02*
X13803353Y-8622940D01*
X13803353Y-8592940D02*
X13773353Y-8622940D01*
X13795000Y-7790000D02*
X13825000Y-7820000D01*
X13825000Y-7790000D02*
X13795000Y-7820000D01*
X13815000Y-8305000D02*
X13845000Y-8335000D01*
X13845000Y-8305000D02*
X13815000Y-8335000D01*
X13815000Y-8385000D02*
X13845000Y-8415000D01*
X13845000Y-8385000D02*
X13815000Y-8415000D01*
X13815000Y-8465000D02*
X13845000Y-8495000D01*
X13845000Y-8465000D02*
X13815000Y-8495000D01*
X13815000Y-8865000D02*
X13845000Y-8895000D01*
X13845000Y-8865000D02*
X13815000Y-8895000D01*
X13815000Y-8945000D02*
X13845000Y-8975000D01*
X13845000Y-8945000D02*
X13815000Y-8975000D01*
X13815000Y-9025000D02*
X13845000Y-9055000D01*
X13845000Y-9025000D02*
X13815000Y-9055000D01*
X13815000Y-9105000D02*
X13845000Y-9135000D01*
X13845000Y-9105000D02*
X13815000Y-9135000D01*
X13840000Y-3860000D02*
X13870000Y-3890000D01*
X13870000Y-3860000D02*
X13840000Y-3890000D01*
X13840000Y-3925000D02*
X13870000Y-3955000D01*
X13870000Y-3925000D02*
X13840000Y-3955000D01*
X13840000Y-3990000D02*
X13870000Y-4020000D01*
X13870000Y-3990000D02*
X13840000Y-4020000D01*
X13840000Y-4055000D02*
X13870000Y-4085000D01*
X13870000Y-4055000D02*
X13840000Y-4085000D01*
X13840000Y-4120000D02*
X13870000Y-4150000D01*
X13870000Y-4120000D02*
X13840000Y-4150000D01*
X13850000Y-7845000D02*
X13880000Y-7875000D01*
X13880000Y-7845000D02*
X13850000Y-7875000D01*
X13895000Y-8305000D02*
X13925000Y-8335000D01*
X13925000Y-8305000D02*
X13895000Y-8335000D01*
X13895000Y-9105000D02*
X13925000Y-9135000D01*
X13925000Y-9105000D02*
X13895000Y-9135000D01*
X13900000Y-9505000D02*
X13930000Y-9535000D01*
X13930000Y-9505000D02*
X13900000Y-9535000D01*
X13905000Y-7790000D02*
X13935000Y-7820000D01*
X13935000Y-7790000D02*
X13905000Y-7820000D01*
X13960000Y-7845000D02*
X13990000Y-7875000D01*
X13990000Y-7845000D02*
X13960000Y-7875000D01*
X13975000Y-8305000D02*
X14005000Y-8335000D01*
X14005000Y-8305000D02*
X13975000Y-8335000D01*
X13975000Y-9105000D02*
X14005000Y-9135000D01*
X14005000Y-9105000D02*
X13975000Y-9135000D01*
X14005000Y-7335000D02*
X14035000Y-7365000D01*
X14035000Y-7335000D02*
X14005000Y-7365000D01*
X14015000Y-7470000D02*
X14045000Y-7500000D01*
X14045000Y-7470000D02*
X14015000Y-7500000D01*
X14015000Y-7790000D02*
X14045000Y-7820000D01*
X14045000Y-7790000D02*
X14015000Y-7820000D01*
X14055000Y-8305000D02*
X14085000Y-8335000D01*
X14085000Y-8305000D02*
X14055000Y-8335000D01*
X14055000Y-9105000D02*
X14085000Y-9135000D01*
X14085000Y-9105000D02*
X14055000Y-9135000D01*
X14070000Y-7845000D02*
X14100000Y-7875000D01*
X14100000Y-7845000D02*
X14070000Y-7875000D01*
X14085000Y-3195000D02*
X14115000Y-3225000D01*
X14115000Y-3195000D02*
X14085000Y-3225000D01*
X14125000Y-7790000D02*
X14155000Y-7820000D01*
X14155000Y-7790000D02*
X14125000Y-7820000D01*
X14135000Y-8305000D02*
X14165000Y-8335000D01*
X14165000Y-8305000D02*
X14135000Y-8335000D01*
X14135000Y-9105000D02*
X14165000Y-9135000D01*
X14165000Y-9105000D02*
X14135000Y-9135000D01*
X14215000Y-8305000D02*
X14245000Y-8335000D01*
X14245000Y-8305000D02*
X14215000Y-8335000D01*
X14215000Y-8385000D02*
X14245000Y-8415000D01*
X14245000Y-8385000D02*
X14215000Y-8415000D01*
X14215000Y-8465000D02*
X14245000Y-8495000D01*
X14245000Y-8465000D02*
X14215000Y-8495000D01*
X14215000Y-8945000D02*
X14245000Y-8975000D01*
X14245000Y-8945000D02*
X14215000Y-8975000D01*
X14215000Y-9025000D02*
X14245000Y-9055000D01*
X14245000Y-9025000D02*
X14215000Y-9055000D01*
X14215000Y-9105000D02*
X14245000Y-9135000D01*
X14245000Y-9105000D02*
X14215000Y-9135000D01*
X14230000Y-7275000D02*
X14260000Y-7305000D01*
X14260000Y-7275000D02*
X14230000Y-7305000D01*
X14285000Y-8425000D02*
X14315000Y-8455000D01*
X14315000Y-8425000D02*
X14285000Y-8455000D01*
X14300000Y-9420000D02*
X14330000Y-9450000D01*
X14330000Y-9420000D02*
X14300000Y-9450000D01*
X14325000Y-3855000D02*
X14355000Y-3885000D01*
X14355000Y-3855000D02*
X14325000Y-3885000D01*
X14325000Y-3920000D02*
X14355000Y-3950000D01*
X14355000Y-3920000D02*
X14325000Y-3950000D01*
X14325000Y-3985000D02*
X14355000Y-4015000D01*
X14355000Y-3985000D02*
X14325000Y-4015000D01*
X14325000Y-4050000D02*
X14355000Y-4080000D01*
X14355000Y-4050000D02*
X14325000Y-4080000D01*
X14325000Y-4115000D02*
X14355000Y-4145000D01*
X14355000Y-4115000D02*
X14325000Y-4145000D01*
X14435000Y-7445000D02*
X14465000Y-7475000D01*
X14465000Y-7445000D02*
X14435000Y-7475000D01*
X14495000Y-9495000D02*
X14525000Y-9525000D01*
X14525000Y-9495000D02*
X14495000Y-9525000D01*
X14544280Y-6695680D02*
X14574280Y-6725680D01*
X14574280Y-6695680D02*
X14544280Y-6725680D01*
X14555000Y-3855000D02*
X14585000Y-3885000D01*
X14585000Y-3855000D02*
X14555000Y-3885000D01*
X14555000Y-3920000D02*
X14585000Y-3950000D01*
X14585000Y-3920000D02*
X14555000Y-3950000D01*
X14555000Y-3985000D02*
X14585000Y-4015000D01*
X14585000Y-3985000D02*
X14555000Y-4015000D01*
X14555000Y-4050000D02*
X14585000Y-4080000D01*
X14585000Y-4050000D02*
X14555000Y-4080000D01*
X14555000Y-4115000D02*
X14585000Y-4145000D01*
X14585000Y-4115000D02*
X14555000Y-4145000D01*
X14685000Y-8115000D02*
X14715000Y-8145000D01*
X14715000Y-8115000D02*
X14685000Y-8145000D01*
X14685000Y-8825000D02*
X14715000Y-8855000D01*
X14715000Y-8825000D02*
X14685000Y-8855000D01*
X14770000Y-7545000D02*
X14800000Y-7575000D01*
X14800000Y-7545000D02*
X14770000Y-7575000D01*
X14774000Y-8344000D02*
X14804000Y-8374000D01*
X14804000Y-8344000D02*
X14774000Y-8374000D01*
X14785000Y-8245000D02*
X14815000Y-8275000D01*
X14815000Y-8245000D02*
X14785000Y-8275000D01*
X14790000Y-8575000D02*
X14820000Y-8605000D01*
X14820000Y-8575000D02*
X14790000Y-8605000D01*
X14790000Y-8660000D02*
X14820000Y-8690000D01*
X14820000Y-8660000D02*
X14790000Y-8690000D01*
X14805000Y-8425000D02*
X14835000Y-8455000D01*
X14835000Y-8425000D02*
X14805000Y-8455000D01*
X14845000Y-4815000D02*
X14875000Y-4845000D01*
X14875000Y-4815000D02*
X14845000Y-4845000D01*
X14855000Y-8725000D02*
X14885000Y-8755000D01*
X14885000Y-8725000D02*
X14855000Y-8755000D01*
X14865000Y-8205000D02*
X14895000Y-8235000D01*
X14895000Y-8205000D02*
X14865000Y-8235000D01*
X14866860Y-7056360D02*
X14896860Y-7086360D01*
X14896860Y-7056360D02*
X14866860Y-7086360D01*
X14870000Y-9530000D02*
X14900000Y-9560000D01*
X14900000Y-9530000D02*
X14870000Y-9560000D01*
X14925000Y-8655000D02*
X14955000Y-8685000D01*
X14955000Y-8655000D02*
X14925000Y-8685000D01*
X14930000Y-5580000D02*
X14960000Y-5610000D01*
X14960000Y-5580000D02*
X14930000Y-5610000D01*
X14935000Y-5115000D02*
X14965000Y-5145000D01*
X14965000Y-5115000D02*
X14935000Y-5145000D01*
X14940000Y-9680000D02*
X14970000Y-9710000D01*
X14970000Y-9680000D02*
X14940000Y-9710000D01*
X14975000Y-9860000D02*
X15005000Y-9890000D01*
X15005000Y-9860000D02*
X14975000Y-9890000D01*
X14985000Y-8220000D02*
X15015000Y-8250000D01*
X15015000Y-8220000D02*
X14985000Y-8250000D01*
X14995000Y-4985000D02*
X15025000Y-5015000D01*
X15025000Y-4985000D02*
X14995000Y-5015000D01*
X15054820Y-6695680D02*
X15084820Y-6725680D01*
X15084820Y-6695680D02*
X15054820Y-6725680D01*
X15070000Y-8220000D02*
X15100000Y-8250000D01*
X15100000Y-8220000D02*
X15070000Y-8250000D01*
X15070000Y-8655000D02*
X15100000Y-8685000D01*
X15100000Y-8655000D02*
X15070000Y-8685000D01*
X15073904Y-8725964D02*
X15103904Y-8755964D01*
X15103904Y-8725964D02*
X15073904Y-8755964D01*
X15120000Y-7855000D02*
X15150000Y-7885000D01*
X15150000Y-7855000D02*
X15120000Y-7885000D01*
X15170000Y-8220000D02*
X15200000Y-8250000D01*
X15200000Y-8220000D02*
X15170000Y-8250000D01*
X15181820Y-6098780D02*
X15211820Y-6128780D01*
X15211820Y-6098780D02*
X15181820Y-6128780D01*
X15181820Y-6246100D02*
X15211820Y-6276100D01*
X15211820Y-6246100D02*
X15181820Y-6276100D01*
X15181820Y-6393420D02*
X15211820Y-6423420D01*
X15211820Y-6393420D02*
X15181820Y-6423420D01*
X15181820Y-6540740D02*
X15211820Y-6570740D01*
X15211820Y-6540740D02*
X15181820Y-6570740D01*
X15185000Y-3195000D02*
X15215000Y-3225000D01*
X15215000Y-3195000D02*
X15185000Y-3225000D01*
X15190000Y-7545000D02*
X15220000Y-7575000D01*
X15220000Y-7545000D02*
X15190000Y-7575000D01*
X15225000Y-5285000D02*
X15255000Y-5315000D01*
X15255000Y-5285000D02*
X15225000Y-5315000D01*
X15225000Y-5480000D02*
X15255000Y-5510000D01*
X15255000Y-5480000D02*
X15225000Y-5510000D01*
X15245000Y-9365000D02*
X15275000Y-9395000D01*
X15275000Y-9365000D02*
X15245000Y-9395000D01*
X15287940Y-8270000D02*
X15317940Y-8300000D01*
X15317940Y-8270000D02*
X15287940Y-8300000D01*
X15305000Y-8735000D02*
X15335000Y-8765000D01*
X15335000Y-8735000D02*
X15305000Y-8765000D01*
X15310000Y-8200000D02*
X15340000Y-8230000D01*
X15340000Y-8200000D02*
X15310000Y-8230000D01*
X15325000Y-5915000D02*
X15355000Y-5945000D01*
X15355000Y-5915000D02*
X15325000Y-5945000D01*
X15395000Y-8115000D02*
X15425000Y-8145000D01*
X15425000Y-8115000D02*
X15395000Y-8145000D01*
X15405000Y-8825000D02*
X15435000Y-8855000D01*
X15435000Y-8825000D02*
X15405000Y-8855000D01*
X15420398Y-5920000D02*
X15450398Y-5950000D01*
X15450398Y-5920000D02*
X15420398Y-5950000D01*
X15445000Y-7105000D02*
X15475000Y-7135000D01*
X15475000Y-7105000D02*
X15445000Y-7135000D01*
X15510000Y-9545000D02*
X15540000Y-9575000D01*
X15540000Y-9545000D02*
X15510000Y-9575000D01*
X15535000Y-5285000D02*
X15565000Y-5315000D01*
X15565000Y-5285000D02*
X15535000Y-5315000D01*
X15535000Y-5491940D02*
X15565000Y-5521940D01*
X15565000Y-5491940D02*
X15535000Y-5521940D01*
X15545000Y-7105000D02*
X15575000Y-7135000D01*
X15575000Y-7105000D02*
X15545000Y-7135000D01*
X15545000Y-7305000D02*
X15575000Y-7335000D01*
X15575000Y-7305000D02*
X15545000Y-7335000D01*
X15580000Y-7690000D02*
X15610000Y-7720000D01*
X15610000Y-7690000D02*
X15580000Y-7720000D01*
X15585000Y-8115000D02*
X15615000Y-8145000D01*
X15615000Y-8115000D02*
X15585000Y-8145000D01*
X15630000Y-6635000D02*
X15660000Y-6665000D01*
X15660000Y-6635000D02*
X15630000Y-6665000D01*
X15656000Y-8596940D02*
X15686000Y-8626940D01*
X15686000Y-8596940D02*
X15656000Y-8626940D01*
X15670000Y-9525000D02*
X15700000Y-9555000D01*
X15700000Y-9525000D02*
X15670000Y-9555000D01*
X15695000Y-7165000D02*
X15725000Y-7195000D01*
X15725000Y-7165000D02*
X15695000Y-7195000D01*
X15761310Y-7540000D02*
X15791310Y-7570000D01*
X15791310Y-7540000D02*
X15761310Y-7570000D01*
X15765000Y-8596940D02*
X15795000Y-8626940D01*
X15795000Y-8596940D02*
X15765000Y-8626940D01*
X15770000Y-8305000D02*
X15800000Y-8335000D01*
X15800000Y-8305000D02*
X15770000Y-8335000D01*
X15815000Y-6705000D02*
X15845000Y-6735000D01*
X15845000Y-6705000D02*
X15815000Y-6735000D01*
X15825000Y-8140000D02*
X15855000Y-8170000D01*
X15855000Y-8140000D02*
X15825000Y-8170000D01*
X15855000Y-6965000D02*
X15885000Y-6995000D01*
X15885000Y-6965000D02*
X15855000Y-6995000D01*
X15860000Y-8605000D02*
X15890000Y-8635000D01*
X15890000Y-8605000D02*
X15860000Y-8635000D01*
X15885000Y-8855000D02*
X15915000Y-8885000D01*
X15915000Y-8855000D02*
X15885000Y-8885000D01*
X15975000Y-5105000D02*
X16005000Y-5135000D01*
X16005000Y-5105000D02*
X15975000Y-5135000D01*
X16010800Y-8305000D02*
X16040800Y-8335000D01*
X16040800Y-8305000D02*
X16010800Y-8335000D01*
X16075000Y-8435000D02*
X16105000Y-8465000D01*
X16105000Y-8435000D02*
X16075000Y-8465000D01*
X16085000Y-8105000D02*
X16115000Y-8135000D01*
X16115000Y-8105000D02*
X16085000Y-8135000D01*
X16090000Y-5320000D02*
X16120000Y-5350000D01*
X16120000Y-5320000D02*
X16090000Y-5350000D01*
X16100000Y-5410000D02*
X16130000Y-5440000D01*
X16130000Y-5410000D02*
X16100000Y-5440000D01*
X16100725Y-5255647D02*
X16130725Y-5285647D01*
X16130725Y-5255647D02*
X16100725Y-5285647D01*
X16150000Y-8360000D02*
X16180000Y-8390000D01*
X16180000Y-8360000D02*
X16150000Y-8390000D01*
X16177060Y-5000640D02*
X16207060Y-5030640D01*
X16207060Y-5000640D02*
X16177060Y-5030640D01*
X16325000Y-6915000D02*
X16355000Y-6945000D01*
X16355000Y-6915000D02*
X16325000Y-6945000D01*
X16350000Y-4215000D02*
X16380000Y-4245000D01*
X16380000Y-4215000D02*
X16350000Y-4245000D01*
X16350050Y-3964950D02*
X16380050Y-3994950D01*
X16380050Y-3964950D02*
X16350050Y-3994950D01*
X16420000Y-3545000D02*
X16450000Y-3575000D01*
X16450000Y-3545000D02*
X16420000Y-3575000D01*
X16420000Y-3895000D02*
X16450000Y-3925000D01*
X16450000Y-3895000D02*
X16420000Y-3925000D01*
X16540000Y-8195000D02*
X16570000Y-8225000D01*
X16570000Y-8195000D02*
X16540000Y-8225000D01*
X16550000Y-8815000D02*
X16580000Y-8845000D01*
X16580000Y-8815000D02*
X16550000Y-8845000D01*
X16575000Y-6970000D02*
X16605000Y-7000000D01*
X16605000Y-6970000D02*
X16575000Y-7000000D01*
X16765000Y-4880000D02*
X16795000Y-4910000D01*
X16795000Y-4880000D02*
X16765000Y-4910000D01*
X16765000Y-5085000D02*
X16795000Y-5115000D01*
X16795000Y-5085000D02*
X16765000Y-5115000D01*
X16765000Y-5280000D02*
X16795000Y-5310000D01*
X16795000Y-5280000D02*
X16765000Y-5310000D01*
X16780000Y-9515000D02*
X16810000Y-9545000D01*
X16810000Y-9515000D02*
X16780000Y-9545000D01*
X16835000Y-7115000D02*
X16865000Y-7145000D01*
X16865000Y-7115000D02*
X16835000Y-7145000D01*
X16905000Y-3545000D02*
X16935000Y-3575000D01*
X16935000Y-3545000D02*
X16905000Y-3575000D01*
X16975000Y-3785000D02*
X17005000Y-3815000D01*
X17005000Y-3785000D02*
X16975000Y-3815000D01*
X16975000Y-4335000D02*
X17005000Y-4365000D01*
X17005000Y-4335000D02*
X16975000Y-4365000D01*
X17055000Y-5085000D02*
X17085000Y-5115000D01*
X17085000Y-5085000D02*
X17055000Y-5115000D01*
X17135000Y-5995000D02*
X17165000Y-6025000D01*
X17165000Y-5995000D02*
X17135000Y-6025000D01*
X17135000Y-6155000D02*
X17165000Y-6185000D01*
X17165000Y-6155000D02*
X17135000Y-6185000D01*
X17360000Y-7165000D02*
X17390000Y-7195000D01*
X17390000Y-7165000D02*
X17360000Y-7195000D01*
X17400000Y-7015000D02*
X17430000Y-7045000D01*
X17430000Y-7015000D02*
X17400000Y-7045000D01*
X17400500Y-8894500D02*
X17430500Y-8924500D01*
X17430500Y-8894500D02*
X17400500Y-8924500D01*
X17515000Y-5105000D02*
X17545000Y-5135000D01*
X17545000Y-5105000D02*
X17515000Y-5135000D01*
X17515000Y-5265000D02*
X17545000Y-5295000D01*
X17545000Y-5265000D02*
X17515000Y-5295000D01*
X17617000Y-9675000D02*
X17647000Y-9705000D01*
X17647000Y-9675000D02*
X17617000Y-9705000D01*
X17620000Y-10092000D02*
X17650000Y-10122000D01*
X17650000Y-10092000D02*
X17620000Y-10122000D01*
X17640000Y-8670000D02*
X17670000Y-8700000D01*
X17670000Y-8670000D02*
X17640000Y-8700000D01*
X17645000Y-6845000D02*
X17675000Y-6875000D01*
X17675000Y-6845000D02*
X17645000Y-6875000D01*
X17695000Y-5995000D02*
X17725000Y-6025000D01*
X17725000Y-5995000D02*
X17695000Y-6025000D01*
X17695000Y-6270000D02*
X17725000Y-6300000D01*
X17725000Y-6270000D02*
X17695000Y-6300000D01*
X17697500Y-6182500D02*
X17727500Y-6212500D01*
X17727500Y-6182500D02*
X17697500Y-6212500D01*
X17697608Y-6060188D02*
X17727608Y-6090188D01*
X17727608Y-6060188D02*
X17697608Y-6090188D01*
X17700000Y-8385000D02*
X17730000Y-8415000D01*
X17730000Y-8385000D02*
X17700000Y-8415000D01*
X17710000Y-6440000D02*
X17740000Y-6470000D01*
X17740000Y-6440000D02*
X17710000Y-6470000D01*
X17715000Y-6775000D02*
X17745000Y-6805000D01*
X17745000Y-6775000D02*
X17715000Y-6805000D01*
X17775000Y-5190000D02*
X17805000Y-5220000D01*
X17805000Y-5190000D02*
X17775000Y-5220000D01*
X17785000Y-5315000D02*
X17815000Y-5345000D01*
X17815000Y-5315000D02*
X17785000Y-5345000D01*
X17787500Y-5437500D02*
X17817500Y-5467500D01*
X17817500Y-5437500D02*
X17787500Y-5467500D01*
X17790000Y-5560000D02*
X17820000Y-5590000D01*
X17820000Y-5560000D02*
X17790000Y-5590000D01*
X17905000Y-6440000D02*
X17935000Y-6470000D01*
X17935000Y-6440000D02*
X17905000Y-6470000D01*
X17930840Y-8964160D02*
X17960840Y-8994160D01*
X17960840Y-8964160D02*
X17930840Y-8994160D01*
X17935000Y-8670000D02*
X17965000Y-8700000D01*
X17965000Y-8670000D02*
X17935000Y-8700000D01*
X17985000Y-9290000D02*
X18015000Y-9320000D01*
X18015000Y-9290000D02*
X17985000Y-9320000D01*
X17995000Y-6905000D02*
X18025000Y-6935000D01*
X18025000Y-6905000D02*
X17995000Y-6935000D01*
X17995000Y-9405000D02*
X18025000Y-9435000D01*
X18025000Y-9405000D02*
X17995000Y-9435000D01*
X18005000Y-6775000D02*
X18035000Y-6805000D01*
X18035000Y-6775000D02*
X18005000Y-6805000D01*
X18075000Y-5315000D02*
X18105000Y-5345000D01*
X18105000Y-5315000D02*
X18075000Y-5345000D01*
X18160000Y-9381520D02*
X18190000Y-9411520D01*
X18190000Y-9381520D02*
X18160000Y-9411520D01*
X18235000Y-8650000D02*
X18265000Y-8680000D01*
X18265000Y-8650000D02*
X18235000Y-8680000D01*
X11860000Y-10660000D02*
G75*
G02*
X11810000Y-10660000I-25000J0D01*
G01*
X11810000Y-10660000D02*
G75*
G02*
X11860000Y-10660000I25000J0D01*
G01*
X11865000Y-2765000D02*
G75*
G02*
X11815000Y-2765000I-25000J0D01*
G01*
X11815000Y-2765000D02*
G75*
G02*
X11865000Y-2765000I25000J0D01*
G01*
X11930294Y-10490294D02*
G75*
G02*
X11880294Y-10490294I-25000J0D01*
G01*
X11880294Y-10490294D02*
G75*
G02*
X11930294Y-10490294I25000J0D01*
G01*
X11930294Y-10829706D02*
G75*
G02*
X11880294Y-10829706I-25000J0D01*
G01*
X11880294Y-10829706D02*
G75*
G02*
X11930294Y-10829706I25000J0D01*
G01*
X11935294Y-2595294D02*
G75*
G02*
X11885294Y-2595294I-25000J0D01*
G01*
X11885294Y-2595294D02*
G75*
G02*
X11935294Y-2595294I25000J0D01*
G01*
X11935294Y-2934706D02*
G75*
G02*
X11885294Y-2934706I-25000J0D01*
G01*
X11885294Y-2934706D02*
G75*
G02*
X11935294Y-2934706I25000J0D01*
G01*
X12100000Y-10420000D02*
G75*
G02*
X12050000Y-10420000I-25000J0D01*
G01*
X12050000Y-10420000D02*
G75*
G02*
X12100000Y-10420000I25000J0D01*
G01*
X12100000Y-10900000D02*
G75*
G02*
X12050000Y-10900000I-25000J0D01*
G01*
X12050000Y-10900000D02*
G75*
G02*
X12100000Y-10900000I25000J0D01*
G01*
X12105000Y-2525000D02*
G75*
G02*
X12055000Y-2525000I-25000J0D01*
G01*
X12055000Y-2525000D02*
G75*
G02*
X12105000Y-2525000I25000J0D01*
G01*
X12105000Y-3005000D02*
G75*
G02*
X12055000Y-3005000I-25000J0D01*
G01*
X12055000Y-3005000D02*
G75*
G02*
X12105000Y-3005000I25000J0D01*
G01*
X12269706Y-10490294D02*
G75*
G02*
X12219706Y-10490294I-25000J0D01*
G01*
X12219706Y-10490294D02*
G75*
G02*
X12269706Y-10490294I25000J0D01*
G01*
X12269706Y-10829706D02*
G75*
G02*
X12219706Y-10829706I-25000J0D01*
G01*
X12219706Y-10829706D02*
G75*
G02*
X12269706Y-10829706I25000J0D01*
G01*
X12274706Y-2595294D02*
G75*
G02*
X12224706Y-2595294I-25000J0D01*
G01*
X12224706Y-2595294D02*
G75*
G02*
X12274706Y-2595294I25000J0D01*
G01*
X12274706Y-2934706D02*
G75*
G02*
X12224706Y-2934706I-25000J0D01*
G01*
X12224706Y-2934706D02*
G75*
G02*
X12274706Y-2934706I25000J0D01*
G01*
X12340000Y-10660000D02*
G75*
G02*
X12290000Y-10660000I-25000J0D01*
G01*
X12290000Y-10660000D02*
G75*
G02*
X12340000Y-10660000I25000J0D01*
G01*
X12345000Y-2765000D02*
G75*
G02*
X12295000Y-2765000I-25000J0D01*
G01*
X12295000Y-2765000D02*
G75*
G02*
X12345000Y-2765000I25000J0D01*
G01*
X17845000Y-2765000D02*
G75*
G02*
X17795000Y-2765000I-25000J0D01*
G01*
X17795000Y-2765000D02*
G75*
G02*
X17845000Y-2765000I25000J0D01*
G01*
X17845000Y-10660000D02*
G75*
G02*
X17795000Y-10660000I-25000J0D01*
G01*
X17795000Y-10660000D02*
G75*
G02*
X17845000Y-10660000I25000J0D01*
G01*
X17915294Y-2595294D02*
G75*
G02*
X17865294Y-2595294I-25000J0D01*
G01*
X17865294Y-2595294D02*
G75*
G02*
X17915294Y-2595294I25000J0D01*
G01*
X17915294Y-2934706D02*
G75*
G02*
X17865294Y-2934706I-25000J0D01*
G01*
X17865294Y-2934706D02*
G75*
G02*
X17915294Y-2934706I25000J0D01*
G01*
X17915294Y-10490294D02*
G75*
G02*
X17865294Y-10490294I-25000J0D01*
G01*
X17865294Y-10490294D02*
G75*
G02*
X17915294Y-10490294I25000J0D01*
G01*
X17915294Y-10829706D02*
G75*
G02*
X17865294Y-10829706I-25000J0D01*
G01*
X17865294Y-10829706D02*
G75*
G02*
X17915294Y-10829706I25000J0D01*
G01*
X18085000Y-2525000D02*
G75*
G02*
X18035000Y-2525000I-25000J0D01*
G01*
X18035000Y-2525000D02*
G75*
G02*
X18085000Y-2525000I25000J0D01*
G01*
X18085000Y-3005000D02*
G75*
G02*
X18035000Y-3005000I-25000J0D01*
G01*
X18035000Y-3005000D02*
G75*
G02*
X18085000Y-3005000I25000J0D01*
G01*
X18085000Y-10420000D02*
G75*
G02*
X18035000Y-10420000I-25000J0D01*
G01*
X18035000Y-10420000D02*
G75*
G02*
X18085000Y-10420000I25000J0D01*
G01*
X18085000Y-10900000D02*
G75*
G02*
X18035000Y-10900000I-25000J0D01*
G01*
X18035000Y-10900000D02*
G75*
G02*
X18085000Y-10900000I25000J0D01*
G01*
X18254706Y-2595294D02*
G75*
G02*
X18204706Y-2595294I-25000J0D01*
G01*
X18204706Y-2595294D02*
G75*
G02*
X18254706Y-2595294I25000J0D01*
G01*
X18254706Y-2934706D02*
G75*
G02*
X18204706Y-2934706I-25000J0D01*
G01*
X18204706Y-2934706D02*
G75*
G02*
X18254706Y-2934706I25000J0D01*
G01*
X18254706Y-10490294D02*
G75*
G02*
X18204706Y-10490294I-25000J0D01*
G01*
X18204706Y-10490294D02*
G75*
G02*
X18254706Y-10490294I25000J0D01*
G01*
X18254706Y-10829706D02*
G75*
G02*
X18204706Y-10829706I-25000J0D01*
G01*
X18204706Y-10829706D02*
G75*
G02*
X18254706Y-10829706I25000J0D01*
G01*
X18325000Y-2765000D02*
G75*
G02*
X18275000Y-2765000I-25000J0D01*
G01*
X18275000Y-2765000D02*
G75*
G02*
X18325000Y-2765000I25000J0D01*
G01*
X18325000Y-10660000D02*
G75*
G02*
X18275000Y-10660000I-25000J0D01*
G01*
X18275000Y-10660000D02*
G75*
G02*
X18325000Y-10660000I25000J0D01*
G01*
X12007500Y-6418000D02*
X12007500Y-6478000D01*
X11977500Y-6448000D02*
X12037500Y-6448000D01*
X12037500Y-6418000D02*
X11977500Y-6418000D01*
X11977500Y-6478000D02*
G75*
G02*
X11977500Y-6418000I0J30000D01*
G01*
X11977500Y-6478000D02*
X12037500Y-6478000D01*
X12037500Y-6478000D02*
G75*
G03*
X12037500Y-6418000I0J30000D01*
G01*
X12007500Y-7282000D02*
X12007500Y-7342000D01*
X11977500Y-7312000D02*
X12037500Y-7312000D01*
X12037500Y-7282000D02*
X11977500Y-7282000D01*
X11977500Y-7342000D02*
G75*
G02*
X11977500Y-7282000I0J30000D01*
G01*
X11977500Y-7342000D02*
X12037500Y-7342000D01*
X12037500Y-7342000D02*
G75*
G03*
X12037500Y-7282000I0J30000D01*
G01*
X12387500Y-6418000D02*
X12387500Y-6478000D01*
X12357500Y-6448000D02*
X12417500Y-6448000D01*
X12417500Y-6418000D02*
X12357500Y-6418000D01*
X12357500Y-6478000D02*
G75*
G02*
X12357500Y-6418000I0J30000D01*
G01*
X12357500Y-6478000D02*
X12417500Y-6478000D01*
X12417500Y-6478000D02*
G75*
G03*
X12417500Y-6418000I0J30000D01*
G01*
X12387500Y-7282000D02*
X12387500Y-7342000D01*
X12357500Y-7312000D02*
X12417500Y-7312000D01*
X12417500Y-7282000D02*
X12357500Y-7282000D01*
X12357500Y-7342000D02*
G75*
G02*
X12357500Y-7282000I0J30000D01*
G01*
X12357500Y-7342000D02*
X12417500Y-7342000D01*
X12417500Y-7342000D02*
G75*
G03*
X12417500Y-7282000I0J30000D01*
G01*
X12565356Y-3645356D02*
X12565356Y-3574644D01*
X12494644Y-3574644D01*
X12494644Y-3645356D01*
X12565356Y-3645356D01*
X12480000Y-3510000D02*
X12480000Y-3710000D01*
X12580000Y-3710000D02*
G75*
G02*
X12480000Y-3710000I-50000J0D01*
G01*
X12580000Y-3710000D02*
X12580000Y-3510000D01*
X12580000Y-3510000D02*
G75*
G03*
X12480000Y-3510000I-50000J0D01*
G01*
X12865356Y-4115356D02*
X12865356Y-4044644D01*
X12794644Y-4044644D01*
X12794644Y-4115356D01*
X12865356Y-4115356D01*
X12730000Y-4130000D02*
X12930000Y-4130000D01*
X12930000Y-4030000D02*
G75*
G02*
X12930000Y-4130000I0J-50000D01*
G01*
X12930000Y-4030000D02*
X12730000Y-4030000D01*
X12730000Y-4030000D02*
G75*
G03*
X12730000Y-4130000I0J-50000D01*
G01*
X12945356Y-6870356D02*
X12945356Y-6799644D01*
X12874644Y-6799644D01*
X12874644Y-6870356D01*
X12945356Y-6870356D01*
X12945356Y-10170356D02*
X12945356Y-10099644D01*
X12874644Y-10099644D01*
X12874644Y-10170356D01*
X12945356Y-10170356D01*
X13165356Y-3645356D02*
X13165356Y-3574644D01*
X13094644Y-3574644D01*
X13094644Y-3645356D01*
X13165356Y-3645356D01*
X13080000Y-3510000D02*
X13080000Y-3710000D01*
X13180000Y-3710000D02*
G75*
G02*
X13080000Y-3710000I-50000J0D01*
G01*
X13180000Y-3710000D02*
X13180000Y-3510000D01*
X13180000Y-3510000D02*
G75*
G03*
X13080000Y-3510000I-50000J0D01*
G01*
X13199356Y-6870356D02*
X13199356Y-6799644D01*
X13128644Y-6799644D01*
X13128644Y-6870356D01*
X13199356Y-6870356D01*
X13199356Y-10170356D02*
X13199356Y-10099644D01*
X13128644Y-10099644D01*
X13128644Y-10170356D01*
X13199356Y-10170356D01*
X13453356Y-6870356D02*
X13453356Y-6799644D01*
X13382644Y-6799644D01*
X13382644Y-6870356D01*
X13453356Y-6870356D01*
X13453356Y-10170356D02*
X13453356Y-10099644D01*
X13382644Y-10099644D01*
X13382644Y-10170356D01*
X13453356Y-10170356D01*
X13550356Y-3378856D02*
X13550356Y-3308144D01*
X13479644Y-3308144D01*
X13479644Y-3378856D01*
X13550356Y-3378856D01*
X13550356Y-3632856D02*
X13550356Y-3562144D01*
X13479644Y-3562144D01*
X13479644Y-3632856D01*
X13550356Y-3632856D01*
X13707356Y-6870356D02*
X13707356Y-6799644D01*
X13636644Y-6799644D01*
X13636644Y-6870356D01*
X13707356Y-6870356D01*
X13707356Y-10170356D02*
X13707356Y-10099644D01*
X13636644Y-10099644D01*
X13636644Y-10170356D01*
X13707356Y-10170356D01*
X13961356Y-6870356D02*
X13961356Y-6799644D01*
X13890644Y-6799644D01*
X13890644Y-6870356D01*
X13961356Y-6870356D01*
X13961356Y-10170356D02*
X13961356Y-10099644D01*
X13890644Y-10099644D01*
X13890644Y-10170356D01*
X13961356Y-10170356D01*
X13965356Y-4981356D02*
X13965356Y-4910644D01*
X13894644Y-4910644D01*
X13894644Y-4981356D01*
X13965356Y-4981356D01*
X13965356Y-5235356D02*
X13965356Y-5164644D01*
X13894644Y-5164644D01*
X13894644Y-5235356D01*
X13965356Y-5235356D01*
X13965356Y-5489356D02*
X13965356Y-5418644D01*
X13894644Y-5418644D01*
X13894644Y-5489356D01*
X13965356Y-5489356D01*
X13965356Y-5743356D02*
X13965356Y-5672644D01*
X13894644Y-5672644D01*
X13894644Y-5743356D01*
X13965356Y-5743356D01*
X14215356Y-6870356D02*
X14215356Y-6799644D01*
X14144644Y-6799644D01*
X14144644Y-6870356D01*
X14215356Y-6870356D01*
X14215356Y-10170356D02*
X14215356Y-10099644D01*
X14144644Y-10099644D01*
X14144644Y-10170356D01*
X14215356Y-10170356D01*
X14219356Y-4981356D02*
X14219356Y-4910644D01*
X14148644Y-4910644D01*
X14148644Y-4981356D01*
X14219356Y-4981356D01*
X14219356Y-5235356D02*
X14219356Y-5164644D01*
X14148644Y-5164644D01*
X14148644Y-5235356D01*
X14219356Y-5235356D01*
X14219356Y-5489356D02*
X14219356Y-5418644D01*
X14148644Y-5418644D01*
X14148644Y-5489356D01*
X14219356Y-5489356D01*
X14219356Y-5743356D02*
X14219356Y-5672644D01*
X14148644Y-5672644D01*
X14148644Y-5743356D01*
X14219356Y-5743356D01*
X14469356Y-6870356D02*
X14469356Y-6799644D01*
X14398644Y-6799644D01*
X14398644Y-6870356D01*
X14469356Y-6870356D01*
X14469356Y-10170356D02*
X14469356Y-10099644D01*
X14398644Y-10099644D01*
X14398644Y-10170356D01*
X14469356Y-10170356D01*
X14473356Y-4981356D02*
X14473356Y-4910644D01*
X14402644Y-4910644D01*
X14402644Y-4981356D01*
X14473356Y-4981356D01*
X14473356Y-5235356D02*
X14473356Y-5164644D01*
X14402644Y-5164644D01*
X14402644Y-5235356D01*
X14473356Y-5235356D01*
X14473356Y-5489356D02*
X14473356Y-5418644D01*
X14402644Y-5418644D01*
X14402644Y-5489356D01*
X14473356Y-5489356D01*
X14473356Y-5743356D02*
X14473356Y-5672644D01*
X14402644Y-5672644D01*
X14402644Y-5743356D01*
X14473356Y-5743356D01*
X14723356Y-6870356D02*
X14723356Y-6799644D01*
X14652644Y-6799644D01*
X14652644Y-6870356D01*
X14723356Y-6870356D01*
X14723356Y-10170356D02*
X14723356Y-10099644D01*
X14652644Y-10099644D01*
X14652644Y-10170356D01*
X14723356Y-10170356D01*
X14727356Y-4981356D02*
X14727356Y-4910644D01*
X14656644Y-4910644D01*
X14656644Y-4981356D01*
X14727356Y-4981356D01*
X14727356Y-5235356D02*
X14727356Y-5164644D01*
X14656644Y-5164644D01*
X14656644Y-5235356D01*
X14727356Y-5235356D01*
X14727356Y-5489356D02*
X14727356Y-5418644D01*
X14656644Y-5418644D01*
X14656644Y-5489356D01*
X14727356Y-5489356D01*
X14727356Y-5743356D02*
X14727356Y-5672644D01*
X14656644Y-5672644D01*
X14656644Y-5743356D01*
X14727356Y-5743356D01*
X14977356Y-6870356D02*
X14977356Y-6799644D01*
X14906644Y-6799644D01*
X14906644Y-6870356D01*
X14977356Y-6870356D01*
X14977356Y-10170356D02*
X14977356Y-10099644D01*
X14906644Y-10099644D01*
X14906644Y-10170356D01*
X14977356Y-10170356D01*
X15231356Y-6870356D02*
X15231356Y-6799644D01*
X15160644Y-6799644D01*
X15160644Y-6870356D01*
X15231356Y-6870356D01*
X15231356Y-10170356D02*
X15231356Y-10099644D01*
X15160644Y-10099644D01*
X15160644Y-10170356D01*
X15231356Y-10170356D01*
X15485356Y-6870356D02*
X15485356Y-6799644D01*
X15414644Y-6799644D01*
X15414644Y-6870356D01*
X15485356Y-6870356D01*
X15485356Y-10170356D02*
X15485356Y-10099644D01*
X15414644Y-10099644D01*
X15414644Y-10170356D01*
X15485356Y-10170356D01*
X15739356Y-6870356D02*
X15739356Y-6799644D01*
X15668644Y-6799644D01*
X15668644Y-6870356D01*
X15739356Y-6870356D01*
X15739356Y-10170356D02*
X15739356Y-10099644D01*
X15668644Y-10099644D01*
X15668644Y-10170356D01*
X15739356Y-10170356D01*
X15993356Y-6870356D02*
X15993356Y-6799644D01*
X15922644Y-6799644D01*
X15922644Y-6870356D01*
X15993356Y-6870356D01*
X15993356Y-10170356D02*
X15993356Y-10099644D01*
X15922644Y-10099644D01*
X15922644Y-10170356D01*
X15993356Y-10170356D01*
X16247356Y-6870356D02*
X16247356Y-6799644D01*
X16176644Y-6799644D01*
X16176644Y-6870356D01*
X16247356Y-6870356D01*
X16247356Y-10170356D02*
X16247356Y-10099644D01*
X16176644Y-10099644D01*
X16176644Y-10170356D01*
X16247356Y-10170356D01*
X16501356Y-6870356D02*
X16501356Y-6799644D01*
X16430644Y-6799644D01*
X16430644Y-6870356D01*
X16501356Y-6870356D01*
X16501356Y-10170356D02*
X16501356Y-10099644D01*
X16430644Y-10099644D01*
X16430644Y-10170356D01*
X16501356Y-10170356D01*
X16755356Y-6870356D02*
X16755356Y-6799644D01*
X16684644Y-6799644D01*
X16684644Y-6870356D01*
X16755356Y-6870356D01*
X16755356Y-10170356D02*
X16755356Y-10099644D01*
X16684644Y-10099644D01*
X16684644Y-10170356D01*
X16755356Y-10170356D01*
X17009356Y-6870356D02*
X17009356Y-6799644D01*
X16938644Y-6799644D01*
X16938644Y-6870356D01*
X17009356Y-6870356D01*
X17009356Y-10170356D02*
X17009356Y-10099644D01*
X16938644Y-10099644D01*
X16938644Y-10170356D01*
X17009356Y-10170356D01*
X17263356Y-6870356D02*
X17263356Y-6799644D01*
X17192644Y-6799644D01*
X17192644Y-6870356D01*
X17263356Y-6870356D01*
X17263356Y-10170356D02*
X17263356Y-10099644D01*
X17192644Y-10099644D01*
X17192644Y-10170356D01*
X17263356Y-10170356D01*
D12*
X13860000Y-3525000D02*
X13915000Y-3470000D01*
X13860000Y-3415000D01*
X13805000Y-3470000D01*
X13860000Y-3525000D01*
D10*
X13805000Y-3410000D02*
X13805000Y-3530000D01*
X13915000Y-3530000D02*
G75*
G02*
X13805000Y-3530000I-55000J0D01*
G01*
X13915000Y-3530000D02*
X13915000Y-3410000D01*
X13915000Y-3410000D02*
G75*
G03*
X13805000Y-3410000I-55000J0D01*
G01*
D12*
X14340000Y-3525000D02*
X14395000Y-3470000D01*
X14340000Y-3415000D01*
X14285000Y-3470000D01*
X14340000Y-3525000D01*
D10*
X14285000Y-3410000D02*
X14285000Y-3530000D01*
X14395000Y-3530000D02*
G75*
G02*
X14285000Y-3530000I-55000J0D01*
G01*
X14395000Y-3530000D02*
X14395000Y-3410000D01*
X14395000Y-3410000D02*
G75*
G03*
X14285000Y-3410000I-55000J0D01*
G01*
D12*
X14820000Y-3525000D02*
X14875000Y-3470000D01*
X14820000Y-3415000D01*
X14765000Y-3470000D01*
X14820000Y-3525000D01*
D10*
X14765000Y-3410000D02*
X14765000Y-3530000D01*
X14875000Y-3530000D02*
G75*
G02*
X14765000Y-3530000I-55000J0D01*
G01*
X14875000Y-3530000D02*
X14875000Y-3410000D01*
X14875000Y-3410000D02*
G75*
G03*
X14765000Y-3410000I-55000J0D01*
G01*
D13*
X11915000Y-10500000D02*
X12235000Y-10820000D01*
X12235000Y-10500000D02*
X11915000Y-10820000D01*
X12235000Y-10660000D02*
G75*
G02*
X11915000Y-10660000I-160000J0D01*
G01*
X11915000Y-10660000D02*
G75*
G02*
X12235000Y-10660000I160000J0D01*
G01*
X11920000Y-2605000D02*
X12240000Y-2925000D01*
X12240000Y-2605000D02*
X11920000Y-2925000D01*
X12240000Y-2765000D02*
G75*
G02*
X11920000Y-2765000I-160000J0D01*
G01*
X11920000Y-2765000D02*
G75*
G02*
X12240000Y-2765000I160000J0D01*
G01*
X17900000Y-2605000D02*
X18220000Y-2925000D01*
X18220000Y-2605000D02*
X17900000Y-2925000D01*
X18220000Y-2765000D02*
G75*
G02*
X17900000Y-2765000I-160000J0D01*
G01*
X17900000Y-2765000D02*
G75*
G02*
X18220000Y-2765000I160000J0D01*
G01*
X17900000Y-10500000D02*
X18220000Y-10820000D01*
X18220000Y-10500000D02*
X17900000Y-10820000D01*
X18220000Y-10660000D02*
G75*
G02*
X17900000Y-10660000I-160000J0D01*
G01*
X17900000Y-10660000D02*
G75*
G02*
X18220000Y-10660000I160000J0D01*
G01*
D11*
X11985777Y-11321484D02*
X11985777Y-11121484D01*
X11985777Y-11121484D02*
X12033396Y-11121484D01*
X12033396Y-11121484D02*
X12061967Y-11131008D01*
X12061967Y-11131008D02*
X12081015Y-11150055D01*
X12081015Y-11150055D02*
X12090539Y-11169103D01*
X12090539Y-11169103D02*
X12100062Y-11207198D01*
X12100062Y-11207198D02*
X12100062Y-11235769D01*
X12100062Y-11235769D02*
X12090539Y-11273865D01*
X12090539Y-11273865D02*
X12081015Y-11292912D01*
X12081015Y-11292912D02*
X12061967Y-11311960D01*
X12061967Y-11311960D02*
X12033396Y-11321484D01*
X12033396Y-11321484D02*
X11985777Y-11321484D01*
X12185777Y-11321484D02*
X12185777Y-11188150D01*
X12185777Y-11226246D02*
X12195301Y-11207198D01*
X12195301Y-11207198D02*
X12204824Y-11197674D01*
X12204824Y-11197674D02*
X12223872Y-11188150D01*
X12223872Y-11188150D02*
X12242920Y-11188150D01*
X12309586Y-11321484D02*
X12309586Y-11188150D01*
X12309586Y-11121484D02*
X12300062Y-11131008D01*
X12300062Y-11131008D02*
X12309586Y-11140531D01*
X12309586Y-11140531D02*
X12319110Y-11131008D01*
X12319110Y-11131008D02*
X12309586Y-11121484D01*
X12309586Y-11121484D02*
X12309586Y-11140531D01*
X12433396Y-11321484D02*
X12414348Y-11311960D01*
X12414348Y-11311960D02*
X12404824Y-11292912D01*
X12404824Y-11292912D02*
X12404824Y-11121484D01*
X12538158Y-11321484D02*
X12519110Y-11311960D01*
X12519110Y-11311960D02*
X12509586Y-11292912D01*
X12509586Y-11292912D02*
X12509586Y-11121484D01*
X12766729Y-11321484D02*
X12766729Y-11121484D01*
X12766729Y-11121484D02*
X12833396Y-11264341D01*
X12833396Y-11264341D02*
X12900062Y-11121484D01*
X12900062Y-11121484D02*
X12900062Y-11321484D01*
X13081015Y-11321484D02*
X13081015Y-11216722D01*
X13081015Y-11216722D02*
X13071491Y-11197674D01*
X13071491Y-11197674D02*
X13052443Y-11188150D01*
X13052443Y-11188150D02*
X13014348Y-11188150D01*
X13014348Y-11188150D02*
X12995301Y-11197674D01*
X13081015Y-11311960D02*
X13061967Y-11321484D01*
X13061967Y-11321484D02*
X13014348Y-11321484D01*
X13014348Y-11321484D02*
X12995301Y-11311960D01*
X12995301Y-11311960D02*
X12985777Y-11292912D01*
X12985777Y-11292912D02*
X12985777Y-11273865D01*
X12985777Y-11273865D02*
X12995301Y-11254817D01*
X12995301Y-11254817D02*
X13014348Y-11245293D01*
X13014348Y-11245293D02*
X13061967Y-11245293D01*
X13061967Y-11245293D02*
X13081015Y-11235769D01*
X13176253Y-11188150D02*
X13176253Y-11388150D01*
X13176253Y-11197674D02*
X13195301Y-11188150D01*
X13195301Y-11188150D02*
X13233396Y-11188150D01*
X13233396Y-11188150D02*
X13252443Y-11197674D01*
X13252443Y-11197674D02*
X13261967Y-11207198D01*
X13261967Y-11207198D02*
X13271491Y-11226246D01*
X13271491Y-11226246D02*
X13271491Y-11283388D01*
X13271491Y-11283388D02*
X13261967Y-11302436D01*
X13261967Y-11302436D02*
X13252443Y-11311960D01*
X13252443Y-11311960D02*
X13233396Y-11321484D01*
X13233396Y-11321484D02*
X13195301Y-11321484D01*
X13195301Y-11321484D02*
X13176253Y-11311960D01*
X13357205Y-11302436D02*
X13366729Y-11311960D01*
X13366729Y-11311960D02*
X13357205Y-11321484D01*
X13357205Y-11321484D02*
X13347682Y-11311960D01*
X13347682Y-11311960D02*
X13357205Y-11302436D01*
X13357205Y-11302436D02*
X13357205Y-11321484D01*
X13357205Y-11197674D02*
X13366729Y-11207198D01*
X13366729Y-11207198D02*
X13357205Y-11216722D01*
X13357205Y-11216722D02*
X13347682Y-11207198D01*
X13347682Y-11207198D02*
X13357205Y-11197674D01*
X13357205Y-11197674D02*
X13357205Y-11216722D01*
D10*
X11695000Y-11635000D02*
X11725000Y-11665000D01*
X11725000Y-11635000D02*
X11695000Y-11665000D01*
D11*
X12023872Y-11541484D02*
X12042920Y-11541484D01*
X12042920Y-11541484D02*
X12061967Y-11551008D01*
X12061967Y-11551008D02*
X12071491Y-11560531D01*
X12071491Y-11560531D02*
X12081015Y-11579579D01*
X12081015Y-11579579D02*
X12090539Y-11617674D01*
X12090539Y-11617674D02*
X12090539Y-11665293D01*
X12090539Y-11665293D02*
X12081015Y-11703388D01*
X12081015Y-11703388D02*
X12071491Y-11722436D01*
X12071491Y-11722436D02*
X12061967Y-11731960D01*
X12061967Y-11731960D02*
X12042920Y-11741484D01*
X12042920Y-11741484D02*
X12023872Y-11741484D01*
X12023872Y-11741484D02*
X12004824Y-11731960D01*
X12004824Y-11731960D02*
X11995301Y-11722436D01*
X11995301Y-11722436D02*
X11985777Y-11703388D01*
X11985777Y-11703388D02*
X11976253Y-11665293D01*
X11976253Y-11665293D02*
X11976253Y-11617674D01*
X11976253Y-11617674D02*
X11985777Y-11579579D01*
X11985777Y-11579579D02*
X11995301Y-11560531D01*
X11995301Y-11560531D02*
X12004824Y-11551008D01*
X12004824Y-11551008D02*
X12023872Y-11541484D01*
X12176253Y-11722436D02*
X12185777Y-11731960D01*
X12185777Y-11731960D02*
X12176253Y-11741484D01*
X12176253Y-11741484D02*
X12166729Y-11731960D01*
X12166729Y-11731960D02*
X12176253Y-11722436D01*
X12176253Y-11722436D02*
X12176253Y-11741484D01*
X12252443Y-11541484D02*
X12376253Y-11541484D01*
X12376253Y-11541484D02*
X12309586Y-11617674D01*
X12309586Y-11617674D02*
X12338158Y-11617674D01*
X12338158Y-11617674D02*
X12357205Y-11627198D01*
X12357205Y-11627198D02*
X12366729Y-11636722D01*
X12366729Y-11636722D02*
X12376253Y-11655769D01*
X12376253Y-11655769D02*
X12376253Y-11703388D01*
X12376253Y-11703388D02*
X12366729Y-11722436D01*
X12366729Y-11722436D02*
X12357205Y-11731960D01*
X12357205Y-11731960D02*
X12338158Y-11741484D01*
X12338158Y-11741484D02*
X12281015Y-11741484D01*
X12281015Y-11741484D02*
X12261967Y-11731960D01*
X12261967Y-11731960D02*
X12252443Y-11722436D01*
X12500062Y-11541484D02*
X12519110Y-11541484D01*
X12519110Y-11541484D02*
X12538158Y-11551008D01*
X12538158Y-11551008D02*
X12547682Y-11560531D01*
X12547682Y-11560531D02*
X12557205Y-11579579D01*
X12557205Y-11579579D02*
X12566729Y-11617674D01*
X12566729Y-11617674D02*
X12566729Y-11665293D01*
X12566729Y-11665293D02*
X12557205Y-11703388D01*
X12557205Y-11703388D02*
X12547682Y-11722436D01*
X12547682Y-11722436D02*
X12538158Y-11731960D01*
X12538158Y-11731960D02*
X12519110Y-11741484D01*
X12519110Y-11741484D02*
X12500062Y-11741484D01*
X12500062Y-11741484D02*
X12481015Y-11731960D01*
X12481015Y-11731960D02*
X12471491Y-11722436D01*
X12471491Y-11722436D02*
X12461967Y-11703388D01*
X12461967Y-11703388D02*
X12452443Y-11665293D01*
X12452443Y-11665293D02*
X12452443Y-11617674D01*
X12452443Y-11617674D02*
X12461967Y-11579579D01*
X12461967Y-11579579D02*
X12471491Y-11560531D01*
X12471491Y-11560531D02*
X12481015Y-11551008D01*
X12481015Y-11551008D02*
X12500062Y-11541484D01*
X12690539Y-11541484D02*
X12709586Y-11541484D01*
X12709586Y-11541484D02*
X12728634Y-11551008D01*
X12728634Y-11551008D02*
X12738158Y-11560531D01*
X12738158Y-11560531D02*
X12747682Y-11579579D01*
X12747682Y-11579579D02*
X12757205Y-11617674D01*
X12757205Y-11617674D02*
X12757205Y-11665293D01*
X12757205Y-11665293D02*
X12747682Y-11703388D01*
X12747682Y-11703388D02*
X12738158Y-11722436D01*
X12738158Y-11722436D02*
X12728634Y-11731960D01*
X12728634Y-11731960D02*
X12709586Y-11741484D01*
X12709586Y-11741484D02*
X12690539Y-11741484D01*
X12690539Y-11741484D02*
X12671491Y-11731960D01*
X12671491Y-11731960D02*
X12661967Y-11722436D01*
X12661967Y-11722436D02*
X12652443Y-11703388D01*
X12652443Y-11703388D02*
X12642920Y-11665293D01*
X12642920Y-11665293D02*
X12642920Y-11617674D01*
X12642920Y-11617674D02*
X12652443Y-11579579D01*
X12652443Y-11579579D02*
X12661967Y-11560531D01*
X12661967Y-11560531D02*
X12671491Y-11551008D01*
X12671491Y-11551008D02*
X12690539Y-11541484D01*
X12842920Y-11741484D02*
X12842920Y-11608150D01*
X12842920Y-11627198D02*
X12852443Y-11617674D01*
X12852443Y-11617674D02*
X12871491Y-11608150D01*
X12871491Y-11608150D02*
X12900063Y-11608150D01*
X12900063Y-11608150D02*
X12919110Y-11617674D01*
X12919110Y-11617674D02*
X12928634Y-11636722D01*
X12928634Y-11636722D02*
X12928634Y-11741484D01*
X12928634Y-11636722D02*
X12938158Y-11617674D01*
X12938158Y-11617674D02*
X12957205Y-11608150D01*
X12957205Y-11608150D02*
X12985777Y-11608150D01*
X12985777Y-11608150D02*
X13004824Y-11617674D01*
X13004824Y-11617674D02*
X13014348Y-11636722D01*
X13014348Y-11636722D02*
X13014348Y-11741484D01*
X13109586Y-11741484D02*
X13109586Y-11608150D01*
X13109586Y-11627198D02*
X13119110Y-11617674D01*
X13119110Y-11617674D02*
X13138158Y-11608150D01*
X13138158Y-11608150D02*
X13166729Y-11608150D01*
X13166729Y-11608150D02*
X13185777Y-11617674D01*
X13185777Y-11617674D02*
X13195301Y-11636722D01*
X13195301Y-11636722D02*
X13195301Y-11741484D01*
X13195301Y-11636722D02*
X13204824Y-11617674D01*
X13204824Y-11617674D02*
X13223872Y-11608150D01*
X13223872Y-11608150D02*
X13252443Y-11608150D01*
X13252443Y-11608150D02*
X13271491Y-11617674D01*
X13271491Y-11617674D02*
X13281015Y-11636722D01*
X13281015Y-11636722D02*
X13281015Y-11741484D01*
X13671491Y-11531960D02*
X13500063Y-11789103D01*
X13928634Y-11541484D02*
X13947682Y-11541484D01*
X13947682Y-11541484D02*
X13966729Y-11551008D01*
X13966729Y-11551008D02*
X13976253Y-11560531D01*
X13976253Y-11560531D02*
X13985777Y-11579579D01*
X13985777Y-11579579D02*
X13995301Y-11617674D01*
X13995301Y-11617674D02*
X13995301Y-11665293D01*
X13995301Y-11665293D02*
X13985777Y-11703388D01*
X13985777Y-11703388D02*
X13976253Y-11722436D01*
X13976253Y-11722436D02*
X13966729Y-11731960D01*
X13966729Y-11731960D02*
X13947682Y-11741484D01*
X13947682Y-11741484D02*
X13928634Y-11741484D01*
X13928634Y-11741484D02*
X13909586Y-11731960D01*
X13909586Y-11731960D02*
X13900063Y-11722436D01*
X13900063Y-11722436D02*
X13890539Y-11703388D01*
X13890539Y-11703388D02*
X13881015Y-11665293D01*
X13881015Y-11665293D02*
X13881015Y-11617674D01*
X13881015Y-11617674D02*
X13890539Y-11579579D01*
X13890539Y-11579579D02*
X13900063Y-11560531D01*
X13900063Y-11560531D02*
X13909586Y-11551008D01*
X13909586Y-11551008D02*
X13928634Y-11541484D01*
X14081015Y-11722436D02*
X14090539Y-11731960D01*
X14090539Y-11731960D02*
X14081015Y-11741484D01*
X14081015Y-11741484D02*
X14071491Y-11731960D01*
X14071491Y-11731960D02*
X14081015Y-11722436D01*
X14081015Y-11722436D02*
X14081015Y-11741484D01*
X14214348Y-11541484D02*
X14233396Y-11541484D01*
X14233396Y-11541484D02*
X14252444Y-11551008D01*
X14252444Y-11551008D02*
X14261967Y-11560531D01*
X14261967Y-11560531D02*
X14271491Y-11579579D01*
X14271491Y-11579579D02*
X14281015Y-11617674D01*
X14281015Y-11617674D02*
X14281015Y-11665293D01*
X14281015Y-11665293D02*
X14271491Y-11703388D01*
X14271491Y-11703388D02*
X14261967Y-11722436D01*
X14261967Y-11722436D02*
X14252444Y-11731960D01*
X14252444Y-11731960D02*
X14233396Y-11741484D01*
X14233396Y-11741484D02*
X14214348Y-11741484D01*
X14214348Y-11741484D02*
X14195301Y-11731960D01*
X14195301Y-11731960D02*
X14185777Y-11722436D01*
X14185777Y-11722436D02*
X14176253Y-11703388D01*
X14176253Y-11703388D02*
X14166729Y-11665293D01*
X14166729Y-11665293D02*
X14166729Y-11617674D01*
X14166729Y-11617674D02*
X14176253Y-11579579D01*
X14176253Y-11579579D02*
X14185777Y-11560531D01*
X14185777Y-11560531D02*
X14195301Y-11551008D01*
X14195301Y-11551008D02*
X14214348Y-11541484D01*
X14471491Y-11741484D02*
X14357206Y-11741484D01*
X14414348Y-11741484D02*
X14414348Y-11541484D01*
X14414348Y-11541484D02*
X14395301Y-11570055D01*
X14395301Y-11570055D02*
X14376253Y-11589103D01*
X14376253Y-11589103D02*
X14357206Y-11598627D01*
X14661967Y-11741484D02*
X14547682Y-11741484D01*
X14604825Y-11741484D02*
X14604825Y-11541484D01*
X14604825Y-11541484D02*
X14585777Y-11570055D01*
X14585777Y-11570055D02*
X14566729Y-11589103D01*
X14566729Y-11589103D02*
X14547682Y-11598627D01*
X14776253Y-11627198D02*
X14757206Y-11617674D01*
X14757206Y-11617674D02*
X14747682Y-11608150D01*
X14747682Y-11608150D02*
X14738158Y-11589103D01*
X14738158Y-11589103D02*
X14738158Y-11579579D01*
X14738158Y-11579579D02*
X14747682Y-11560531D01*
X14747682Y-11560531D02*
X14757206Y-11551008D01*
X14757206Y-11551008D02*
X14776253Y-11541484D01*
X14776253Y-11541484D02*
X14814348Y-11541484D01*
X14814348Y-11541484D02*
X14833396Y-11551008D01*
X14833396Y-11551008D02*
X14842920Y-11560531D01*
X14842920Y-11560531D02*
X14852444Y-11579579D01*
X14852444Y-11579579D02*
X14852444Y-11589103D01*
X14852444Y-11589103D02*
X14842920Y-11608150D01*
X14842920Y-11608150D02*
X14833396Y-11617674D01*
X14833396Y-11617674D02*
X14814348Y-11627198D01*
X14814348Y-11627198D02*
X14776253Y-11627198D01*
X14776253Y-11627198D02*
X14757206Y-11636722D01*
X14757206Y-11636722D02*
X14747682Y-11646246D01*
X14747682Y-11646246D02*
X14738158Y-11665293D01*
X14738158Y-11665293D02*
X14738158Y-11703388D01*
X14738158Y-11703388D02*
X14747682Y-11722436D01*
X14747682Y-11722436D02*
X14757206Y-11731960D01*
X14757206Y-11731960D02*
X14776253Y-11741484D01*
X14776253Y-11741484D02*
X14814348Y-11741484D01*
X14814348Y-11741484D02*
X14833396Y-11731960D01*
X14833396Y-11731960D02*
X14842920Y-11722436D01*
X14842920Y-11722436D02*
X14852444Y-11703388D01*
X14852444Y-11703388D02*
X14852444Y-11665293D01*
X14852444Y-11665293D02*
X14842920Y-11646246D01*
X14842920Y-11646246D02*
X14833396Y-11636722D01*
X14833396Y-11636722D02*
X14814348Y-11627198D01*
X14928634Y-11541484D02*
X14928634Y-11579579D01*
X15004825Y-11541484D02*
X15004825Y-11579579D01*
X15300063Y-11817674D02*
X15290539Y-11808150D01*
X15290539Y-11808150D02*
X15271491Y-11779579D01*
X15271491Y-11779579D02*
X15261968Y-11760531D01*
X15261968Y-11760531D02*
X15252444Y-11731960D01*
X15252444Y-11731960D02*
X15242920Y-11684341D01*
X15242920Y-11684341D02*
X15242920Y-11646246D01*
X15242920Y-11646246D02*
X15252444Y-11598627D01*
X15252444Y-11598627D02*
X15261968Y-11570055D01*
X15261968Y-11570055D02*
X15271491Y-11551008D01*
X15271491Y-11551008D02*
X15290539Y-11522436D01*
X15290539Y-11522436D02*
X15300063Y-11512912D01*
X15366729Y-11560531D02*
X15376253Y-11551008D01*
X15376253Y-11551008D02*
X15395301Y-11541484D01*
X15395301Y-11541484D02*
X15442920Y-11541484D01*
X15442920Y-11541484D02*
X15461968Y-11551008D01*
X15461968Y-11551008D02*
X15471491Y-11560531D01*
X15471491Y-11560531D02*
X15481015Y-11579579D01*
X15481015Y-11579579D02*
X15481015Y-11598627D01*
X15481015Y-11598627D02*
X15471491Y-11627198D01*
X15471491Y-11627198D02*
X15357206Y-11741484D01*
X15357206Y-11741484D02*
X15481015Y-11741484D01*
X15661968Y-11541484D02*
X15566729Y-11541484D01*
X15566729Y-11541484D02*
X15557206Y-11636722D01*
X15557206Y-11636722D02*
X15566729Y-11627198D01*
X15566729Y-11627198D02*
X15585777Y-11617674D01*
X15585777Y-11617674D02*
X15633396Y-11617674D01*
X15633396Y-11617674D02*
X15652444Y-11627198D01*
X15652444Y-11627198D02*
X15661968Y-11636722D01*
X15661968Y-11636722D02*
X15671491Y-11655769D01*
X15671491Y-11655769D02*
X15671491Y-11703388D01*
X15671491Y-11703388D02*
X15661968Y-11722436D01*
X15661968Y-11722436D02*
X15652444Y-11731960D01*
X15652444Y-11731960D02*
X15633396Y-11741484D01*
X15633396Y-11741484D02*
X15585777Y-11741484D01*
X15585777Y-11741484D02*
X15566729Y-11731960D01*
X15566729Y-11731960D02*
X15557206Y-11722436D01*
X15852444Y-11541484D02*
X15757206Y-11541484D01*
X15757206Y-11541484D02*
X15747682Y-11636722D01*
X15747682Y-11636722D02*
X15757206Y-11627198D01*
X15757206Y-11627198D02*
X15776253Y-11617674D01*
X15776253Y-11617674D02*
X15823872Y-11617674D01*
X15823872Y-11617674D02*
X15842920Y-11627198D01*
X15842920Y-11627198D02*
X15852444Y-11636722D01*
X15852444Y-11636722D02*
X15861968Y-11655769D01*
X15861968Y-11655769D02*
X15861968Y-11703388D01*
X15861968Y-11703388D02*
X15852444Y-11722436D01*
X15852444Y-11722436D02*
X15842920Y-11731960D01*
X15842920Y-11731960D02*
X15823872Y-11741484D01*
X15823872Y-11741484D02*
X15776253Y-11741484D01*
X15776253Y-11741484D02*
X15757206Y-11731960D01*
X15757206Y-11731960D02*
X15747682Y-11722436D01*
X16100063Y-11741484D02*
X16100063Y-11541484D01*
X16185777Y-11741484D02*
X16185777Y-11636722D01*
X16185777Y-11636722D02*
X16176253Y-11617674D01*
X16176253Y-11617674D02*
X16157206Y-11608150D01*
X16157206Y-11608150D02*
X16128634Y-11608150D01*
X16128634Y-11608150D02*
X16109587Y-11617674D01*
X16109587Y-11617674D02*
X16100063Y-11627198D01*
X16309587Y-11741484D02*
X16290539Y-11731960D01*
X16290539Y-11731960D02*
X16281015Y-11722436D01*
X16281015Y-11722436D02*
X16271491Y-11703388D01*
X16271491Y-11703388D02*
X16271491Y-11646246D01*
X16271491Y-11646246D02*
X16281015Y-11627198D01*
X16281015Y-11627198D02*
X16290539Y-11617674D01*
X16290539Y-11617674D02*
X16309587Y-11608150D01*
X16309587Y-11608150D02*
X16338158Y-11608150D01*
X16338158Y-11608150D02*
X16357206Y-11617674D01*
X16357206Y-11617674D02*
X16366730Y-11627198D01*
X16366730Y-11627198D02*
X16376253Y-11646246D01*
X16376253Y-11646246D02*
X16376253Y-11703388D01*
X16376253Y-11703388D02*
X16366730Y-11722436D01*
X16366730Y-11722436D02*
X16357206Y-11731960D01*
X16357206Y-11731960D02*
X16338158Y-11741484D01*
X16338158Y-11741484D02*
X16309587Y-11741484D01*
X16490539Y-11741484D02*
X16471491Y-11731960D01*
X16471491Y-11731960D02*
X16461968Y-11712912D01*
X16461968Y-11712912D02*
X16461968Y-11541484D01*
X16642920Y-11731960D02*
X16623872Y-11741484D01*
X16623872Y-11741484D02*
X16585777Y-11741484D01*
X16585777Y-11741484D02*
X16566730Y-11731960D01*
X16566730Y-11731960D02*
X16557206Y-11712912D01*
X16557206Y-11712912D02*
X16557206Y-11636722D01*
X16557206Y-11636722D02*
X16566730Y-11617674D01*
X16566730Y-11617674D02*
X16585777Y-11608150D01*
X16585777Y-11608150D02*
X16623872Y-11608150D01*
X16623872Y-11608150D02*
X16642920Y-11617674D01*
X16642920Y-11617674D02*
X16652444Y-11636722D01*
X16652444Y-11636722D02*
X16652444Y-11655769D01*
X16652444Y-11655769D02*
X16557206Y-11674817D01*
X16728634Y-11731960D02*
X16747682Y-11741484D01*
X16747682Y-11741484D02*
X16785777Y-11741484D01*
X16785777Y-11741484D02*
X16804825Y-11731960D01*
X16804825Y-11731960D02*
X16814349Y-11712912D01*
X16814349Y-11712912D02*
X16814349Y-11703388D01*
X16814349Y-11703388D02*
X16804825Y-11684341D01*
X16804825Y-11684341D02*
X16785777Y-11674817D01*
X16785777Y-11674817D02*
X16757206Y-11674817D01*
X16757206Y-11674817D02*
X16738158Y-11665293D01*
X16738158Y-11665293D02*
X16728634Y-11646246D01*
X16728634Y-11646246D02*
X16728634Y-11636722D01*
X16728634Y-11636722D02*
X16738158Y-11617674D01*
X16738158Y-11617674D02*
X16757206Y-11608150D01*
X16757206Y-11608150D02*
X16785777Y-11608150D01*
X16785777Y-11608150D02*
X16804825Y-11617674D01*
X16881015Y-11817674D02*
X16890539Y-11808150D01*
X16890539Y-11808150D02*
X16909587Y-11779579D01*
X16909587Y-11779579D02*
X16919111Y-11760531D01*
X16919111Y-11760531D02*
X16928634Y-11731960D01*
X16928634Y-11731960D02*
X16938158Y-11684341D01*
X16938158Y-11684341D02*
X16938158Y-11646246D01*
X16938158Y-11646246D02*
X16928634Y-11598627D01*
X16928634Y-11598627D02*
X16919111Y-11570055D01*
X16919111Y-11570055D02*
X16909587Y-11551008D01*
X16909587Y-11551008D02*
X16890539Y-11522436D01*
X16890539Y-11522436D02*
X16881015Y-11512912D01*
D10*
X11725000Y-11914000D02*
G75*
G02*
X11675000Y-11914000I-25000J0D01*
G01*
X11675000Y-11914000D02*
G75*
G02*
X11725000Y-11914000I25000J0D01*
G01*
D11*
X12023872Y-11805484D02*
X12042920Y-11805484D01*
X12042920Y-11805484D02*
X12061967Y-11815008D01*
X12061967Y-11815008D02*
X12071491Y-11824531D01*
X12071491Y-11824531D02*
X12081015Y-11843579D01*
X12081015Y-11843579D02*
X12090539Y-11881674D01*
X12090539Y-11881674D02*
X12090539Y-11929293D01*
X12090539Y-11929293D02*
X12081015Y-11967388D01*
X12081015Y-11967388D02*
X12071491Y-11986436D01*
X12071491Y-11986436D02*
X12061967Y-11995960D01*
X12061967Y-11995960D02*
X12042920Y-12005484D01*
X12042920Y-12005484D02*
X12023872Y-12005484D01*
X12023872Y-12005484D02*
X12004824Y-11995960D01*
X12004824Y-11995960D02*
X11995301Y-11986436D01*
X11995301Y-11986436D02*
X11985777Y-11967388D01*
X11985777Y-11967388D02*
X11976253Y-11929293D01*
X11976253Y-11929293D02*
X11976253Y-11881674D01*
X11976253Y-11881674D02*
X11985777Y-11843579D01*
X11985777Y-11843579D02*
X11995301Y-11824531D01*
X11995301Y-11824531D02*
X12004824Y-11815008D01*
X12004824Y-11815008D02*
X12023872Y-11805484D01*
X12176253Y-11986436D02*
X12185777Y-11995960D01*
X12185777Y-11995960D02*
X12176253Y-12005484D01*
X12176253Y-12005484D02*
X12166729Y-11995960D01*
X12166729Y-11995960D02*
X12176253Y-11986436D01*
X12176253Y-11986436D02*
X12176253Y-12005484D01*
X12366729Y-11805484D02*
X12271491Y-11805484D01*
X12271491Y-11805484D02*
X12261967Y-11900722D01*
X12261967Y-11900722D02*
X12271491Y-11891198D01*
X12271491Y-11891198D02*
X12290539Y-11881674D01*
X12290539Y-11881674D02*
X12338158Y-11881674D01*
X12338158Y-11881674D02*
X12357205Y-11891198D01*
X12357205Y-11891198D02*
X12366729Y-11900722D01*
X12366729Y-11900722D02*
X12376253Y-11919769D01*
X12376253Y-11919769D02*
X12376253Y-11967388D01*
X12376253Y-11967388D02*
X12366729Y-11986436D01*
X12366729Y-11986436D02*
X12357205Y-11995960D01*
X12357205Y-11995960D02*
X12338158Y-12005484D01*
X12338158Y-12005484D02*
X12290539Y-12005484D01*
X12290539Y-12005484D02*
X12271491Y-11995960D01*
X12271491Y-11995960D02*
X12261967Y-11986436D01*
X12500062Y-11805484D02*
X12519110Y-11805484D01*
X12519110Y-11805484D02*
X12538158Y-11815008D01*
X12538158Y-11815008D02*
X12547682Y-11824531D01*
X12547682Y-11824531D02*
X12557205Y-11843579D01*
X12557205Y-11843579D02*
X12566729Y-11881674D01*
X12566729Y-11881674D02*
X12566729Y-11929293D01*
X12566729Y-11929293D02*
X12557205Y-11967388D01*
X12557205Y-11967388D02*
X12547682Y-11986436D01*
X12547682Y-11986436D02*
X12538158Y-11995960D01*
X12538158Y-11995960D02*
X12519110Y-12005484D01*
X12519110Y-12005484D02*
X12500062Y-12005484D01*
X12500062Y-12005484D02*
X12481015Y-11995960D01*
X12481015Y-11995960D02*
X12471491Y-11986436D01*
X12471491Y-11986436D02*
X12461967Y-11967388D01*
X12461967Y-11967388D02*
X12452443Y-11929293D01*
X12452443Y-11929293D02*
X12452443Y-11881674D01*
X12452443Y-11881674D02*
X12461967Y-11843579D01*
X12461967Y-11843579D02*
X12471491Y-11824531D01*
X12471491Y-11824531D02*
X12481015Y-11815008D01*
X12481015Y-11815008D02*
X12500062Y-11805484D01*
X12690539Y-11805484D02*
X12709586Y-11805484D01*
X12709586Y-11805484D02*
X12728634Y-11815008D01*
X12728634Y-11815008D02*
X12738158Y-11824531D01*
X12738158Y-11824531D02*
X12747682Y-11843579D01*
X12747682Y-11843579D02*
X12757205Y-11881674D01*
X12757205Y-11881674D02*
X12757205Y-11929293D01*
X12757205Y-11929293D02*
X12747682Y-11967388D01*
X12747682Y-11967388D02*
X12738158Y-11986436D01*
X12738158Y-11986436D02*
X12728634Y-11995960D01*
X12728634Y-11995960D02*
X12709586Y-12005484D01*
X12709586Y-12005484D02*
X12690539Y-12005484D01*
X12690539Y-12005484D02*
X12671491Y-11995960D01*
X12671491Y-11995960D02*
X12661967Y-11986436D01*
X12661967Y-11986436D02*
X12652443Y-11967388D01*
X12652443Y-11967388D02*
X12642920Y-11929293D01*
X12642920Y-11929293D02*
X12642920Y-11881674D01*
X12642920Y-11881674D02*
X12652443Y-11843579D01*
X12652443Y-11843579D02*
X12661967Y-11824531D01*
X12661967Y-11824531D02*
X12671491Y-11815008D01*
X12671491Y-11815008D02*
X12690539Y-11805484D01*
X12842920Y-12005484D02*
X12842920Y-11872150D01*
X12842920Y-11891198D02*
X12852443Y-11881674D01*
X12852443Y-11881674D02*
X12871491Y-11872150D01*
X12871491Y-11872150D02*
X12900063Y-11872150D01*
X12900063Y-11872150D02*
X12919110Y-11881674D01*
X12919110Y-11881674D02*
X12928634Y-11900722D01*
X12928634Y-11900722D02*
X12928634Y-12005484D01*
X12928634Y-11900722D02*
X12938158Y-11881674D01*
X12938158Y-11881674D02*
X12957205Y-11872150D01*
X12957205Y-11872150D02*
X12985777Y-11872150D01*
X12985777Y-11872150D02*
X13004824Y-11881674D01*
X13004824Y-11881674D02*
X13014348Y-11900722D01*
X13014348Y-11900722D02*
X13014348Y-12005484D01*
X13109586Y-12005484D02*
X13109586Y-11872150D01*
X13109586Y-11891198D02*
X13119110Y-11881674D01*
X13119110Y-11881674D02*
X13138158Y-11872150D01*
X13138158Y-11872150D02*
X13166729Y-11872150D01*
X13166729Y-11872150D02*
X13185777Y-11881674D01*
X13185777Y-11881674D02*
X13195301Y-11900722D01*
X13195301Y-11900722D02*
X13195301Y-12005484D01*
X13195301Y-11900722D02*
X13204824Y-11881674D01*
X13204824Y-11881674D02*
X13223872Y-11872150D01*
X13223872Y-11872150D02*
X13252443Y-11872150D01*
X13252443Y-11872150D02*
X13271491Y-11881674D01*
X13271491Y-11881674D02*
X13281015Y-11900722D01*
X13281015Y-11900722D02*
X13281015Y-12005484D01*
X13671491Y-11795960D02*
X13500063Y-12053103D01*
X13928634Y-11805484D02*
X13947682Y-11805484D01*
X13947682Y-11805484D02*
X13966729Y-11815008D01*
X13966729Y-11815008D02*
X13976253Y-11824531D01*
X13976253Y-11824531D02*
X13985777Y-11843579D01*
X13985777Y-11843579D02*
X13995301Y-11881674D01*
X13995301Y-11881674D02*
X13995301Y-11929293D01*
X13995301Y-11929293D02*
X13985777Y-11967388D01*
X13985777Y-11967388D02*
X13976253Y-11986436D01*
X13976253Y-11986436D02*
X13966729Y-11995960D01*
X13966729Y-11995960D02*
X13947682Y-12005484D01*
X13947682Y-12005484D02*
X13928634Y-12005484D01*
X13928634Y-12005484D02*
X13909586Y-11995960D01*
X13909586Y-11995960D02*
X13900063Y-11986436D01*
X13900063Y-11986436D02*
X13890539Y-11967388D01*
X13890539Y-11967388D02*
X13881015Y-11929293D01*
X13881015Y-11929293D02*
X13881015Y-11881674D01*
X13881015Y-11881674D02*
X13890539Y-11843579D01*
X13890539Y-11843579D02*
X13900063Y-11824531D01*
X13900063Y-11824531D02*
X13909586Y-11815008D01*
X13909586Y-11815008D02*
X13928634Y-11805484D01*
X14081015Y-11986436D02*
X14090539Y-11995960D01*
X14090539Y-11995960D02*
X14081015Y-12005484D01*
X14081015Y-12005484D02*
X14071491Y-11995960D01*
X14071491Y-11995960D02*
X14081015Y-11986436D01*
X14081015Y-11986436D02*
X14081015Y-12005484D01*
X14214348Y-11805484D02*
X14233396Y-11805484D01*
X14233396Y-11805484D02*
X14252444Y-11815008D01*
X14252444Y-11815008D02*
X14261967Y-11824531D01*
X14261967Y-11824531D02*
X14271491Y-11843579D01*
X14271491Y-11843579D02*
X14281015Y-11881674D01*
X14281015Y-11881674D02*
X14281015Y-11929293D01*
X14281015Y-11929293D02*
X14271491Y-11967388D01*
X14271491Y-11967388D02*
X14261967Y-11986436D01*
X14261967Y-11986436D02*
X14252444Y-11995960D01*
X14252444Y-11995960D02*
X14233396Y-12005484D01*
X14233396Y-12005484D02*
X14214348Y-12005484D01*
X14214348Y-12005484D02*
X14195301Y-11995960D01*
X14195301Y-11995960D02*
X14185777Y-11986436D01*
X14185777Y-11986436D02*
X14176253Y-11967388D01*
X14176253Y-11967388D02*
X14166729Y-11929293D01*
X14166729Y-11929293D02*
X14166729Y-11881674D01*
X14166729Y-11881674D02*
X14176253Y-11843579D01*
X14176253Y-11843579D02*
X14185777Y-11824531D01*
X14185777Y-11824531D02*
X14195301Y-11815008D01*
X14195301Y-11815008D02*
X14214348Y-11805484D01*
X14471491Y-12005484D02*
X14357206Y-12005484D01*
X14414348Y-12005484D02*
X14414348Y-11805484D01*
X14414348Y-11805484D02*
X14395301Y-11834055D01*
X14395301Y-11834055D02*
X14376253Y-11853103D01*
X14376253Y-11853103D02*
X14357206Y-11862627D01*
X14566729Y-12005484D02*
X14604825Y-12005484D01*
X14604825Y-12005484D02*
X14623872Y-11995960D01*
X14623872Y-11995960D02*
X14633396Y-11986436D01*
X14633396Y-11986436D02*
X14652444Y-11957865D01*
X14652444Y-11957865D02*
X14661967Y-11919769D01*
X14661967Y-11919769D02*
X14661967Y-11843579D01*
X14661967Y-11843579D02*
X14652444Y-11824531D01*
X14652444Y-11824531D02*
X14642920Y-11815008D01*
X14642920Y-11815008D02*
X14623872Y-11805484D01*
X14623872Y-11805484D02*
X14585777Y-11805484D01*
X14585777Y-11805484D02*
X14566729Y-11815008D01*
X14566729Y-11815008D02*
X14557206Y-11824531D01*
X14557206Y-11824531D02*
X14547682Y-11843579D01*
X14547682Y-11843579D02*
X14547682Y-11891198D01*
X14547682Y-11891198D02*
X14557206Y-11910246D01*
X14557206Y-11910246D02*
X14566729Y-11919769D01*
X14566729Y-11919769D02*
X14585777Y-11929293D01*
X14585777Y-11929293D02*
X14623872Y-11929293D01*
X14623872Y-11929293D02*
X14642920Y-11919769D01*
X14642920Y-11919769D02*
X14652444Y-11910246D01*
X14652444Y-11910246D02*
X14661967Y-11891198D01*
X14728634Y-11805484D02*
X14861967Y-11805484D01*
X14861967Y-11805484D02*
X14776253Y-12005484D01*
X14928634Y-11805484D02*
X14928634Y-11843579D01*
X15004825Y-11805484D02*
X15004825Y-11843579D01*
X15300063Y-12081674D02*
X15290539Y-12072150D01*
X15290539Y-12072150D02*
X15271491Y-12043579D01*
X15271491Y-12043579D02*
X15261968Y-12024531D01*
X15261968Y-12024531D02*
X15252444Y-11995960D01*
X15252444Y-11995960D02*
X15242920Y-11948341D01*
X15242920Y-11948341D02*
X15242920Y-11910246D01*
X15242920Y-11910246D02*
X15252444Y-11862627D01*
X15252444Y-11862627D02*
X15261968Y-11834055D01*
X15261968Y-11834055D02*
X15271491Y-11815008D01*
X15271491Y-11815008D02*
X15290539Y-11786436D01*
X15290539Y-11786436D02*
X15300063Y-11776912D01*
X15357206Y-11805484D02*
X15481015Y-11805484D01*
X15481015Y-11805484D02*
X15414348Y-11881674D01*
X15414348Y-11881674D02*
X15442920Y-11881674D01*
X15442920Y-11881674D02*
X15461968Y-11891198D01*
X15461968Y-11891198D02*
X15471491Y-11900722D01*
X15471491Y-11900722D02*
X15481015Y-11919769D01*
X15481015Y-11919769D02*
X15481015Y-11967388D01*
X15481015Y-11967388D02*
X15471491Y-11986436D01*
X15471491Y-11986436D02*
X15461968Y-11995960D01*
X15461968Y-11995960D02*
X15442920Y-12005484D01*
X15442920Y-12005484D02*
X15385777Y-12005484D01*
X15385777Y-12005484D02*
X15366729Y-11995960D01*
X15366729Y-11995960D02*
X15357206Y-11986436D01*
X15557206Y-11824531D02*
X15566729Y-11815008D01*
X15566729Y-11815008D02*
X15585777Y-11805484D01*
X15585777Y-11805484D02*
X15633396Y-11805484D01*
X15633396Y-11805484D02*
X15652444Y-11815008D01*
X15652444Y-11815008D02*
X15661968Y-11824531D01*
X15661968Y-11824531D02*
X15671491Y-11843579D01*
X15671491Y-11843579D02*
X15671491Y-11862627D01*
X15671491Y-11862627D02*
X15661968Y-11891198D01*
X15661968Y-11891198D02*
X15547682Y-12005484D01*
X15547682Y-12005484D02*
X15671491Y-12005484D01*
X15909587Y-12005484D02*
X15909587Y-11805484D01*
X15995301Y-12005484D02*
X15995301Y-11900722D01*
X15995301Y-11900722D02*
X15985777Y-11881674D01*
X15985777Y-11881674D02*
X15966730Y-11872150D01*
X15966730Y-11872150D02*
X15938158Y-11872150D01*
X15938158Y-11872150D02*
X15919110Y-11881674D01*
X15919110Y-11881674D02*
X15909587Y-11891198D01*
X16119110Y-12005484D02*
X16100063Y-11995960D01*
X16100063Y-11995960D02*
X16090539Y-11986436D01*
X16090539Y-11986436D02*
X16081015Y-11967388D01*
X16081015Y-11967388D02*
X16081015Y-11910246D01*
X16081015Y-11910246D02*
X16090539Y-11891198D01*
X16090539Y-11891198D02*
X16100063Y-11881674D01*
X16100063Y-11881674D02*
X16119110Y-11872150D01*
X16119110Y-11872150D02*
X16147682Y-11872150D01*
X16147682Y-11872150D02*
X16166730Y-11881674D01*
X16166730Y-11881674D02*
X16176253Y-11891198D01*
X16176253Y-11891198D02*
X16185777Y-11910246D01*
X16185777Y-11910246D02*
X16185777Y-11967388D01*
X16185777Y-11967388D02*
X16176253Y-11986436D01*
X16176253Y-11986436D02*
X16166730Y-11995960D01*
X16166730Y-11995960D02*
X16147682Y-12005484D01*
X16147682Y-12005484D02*
X16119110Y-12005484D01*
X16300063Y-12005484D02*
X16281015Y-11995960D01*
X16281015Y-11995960D02*
X16271491Y-11976912D01*
X16271491Y-11976912D02*
X16271491Y-11805484D01*
X16452444Y-11995960D02*
X16433396Y-12005484D01*
X16433396Y-12005484D02*
X16395301Y-12005484D01*
X16395301Y-12005484D02*
X16376253Y-11995960D01*
X16376253Y-11995960D02*
X16366730Y-11976912D01*
X16366730Y-11976912D02*
X16366730Y-11900722D01*
X16366730Y-11900722D02*
X16376253Y-11881674D01*
X16376253Y-11881674D02*
X16395301Y-11872150D01*
X16395301Y-11872150D02*
X16433396Y-11872150D01*
X16433396Y-11872150D02*
X16452444Y-11881674D01*
X16452444Y-11881674D02*
X16461968Y-11900722D01*
X16461968Y-11900722D02*
X16461968Y-11919769D01*
X16461968Y-11919769D02*
X16366730Y-11938817D01*
X16538158Y-11995960D02*
X16557206Y-12005484D01*
X16557206Y-12005484D02*
X16595301Y-12005484D01*
X16595301Y-12005484D02*
X16614349Y-11995960D01*
X16614349Y-11995960D02*
X16623872Y-11976912D01*
X16623872Y-11976912D02*
X16623872Y-11967388D01*
X16623872Y-11967388D02*
X16614349Y-11948341D01*
X16614349Y-11948341D02*
X16595301Y-11938817D01*
X16595301Y-11938817D02*
X16566730Y-11938817D01*
X16566730Y-11938817D02*
X16547682Y-11929293D01*
X16547682Y-11929293D02*
X16538158Y-11910246D01*
X16538158Y-11910246D02*
X16538158Y-11900722D01*
X16538158Y-11900722D02*
X16547682Y-11881674D01*
X16547682Y-11881674D02*
X16566730Y-11872150D01*
X16566730Y-11872150D02*
X16595301Y-11872150D01*
X16595301Y-11872150D02*
X16614349Y-11881674D01*
X16690539Y-12081674D02*
X16700063Y-12072150D01*
X16700063Y-12072150D02*
X16719111Y-12043579D01*
X16719111Y-12043579D02*
X16728634Y-12024531D01*
X16728634Y-12024531D02*
X16738158Y-11995960D01*
X16738158Y-11995960D02*
X16747682Y-11948341D01*
X16747682Y-11948341D02*
X16747682Y-11910246D01*
X16747682Y-11910246D02*
X16738158Y-11862627D01*
X16738158Y-11862627D02*
X16728634Y-11834055D01*
X16728634Y-11834055D02*
X16719111Y-11815008D01*
X16719111Y-11815008D02*
X16700063Y-11786436D01*
X16700063Y-11786436D02*
X16690539Y-11776912D01*
D10*
X11695000Y-12148000D02*
X11695000Y-12208000D01*
X11665000Y-12178000D02*
X11725000Y-12178000D01*
D11*
X12023872Y-12069484D02*
X12042920Y-12069484D01*
X12042920Y-12069484D02*
X12061967Y-12079008D01*
X12061967Y-12079008D02*
X12071491Y-12088531D01*
X12071491Y-12088531D02*
X12081015Y-12107579D01*
X12081015Y-12107579D02*
X12090539Y-12145674D01*
X12090539Y-12145674D02*
X12090539Y-12193293D01*
X12090539Y-12193293D02*
X12081015Y-12231388D01*
X12081015Y-12231388D02*
X12071491Y-12250436D01*
X12071491Y-12250436D02*
X12061967Y-12259960D01*
X12061967Y-12259960D02*
X12042920Y-12269484D01*
X12042920Y-12269484D02*
X12023872Y-12269484D01*
X12023872Y-12269484D02*
X12004824Y-12259960D01*
X12004824Y-12259960D02*
X11995301Y-12250436D01*
X11995301Y-12250436D02*
X11985777Y-12231388D01*
X11985777Y-12231388D02*
X11976253Y-12193293D01*
X11976253Y-12193293D02*
X11976253Y-12145674D01*
X11976253Y-12145674D02*
X11985777Y-12107579D01*
X11985777Y-12107579D02*
X11995301Y-12088531D01*
X11995301Y-12088531D02*
X12004824Y-12079008D01*
X12004824Y-12079008D02*
X12023872Y-12069484D01*
X12176253Y-12250436D02*
X12185777Y-12259960D01*
X12185777Y-12259960D02*
X12176253Y-12269484D01*
X12176253Y-12269484D02*
X12166729Y-12259960D01*
X12166729Y-12259960D02*
X12176253Y-12250436D01*
X12176253Y-12250436D02*
X12176253Y-12269484D01*
X12357205Y-12069484D02*
X12319110Y-12069484D01*
X12319110Y-12069484D02*
X12300062Y-12079008D01*
X12300062Y-12079008D02*
X12290539Y-12088531D01*
X12290539Y-12088531D02*
X12271491Y-12117103D01*
X12271491Y-12117103D02*
X12261967Y-12155198D01*
X12261967Y-12155198D02*
X12261967Y-12231388D01*
X12261967Y-12231388D02*
X12271491Y-12250436D01*
X12271491Y-12250436D02*
X12281015Y-12259960D01*
X12281015Y-12259960D02*
X12300062Y-12269484D01*
X12300062Y-12269484D02*
X12338158Y-12269484D01*
X12338158Y-12269484D02*
X12357205Y-12259960D01*
X12357205Y-12259960D02*
X12366729Y-12250436D01*
X12366729Y-12250436D02*
X12376253Y-12231388D01*
X12376253Y-12231388D02*
X12376253Y-12183769D01*
X12376253Y-12183769D02*
X12366729Y-12164722D01*
X12366729Y-12164722D02*
X12357205Y-12155198D01*
X12357205Y-12155198D02*
X12338158Y-12145674D01*
X12338158Y-12145674D02*
X12300062Y-12145674D01*
X12300062Y-12145674D02*
X12281015Y-12155198D01*
X12281015Y-12155198D02*
X12271491Y-12164722D01*
X12271491Y-12164722D02*
X12261967Y-12183769D01*
X12500062Y-12069484D02*
X12519110Y-12069484D01*
X12519110Y-12069484D02*
X12538158Y-12079008D01*
X12538158Y-12079008D02*
X12547682Y-12088531D01*
X12547682Y-12088531D02*
X12557205Y-12107579D01*
X12557205Y-12107579D02*
X12566729Y-12145674D01*
X12566729Y-12145674D02*
X12566729Y-12193293D01*
X12566729Y-12193293D02*
X12557205Y-12231388D01*
X12557205Y-12231388D02*
X12547682Y-12250436D01*
X12547682Y-12250436D02*
X12538158Y-12259960D01*
X12538158Y-12259960D02*
X12519110Y-12269484D01*
X12519110Y-12269484D02*
X12500062Y-12269484D01*
X12500062Y-12269484D02*
X12481015Y-12259960D01*
X12481015Y-12259960D02*
X12471491Y-12250436D01*
X12471491Y-12250436D02*
X12461967Y-12231388D01*
X12461967Y-12231388D02*
X12452443Y-12193293D01*
X12452443Y-12193293D02*
X12452443Y-12145674D01*
X12452443Y-12145674D02*
X12461967Y-12107579D01*
X12461967Y-12107579D02*
X12471491Y-12088531D01*
X12471491Y-12088531D02*
X12481015Y-12079008D01*
X12481015Y-12079008D02*
X12500062Y-12069484D01*
X12690539Y-12069484D02*
X12709586Y-12069484D01*
X12709586Y-12069484D02*
X12728634Y-12079008D01*
X12728634Y-12079008D02*
X12738158Y-12088531D01*
X12738158Y-12088531D02*
X12747682Y-12107579D01*
X12747682Y-12107579D02*
X12757205Y-12145674D01*
X12757205Y-12145674D02*
X12757205Y-12193293D01*
X12757205Y-12193293D02*
X12747682Y-12231388D01*
X12747682Y-12231388D02*
X12738158Y-12250436D01*
X12738158Y-12250436D02*
X12728634Y-12259960D01*
X12728634Y-12259960D02*
X12709586Y-12269484D01*
X12709586Y-12269484D02*
X12690539Y-12269484D01*
X12690539Y-12269484D02*
X12671491Y-12259960D01*
X12671491Y-12259960D02*
X12661967Y-12250436D01*
X12661967Y-12250436D02*
X12652443Y-12231388D01*
X12652443Y-12231388D02*
X12642920Y-12193293D01*
X12642920Y-12193293D02*
X12642920Y-12145674D01*
X12642920Y-12145674D02*
X12652443Y-12107579D01*
X12652443Y-12107579D02*
X12661967Y-12088531D01*
X12661967Y-12088531D02*
X12671491Y-12079008D01*
X12671491Y-12079008D02*
X12690539Y-12069484D01*
X12842920Y-12269484D02*
X12842920Y-12136150D01*
X12842920Y-12155198D02*
X12852443Y-12145674D01*
X12852443Y-12145674D02*
X12871491Y-12136150D01*
X12871491Y-12136150D02*
X12900063Y-12136150D01*
X12900063Y-12136150D02*
X12919110Y-12145674D01*
X12919110Y-12145674D02*
X12928634Y-12164722D01*
X12928634Y-12164722D02*
X12928634Y-12269484D01*
X12928634Y-12164722D02*
X12938158Y-12145674D01*
X12938158Y-12145674D02*
X12957205Y-12136150D01*
X12957205Y-12136150D02*
X12985777Y-12136150D01*
X12985777Y-12136150D02*
X13004824Y-12145674D01*
X13004824Y-12145674D02*
X13014348Y-12164722D01*
X13014348Y-12164722D02*
X13014348Y-12269484D01*
X13109586Y-12269484D02*
X13109586Y-12136150D01*
X13109586Y-12155198D02*
X13119110Y-12145674D01*
X13119110Y-12145674D02*
X13138158Y-12136150D01*
X13138158Y-12136150D02*
X13166729Y-12136150D01*
X13166729Y-12136150D02*
X13185777Y-12145674D01*
X13185777Y-12145674D02*
X13195301Y-12164722D01*
X13195301Y-12164722D02*
X13195301Y-12269484D01*
X13195301Y-12164722D02*
X13204824Y-12145674D01*
X13204824Y-12145674D02*
X13223872Y-12136150D01*
X13223872Y-12136150D02*
X13252443Y-12136150D01*
X13252443Y-12136150D02*
X13271491Y-12145674D01*
X13271491Y-12145674D02*
X13281015Y-12164722D01*
X13281015Y-12164722D02*
X13281015Y-12269484D01*
X13671491Y-12059960D02*
X13500063Y-12317103D01*
X13928634Y-12069484D02*
X13947682Y-12069484D01*
X13947682Y-12069484D02*
X13966729Y-12079008D01*
X13966729Y-12079008D02*
X13976253Y-12088531D01*
X13976253Y-12088531D02*
X13985777Y-12107579D01*
X13985777Y-12107579D02*
X13995301Y-12145674D01*
X13995301Y-12145674D02*
X13995301Y-12193293D01*
X13995301Y-12193293D02*
X13985777Y-12231388D01*
X13985777Y-12231388D02*
X13976253Y-12250436D01*
X13976253Y-12250436D02*
X13966729Y-12259960D01*
X13966729Y-12259960D02*
X13947682Y-12269484D01*
X13947682Y-12269484D02*
X13928634Y-12269484D01*
X13928634Y-12269484D02*
X13909586Y-12259960D01*
X13909586Y-12259960D02*
X13900063Y-12250436D01*
X13900063Y-12250436D02*
X13890539Y-12231388D01*
X13890539Y-12231388D02*
X13881015Y-12193293D01*
X13881015Y-12193293D02*
X13881015Y-12145674D01*
X13881015Y-12145674D02*
X13890539Y-12107579D01*
X13890539Y-12107579D02*
X13900063Y-12088531D01*
X13900063Y-12088531D02*
X13909586Y-12079008D01*
X13909586Y-12079008D02*
X13928634Y-12069484D01*
X14081015Y-12250436D02*
X14090539Y-12259960D01*
X14090539Y-12259960D02*
X14081015Y-12269484D01*
X14081015Y-12269484D02*
X14071491Y-12259960D01*
X14071491Y-12259960D02*
X14081015Y-12250436D01*
X14081015Y-12250436D02*
X14081015Y-12269484D01*
X14214348Y-12069484D02*
X14233396Y-12069484D01*
X14233396Y-12069484D02*
X14252444Y-12079008D01*
X14252444Y-12079008D02*
X14261967Y-12088531D01*
X14261967Y-12088531D02*
X14271491Y-12107579D01*
X14271491Y-12107579D02*
X14281015Y-12145674D01*
X14281015Y-12145674D02*
X14281015Y-12193293D01*
X14281015Y-12193293D02*
X14271491Y-12231388D01*
X14271491Y-12231388D02*
X14261967Y-12250436D01*
X14261967Y-12250436D02*
X14252444Y-12259960D01*
X14252444Y-12259960D02*
X14233396Y-12269484D01*
X14233396Y-12269484D02*
X14214348Y-12269484D01*
X14214348Y-12269484D02*
X14195301Y-12259960D01*
X14195301Y-12259960D02*
X14185777Y-12250436D01*
X14185777Y-12250436D02*
X14176253Y-12231388D01*
X14176253Y-12231388D02*
X14166729Y-12193293D01*
X14166729Y-12193293D02*
X14166729Y-12145674D01*
X14166729Y-12145674D02*
X14176253Y-12107579D01*
X14176253Y-12107579D02*
X14185777Y-12088531D01*
X14185777Y-12088531D02*
X14195301Y-12079008D01*
X14195301Y-12079008D02*
X14214348Y-12069484D01*
X14357206Y-12088531D02*
X14366729Y-12079008D01*
X14366729Y-12079008D02*
X14385777Y-12069484D01*
X14385777Y-12069484D02*
X14433396Y-12069484D01*
X14433396Y-12069484D02*
X14452444Y-12079008D01*
X14452444Y-12079008D02*
X14461967Y-12088531D01*
X14461967Y-12088531D02*
X14471491Y-12107579D01*
X14471491Y-12107579D02*
X14471491Y-12126627D01*
X14471491Y-12126627D02*
X14461967Y-12155198D01*
X14461967Y-12155198D02*
X14347682Y-12269484D01*
X14347682Y-12269484D02*
X14471491Y-12269484D01*
X14538158Y-12069484D02*
X14661967Y-12069484D01*
X14661967Y-12069484D02*
X14595301Y-12145674D01*
X14595301Y-12145674D02*
X14623872Y-12145674D01*
X14623872Y-12145674D02*
X14642920Y-12155198D01*
X14642920Y-12155198D02*
X14652444Y-12164722D01*
X14652444Y-12164722D02*
X14661967Y-12183769D01*
X14661967Y-12183769D02*
X14661967Y-12231388D01*
X14661967Y-12231388D02*
X14652444Y-12250436D01*
X14652444Y-12250436D02*
X14642920Y-12259960D01*
X14642920Y-12259960D02*
X14623872Y-12269484D01*
X14623872Y-12269484D02*
X14566729Y-12269484D01*
X14566729Y-12269484D02*
X14547682Y-12259960D01*
X14547682Y-12259960D02*
X14538158Y-12250436D01*
X14833396Y-12069484D02*
X14795301Y-12069484D01*
X14795301Y-12069484D02*
X14776253Y-12079008D01*
X14776253Y-12079008D02*
X14766729Y-12088531D01*
X14766729Y-12088531D02*
X14747682Y-12117103D01*
X14747682Y-12117103D02*
X14738158Y-12155198D01*
X14738158Y-12155198D02*
X14738158Y-12231388D01*
X14738158Y-12231388D02*
X14747682Y-12250436D01*
X14747682Y-12250436D02*
X14757206Y-12259960D01*
X14757206Y-12259960D02*
X14776253Y-12269484D01*
X14776253Y-12269484D02*
X14814348Y-12269484D01*
X14814348Y-12269484D02*
X14833396Y-12259960D01*
X14833396Y-12259960D02*
X14842920Y-12250436D01*
X14842920Y-12250436D02*
X14852444Y-12231388D01*
X14852444Y-12231388D02*
X14852444Y-12183769D01*
X14852444Y-12183769D02*
X14842920Y-12164722D01*
X14842920Y-12164722D02*
X14833396Y-12155198D01*
X14833396Y-12155198D02*
X14814348Y-12145674D01*
X14814348Y-12145674D02*
X14776253Y-12145674D01*
X14776253Y-12145674D02*
X14757206Y-12155198D01*
X14757206Y-12155198D02*
X14747682Y-12164722D01*
X14747682Y-12164722D02*
X14738158Y-12183769D01*
X14928634Y-12069484D02*
X14928634Y-12107579D01*
X15004825Y-12069484D02*
X15004825Y-12107579D01*
X15300063Y-12345674D02*
X15290539Y-12336150D01*
X15290539Y-12336150D02*
X15271491Y-12307579D01*
X15271491Y-12307579D02*
X15261968Y-12288531D01*
X15261968Y-12288531D02*
X15252444Y-12259960D01*
X15252444Y-12259960D02*
X15242920Y-12212341D01*
X15242920Y-12212341D02*
X15242920Y-12174246D01*
X15242920Y-12174246D02*
X15252444Y-12126627D01*
X15252444Y-12126627D02*
X15261968Y-12098055D01*
X15261968Y-12098055D02*
X15271491Y-12079008D01*
X15271491Y-12079008D02*
X15290539Y-12050436D01*
X15290539Y-12050436D02*
X15300063Y-12040912D01*
X15414348Y-12069484D02*
X15433396Y-12069484D01*
X15433396Y-12069484D02*
X15452444Y-12079008D01*
X15452444Y-12079008D02*
X15461968Y-12088531D01*
X15461968Y-12088531D02*
X15471491Y-12107579D01*
X15471491Y-12107579D02*
X15481015Y-12145674D01*
X15481015Y-12145674D02*
X15481015Y-12193293D01*
X15481015Y-12193293D02*
X15471491Y-12231388D01*
X15471491Y-12231388D02*
X15461968Y-12250436D01*
X15461968Y-12250436D02*
X15452444Y-12259960D01*
X15452444Y-12259960D02*
X15433396Y-12269484D01*
X15433396Y-12269484D02*
X15414348Y-12269484D01*
X15414348Y-12269484D02*
X15395301Y-12259960D01*
X15395301Y-12259960D02*
X15385777Y-12250436D01*
X15385777Y-12250436D02*
X15376253Y-12231388D01*
X15376253Y-12231388D02*
X15366729Y-12193293D01*
X15366729Y-12193293D02*
X15366729Y-12145674D01*
X15366729Y-12145674D02*
X15376253Y-12107579D01*
X15376253Y-12107579D02*
X15385777Y-12088531D01*
X15385777Y-12088531D02*
X15395301Y-12079008D01*
X15395301Y-12079008D02*
X15414348Y-12069484D01*
X15719110Y-12269484D02*
X15719110Y-12069484D01*
X15804825Y-12269484D02*
X15804825Y-12164722D01*
X15804825Y-12164722D02*
X15795301Y-12145674D01*
X15795301Y-12145674D02*
X15776253Y-12136150D01*
X15776253Y-12136150D02*
X15747682Y-12136150D01*
X15747682Y-12136150D02*
X15728634Y-12145674D01*
X15728634Y-12145674D02*
X15719110Y-12155198D01*
X15928634Y-12269484D02*
X15909587Y-12259960D01*
X15909587Y-12259960D02*
X15900063Y-12250436D01*
X15900063Y-12250436D02*
X15890539Y-12231388D01*
X15890539Y-12231388D02*
X15890539Y-12174246D01*
X15890539Y-12174246D02*
X15900063Y-12155198D01*
X15900063Y-12155198D02*
X15909587Y-12145674D01*
X15909587Y-12145674D02*
X15928634Y-12136150D01*
X15928634Y-12136150D02*
X15957206Y-12136150D01*
X15957206Y-12136150D02*
X15976253Y-12145674D01*
X15976253Y-12145674D02*
X15985777Y-12155198D01*
X15985777Y-12155198D02*
X15995301Y-12174246D01*
X15995301Y-12174246D02*
X15995301Y-12231388D01*
X15995301Y-12231388D02*
X15985777Y-12250436D01*
X15985777Y-12250436D02*
X15976253Y-12259960D01*
X15976253Y-12259960D02*
X15957206Y-12269484D01*
X15957206Y-12269484D02*
X15928634Y-12269484D01*
X16109587Y-12269484D02*
X16090539Y-12259960D01*
X16090539Y-12259960D02*
X16081015Y-12240912D01*
X16081015Y-12240912D02*
X16081015Y-12069484D01*
X16261968Y-12259960D02*
X16242920Y-12269484D01*
X16242920Y-12269484D02*
X16204825Y-12269484D01*
X16204825Y-12269484D02*
X16185777Y-12259960D01*
X16185777Y-12259960D02*
X16176253Y-12240912D01*
X16176253Y-12240912D02*
X16176253Y-12164722D01*
X16176253Y-12164722D02*
X16185777Y-12145674D01*
X16185777Y-12145674D02*
X16204825Y-12136150D01*
X16204825Y-12136150D02*
X16242920Y-12136150D01*
X16242920Y-12136150D02*
X16261968Y-12145674D01*
X16261968Y-12145674D02*
X16271491Y-12164722D01*
X16271491Y-12164722D02*
X16271491Y-12183769D01*
X16271491Y-12183769D02*
X16176253Y-12202817D01*
X16347682Y-12259960D02*
X16366730Y-12269484D01*
X16366730Y-12269484D02*
X16404825Y-12269484D01*
X16404825Y-12269484D02*
X16423872Y-12259960D01*
X16423872Y-12259960D02*
X16433396Y-12240912D01*
X16433396Y-12240912D02*
X16433396Y-12231388D01*
X16433396Y-12231388D02*
X16423872Y-12212341D01*
X16423872Y-12212341D02*
X16404825Y-12202817D01*
X16404825Y-12202817D02*
X16376253Y-12202817D01*
X16376253Y-12202817D02*
X16357206Y-12193293D01*
X16357206Y-12193293D02*
X16347682Y-12174246D01*
X16347682Y-12174246D02*
X16347682Y-12164722D01*
X16347682Y-12164722D02*
X16357206Y-12145674D01*
X16357206Y-12145674D02*
X16376253Y-12136150D01*
X16376253Y-12136150D02*
X16404825Y-12136150D01*
X16404825Y-12136150D02*
X16423872Y-12145674D01*
X16671492Y-12193293D02*
X16823873Y-12193293D01*
X16747682Y-12269484D02*
X16747682Y-12117103D01*
X17157206Y-12136150D02*
X17157206Y-12269484D01*
X17109587Y-12059960D02*
X17061968Y-12202817D01*
X17061968Y-12202817D02*
X17185777Y-12202817D01*
X17404825Y-12259960D02*
X17423873Y-12269484D01*
X17423873Y-12269484D02*
X17461968Y-12269484D01*
X17461968Y-12269484D02*
X17481016Y-12259960D01*
X17481016Y-12259960D02*
X17490539Y-12240912D01*
X17490539Y-12240912D02*
X17490539Y-12231388D01*
X17490539Y-12231388D02*
X17481016Y-12212341D01*
X17481016Y-12212341D02*
X17461968Y-12202817D01*
X17461968Y-12202817D02*
X17433396Y-12202817D01*
X17433396Y-12202817D02*
X17414349Y-12193293D01*
X17414349Y-12193293D02*
X17404825Y-12174246D01*
X17404825Y-12174246D02*
X17404825Y-12164722D01*
X17404825Y-12164722D02*
X17414349Y-12145674D01*
X17414349Y-12145674D02*
X17433396Y-12136150D01*
X17433396Y-12136150D02*
X17461968Y-12136150D01*
X17461968Y-12136150D02*
X17481016Y-12145674D01*
X17604825Y-12269484D02*
X17585777Y-12259960D01*
X17585777Y-12259960D02*
X17576254Y-12240912D01*
X17576254Y-12240912D02*
X17576254Y-12069484D01*
X17709587Y-12269484D02*
X17690539Y-12259960D01*
X17690539Y-12259960D02*
X17681016Y-12250436D01*
X17681016Y-12250436D02*
X17671492Y-12231388D01*
X17671492Y-12231388D02*
X17671492Y-12174246D01*
X17671492Y-12174246D02*
X17681016Y-12155198D01*
X17681016Y-12155198D02*
X17690539Y-12145674D01*
X17690539Y-12145674D02*
X17709587Y-12136150D01*
X17709587Y-12136150D02*
X17738158Y-12136150D01*
X17738158Y-12136150D02*
X17757206Y-12145674D01*
X17757206Y-12145674D02*
X17766730Y-12155198D01*
X17766730Y-12155198D02*
X17776254Y-12174246D01*
X17776254Y-12174246D02*
X17776254Y-12231388D01*
X17776254Y-12231388D02*
X17766730Y-12250436D01*
X17766730Y-12250436D02*
X17757206Y-12259960D01*
X17757206Y-12259960D02*
X17738158Y-12269484D01*
X17738158Y-12269484D02*
X17709587Y-12269484D01*
X17833397Y-12136150D02*
X17909587Y-12136150D01*
X17861968Y-12069484D02*
X17861968Y-12240912D01*
X17861968Y-12240912D02*
X17871492Y-12259960D01*
X17871492Y-12259960D02*
X17890539Y-12269484D01*
X17890539Y-12269484D02*
X17909587Y-12269484D01*
X17966730Y-12259960D02*
X17985777Y-12269484D01*
X17985777Y-12269484D02*
X18023873Y-12269484D01*
X18023873Y-12269484D02*
X18042920Y-12259960D01*
X18042920Y-12259960D02*
X18052444Y-12240912D01*
X18052444Y-12240912D02*
X18052444Y-12231388D01*
X18052444Y-12231388D02*
X18042920Y-12212341D01*
X18042920Y-12212341D02*
X18023873Y-12202817D01*
X18023873Y-12202817D02*
X17995301Y-12202817D01*
X17995301Y-12202817D02*
X17976254Y-12193293D01*
X17976254Y-12193293D02*
X17966730Y-12174246D01*
X17966730Y-12174246D02*
X17966730Y-12164722D01*
X17966730Y-12164722D02*
X17976254Y-12145674D01*
X17976254Y-12145674D02*
X17995301Y-12136150D01*
X17995301Y-12136150D02*
X18023873Y-12136150D01*
X18023873Y-12136150D02*
X18042920Y-12145674D01*
X18119111Y-12345674D02*
X18128635Y-12336150D01*
X18128635Y-12336150D02*
X18147682Y-12307579D01*
X18147682Y-12307579D02*
X18157206Y-12288531D01*
X18157206Y-12288531D02*
X18166730Y-12259960D01*
X18166730Y-12259960D02*
X18176254Y-12212341D01*
X18176254Y-12212341D02*
X18176254Y-12174246D01*
X18176254Y-12174246D02*
X18166730Y-12126627D01*
X18166730Y-12126627D02*
X18157206Y-12098055D01*
X18157206Y-12098055D02*
X18147682Y-12079008D01*
X18147682Y-12079008D02*
X18128635Y-12050436D01*
X18128635Y-12050436D02*
X18119111Y-12040912D01*
D10*
X11710356Y-12477356D02*
X11710356Y-12406644D01*
X11639644Y-12406644D01*
X11639644Y-12477356D01*
X11710356Y-12477356D01*
D11*
X12090539Y-12533484D02*
X11976253Y-12533484D01*
X12033396Y-12533484D02*
X12033396Y-12333484D01*
X12033396Y-12333484D02*
X12014348Y-12362055D01*
X12014348Y-12362055D02*
X11995301Y-12381103D01*
X11995301Y-12381103D02*
X11976253Y-12390627D01*
X12176253Y-12514436D02*
X12185777Y-12523960D01*
X12185777Y-12523960D02*
X12176253Y-12533484D01*
X12176253Y-12533484D02*
X12166729Y-12523960D01*
X12166729Y-12523960D02*
X12176253Y-12514436D01*
X12176253Y-12514436D02*
X12176253Y-12533484D01*
X12309586Y-12333484D02*
X12328634Y-12333484D01*
X12328634Y-12333484D02*
X12347682Y-12343008D01*
X12347682Y-12343008D02*
X12357205Y-12352531D01*
X12357205Y-12352531D02*
X12366729Y-12371579D01*
X12366729Y-12371579D02*
X12376253Y-12409674D01*
X12376253Y-12409674D02*
X12376253Y-12457293D01*
X12376253Y-12457293D02*
X12366729Y-12495388D01*
X12366729Y-12495388D02*
X12357205Y-12514436D01*
X12357205Y-12514436D02*
X12347682Y-12523960D01*
X12347682Y-12523960D02*
X12328634Y-12533484D01*
X12328634Y-12533484D02*
X12309586Y-12533484D01*
X12309586Y-12533484D02*
X12290539Y-12523960D01*
X12290539Y-12523960D02*
X12281015Y-12514436D01*
X12281015Y-12514436D02*
X12271491Y-12495388D01*
X12271491Y-12495388D02*
X12261967Y-12457293D01*
X12261967Y-12457293D02*
X12261967Y-12409674D01*
X12261967Y-12409674D02*
X12271491Y-12371579D01*
X12271491Y-12371579D02*
X12281015Y-12352531D01*
X12281015Y-12352531D02*
X12290539Y-12343008D01*
X12290539Y-12343008D02*
X12309586Y-12333484D01*
X12500062Y-12333484D02*
X12519110Y-12333484D01*
X12519110Y-12333484D02*
X12538158Y-12343008D01*
X12538158Y-12343008D02*
X12547682Y-12352531D01*
X12547682Y-12352531D02*
X12557205Y-12371579D01*
X12557205Y-12371579D02*
X12566729Y-12409674D01*
X12566729Y-12409674D02*
X12566729Y-12457293D01*
X12566729Y-12457293D02*
X12557205Y-12495388D01*
X12557205Y-12495388D02*
X12547682Y-12514436D01*
X12547682Y-12514436D02*
X12538158Y-12523960D01*
X12538158Y-12523960D02*
X12519110Y-12533484D01*
X12519110Y-12533484D02*
X12500062Y-12533484D01*
X12500062Y-12533484D02*
X12481015Y-12523960D01*
X12481015Y-12523960D02*
X12471491Y-12514436D01*
X12471491Y-12514436D02*
X12461967Y-12495388D01*
X12461967Y-12495388D02*
X12452443Y-12457293D01*
X12452443Y-12457293D02*
X12452443Y-12409674D01*
X12452443Y-12409674D02*
X12461967Y-12371579D01*
X12461967Y-12371579D02*
X12471491Y-12352531D01*
X12471491Y-12352531D02*
X12481015Y-12343008D01*
X12481015Y-12343008D02*
X12500062Y-12333484D01*
X12690539Y-12333484D02*
X12709586Y-12333484D01*
X12709586Y-12333484D02*
X12728634Y-12343008D01*
X12728634Y-12343008D02*
X12738158Y-12352531D01*
X12738158Y-12352531D02*
X12747682Y-12371579D01*
X12747682Y-12371579D02*
X12757205Y-12409674D01*
X12757205Y-12409674D02*
X12757205Y-12457293D01*
X12757205Y-12457293D02*
X12747682Y-12495388D01*
X12747682Y-12495388D02*
X12738158Y-12514436D01*
X12738158Y-12514436D02*
X12728634Y-12523960D01*
X12728634Y-12523960D02*
X12709586Y-12533484D01*
X12709586Y-12533484D02*
X12690539Y-12533484D01*
X12690539Y-12533484D02*
X12671491Y-12523960D01*
X12671491Y-12523960D02*
X12661967Y-12514436D01*
X12661967Y-12514436D02*
X12652443Y-12495388D01*
X12652443Y-12495388D02*
X12642920Y-12457293D01*
X12642920Y-12457293D02*
X12642920Y-12409674D01*
X12642920Y-12409674D02*
X12652443Y-12371579D01*
X12652443Y-12371579D02*
X12661967Y-12352531D01*
X12661967Y-12352531D02*
X12671491Y-12343008D01*
X12671491Y-12343008D02*
X12690539Y-12333484D01*
X12842920Y-12533484D02*
X12842920Y-12400150D01*
X12842920Y-12419198D02*
X12852443Y-12409674D01*
X12852443Y-12409674D02*
X12871491Y-12400150D01*
X12871491Y-12400150D02*
X12900063Y-12400150D01*
X12900063Y-12400150D02*
X12919110Y-12409674D01*
X12919110Y-12409674D02*
X12928634Y-12428722D01*
X12928634Y-12428722D02*
X12928634Y-12533484D01*
X12928634Y-12428722D02*
X12938158Y-12409674D01*
X12938158Y-12409674D02*
X12957205Y-12400150D01*
X12957205Y-12400150D02*
X12985777Y-12400150D01*
X12985777Y-12400150D02*
X13004824Y-12409674D01*
X13004824Y-12409674D02*
X13014348Y-12428722D01*
X13014348Y-12428722D02*
X13014348Y-12533484D01*
X13109586Y-12533484D02*
X13109586Y-12400150D01*
X13109586Y-12419198D02*
X13119110Y-12409674D01*
X13119110Y-12409674D02*
X13138158Y-12400150D01*
X13138158Y-12400150D02*
X13166729Y-12400150D01*
X13166729Y-12400150D02*
X13185777Y-12409674D01*
X13185777Y-12409674D02*
X13195301Y-12428722D01*
X13195301Y-12428722D02*
X13195301Y-12533484D01*
X13195301Y-12428722D02*
X13204824Y-12409674D01*
X13204824Y-12409674D02*
X13223872Y-12400150D01*
X13223872Y-12400150D02*
X13252443Y-12400150D01*
X13252443Y-12400150D02*
X13271491Y-12409674D01*
X13271491Y-12409674D02*
X13281015Y-12428722D01*
X13281015Y-12428722D02*
X13281015Y-12533484D01*
X13671491Y-12323960D02*
X13500063Y-12581103D01*
X13928634Y-12333484D02*
X13947682Y-12333484D01*
X13947682Y-12333484D02*
X13966729Y-12343008D01*
X13966729Y-12343008D02*
X13976253Y-12352531D01*
X13976253Y-12352531D02*
X13985777Y-12371579D01*
X13985777Y-12371579D02*
X13995301Y-12409674D01*
X13995301Y-12409674D02*
X13995301Y-12457293D01*
X13995301Y-12457293D02*
X13985777Y-12495388D01*
X13985777Y-12495388D02*
X13976253Y-12514436D01*
X13976253Y-12514436D02*
X13966729Y-12523960D01*
X13966729Y-12523960D02*
X13947682Y-12533484D01*
X13947682Y-12533484D02*
X13928634Y-12533484D01*
X13928634Y-12533484D02*
X13909586Y-12523960D01*
X13909586Y-12523960D02*
X13900063Y-12514436D01*
X13900063Y-12514436D02*
X13890539Y-12495388D01*
X13890539Y-12495388D02*
X13881015Y-12457293D01*
X13881015Y-12457293D02*
X13881015Y-12409674D01*
X13881015Y-12409674D02*
X13890539Y-12371579D01*
X13890539Y-12371579D02*
X13900063Y-12352531D01*
X13900063Y-12352531D02*
X13909586Y-12343008D01*
X13909586Y-12343008D02*
X13928634Y-12333484D01*
X14081015Y-12514436D02*
X14090539Y-12523960D01*
X14090539Y-12523960D02*
X14081015Y-12533484D01*
X14081015Y-12533484D02*
X14071491Y-12523960D01*
X14071491Y-12523960D02*
X14081015Y-12514436D01*
X14081015Y-12514436D02*
X14081015Y-12533484D01*
X14214348Y-12333484D02*
X14233396Y-12333484D01*
X14233396Y-12333484D02*
X14252444Y-12343008D01*
X14252444Y-12343008D02*
X14261967Y-12352531D01*
X14261967Y-12352531D02*
X14271491Y-12371579D01*
X14271491Y-12371579D02*
X14281015Y-12409674D01*
X14281015Y-12409674D02*
X14281015Y-12457293D01*
X14281015Y-12457293D02*
X14271491Y-12495388D01*
X14271491Y-12495388D02*
X14261967Y-12514436D01*
X14261967Y-12514436D02*
X14252444Y-12523960D01*
X14252444Y-12523960D02*
X14233396Y-12533484D01*
X14233396Y-12533484D02*
X14214348Y-12533484D01*
X14214348Y-12533484D02*
X14195301Y-12523960D01*
X14195301Y-12523960D02*
X14185777Y-12514436D01*
X14185777Y-12514436D02*
X14176253Y-12495388D01*
X14176253Y-12495388D02*
X14166729Y-12457293D01*
X14166729Y-12457293D02*
X14166729Y-12409674D01*
X14166729Y-12409674D02*
X14176253Y-12371579D01*
X14176253Y-12371579D02*
X14185777Y-12352531D01*
X14185777Y-12352531D02*
X14195301Y-12343008D01*
X14195301Y-12343008D02*
X14214348Y-12333484D01*
X14347682Y-12333484D02*
X14471491Y-12333484D01*
X14471491Y-12333484D02*
X14404825Y-12409674D01*
X14404825Y-12409674D02*
X14433396Y-12409674D01*
X14433396Y-12409674D02*
X14452444Y-12419198D01*
X14452444Y-12419198D02*
X14461967Y-12428722D01*
X14461967Y-12428722D02*
X14471491Y-12447769D01*
X14471491Y-12447769D02*
X14471491Y-12495388D01*
X14471491Y-12495388D02*
X14461967Y-12514436D01*
X14461967Y-12514436D02*
X14452444Y-12523960D01*
X14452444Y-12523960D02*
X14433396Y-12533484D01*
X14433396Y-12533484D02*
X14376253Y-12533484D01*
X14376253Y-12533484D02*
X14357206Y-12523960D01*
X14357206Y-12523960D02*
X14347682Y-12514436D01*
X14566729Y-12533484D02*
X14604825Y-12533484D01*
X14604825Y-12533484D02*
X14623872Y-12523960D01*
X14623872Y-12523960D02*
X14633396Y-12514436D01*
X14633396Y-12514436D02*
X14652444Y-12485865D01*
X14652444Y-12485865D02*
X14661967Y-12447769D01*
X14661967Y-12447769D02*
X14661967Y-12371579D01*
X14661967Y-12371579D02*
X14652444Y-12352531D01*
X14652444Y-12352531D02*
X14642920Y-12343008D01*
X14642920Y-12343008D02*
X14623872Y-12333484D01*
X14623872Y-12333484D02*
X14585777Y-12333484D01*
X14585777Y-12333484D02*
X14566729Y-12343008D01*
X14566729Y-12343008D02*
X14557206Y-12352531D01*
X14557206Y-12352531D02*
X14547682Y-12371579D01*
X14547682Y-12371579D02*
X14547682Y-12419198D01*
X14547682Y-12419198D02*
X14557206Y-12438246D01*
X14557206Y-12438246D02*
X14566729Y-12447769D01*
X14566729Y-12447769D02*
X14585777Y-12457293D01*
X14585777Y-12457293D02*
X14623872Y-12457293D01*
X14623872Y-12457293D02*
X14642920Y-12447769D01*
X14642920Y-12447769D02*
X14652444Y-12438246D01*
X14652444Y-12438246D02*
X14661967Y-12419198D01*
X14833396Y-12400150D02*
X14833396Y-12533484D01*
X14785777Y-12323960D02*
X14738158Y-12466817D01*
X14738158Y-12466817D02*
X14861967Y-12466817D01*
X14928634Y-12333484D02*
X14928634Y-12371579D01*
X15004825Y-12333484D02*
X15004825Y-12371579D01*
X15300063Y-12609674D02*
X15290539Y-12600150D01*
X15290539Y-12600150D02*
X15271491Y-12571579D01*
X15271491Y-12571579D02*
X15261968Y-12552531D01*
X15261968Y-12552531D02*
X15252444Y-12523960D01*
X15252444Y-12523960D02*
X15242920Y-12476341D01*
X15242920Y-12476341D02*
X15242920Y-12438246D01*
X15242920Y-12438246D02*
X15252444Y-12390627D01*
X15252444Y-12390627D02*
X15261968Y-12362055D01*
X15261968Y-12362055D02*
X15271491Y-12343008D01*
X15271491Y-12343008D02*
X15290539Y-12314436D01*
X15290539Y-12314436D02*
X15300063Y-12304912D01*
X15471491Y-12333484D02*
X15376253Y-12333484D01*
X15376253Y-12333484D02*
X15366729Y-12428722D01*
X15366729Y-12428722D02*
X15376253Y-12419198D01*
X15376253Y-12419198D02*
X15395301Y-12409674D01*
X15395301Y-12409674D02*
X15442920Y-12409674D01*
X15442920Y-12409674D02*
X15461968Y-12419198D01*
X15461968Y-12419198D02*
X15471491Y-12428722D01*
X15471491Y-12428722D02*
X15481015Y-12447769D01*
X15481015Y-12447769D02*
X15481015Y-12495388D01*
X15481015Y-12495388D02*
X15471491Y-12514436D01*
X15471491Y-12514436D02*
X15461968Y-12523960D01*
X15461968Y-12523960D02*
X15442920Y-12533484D01*
X15442920Y-12533484D02*
X15395301Y-12533484D01*
X15395301Y-12533484D02*
X15376253Y-12523960D01*
X15376253Y-12523960D02*
X15366729Y-12514436D01*
X15652444Y-12400150D02*
X15652444Y-12533484D01*
X15604825Y-12323960D02*
X15557206Y-12466817D01*
X15557206Y-12466817D02*
X15681015Y-12466817D01*
X15909587Y-12533484D02*
X15909587Y-12333484D01*
X15995301Y-12533484D02*
X15995301Y-12428722D01*
X15995301Y-12428722D02*
X15985777Y-12409674D01*
X15985777Y-12409674D02*
X15966730Y-12400150D01*
X15966730Y-12400150D02*
X15938158Y-12400150D01*
X15938158Y-12400150D02*
X15919110Y-12409674D01*
X15919110Y-12409674D02*
X15909587Y-12419198D01*
X16119110Y-12533484D02*
X16100063Y-12523960D01*
X16100063Y-12523960D02*
X16090539Y-12514436D01*
X16090539Y-12514436D02*
X16081015Y-12495388D01*
X16081015Y-12495388D02*
X16081015Y-12438246D01*
X16081015Y-12438246D02*
X16090539Y-12419198D01*
X16090539Y-12419198D02*
X16100063Y-12409674D01*
X16100063Y-12409674D02*
X16119110Y-12400150D01*
X16119110Y-12400150D02*
X16147682Y-12400150D01*
X16147682Y-12400150D02*
X16166730Y-12409674D01*
X16166730Y-12409674D02*
X16176253Y-12419198D01*
X16176253Y-12419198D02*
X16185777Y-12438246D01*
X16185777Y-12438246D02*
X16185777Y-12495388D01*
X16185777Y-12495388D02*
X16176253Y-12514436D01*
X16176253Y-12514436D02*
X16166730Y-12523960D01*
X16166730Y-12523960D02*
X16147682Y-12533484D01*
X16147682Y-12533484D02*
X16119110Y-12533484D01*
X16300063Y-12533484D02*
X16281015Y-12523960D01*
X16281015Y-12523960D02*
X16271491Y-12504912D01*
X16271491Y-12504912D02*
X16271491Y-12333484D01*
X16452444Y-12523960D02*
X16433396Y-12533484D01*
X16433396Y-12533484D02*
X16395301Y-12533484D01*
X16395301Y-12533484D02*
X16376253Y-12523960D01*
X16376253Y-12523960D02*
X16366730Y-12504912D01*
X16366730Y-12504912D02*
X16366730Y-12428722D01*
X16366730Y-12428722D02*
X16376253Y-12409674D01*
X16376253Y-12409674D02*
X16395301Y-12400150D01*
X16395301Y-12400150D02*
X16433396Y-12400150D01*
X16433396Y-12400150D02*
X16452444Y-12409674D01*
X16452444Y-12409674D02*
X16461968Y-12428722D01*
X16461968Y-12428722D02*
X16461968Y-12447769D01*
X16461968Y-12447769D02*
X16366730Y-12466817D01*
X16538158Y-12523960D02*
X16557206Y-12533484D01*
X16557206Y-12533484D02*
X16595301Y-12533484D01*
X16595301Y-12533484D02*
X16614349Y-12523960D01*
X16614349Y-12523960D02*
X16623872Y-12504912D01*
X16623872Y-12504912D02*
X16623872Y-12495388D01*
X16623872Y-12495388D02*
X16614349Y-12476341D01*
X16614349Y-12476341D02*
X16595301Y-12466817D01*
X16595301Y-12466817D02*
X16566730Y-12466817D01*
X16566730Y-12466817D02*
X16547682Y-12457293D01*
X16547682Y-12457293D02*
X16538158Y-12438246D01*
X16538158Y-12438246D02*
X16538158Y-12428722D01*
X16538158Y-12428722D02*
X16547682Y-12409674D01*
X16547682Y-12409674D02*
X16566730Y-12400150D01*
X16566730Y-12400150D02*
X16595301Y-12400150D01*
X16595301Y-12400150D02*
X16614349Y-12409674D01*
X16861968Y-12457293D02*
X17014349Y-12457293D01*
X16938158Y-12533484D02*
X16938158Y-12381103D01*
X17242920Y-12333484D02*
X17366730Y-12333484D01*
X17366730Y-12333484D02*
X17300063Y-12409674D01*
X17300063Y-12409674D02*
X17328635Y-12409674D01*
X17328635Y-12409674D02*
X17347682Y-12419198D01*
X17347682Y-12419198D02*
X17357206Y-12428722D01*
X17357206Y-12428722D02*
X17366730Y-12447769D01*
X17366730Y-12447769D02*
X17366730Y-12495388D01*
X17366730Y-12495388D02*
X17357206Y-12514436D01*
X17357206Y-12514436D02*
X17347682Y-12523960D01*
X17347682Y-12523960D02*
X17328635Y-12533484D01*
X17328635Y-12533484D02*
X17271492Y-12533484D01*
X17271492Y-12533484D02*
X17252444Y-12523960D01*
X17252444Y-12523960D02*
X17242920Y-12514436D01*
X17595301Y-12523960D02*
X17614349Y-12533484D01*
X17614349Y-12533484D02*
X17652444Y-12533484D01*
X17652444Y-12533484D02*
X17671492Y-12523960D01*
X17671492Y-12523960D02*
X17681016Y-12504912D01*
X17681016Y-12504912D02*
X17681016Y-12495388D01*
X17681016Y-12495388D02*
X17671492Y-12476341D01*
X17671492Y-12476341D02*
X17652444Y-12466817D01*
X17652444Y-12466817D02*
X17623873Y-12466817D01*
X17623873Y-12466817D02*
X17604825Y-12457293D01*
X17604825Y-12457293D02*
X17595301Y-12438246D01*
X17595301Y-12438246D02*
X17595301Y-12428722D01*
X17595301Y-12428722D02*
X17604825Y-12409674D01*
X17604825Y-12409674D02*
X17623873Y-12400150D01*
X17623873Y-12400150D02*
X17652444Y-12400150D01*
X17652444Y-12400150D02*
X17671492Y-12409674D01*
X17795301Y-12533484D02*
X17776254Y-12523960D01*
X17776254Y-12523960D02*
X17766730Y-12504912D01*
X17766730Y-12504912D02*
X17766730Y-12333484D01*
X17900063Y-12533484D02*
X17881016Y-12523960D01*
X17881016Y-12523960D02*
X17871492Y-12514436D01*
X17871492Y-12514436D02*
X17861968Y-12495388D01*
X17861968Y-12495388D02*
X17861968Y-12438246D01*
X17861968Y-12438246D02*
X17871492Y-12419198D01*
X17871492Y-12419198D02*
X17881016Y-12409674D01*
X17881016Y-12409674D02*
X17900063Y-12400150D01*
X17900063Y-12400150D02*
X17928635Y-12400150D01*
X17928635Y-12400150D02*
X17947682Y-12409674D01*
X17947682Y-12409674D02*
X17957206Y-12419198D01*
X17957206Y-12419198D02*
X17966730Y-12438246D01*
X17966730Y-12438246D02*
X17966730Y-12495388D01*
X17966730Y-12495388D02*
X17957206Y-12514436D01*
X17957206Y-12514436D02*
X17947682Y-12523960D01*
X17947682Y-12523960D02*
X17928635Y-12533484D01*
X17928635Y-12533484D02*
X17900063Y-12533484D01*
X18023873Y-12400150D02*
X18100063Y-12400150D01*
X18052444Y-12333484D02*
X18052444Y-12504912D01*
X18052444Y-12504912D02*
X18061968Y-12523960D01*
X18061968Y-12523960D02*
X18081016Y-12533484D01*
X18081016Y-12533484D02*
X18100063Y-12533484D01*
X18157206Y-12523960D02*
X18176254Y-12533484D01*
X18176254Y-12533484D02*
X18214349Y-12533484D01*
X18214349Y-12533484D02*
X18233397Y-12523960D01*
X18233397Y-12523960D02*
X18242920Y-12504912D01*
X18242920Y-12504912D02*
X18242920Y-12495388D01*
X18242920Y-12495388D02*
X18233397Y-12476341D01*
X18233397Y-12476341D02*
X18214349Y-12466817D01*
X18214349Y-12466817D02*
X18185777Y-12466817D01*
X18185777Y-12466817D02*
X18166730Y-12457293D01*
X18166730Y-12457293D02*
X18157206Y-12438246D01*
X18157206Y-12438246D02*
X18157206Y-12428722D01*
X18157206Y-12428722D02*
X18166730Y-12409674D01*
X18166730Y-12409674D02*
X18185777Y-12400150D01*
X18185777Y-12400150D02*
X18214349Y-12400150D01*
X18214349Y-12400150D02*
X18233397Y-12409674D01*
X18309587Y-12609674D02*
X18319111Y-12600150D01*
X18319111Y-12600150D02*
X18338158Y-12571579D01*
X18338158Y-12571579D02*
X18347682Y-12552531D01*
X18347682Y-12552531D02*
X18357206Y-12523960D01*
X18357206Y-12523960D02*
X18366730Y-12476341D01*
X18366730Y-12476341D02*
X18366730Y-12438246D01*
X18366730Y-12438246D02*
X18357206Y-12390627D01*
X18357206Y-12390627D02*
X18347682Y-12362055D01*
X18347682Y-12362055D02*
X18338158Y-12343008D01*
X18338158Y-12343008D02*
X18319111Y-12314436D01*
X18319111Y-12314436D02*
X18309587Y-12304912D01*
D12*
X11670000Y-12761000D02*
X11725000Y-12706000D01*
X11670000Y-12651000D01*
X11615000Y-12706000D01*
X11670000Y-12761000D01*
D11*
X12090539Y-12797484D02*
X11976253Y-12797484D01*
X12033396Y-12797484D02*
X12033396Y-12597484D01*
X12033396Y-12597484D02*
X12014348Y-12626055D01*
X12014348Y-12626055D02*
X11995301Y-12645103D01*
X11995301Y-12645103D02*
X11976253Y-12654627D01*
X12176253Y-12778436D02*
X12185777Y-12787960D01*
X12185777Y-12787960D02*
X12176253Y-12797484D01*
X12176253Y-12797484D02*
X12166729Y-12787960D01*
X12166729Y-12787960D02*
X12176253Y-12778436D01*
X12176253Y-12778436D02*
X12176253Y-12797484D01*
X12376253Y-12797484D02*
X12261967Y-12797484D01*
X12319110Y-12797484D02*
X12319110Y-12597484D01*
X12319110Y-12597484D02*
X12300062Y-12626055D01*
X12300062Y-12626055D02*
X12281015Y-12645103D01*
X12281015Y-12645103D02*
X12261967Y-12654627D01*
X12500062Y-12597484D02*
X12519110Y-12597484D01*
X12519110Y-12597484D02*
X12538158Y-12607008D01*
X12538158Y-12607008D02*
X12547682Y-12616531D01*
X12547682Y-12616531D02*
X12557205Y-12635579D01*
X12557205Y-12635579D02*
X12566729Y-12673674D01*
X12566729Y-12673674D02*
X12566729Y-12721293D01*
X12566729Y-12721293D02*
X12557205Y-12759388D01*
X12557205Y-12759388D02*
X12547682Y-12778436D01*
X12547682Y-12778436D02*
X12538158Y-12787960D01*
X12538158Y-12787960D02*
X12519110Y-12797484D01*
X12519110Y-12797484D02*
X12500062Y-12797484D01*
X12500062Y-12797484D02*
X12481015Y-12787960D01*
X12481015Y-12787960D02*
X12471491Y-12778436D01*
X12471491Y-12778436D02*
X12461967Y-12759388D01*
X12461967Y-12759388D02*
X12452443Y-12721293D01*
X12452443Y-12721293D02*
X12452443Y-12673674D01*
X12452443Y-12673674D02*
X12461967Y-12635579D01*
X12461967Y-12635579D02*
X12471491Y-12616531D01*
X12471491Y-12616531D02*
X12481015Y-12607008D01*
X12481015Y-12607008D02*
X12500062Y-12597484D01*
X12690539Y-12597484D02*
X12709586Y-12597484D01*
X12709586Y-12597484D02*
X12728634Y-12607008D01*
X12728634Y-12607008D02*
X12738158Y-12616531D01*
X12738158Y-12616531D02*
X12747682Y-12635579D01*
X12747682Y-12635579D02*
X12757205Y-12673674D01*
X12757205Y-12673674D02*
X12757205Y-12721293D01*
X12757205Y-12721293D02*
X12747682Y-12759388D01*
X12747682Y-12759388D02*
X12738158Y-12778436D01*
X12738158Y-12778436D02*
X12728634Y-12787960D01*
X12728634Y-12787960D02*
X12709586Y-12797484D01*
X12709586Y-12797484D02*
X12690539Y-12797484D01*
X12690539Y-12797484D02*
X12671491Y-12787960D01*
X12671491Y-12787960D02*
X12661967Y-12778436D01*
X12661967Y-12778436D02*
X12652443Y-12759388D01*
X12652443Y-12759388D02*
X12642920Y-12721293D01*
X12642920Y-12721293D02*
X12642920Y-12673674D01*
X12642920Y-12673674D02*
X12652443Y-12635579D01*
X12652443Y-12635579D02*
X12661967Y-12616531D01*
X12661967Y-12616531D02*
X12671491Y-12607008D01*
X12671491Y-12607008D02*
X12690539Y-12597484D01*
X12842920Y-12797484D02*
X12842920Y-12664150D01*
X12842920Y-12683198D02*
X12852443Y-12673674D01*
X12852443Y-12673674D02*
X12871491Y-12664150D01*
X12871491Y-12664150D02*
X12900063Y-12664150D01*
X12900063Y-12664150D02*
X12919110Y-12673674D01*
X12919110Y-12673674D02*
X12928634Y-12692722D01*
X12928634Y-12692722D02*
X12928634Y-12797484D01*
X12928634Y-12692722D02*
X12938158Y-12673674D01*
X12938158Y-12673674D02*
X12957205Y-12664150D01*
X12957205Y-12664150D02*
X12985777Y-12664150D01*
X12985777Y-12664150D02*
X13004824Y-12673674D01*
X13004824Y-12673674D02*
X13014348Y-12692722D01*
X13014348Y-12692722D02*
X13014348Y-12797484D01*
X13109586Y-12797484D02*
X13109586Y-12664150D01*
X13109586Y-12683198D02*
X13119110Y-12673674D01*
X13119110Y-12673674D02*
X13138158Y-12664150D01*
X13138158Y-12664150D02*
X13166729Y-12664150D01*
X13166729Y-12664150D02*
X13185777Y-12673674D01*
X13185777Y-12673674D02*
X13195301Y-12692722D01*
X13195301Y-12692722D02*
X13195301Y-12797484D01*
X13195301Y-12692722D02*
X13204824Y-12673674D01*
X13204824Y-12673674D02*
X13223872Y-12664150D01*
X13223872Y-12664150D02*
X13252443Y-12664150D01*
X13252443Y-12664150D02*
X13271491Y-12673674D01*
X13271491Y-12673674D02*
X13281015Y-12692722D01*
X13281015Y-12692722D02*
X13281015Y-12797484D01*
X13671491Y-12587960D02*
X13500063Y-12845103D01*
X13928634Y-12597484D02*
X13947682Y-12597484D01*
X13947682Y-12597484D02*
X13966729Y-12607008D01*
X13966729Y-12607008D02*
X13976253Y-12616531D01*
X13976253Y-12616531D02*
X13985777Y-12635579D01*
X13985777Y-12635579D02*
X13995301Y-12673674D01*
X13995301Y-12673674D02*
X13995301Y-12721293D01*
X13995301Y-12721293D02*
X13985777Y-12759388D01*
X13985777Y-12759388D02*
X13976253Y-12778436D01*
X13976253Y-12778436D02*
X13966729Y-12787960D01*
X13966729Y-12787960D02*
X13947682Y-12797484D01*
X13947682Y-12797484D02*
X13928634Y-12797484D01*
X13928634Y-12797484D02*
X13909586Y-12787960D01*
X13909586Y-12787960D02*
X13900063Y-12778436D01*
X13900063Y-12778436D02*
X13890539Y-12759388D01*
X13890539Y-12759388D02*
X13881015Y-12721293D01*
X13881015Y-12721293D02*
X13881015Y-12673674D01*
X13881015Y-12673674D02*
X13890539Y-12635579D01*
X13890539Y-12635579D02*
X13900063Y-12616531D01*
X13900063Y-12616531D02*
X13909586Y-12607008D01*
X13909586Y-12607008D02*
X13928634Y-12597484D01*
X14081015Y-12778436D02*
X14090539Y-12787960D01*
X14090539Y-12787960D02*
X14081015Y-12797484D01*
X14081015Y-12797484D02*
X14071491Y-12787960D01*
X14071491Y-12787960D02*
X14081015Y-12778436D01*
X14081015Y-12778436D02*
X14081015Y-12797484D01*
X14214348Y-12597484D02*
X14233396Y-12597484D01*
X14233396Y-12597484D02*
X14252444Y-12607008D01*
X14252444Y-12607008D02*
X14261967Y-12616531D01*
X14261967Y-12616531D02*
X14271491Y-12635579D01*
X14271491Y-12635579D02*
X14281015Y-12673674D01*
X14281015Y-12673674D02*
X14281015Y-12721293D01*
X14281015Y-12721293D02*
X14271491Y-12759388D01*
X14271491Y-12759388D02*
X14261967Y-12778436D01*
X14261967Y-12778436D02*
X14252444Y-12787960D01*
X14252444Y-12787960D02*
X14233396Y-12797484D01*
X14233396Y-12797484D02*
X14214348Y-12797484D01*
X14214348Y-12797484D02*
X14195301Y-12787960D01*
X14195301Y-12787960D02*
X14185777Y-12778436D01*
X14185777Y-12778436D02*
X14176253Y-12759388D01*
X14176253Y-12759388D02*
X14166729Y-12721293D01*
X14166729Y-12721293D02*
X14166729Y-12673674D01*
X14166729Y-12673674D02*
X14176253Y-12635579D01*
X14176253Y-12635579D02*
X14185777Y-12616531D01*
X14185777Y-12616531D02*
X14195301Y-12607008D01*
X14195301Y-12607008D02*
X14214348Y-12597484D01*
X14452444Y-12664150D02*
X14452444Y-12797484D01*
X14404825Y-12587960D02*
X14357206Y-12730817D01*
X14357206Y-12730817D02*
X14481015Y-12730817D01*
X14538158Y-12597484D02*
X14661967Y-12597484D01*
X14661967Y-12597484D02*
X14595301Y-12673674D01*
X14595301Y-12673674D02*
X14623872Y-12673674D01*
X14623872Y-12673674D02*
X14642920Y-12683198D01*
X14642920Y-12683198D02*
X14652444Y-12692722D01*
X14652444Y-12692722D02*
X14661967Y-12711769D01*
X14661967Y-12711769D02*
X14661967Y-12759388D01*
X14661967Y-12759388D02*
X14652444Y-12778436D01*
X14652444Y-12778436D02*
X14642920Y-12787960D01*
X14642920Y-12787960D02*
X14623872Y-12797484D01*
X14623872Y-12797484D02*
X14566729Y-12797484D01*
X14566729Y-12797484D02*
X14547682Y-12787960D01*
X14547682Y-12787960D02*
X14538158Y-12778436D01*
X14728634Y-12597484D02*
X14852444Y-12597484D01*
X14852444Y-12597484D02*
X14785777Y-12673674D01*
X14785777Y-12673674D02*
X14814348Y-12673674D01*
X14814348Y-12673674D02*
X14833396Y-12683198D01*
X14833396Y-12683198D02*
X14842920Y-12692722D01*
X14842920Y-12692722D02*
X14852444Y-12711769D01*
X14852444Y-12711769D02*
X14852444Y-12759388D01*
X14852444Y-12759388D02*
X14842920Y-12778436D01*
X14842920Y-12778436D02*
X14833396Y-12787960D01*
X14833396Y-12787960D02*
X14814348Y-12797484D01*
X14814348Y-12797484D02*
X14757206Y-12797484D01*
X14757206Y-12797484D02*
X14738158Y-12787960D01*
X14738158Y-12787960D02*
X14728634Y-12778436D01*
X14928634Y-12597484D02*
X14928634Y-12635579D01*
X15004825Y-12597484D02*
X15004825Y-12635579D01*
X15300063Y-12873674D02*
X15290539Y-12864150D01*
X15290539Y-12864150D02*
X15271491Y-12835579D01*
X15271491Y-12835579D02*
X15261968Y-12816531D01*
X15261968Y-12816531D02*
X15252444Y-12787960D01*
X15252444Y-12787960D02*
X15242920Y-12740341D01*
X15242920Y-12740341D02*
X15242920Y-12702246D01*
X15242920Y-12702246D02*
X15252444Y-12654627D01*
X15252444Y-12654627D02*
X15261968Y-12626055D01*
X15261968Y-12626055D02*
X15271491Y-12607008D01*
X15271491Y-12607008D02*
X15290539Y-12578436D01*
X15290539Y-12578436D02*
X15300063Y-12568912D01*
X15414348Y-12597484D02*
X15433396Y-12597484D01*
X15433396Y-12597484D02*
X15452444Y-12607008D01*
X15452444Y-12607008D02*
X15461968Y-12616531D01*
X15461968Y-12616531D02*
X15471491Y-12635579D01*
X15471491Y-12635579D02*
X15481015Y-12673674D01*
X15481015Y-12673674D02*
X15481015Y-12721293D01*
X15481015Y-12721293D02*
X15471491Y-12759388D01*
X15471491Y-12759388D02*
X15461968Y-12778436D01*
X15461968Y-12778436D02*
X15452444Y-12787960D01*
X15452444Y-12787960D02*
X15433396Y-12797484D01*
X15433396Y-12797484D02*
X15414348Y-12797484D01*
X15414348Y-12797484D02*
X15395301Y-12787960D01*
X15395301Y-12787960D02*
X15385777Y-12778436D01*
X15385777Y-12778436D02*
X15376253Y-12759388D01*
X15376253Y-12759388D02*
X15366729Y-12721293D01*
X15366729Y-12721293D02*
X15366729Y-12673674D01*
X15366729Y-12673674D02*
X15376253Y-12635579D01*
X15376253Y-12635579D02*
X15385777Y-12616531D01*
X15385777Y-12616531D02*
X15395301Y-12607008D01*
X15395301Y-12607008D02*
X15414348Y-12597484D01*
X15719110Y-12797484D02*
X15719110Y-12597484D01*
X15804825Y-12797484D02*
X15804825Y-12692722D01*
X15804825Y-12692722D02*
X15795301Y-12673674D01*
X15795301Y-12673674D02*
X15776253Y-12664150D01*
X15776253Y-12664150D02*
X15747682Y-12664150D01*
X15747682Y-12664150D02*
X15728634Y-12673674D01*
X15728634Y-12673674D02*
X15719110Y-12683198D01*
X15928634Y-12797484D02*
X15909587Y-12787960D01*
X15909587Y-12787960D02*
X15900063Y-12778436D01*
X15900063Y-12778436D02*
X15890539Y-12759388D01*
X15890539Y-12759388D02*
X15890539Y-12702246D01*
X15890539Y-12702246D02*
X15900063Y-12683198D01*
X15900063Y-12683198D02*
X15909587Y-12673674D01*
X15909587Y-12673674D02*
X15928634Y-12664150D01*
X15928634Y-12664150D02*
X15957206Y-12664150D01*
X15957206Y-12664150D02*
X15976253Y-12673674D01*
X15976253Y-12673674D02*
X15985777Y-12683198D01*
X15985777Y-12683198D02*
X15995301Y-12702246D01*
X15995301Y-12702246D02*
X15995301Y-12759388D01*
X15995301Y-12759388D02*
X15985777Y-12778436D01*
X15985777Y-12778436D02*
X15976253Y-12787960D01*
X15976253Y-12787960D02*
X15957206Y-12797484D01*
X15957206Y-12797484D02*
X15928634Y-12797484D01*
X16109587Y-12797484D02*
X16090539Y-12787960D01*
X16090539Y-12787960D02*
X16081015Y-12768912D01*
X16081015Y-12768912D02*
X16081015Y-12597484D01*
X16261968Y-12787960D02*
X16242920Y-12797484D01*
X16242920Y-12797484D02*
X16204825Y-12797484D01*
X16204825Y-12797484D02*
X16185777Y-12787960D01*
X16185777Y-12787960D02*
X16176253Y-12768912D01*
X16176253Y-12768912D02*
X16176253Y-12692722D01*
X16176253Y-12692722D02*
X16185777Y-12673674D01*
X16185777Y-12673674D02*
X16204825Y-12664150D01*
X16204825Y-12664150D02*
X16242920Y-12664150D01*
X16242920Y-12664150D02*
X16261968Y-12673674D01*
X16261968Y-12673674D02*
X16271491Y-12692722D01*
X16271491Y-12692722D02*
X16271491Y-12711769D01*
X16271491Y-12711769D02*
X16176253Y-12730817D01*
X16347682Y-12787960D02*
X16366730Y-12797484D01*
X16366730Y-12797484D02*
X16404825Y-12797484D01*
X16404825Y-12797484D02*
X16423872Y-12787960D01*
X16423872Y-12787960D02*
X16433396Y-12768912D01*
X16433396Y-12768912D02*
X16433396Y-12759388D01*
X16433396Y-12759388D02*
X16423872Y-12740341D01*
X16423872Y-12740341D02*
X16404825Y-12730817D01*
X16404825Y-12730817D02*
X16376253Y-12730817D01*
X16376253Y-12730817D02*
X16357206Y-12721293D01*
X16357206Y-12721293D02*
X16347682Y-12702246D01*
X16347682Y-12702246D02*
X16347682Y-12692722D01*
X16347682Y-12692722D02*
X16357206Y-12673674D01*
X16357206Y-12673674D02*
X16376253Y-12664150D01*
X16376253Y-12664150D02*
X16404825Y-12664150D01*
X16404825Y-12664150D02*
X16423872Y-12673674D01*
X16671492Y-12721293D02*
X16823873Y-12721293D01*
X16747682Y-12797484D02*
X16747682Y-12645103D01*
X17052444Y-12597484D02*
X17176254Y-12597484D01*
X17176254Y-12597484D02*
X17109587Y-12673674D01*
X17109587Y-12673674D02*
X17138158Y-12673674D01*
X17138158Y-12673674D02*
X17157206Y-12683198D01*
X17157206Y-12683198D02*
X17166730Y-12692722D01*
X17166730Y-12692722D02*
X17176254Y-12711769D01*
X17176254Y-12711769D02*
X17176254Y-12759388D01*
X17176254Y-12759388D02*
X17166730Y-12778436D01*
X17166730Y-12778436D02*
X17157206Y-12787960D01*
X17157206Y-12787960D02*
X17138158Y-12797484D01*
X17138158Y-12797484D02*
X17081015Y-12797484D01*
X17081015Y-12797484D02*
X17061968Y-12787960D01*
X17061968Y-12787960D02*
X17052444Y-12778436D01*
X17404825Y-12787960D02*
X17423873Y-12797484D01*
X17423873Y-12797484D02*
X17461968Y-12797484D01*
X17461968Y-12797484D02*
X17481016Y-12787960D01*
X17481016Y-12787960D02*
X17490539Y-12768912D01*
X17490539Y-12768912D02*
X17490539Y-12759388D01*
X17490539Y-12759388D02*
X17481016Y-12740341D01*
X17481016Y-12740341D02*
X17461968Y-12730817D01*
X17461968Y-12730817D02*
X17433396Y-12730817D01*
X17433396Y-12730817D02*
X17414349Y-12721293D01*
X17414349Y-12721293D02*
X17404825Y-12702246D01*
X17404825Y-12702246D02*
X17404825Y-12692722D01*
X17404825Y-12692722D02*
X17414349Y-12673674D01*
X17414349Y-12673674D02*
X17433396Y-12664150D01*
X17433396Y-12664150D02*
X17461968Y-12664150D01*
X17461968Y-12664150D02*
X17481016Y-12673674D01*
X17604825Y-12797484D02*
X17585777Y-12787960D01*
X17585777Y-12787960D02*
X17576254Y-12768912D01*
X17576254Y-12768912D02*
X17576254Y-12597484D01*
X17709587Y-12797484D02*
X17690539Y-12787960D01*
X17690539Y-12787960D02*
X17681016Y-12778436D01*
X17681016Y-12778436D02*
X17671492Y-12759388D01*
X17671492Y-12759388D02*
X17671492Y-12702246D01*
X17671492Y-12702246D02*
X17681016Y-12683198D01*
X17681016Y-12683198D02*
X17690539Y-12673674D01*
X17690539Y-12673674D02*
X17709587Y-12664150D01*
X17709587Y-12664150D02*
X17738158Y-12664150D01*
X17738158Y-12664150D02*
X17757206Y-12673674D01*
X17757206Y-12673674D02*
X17766730Y-12683198D01*
X17766730Y-12683198D02*
X17776254Y-12702246D01*
X17776254Y-12702246D02*
X17776254Y-12759388D01*
X17776254Y-12759388D02*
X17766730Y-12778436D01*
X17766730Y-12778436D02*
X17757206Y-12787960D01*
X17757206Y-12787960D02*
X17738158Y-12797484D01*
X17738158Y-12797484D02*
X17709587Y-12797484D01*
X17833397Y-12664150D02*
X17909587Y-12664150D01*
X17861968Y-12597484D02*
X17861968Y-12768912D01*
X17861968Y-12768912D02*
X17871492Y-12787960D01*
X17871492Y-12787960D02*
X17890539Y-12797484D01*
X17890539Y-12797484D02*
X17909587Y-12797484D01*
X17966730Y-12787960D02*
X17985777Y-12797484D01*
X17985777Y-12797484D02*
X18023873Y-12797484D01*
X18023873Y-12797484D02*
X18042920Y-12787960D01*
X18042920Y-12787960D02*
X18052444Y-12768912D01*
X18052444Y-12768912D02*
X18052444Y-12759388D01*
X18052444Y-12759388D02*
X18042920Y-12740341D01*
X18042920Y-12740341D02*
X18023873Y-12730817D01*
X18023873Y-12730817D02*
X17995301Y-12730817D01*
X17995301Y-12730817D02*
X17976254Y-12721293D01*
X17976254Y-12721293D02*
X17966730Y-12702246D01*
X17966730Y-12702246D02*
X17966730Y-12692722D01*
X17966730Y-12692722D02*
X17976254Y-12673674D01*
X17976254Y-12673674D02*
X17995301Y-12664150D01*
X17995301Y-12664150D02*
X18023873Y-12664150D01*
X18023873Y-12664150D02*
X18042920Y-12673674D01*
X18119111Y-12873674D02*
X18128635Y-12864150D01*
X18128635Y-12864150D02*
X18147682Y-12835579D01*
X18147682Y-12835579D02*
X18157206Y-12816531D01*
X18157206Y-12816531D02*
X18166730Y-12787960D01*
X18166730Y-12787960D02*
X18176254Y-12740341D01*
X18176254Y-12740341D02*
X18176254Y-12702246D01*
X18176254Y-12702246D02*
X18166730Y-12654627D01*
X18166730Y-12654627D02*
X18157206Y-12626055D01*
X18157206Y-12626055D02*
X18147682Y-12607008D01*
X18147682Y-12607008D02*
X18128635Y-12578436D01*
X18128635Y-12578436D02*
X18119111Y-12568912D01*
X11525000Y-12870000D02*
X11725000Y-13070000D01*
X11725000Y-12870000D02*
X11525000Y-13070000D01*
X11725000Y-12970000D02*
G75*
G02*
X11525000Y-12970000I-100000J0D01*
G01*
X11525000Y-12970000D02*
G75*
G02*
X11725000Y-12970000I100000J0D01*
G01*
X11966729Y-12861484D02*
X12090539Y-12861484D01*
X12090539Y-12861484D02*
X12023872Y-12937674D01*
X12023872Y-12937674D02*
X12052443Y-12937674D01*
X12052443Y-12937674D02*
X12071491Y-12947198D01*
X12071491Y-12947198D02*
X12081015Y-12956722D01*
X12081015Y-12956722D02*
X12090539Y-12975769D01*
X12090539Y-12975769D02*
X12090539Y-13023388D01*
X12090539Y-13023388D02*
X12081015Y-13042436D01*
X12081015Y-13042436D02*
X12071491Y-13051960D01*
X12071491Y-13051960D02*
X12052443Y-13061484D01*
X12052443Y-13061484D02*
X11995301Y-13061484D01*
X11995301Y-13061484D02*
X11976253Y-13051960D01*
X11976253Y-13051960D02*
X11966729Y-13042436D01*
X12176253Y-13042436D02*
X12185777Y-13051960D01*
X12185777Y-13051960D02*
X12176253Y-13061484D01*
X12176253Y-13061484D02*
X12166729Y-13051960D01*
X12166729Y-13051960D02*
X12176253Y-13042436D01*
X12176253Y-13042436D02*
X12176253Y-13061484D01*
X12261967Y-12880531D02*
X12271491Y-12871008D01*
X12271491Y-12871008D02*
X12290539Y-12861484D01*
X12290539Y-12861484D02*
X12338158Y-12861484D01*
X12338158Y-12861484D02*
X12357205Y-12871008D01*
X12357205Y-12871008D02*
X12366729Y-12880531D01*
X12366729Y-12880531D02*
X12376253Y-12899579D01*
X12376253Y-12899579D02*
X12376253Y-12918627D01*
X12376253Y-12918627D02*
X12366729Y-12947198D01*
X12366729Y-12947198D02*
X12252443Y-13061484D01*
X12252443Y-13061484D02*
X12376253Y-13061484D01*
X12500062Y-12861484D02*
X12519110Y-12861484D01*
X12519110Y-12861484D02*
X12538158Y-12871008D01*
X12538158Y-12871008D02*
X12547682Y-12880531D01*
X12547682Y-12880531D02*
X12557205Y-12899579D01*
X12557205Y-12899579D02*
X12566729Y-12937674D01*
X12566729Y-12937674D02*
X12566729Y-12985293D01*
X12566729Y-12985293D02*
X12557205Y-13023388D01*
X12557205Y-13023388D02*
X12547682Y-13042436D01*
X12547682Y-13042436D02*
X12538158Y-13051960D01*
X12538158Y-13051960D02*
X12519110Y-13061484D01*
X12519110Y-13061484D02*
X12500062Y-13061484D01*
X12500062Y-13061484D02*
X12481015Y-13051960D01*
X12481015Y-13051960D02*
X12471491Y-13042436D01*
X12471491Y-13042436D02*
X12461967Y-13023388D01*
X12461967Y-13023388D02*
X12452443Y-12985293D01*
X12452443Y-12985293D02*
X12452443Y-12937674D01*
X12452443Y-12937674D02*
X12461967Y-12899579D01*
X12461967Y-12899579D02*
X12471491Y-12880531D01*
X12471491Y-12880531D02*
X12481015Y-12871008D01*
X12481015Y-12871008D02*
X12500062Y-12861484D01*
X12690539Y-12861484D02*
X12709586Y-12861484D01*
X12709586Y-12861484D02*
X12728634Y-12871008D01*
X12728634Y-12871008D02*
X12738158Y-12880531D01*
X12738158Y-12880531D02*
X12747682Y-12899579D01*
X12747682Y-12899579D02*
X12757205Y-12937674D01*
X12757205Y-12937674D02*
X12757205Y-12985293D01*
X12757205Y-12985293D02*
X12747682Y-13023388D01*
X12747682Y-13023388D02*
X12738158Y-13042436D01*
X12738158Y-13042436D02*
X12728634Y-13051960D01*
X12728634Y-13051960D02*
X12709586Y-13061484D01*
X12709586Y-13061484D02*
X12690539Y-13061484D01*
X12690539Y-13061484D02*
X12671491Y-13051960D01*
X12671491Y-13051960D02*
X12661967Y-13042436D01*
X12661967Y-13042436D02*
X12652443Y-13023388D01*
X12652443Y-13023388D02*
X12642920Y-12985293D01*
X12642920Y-12985293D02*
X12642920Y-12937674D01*
X12642920Y-12937674D02*
X12652443Y-12899579D01*
X12652443Y-12899579D02*
X12661967Y-12880531D01*
X12661967Y-12880531D02*
X12671491Y-12871008D01*
X12671491Y-12871008D02*
X12690539Y-12861484D01*
X12842920Y-13061484D02*
X12842920Y-12928150D01*
X12842920Y-12947198D02*
X12852443Y-12937674D01*
X12852443Y-12937674D02*
X12871491Y-12928150D01*
X12871491Y-12928150D02*
X12900063Y-12928150D01*
X12900063Y-12928150D02*
X12919110Y-12937674D01*
X12919110Y-12937674D02*
X12928634Y-12956722D01*
X12928634Y-12956722D02*
X12928634Y-13061484D01*
X12928634Y-12956722D02*
X12938158Y-12937674D01*
X12938158Y-12937674D02*
X12957205Y-12928150D01*
X12957205Y-12928150D02*
X12985777Y-12928150D01*
X12985777Y-12928150D02*
X13004824Y-12937674D01*
X13004824Y-12937674D02*
X13014348Y-12956722D01*
X13014348Y-12956722D02*
X13014348Y-13061484D01*
X13109586Y-13061484D02*
X13109586Y-12928150D01*
X13109586Y-12947198D02*
X13119110Y-12937674D01*
X13119110Y-12937674D02*
X13138158Y-12928150D01*
X13138158Y-12928150D02*
X13166729Y-12928150D01*
X13166729Y-12928150D02*
X13185777Y-12937674D01*
X13185777Y-12937674D02*
X13195301Y-12956722D01*
X13195301Y-12956722D02*
X13195301Y-13061484D01*
X13195301Y-12956722D02*
X13204824Y-12937674D01*
X13204824Y-12937674D02*
X13223872Y-12928150D01*
X13223872Y-12928150D02*
X13252443Y-12928150D01*
X13252443Y-12928150D02*
X13271491Y-12937674D01*
X13271491Y-12937674D02*
X13281015Y-12956722D01*
X13281015Y-12956722D02*
X13281015Y-13061484D01*
X13671491Y-12851960D02*
X13500063Y-13109103D01*
X13928634Y-12861484D02*
X13947682Y-12861484D01*
X13947682Y-12861484D02*
X13966729Y-12871008D01*
X13966729Y-12871008D02*
X13976253Y-12880531D01*
X13976253Y-12880531D02*
X13985777Y-12899579D01*
X13985777Y-12899579D02*
X13995301Y-12937674D01*
X13995301Y-12937674D02*
X13995301Y-12985293D01*
X13995301Y-12985293D02*
X13985777Y-13023388D01*
X13985777Y-13023388D02*
X13976253Y-13042436D01*
X13976253Y-13042436D02*
X13966729Y-13051960D01*
X13966729Y-13051960D02*
X13947682Y-13061484D01*
X13947682Y-13061484D02*
X13928634Y-13061484D01*
X13928634Y-13061484D02*
X13909586Y-13051960D01*
X13909586Y-13051960D02*
X13900063Y-13042436D01*
X13900063Y-13042436D02*
X13890539Y-13023388D01*
X13890539Y-13023388D02*
X13881015Y-12985293D01*
X13881015Y-12985293D02*
X13881015Y-12937674D01*
X13881015Y-12937674D02*
X13890539Y-12899579D01*
X13890539Y-12899579D02*
X13900063Y-12880531D01*
X13900063Y-12880531D02*
X13909586Y-12871008D01*
X13909586Y-12871008D02*
X13928634Y-12861484D01*
X14081015Y-13042436D02*
X14090539Y-13051960D01*
X14090539Y-13051960D02*
X14081015Y-13061484D01*
X14081015Y-13061484D02*
X14071491Y-13051960D01*
X14071491Y-13051960D02*
X14081015Y-13042436D01*
X14081015Y-13042436D02*
X14081015Y-13061484D01*
X14281015Y-13061484D02*
X14166729Y-13061484D01*
X14223872Y-13061484D02*
X14223872Y-12861484D01*
X14223872Y-12861484D02*
X14204825Y-12890055D01*
X14204825Y-12890055D02*
X14185777Y-12909103D01*
X14185777Y-12909103D02*
X14166729Y-12918627D01*
X14357206Y-12880531D02*
X14366729Y-12871008D01*
X14366729Y-12871008D02*
X14385777Y-12861484D01*
X14385777Y-12861484D02*
X14433396Y-12861484D01*
X14433396Y-12861484D02*
X14452444Y-12871008D01*
X14452444Y-12871008D02*
X14461967Y-12880531D01*
X14461967Y-12880531D02*
X14471491Y-12899579D01*
X14471491Y-12899579D02*
X14471491Y-12918627D01*
X14471491Y-12918627D02*
X14461967Y-12947198D01*
X14461967Y-12947198D02*
X14347682Y-13061484D01*
X14347682Y-13061484D02*
X14471491Y-13061484D01*
X14642920Y-12861484D02*
X14604825Y-12861484D01*
X14604825Y-12861484D02*
X14585777Y-12871008D01*
X14585777Y-12871008D02*
X14576253Y-12880531D01*
X14576253Y-12880531D02*
X14557206Y-12909103D01*
X14557206Y-12909103D02*
X14547682Y-12947198D01*
X14547682Y-12947198D02*
X14547682Y-13023388D01*
X14547682Y-13023388D02*
X14557206Y-13042436D01*
X14557206Y-13042436D02*
X14566729Y-13051960D01*
X14566729Y-13051960D02*
X14585777Y-13061484D01*
X14585777Y-13061484D02*
X14623872Y-13061484D01*
X14623872Y-13061484D02*
X14642920Y-13051960D01*
X14642920Y-13051960D02*
X14652444Y-13042436D01*
X14652444Y-13042436D02*
X14661967Y-13023388D01*
X14661967Y-13023388D02*
X14661967Y-12975769D01*
X14661967Y-12975769D02*
X14652444Y-12956722D01*
X14652444Y-12956722D02*
X14642920Y-12947198D01*
X14642920Y-12947198D02*
X14623872Y-12937674D01*
X14623872Y-12937674D02*
X14585777Y-12937674D01*
X14585777Y-12937674D02*
X14566729Y-12947198D01*
X14566729Y-12947198D02*
X14557206Y-12956722D01*
X14557206Y-12956722D02*
X14547682Y-12975769D01*
X14785777Y-12861484D02*
X14804825Y-12861484D01*
X14804825Y-12861484D02*
X14823872Y-12871008D01*
X14823872Y-12871008D02*
X14833396Y-12880531D01*
X14833396Y-12880531D02*
X14842920Y-12899579D01*
X14842920Y-12899579D02*
X14852444Y-12937674D01*
X14852444Y-12937674D02*
X14852444Y-12985293D01*
X14852444Y-12985293D02*
X14842920Y-13023388D01*
X14842920Y-13023388D02*
X14833396Y-13042436D01*
X14833396Y-13042436D02*
X14823872Y-13051960D01*
X14823872Y-13051960D02*
X14804825Y-13061484D01*
X14804825Y-13061484D02*
X14785777Y-13061484D01*
X14785777Y-13061484D02*
X14766729Y-13051960D01*
X14766729Y-13051960D02*
X14757206Y-13042436D01*
X14757206Y-13042436D02*
X14747682Y-13023388D01*
X14747682Y-13023388D02*
X14738158Y-12985293D01*
X14738158Y-12985293D02*
X14738158Y-12937674D01*
X14738158Y-12937674D02*
X14747682Y-12899579D01*
X14747682Y-12899579D02*
X14757206Y-12880531D01*
X14757206Y-12880531D02*
X14766729Y-12871008D01*
X14766729Y-12871008D02*
X14785777Y-12861484D01*
X14928634Y-12861484D02*
X14928634Y-12899579D01*
X15004825Y-12861484D02*
X15004825Y-12899579D01*
X15300063Y-13137674D02*
X15290539Y-13128150D01*
X15290539Y-13128150D02*
X15271491Y-13099579D01*
X15271491Y-13099579D02*
X15261968Y-13080531D01*
X15261968Y-13080531D02*
X15252444Y-13051960D01*
X15252444Y-13051960D02*
X15242920Y-13004341D01*
X15242920Y-13004341D02*
X15242920Y-12966246D01*
X15242920Y-12966246D02*
X15252444Y-12918627D01*
X15252444Y-12918627D02*
X15261968Y-12890055D01*
X15261968Y-12890055D02*
X15271491Y-12871008D01*
X15271491Y-12871008D02*
X15290539Y-12842436D01*
X15290539Y-12842436D02*
X15300063Y-12832912D01*
X15461968Y-12928150D02*
X15461968Y-13061484D01*
X15414348Y-12851960D02*
X15366729Y-12994817D01*
X15366729Y-12994817D02*
X15490539Y-12994817D01*
X15719110Y-13061484D02*
X15719110Y-12861484D01*
X15804825Y-13061484D02*
X15804825Y-12956722D01*
X15804825Y-12956722D02*
X15795301Y-12937674D01*
X15795301Y-12937674D02*
X15776253Y-12928150D01*
X15776253Y-12928150D02*
X15747682Y-12928150D01*
X15747682Y-12928150D02*
X15728634Y-12937674D01*
X15728634Y-12937674D02*
X15719110Y-12947198D01*
X15928634Y-13061484D02*
X15909587Y-13051960D01*
X15909587Y-13051960D02*
X15900063Y-13042436D01*
X15900063Y-13042436D02*
X15890539Y-13023388D01*
X15890539Y-13023388D02*
X15890539Y-12966246D01*
X15890539Y-12966246D02*
X15900063Y-12947198D01*
X15900063Y-12947198D02*
X15909587Y-12937674D01*
X15909587Y-12937674D02*
X15928634Y-12928150D01*
X15928634Y-12928150D02*
X15957206Y-12928150D01*
X15957206Y-12928150D02*
X15976253Y-12937674D01*
X15976253Y-12937674D02*
X15985777Y-12947198D01*
X15985777Y-12947198D02*
X15995301Y-12966246D01*
X15995301Y-12966246D02*
X15995301Y-13023388D01*
X15995301Y-13023388D02*
X15985777Y-13042436D01*
X15985777Y-13042436D02*
X15976253Y-13051960D01*
X15976253Y-13051960D02*
X15957206Y-13061484D01*
X15957206Y-13061484D02*
X15928634Y-13061484D01*
X16109587Y-13061484D02*
X16090539Y-13051960D01*
X16090539Y-13051960D02*
X16081015Y-13032912D01*
X16081015Y-13032912D02*
X16081015Y-12861484D01*
X16261968Y-13051960D02*
X16242920Y-13061484D01*
X16242920Y-13061484D02*
X16204825Y-13061484D01*
X16204825Y-13061484D02*
X16185777Y-13051960D01*
X16185777Y-13051960D02*
X16176253Y-13032912D01*
X16176253Y-13032912D02*
X16176253Y-12956722D01*
X16176253Y-12956722D02*
X16185777Y-12937674D01*
X16185777Y-12937674D02*
X16204825Y-12928150D01*
X16204825Y-12928150D02*
X16242920Y-12928150D01*
X16242920Y-12928150D02*
X16261968Y-12937674D01*
X16261968Y-12937674D02*
X16271491Y-12956722D01*
X16271491Y-12956722D02*
X16271491Y-12975769D01*
X16271491Y-12975769D02*
X16176253Y-12994817D01*
X16347682Y-13051960D02*
X16366730Y-13061484D01*
X16366730Y-13061484D02*
X16404825Y-13061484D01*
X16404825Y-13061484D02*
X16423872Y-13051960D01*
X16423872Y-13051960D02*
X16433396Y-13032912D01*
X16433396Y-13032912D02*
X16433396Y-13023388D01*
X16433396Y-13023388D02*
X16423872Y-13004341D01*
X16423872Y-13004341D02*
X16404825Y-12994817D01*
X16404825Y-12994817D02*
X16376253Y-12994817D01*
X16376253Y-12994817D02*
X16357206Y-12985293D01*
X16357206Y-12985293D02*
X16347682Y-12966246D01*
X16347682Y-12966246D02*
X16347682Y-12956722D01*
X16347682Y-12956722D02*
X16357206Y-12937674D01*
X16357206Y-12937674D02*
X16376253Y-12928150D01*
X16376253Y-12928150D02*
X16404825Y-12928150D01*
X16404825Y-12928150D02*
X16423872Y-12937674D01*
X16500063Y-13137674D02*
X16509587Y-13128150D01*
X16509587Y-13128150D02*
X16528634Y-13099579D01*
X16528634Y-13099579D02*
X16538158Y-13080531D01*
X16538158Y-13080531D02*
X16547682Y-13051960D01*
X16547682Y-13051960D02*
X16557206Y-13004341D01*
X16557206Y-13004341D02*
X16557206Y-12966246D01*
X16557206Y-12966246D02*
X16547682Y-12918627D01*
X16547682Y-12918627D02*
X16538158Y-12890055D01*
X16538158Y-12890055D02*
X16528634Y-12871008D01*
X16528634Y-12871008D02*
X16509587Y-12842436D01*
X16509587Y-12842436D02*
X16500063Y-12832912D01*
M02*
