%TF.GenerationSoftware,KiCad,Pcbnew,8.0.3*%
%TF.CreationDate,2024-07-16T23:19:00+08:00*%
%TF.ProjectId,mspm0,6d73706d-302e-46b6-9963-61645f706362,rev?*%
%TF.SameCoordinates,Original*%
%TF.FileFunction,Legend,Bot*%
%TF.FilePolarity,Positive*%
%FSLAX46Y46*%
G04 Gerber Fmt 4.6, Leading zero omitted, Abs format (unit mm)*
G04 Created by KiCad (PCBNEW 8.0.3) date 2024-07-16 23:19:00*
%MOMM*%
%LPD*%
G01*
G04 APERTURE LIST*
%ADD10C,0.150000*%
%ADD11C,0.300000*%
%ADD12C,0.250000*%
%ADD13C,0.120000*%
G04 APERTURE END LIST*
D10*
X177150000Y-103400000D02*
X179900000Y-100650000D01*
X177150000Y-106600000D02*
X177150000Y-103400000D01*
X179900000Y-100650000D02*
X179900000Y-94950000D01*
D11*
X181121671Y-72407142D02*
X182621671Y-72407142D01*
X182621671Y-72407142D02*
X182621671Y-72049999D01*
X182621671Y-72049999D02*
X182550242Y-71835713D01*
X182550242Y-71835713D02*
X182407385Y-71692856D01*
X182407385Y-71692856D02*
X182264528Y-71621427D01*
X182264528Y-71621427D02*
X181978814Y-71549999D01*
X181978814Y-71549999D02*
X181764528Y-71549999D01*
X181764528Y-71549999D02*
X181478814Y-71621427D01*
X181478814Y-71621427D02*
X181335957Y-71692856D01*
X181335957Y-71692856D02*
X181193100Y-71835713D01*
X181193100Y-71835713D02*
X181121671Y-72049999D01*
X181121671Y-72049999D02*
X181121671Y-72407142D01*
X181264528Y-70049999D02*
X181193100Y-70121427D01*
X181193100Y-70121427D02*
X181121671Y-70335713D01*
X181121671Y-70335713D02*
X181121671Y-70478570D01*
X181121671Y-70478570D02*
X181193100Y-70692856D01*
X181193100Y-70692856D02*
X181335957Y-70835713D01*
X181335957Y-70835713D02*
X181478814Y-70907142D01*
X181478814Y-70907142D02*
X181764528Y-70978570D01*
X181764528Y-70978570D02*
X181978814Y-70978570D01*
X181978814Y-70978570D02*
X182264528Y-70907142D01*
X182264528Y-70907142D02*
X182407385Y-70835713D01*
X182407385Y-70835713D02*
X182550242Y-70692856D01*
X182550242Y-70692856D02*
X182621671Y-70478570D01*
X182621671Y-70478570D02*
X182621671Y-70335713D01*
X182621671Y-70335713D02*
X182550242Y-70121427D01*
X182550242Y-70121427D02*
X182478814Y-70049999D01*
X182550242Y-68621427D02*
X182621671Y-68764285D01*
X182621671Y-68764285D02*
X182621671Y-68978570D01*
X182621671Y-68978570D02*
X182550242Y-69192856D01*
X182550242Y-69192856D02*
X182407385Y-69335713D01*
X182407385Y-69335713D02*
X182264528Y-69407142D01*
X182264528Y-69407142D02*
X181978814Y-69478570D01*
X181978814Y-69478570D02*
X181764528Y-69478570D01*
X181764528Y-69478570D02*
X181478814Y-69407142D01*
X181478814Y-69407142D02*
X181335957Y-69335713D01*
X181335957Y-69335713D02*
X181193100Y-69192856D01*
X181193100Y-69192856D02*
X181121671Y-68978570D01*
X181121671Y-68978570D02*
X181121671Y-68835713D01*
X181121671Y-68835713D02*
X181193100Y-68621427D01*
X181193100Y-68621427D02*
X181264528Y-68549999D01*
X181264528Y-68549999D02*
X181764528Y-68549999D01*
X181764528Y-68549999D02*
X181764528Y-68835713D01*
X182621671Y-68049999D02*
X182621671Y-67121427D01*
X182621671Y-67121427D02*
X182050242Y-67621427D01*
X182050242Y-67621427D02*
X182050242Y-67407142D01*
X182050242Y-67407142D02*
X181978814Y-67264285D01*
X181978814Y-67264285D02*
X181907385Y-67192856D01*
X181907385Y-67192856D02*
X181764528Y-67121427D01*
X181764528Y-67121427D02*
X181407385Y-67121427D01*
X181407385Y-67121427D02*
X181264528Y-67192856D01*
X181264528Y-67192856D02*
X181193100Y-67264285D01*
X181193100Y-67264285D02*
X181121671Y-67407142D01*
X181121671Y-67407142D02*
X181121671Y-67835713D01*
X181121671Y-67835713D02*
X181193100Y-67978570D01*
X181193100Y-67978570D02*
X181264528Y-68049999D01*
X154828571Y-52140233D02*
X153685714Y-52140233D01*
X154257142Y-52711661D02*
X154257142Y-51568804D01*
X152257142Y-51211661D02*
X152971428Y-51211661D01*
X152971428Y-51211661D02*
X153042856Y-51925947D01*
X153042856Y-51925947D02*
X152971428Y-51854518D01*
X152971428Y-51854518D02*
X152828571Y-51783090D01*
X152828571Y-51783090D02*
X152471428Y-51783090D01*
X152471428Y-51783090D02*
X152328571Y-51854518D01*
X152328571Y-51854518D02*
X152257142Y-51925947D01*
X152257142Y-51925947D02*
X152185713Y-52068804D01*
X152185713Y-52068804D02*
X152185713Y-52425947D01*
X152185713Y-52425947D02*
X152257142Y-52568804D01*
X152257142Y-52568804D02*
X152328571Y-52640233D01*
X152328571Y-52640233D02*
X152471428Y-52711661D01*
X152471428Y-52711661D02*
X152828571Y-52711661D01*
X152828571Y-52711661D02*
X152971428Y-52640233D01*
X152971428Y-52640233D02*
X153042856Y-52568804D01*
X151757142Y-51211661D02*
X151257142Y-52711661D01*
X151257142Y-52711661D02*
X150757142Y-51211661D01*
X154042856Y-56349756D02*
X154185714Y-56278327D01*
X154185714Y-56278327D02*
X154399999Y-56278327D01*
X154399999Y-56278327D02*
X154614285Y-56349756D01*
X154614285Y-56349756D02*
X154757142Y-56492613D01*
X154757142Y-56492613D02*
X154828571Y-56635470D01*
X154828571Y-56635470D02*
X154899999Y-56921184D01*
X154899999Y-56921184D02*
X154899999Y-57135470D01*
X154899999Y-57135470D02*
X154828571Y-57421184D01*
X154828571Y-57421184D02*
X154757142Y-57564041D01*
X154757142Y-57564041D02*
X154614285Y-57706899D01*
X154614285Y-57706899D02*
X154399999Y-57778327D01*
X154399999Y-57778327D02*
X154257142Y-57778327D01*
X154257142Y-57778327D02*
X154042856Y-57706899D01*
X154042856Y-57706899D02*
X153971428Y-57635470D01*
X153971428Y-57635470D02*
X153971428Y-57135470D01*
X153971428Y-57135470D02*
X154257142Y-57135470D01*
X153328571Y-57778327D02*
X153328571Y-56278327D01*
X153328571Y-56278327D02*
X152471428Y-57778327D01*
X152471428Y-57778327D02*
X152471428Y-56278327D01*
X151757142Y-57778327D02*
X151757142Y-56278327D01*
X151757142Y-56278327D02*
X151399999Y-56278327D01*
X151399999Y-56278327D02*
X151185713Y-56349756D01*
X151185713Y-56349756D02*
X151042856Y-56492613D01*
X151042856Y-56492613D02*
X150971427Y-56635470D01*
X150971427Y-56635470D02*
X150899999Y-56921184D01*
X150899999Y-56921184D02*
X150899999Y-57135470D01*
X150899999Y-57135470D02*
X150971427Y-57421184D01*
X150971427Y-57421184D02*
X151042856Y-57564041D01*
X151042856Y-57564041D02*
X151185713Y-57706899D01*
X151185713Y-57706899D02*
X151399999Y-57778327D01*
X151399999Y-57778327D02*
X151757142Y-57778327D01*
X155899999Y-54673566D02*
X154757142Y-54673566D01*
X155328570Y-55244994D02*
X155328570Y-54102137D01*
X154185713Y-53744994D02*
X153257141Y-53744994D01*
X153257141Y-53744994D02*
X153757141Y-54316423D01*
X153757141Y-54316423D02*
X153542856Y-54316423D01*
X153542856Y-54316423D02*
X153399999Y-54387851D01*
X153399999Y-54387851D02*
X153328570Y-54459280D01*
X153328570Y-54459280D02*
X153257141Y-54602137D01*
X153257141Y-54602137D02*
X153257141Y-54959280D01*
X153257141Y-54959280D02*
X153328570Y-55102137D01*
X153328570Y-55102137D02*
X153399999Y-55173566D01*
X153399999Y-55173566D02*
X153542856Y-55244994D01*
X153542856Y-55244994D02*
X153971427Y-55244994D01*
X153971427Y-55244994D02*
X154114284Y-55173566D01*
X154114284Y-55173566D02*
X154185713Y-55102137D01*
X152614285Y-55102137D02*
X152542856Y-55173566D01*
X152542856Y-55173566D02*
X152614285Y-55244994D01*
X152614285Y-55244994D02*
X152685713Y-55173566D01*
X152685713Y-55173566D02*
X152614285Y-55102137D01*
X152614285Y-55102137D02*
X152614285Y-55244994D01*
X152042856Y-53744994D02*
X151114284Y-53744994D01*
X151114284Y-53744994D02*
X151614284Y-54316423D01*
X151614284Y-54316423D02*
X151399999Y-54316423D01*
X151399999Y-54316423D02*
X151257142Y-54387851D01*
X151257142Y-54387851D02*
X151185713Y-54459280D01*
X151185713Y-54459280D02*
X151114284Y-54602137D01*
X151114284Y-54602137D02*
X151114284Y-54959280D01*
X151114284Y-54959280D02*
X151185713Y-55102137D01*
X151185713Y-55102137D02*
X151257142Y-55173566D01*
X151257142Y-55173566D02*
X151399999Y-55244994D01*
X151399999Y-55244994D02*
X151828570Y-55244994D01*
X151828570Y-55244994D02*
X151971427Y-55173566D01*
X151971427Y-55173566D02*
X152042856Y-55102137D01*
X150685713Y-53744994D02*
X150185713Y-55244994D01*
X150185713Y-55244994D02*
X149685713Y-53744994D01*
X181271671Y-99642857D02*
X180271671Y-99642857D01*
X181843100Y-99999999D02*
X180771671Y-100357142D01*
X180771671Y-100357142D02*
X180771671Y-99428571D01*
X180271671Y-99000000D02*
X181271671Y-98214286D01*
X181271671Y-99000000D02*
X180271671Y-98214286D01*
X180271671Y-97642857D02*
X181771671Y-97642857D01*
X181771671Y-97642857D02*
X180700242Y-97142857D01*
X180700242Y-97142857D02*
X181771671Y-96642857D01*
X181771671Y-96642857D02*
X180271671Y-96642857D01*
X181771671Y-96071428D02*
X181771671Y-95142856D01*
X181771671Y-95142856D02*
X181200242Y-95642856D01*
X181200242Y-95642856D02*
X181200242Y-95428571D01*
X181200242Y-95428571D02*
X181128814Y-95285714D01*
X181128814Y-95285714D02*
X181057385Y-95214285D01*
X181057385Y-95214285D02*
X180914528Y-95142856D01*
X180914528Y-95142856D02*
X180557385Y-95142856D01*
X180557385Y-95142856D02*
X180414528Y-95214285D01*
X180414528Y-95214285D02*
X180343100Y-95285714D01*
X180343100Y-95285714D02*
X180271671Y-95428571D01*
X180271671Y-95428571D02*
X180271671Y-95857142D01*
X180271671Y-95857142D02*
X180343100Y-95999999D01*
X180343100Y-95999999D02*
X180414528Y-96071428D01*
X147114285Y-37228328D02*
X146828571Y-37228328D01*
X146828571Y-37228328D02*
X146685714Y-37299757D01*
X146685714Y-37299757D02*
X146542857Y-37442614D01*
X146542857Y-37442614D02*
X146471428Y-37728328D01*
X146471428Y-37728328D02*
X146471428Y-38228328D01*
X146471428Y-38228328D02*
X146542857Y-38514042D01*
X146542857Y-38514042D02*
X146685714Y-38656900D01*
X146685714Y-38656900D02*
X146828571Y-38728328D01*
X146828571Y-38728328D02*
X147114285Y-38728328D01*
X147114285Y-38728328D02*
X147257143Y-38656900D01*
X147257143Y-38656900D02*
X147400000Y-38514042D01*
X147400000Y-38514042D02*
X147471428Y-38228328D01*
X147471428Y-38228328D02*
X147471428Y-37728328D01*
X147471428Y-37728328D02*
X147400000Y-37442614D01*
X147400000Y-37442614D02*
X147257143Y-37299757D01*
X147257143Y-37299757D02*
X147114285Y-37228328D01*
X145328571Y-37942614D02*
X145828571Y-37942614D01*
X145828571Y-38728328D02*
X145828571Y-37228328D01*
X145828571Y-37228328D02*
X145114285Y-37228328D01*
X144042857Y-37942614D02*
X144542857Y-37942614D01*
X144542857Y-38728328D02*
X144542857Y-37228328D01*
X144542857Y-37228328D02*
X143828571Y-37228328D01*
X142900000Y-39228328D02*
X142900000Y-37085471D01*
X141542857Y-37228328D02*
X141257143Y-37228328D01*
X141257143Y-37228328D02*
X141114286Y-37299757D01*
X141114286Y-37299757D02*
X140971429Y-37442614D01*
X140971429Y-37442614D02*
X140900000Y-37728328D01*
X140900000Y-37728328D02*
X140900000Y-38228328D01*
X140900000Y-38228328D02*
X140971429Y-38514042D01*
X140971429Y-38514042D02*
X141114286Y-38656900D01*
X141114286Y-38656900D02*
X141257143Y-38728328D01*
X141257143Y-38728328D02*
X141542857Y-38728328D01*
X141542857Y-38728328D02*
X141685715Y-38656900D01*
X141685715Y-38656900D02*
X141828572Y-38514042D01*
X141828572Y-38514042D02*
X141900000Y-38228328D01*
X141900000Y-38228328D02*
X141900000Y-37728328D01*
X141900000Y-37728328D02*
X141828572Y-37442614D01*
X141828572Y-37442614D02*
X141685715Y-37299757D01*
X141685715Y-37299757D02*
X141542857Y-37228328D01*
X140257143Y-38728328D02*
X140257143Y-37228328D01*
X140257143Y-37228328D02*
X139400000Y-38728328D01*
X139400000Y-38728328D02*
X139400000Y-37228328D01*
X155542856Y-49606900D02*
X154399999Y-49606900D01*
X154971427Y-50178328D02*
X154971427Y-49035471D01*
X152899998Y-50178328D02*
X153757141Y-50178328D01*
X153328570Y-50178328D02*
X153328570Y-48678328D01*
X153328570Y-48678328D02*
X153471427Y-48892614D01*
X153471427Y-48892614D02*
X153614284Y-49035471D01*
X153614284Y-49035471D02*
X153757141Y-49106900D01*
X152328570Y-48821185D02*
X152257142Y-48749757D01*
X152257142Y-48749757D02*
X152114285Y-48678328D01*
X152114285Y-48678328D02*
X151757142Y-48678328D01*
X151757142Y-48678328D02*
X151614285Y-48749757D01*
X151614285Y-48749757D02*
X151542856Y-48821185D01*
X151542856Y-48821185D02*
X151471427Y-48964042D01*
X151471427Y-48964042D02*
X151471427Y-49106900D01*
X151471427Y-49106900D02*
X151542856Y-49321185D01*
X151542856Y-49321185D02*
X152399999Y-50178328D01*
X152399999Y-50178328D02*
X151471427Y-50178328D01*
X151042856Y-48678328D02*
X150542856Y-50178328D01*
X150542856Y-50178328D02*
X150042856Y-48678328D01*
D12*
X180995050Y-37898988D02*
X180518860Y-37898988D01*
X181090288Y-38184703D02*
X180756955Y-37184703D01*
X180756955Y-37184703D02*
X180423622Y-38184703D01*
X179661717Y-37518036D02*
X179661717Y-38184703D01*
X180090288Y-37518036D02*
X180090288Y-38041845D01*
X180090288Y-38041845D02*
X180042669Y-38137084D01*
X180042669Y-38137084D02*
X179947431Y-38184703D01*
X179947431Y-38184703D02*
X179804574Y-38184703D01*
X179804574Y-38184703D02*
X179709336Y-38137084D01*
X179709336Y-38137084D02*
X179661717Y-38089464D01*
X179328383Y-37518036D02*
X178947431Y-37518036D01*
X179185526Y-37184703D02*
X179185526Y-38041845D01*
X179185526Y-38041845D02*
X179137907Y-38137084D01*
X179137907Y-38137084D02*
X179042669Y-38184703D01*
X179042669Y-38184703D02*
X178947431Y-38184703D01*
X178614097Y-38184703D02*
X178614097Y-37184703D01*
X178185526Y-38184703D02*
X178185526Y-37660893D01*
X178185526Y-37660893D02*
X178233145Y-37565655D01*
X178233145Y-37565655D02*
X178328383Y-37518036D01*
X178328383Y-37518036D02*
X178471240Y-37518036D01*
X178471240Y-37518036D02*
X178566478Y-37565655D01*
X178566478Y-37565655D02*
X178614097Y-37613274D01*
X177566478Y-38184703D02*
X177661716Y-38137084D01*
X177661716Y-38137084D02*
X177709335Y-38089464D01*
X177709335Y-38089464D02*
X177756954Y-37994226D01*
X177756954Y-37994226D02*
X177756954Y-37708512D01*
X177756954Y-37708512D02*
X177709335Y-37613274D01*
X177709335Y-37613274D02*
X177661716Y-37565655D01*
X177661716Y-37565655D02*
X177566478Y-37518036D01*
X177566478Y-37518036D02*
X177423621Y-37518036D01*
X177423621Y-37518036D02*
X177328383Y-37565655D01*
X177328383Y-37565655D02*
X177280764Y-37613274D01*
X177280764Y-37613274D02*
X177233145Y-37708512D01*
X177233145Y-37708512D02*
X177233145Y-37994226D01*
X177233145Y-37994226D02*
X177280764Y-38089464D01*
X177280764Y-38089464D02*
X177328383Y-38137084D01*
X177328383Y-38137084D02*
X177423621Y-38184703D01*
X177423621Y-38184703D02*
X177566478Y-38184703D01*
X176804573Y-38184703D02*
X176804573Y-37518036D01*
X176804573Y-37708512D02*
X176756954Y-37613274D01*
X176756954Y-37613274D02*
X176709335Y-37565655D01*
X176709335Y-37565655D02*
X176614097Y-37518036D01*
X176614097Y-37518036D02*
X176518859Y-37518036D01*
X176185525Y-38089464D02*
X176137906Y-38137084D01*
X176137906Y-38137084D02*
X176185525Y-38184703D01*
X176185525Y-38184703D02*
X176233144Y-38137084D01*
X176233144Y-38137084D02*
X176185525Y-38089464D01*
X176185525Y-38089464D02*
X176185525Y-38184703D01*
X176185525Y-37565655D02*
X176137906Y-37613274D01*
X176137906Y-37613274D02*
X176185525Y-37660893D01*
X176185525Y-37660893D02*
X176233144Y-37613274D01*
X176233144Y-37613274D02*
X176185525Y-37565655D01*
X176185525Y-37565655D02*
X176185525Y-37660893D01*
X174995049Y-37898988D02*
X174518859Y-37898988D01*
X175090287Y-38184703D02*
X174756954Y-37184703D01*
X174756954Y-37184703D02*
X174423621Y-38184703D01*
X173947430Y-38184703D02*
X174042668Y-38137084D01*
X174042668Y-38137084D02*
X174090287Y-38041845D01*
X174090287Y-38041845D02*
X174090287Y-37184703D01*
X173566477Y-38184703D02*
X173566477Y-37518036D01*
X173566477Y-37184703D02*
X173614096Y-37232322D01*
X173614096Y-37232322D02*
X173566477Y-37279941D01*
X173566477Y-37279941D02*
X173518858Y-37232322D01*
X173518858Y-37232322D02*
X173566477Y-37184703D01*
X173566477Y-37184703D02*
X173566477Y-37279941D01*
X173090287Y-37518036D02*
X173090287Y-38518036D01*
X173090287Y-37565655D02*
X172995049Y-37518036D01*
X172995049Y-37518036D02*
X172804573Y-37518036D01*
X172804573Y-37518036D02*
X172709335Y-37565655D01*
X172709335Y-37565655D02*
X172661716Y-37613274D01*
X172661716Y-37613274D02*
X172614097Y-37708512D01*
X172614097Y-37708512D02*
X172614097Y-37994226D01*
X172614097Y-37994226D02*
X172661716Y-38089464D01*
X172661716Y-38089464D02*
X172709335Y-38137084D01*
X172709335Y-38137084D02*
X172804573Y-38184703D01*
X172804573Y-38184703D02*
X172995049Y-38184703D01*
X172995049Y-38184703D02*
X173090287Y-38137084D01*
X171756954Y-38184703D02*
X171756954Y-37660893D01*
X171756954Y-37660893D02*
X171804573Y-37565655D01*
X171804573Y-37565655D02*
X171899811Y-37518036D01*
X171899811Y-37518036D02*
X172090287Y-37518036D01*
X172090287Y-37518036D02*
X172185525Y-37565655D01*
X171756954Y-38137084D02*
X171852192Y-38184703D01*
X171852192Y-38184703D02*
X172090287Y-38184703D01*
X172090287Y-38184703D02*
X172185525Y-38137084D01*
X172185525Y-38137084D02*
X172233144Y-38041845D01*
X172233144Y-38041845D02*
X172233144Y-37946607D01*
X172233144Y-37946607D02*
X172185525Y-37851369D01*
X172185525Y-37851369D02*
X172090287Y-37803750D01*
X172090287Y-37803750D02*
X171852192Y-37803750D01*
X171852192Y-37803750D02*
X171756954Y-37756131D01*
X171376001Y-37518036D02*
X171137906Y-38184703D01*
X170899811Y-37518036D02*
X171137906Y-38184703D01*
X171137906Y-38184703D02*
X171233144Y-38422798D01*
X171233144Y-38422798D02*
X171280763Y-38470417D01*
X171280763Y-38470417D02*
X171376001Y-38518036D01*
X180947431Y-39794647D02*
X180947431Y-38794647D01*
X180947431Y-38794647D02*
X180709336Y-38794647D01*
X180709336Y-38794647D02*
X180566479Y-38842266D01*
X180566479Y-38842266D02*
X180471241Y-38937504D01*
X180471241Y-38937504D02*
X180423622Y-39032742D01*
X180423622Y-39032742D02*
X180376003Y-39223218D01*
X180376003Y-39223218D02*
X180376003Y-39366075D01*
X180376003Y-39366075D02*
X180423622Y-39556551D01*
X180423622Y-39556551D02*
X180471241Y-39651789D01*
X180471241Y-39651789D02*
X180566479Y-39747028D01*
X180566479Y-39747028D02*
X180709336Y-39794647D01*
X180709336Y-39794647D02*
X180947431Y-39794647D01*
X179518860Y-39794647D02*
X179518860Y-39270837D01*
X179518860Y-39270837D02*
X179566479Y-39175599D01*
X179566479Y-39175599D02*
X179661717Y-39127980D01*
X179661717Y-39127980D02*
X179852193Y-39127980D01*
X179852193Y-39127980D02*
X179947431Y-39175599D01*
X179518860Y-39747028D02*
X179614098Y-39794647D01*
X179614098Y-39794647D02*
X179852193Y-39794647D01*
X179852193Y-39794647D02*
X179947431Y-39747028D01*
X179947431Y-39747028D02*
X179995050Y-39651789D01*
X179995050Y-39651789D02*
X179995050Y-39556551D01*
X179995050Y-39556551D02*
X179947431Y-39461313D01*
X179947431Y-39461313D02*
X179852193Y-39413694D01*
X179852193Y-39413694D02*
X179614098Y-39413694D01*
X179614098Y-39413694D02*
X179518860Y-39366075D01*
X179185526Y-39127980D02*
X178804574Y-39127980D01*
X179042669Y-38794647D02*
X179042669Y-39651789D01*
X179042669Y-39651789D02*
X178995050Y-39747028D01*
X178995050Y-39747028D02*
X178899812Y-39794647D01*
X178899812Y-39794647D02*
X178804574Y-39794647D01*
X178090288Y-39747028D02*
X178185526Y-39794647D01*
X178185526Y-39794647D02*
X178376002Y-39794647D01*
X178376002Y-39794647D02*
X178471240Y-39747028D01*
X178471240Y-39747028D02*
X178518859Y-39651789D01*
X178518859Y-39651789D02*
X178518859Y-39270837D01*
X178518859Y-39270837D02*
X178471240Y-39175599D01*
X178471240Y-39175599D02*
X178376002Y-39127980D01*
X178376002Y-39127980D02*
X178185526Y-39127980D01*
X178185526Y-39127980D02*
X178090288Y-39175599D01*
X178090288Y-39175599D02*
X178042669Y-39270837D01*
X178042669Y-39270837D02*
X178042669Y-39366075D01*
X178042669Y-39366075D02*
X178518859Y-39461313D01*
X177614097Y-39699408D02*
X177566478Y-39747028D01*
X177566478Y-39747028D02*
X177614097Y-39794647D01*
X177614097Y-39794647D02*
X177661716Y-39747028D01*
X177661716Y-39747028D02*
X177614097Y-39699408D01*
X177614097Y-39699408D02*
X177614097Y-39794647D01*
X177614097Y-39175599D02*
X177566478Y-39223218D01*
X177566478Y-39223218D02*
X177614097Y-39270837D01*
X177614097Y-39270837D02*
X177661716Y-39223218D01*
X177661716Y-39223218D02*
X177614097Y-39175599D01*
X177614097Y-39175599D02*
X177614097Y-39270837D01*
X174899811Y-38889885D02*
X174852192Y-38842266D01*
X174852192Y-38842266D02*
X174756954Y-38794647D01*
X174756954Y-38794647D02*
X174518859Y-38794647D01*
X174518859Y-38794647D02*
X174423621Y-38842266D01*
X174423621Y-38842266D02*
X174376002Y-38889885D01*
X174376002Y-38889885D02*
X174328383Y-38985123D01*
X174328383Y-38985123D02*
X174328383Y-39080361D01*
X174328383Y-39080361D02*
X174376002Y-39223218D01*
X174376002Y-39223218D02*
X174947430Y-39794647D01*
X174947430Y-39794647D02*
X174328383Y-39794647D01*
X173709335Y-38794647D02*
X173614097Y-38794647D01*
X173614097Y-38794647D02*
X173518859Y-38842266D01*
X173518859Y-38842266D02*
X173471240Y-38889885D01*
X173471240Y-38889885D02*
X173423621Y-38985123D01*
X173423621Y-38985123D02*
X173376002Y-39175599D01*
X173376002Y-39175599D02*
X173376002Y-39413694D01*
X173376002Y-39413694D02*
X173423621Y-39604170D01*
X173423621Y-39604170D02*
X173471240Y-39699408D01*
X173471240Y-39699408D02*
X173518859Y-39747028D01*
X173518859Y-39747028D02*
X173614097Y-39794647D01*
X173614097Y-39794647D02*
X173709335Y-39794647D01*
X173709335Y-39794647D02*
X173804573Y-39747028D01*
X173804573Y-39747028D02*
X173852192Y-39699408D01*
X173852192Y-39699408D02*
X173899811Y-39604170D01*
X173899811Y-39604170D02*
X173947430Y-39413694D01*
X173947430Y-39413694D02*
X173947430Y-39175599D01*
X173947430Y-39175599D02*
X173899811Y-38985123D01*
X173899811Y-38985123D02*
X173852192Y-38889885D01*
X173852192Y-38889885D02*
X173804573Y-38842266D01*
X173804573Y-38842266D02*
X173709335Y-38794647D01*
X172995049Y-38889885D02*
X172947430Y-38842266D01*
X172947430Y-38842266D02*
X172852192Y-38794647D01*
X172852192Y-38794647D02*
X172614097Y-38794647D01*
X172614097Y-38794647D02*
X172518859Y-38842266D01*
X172518859Y-38842266D02*
X172471240Y-38889885D01*
X172471240Y-38889885D02*
X172423621Y-38985123D01*
X172423621Y-38985123D02*
X172423621Y-39080361D01*
X172423621Y-39080361D02*
X172471240Y-39223218D01*
X172471240Y-39223218D02*
X173042668Y-39794647D01*
X173042668Y-39794647D02*
X172423621Y-39794647D01*
X171566478Y-39127980D02*
X171566478Y-39794647D01*
X171804573Y-38747028D02*
X172042668Y-39461313D01*
X172042668Y-39461313D02*
X171423621Y-39461313D01*
X171042668Y-39413694D02*
X170280764Y-39413694D01*
X169614097Y-38794647D02*
X169518859Y-38794647D01*
X169518859Y-38794647D02*
X169423621Y-38842266D01*
X169423621Y-38842266D02*
X169376002Y-38889885D01*
X169376002Y-38889885D02*
X169328383Y-38985123D01*
X169328383Y-38985123D02*
X169280764Y-39175599D01*
X169280764Y-39175599D02*
X169280764Y-39413694D01*
X169280764Y-39413694D02*
X169328383Y-39604170D01*
X169328383Y-39604170D02*
X169376002Y-39699408D01*
X169376002Y-39699408D02*
X169423621Y-39747028D01*
X169423621Y-39747028D02*
X169518859Y-39794647D01*
X169518859Y-39794647D02*
X169614097Y-39794647D01*
X169614097Y-39794647D02*
X169709335Y-39747028D01*
X169709335Y-39747028D02*
X169756954Y-39699408D01*
X169756954Y-39699408D02*
X169804573Y-39604170D01*
X169804573Y-39604170D02*
X169852192Y-39413694D01*
X169852192Y-39413694D02*
X169852192Y-39175599D01*
X169852192Y-39175599D02*
X169804573Y-38985123D01*
X169804573Y-38985123D02*
X169756954Y-38889885D01*
X169756954Y-38889885D02*
X169709335Y-38842266D01*
X169709335Y-38842266D02*
X169614097Y-38794647D01*
X168423621Y-39127980D02*
X168423621Y-39794647D01*
X168661716Y-38747028D02*
X168899811Y-39461313D01*
X168899811Y-39461313D02*
X168280764Y-39461313D01*
X167899811Y-39413694D02*
X167137907Y-39413694D01*
X166137907Y-39794647D02*
X166709335Y-39794647D01*
X166423621Y-39794647D02*
X166423621Y-38794647D01*
X166423621Y-38794647D02*
X166518859Y-38937504D01*
X166518859Y-38937504D02*
X166614097Y-39032742D01*
X166614097Y-39032742D02*
X166709335Y-39080361D01*
X165280764Y-38794647D02*
X165471240Y-38794647D01*
X165471240Y-38794647D02*
X165566478Y-38842266D01*
X165566478Y-38842266D02*
X165614097Y-38889885D01*
X165614097Y-38889885D02*
X165709335Y-39032742D01*
X165709335Y-39032742D02*
X165756954Y-39223218D01*
X165756954Y-39223218D02*
X165756954Y-39604170D01*
X165756954Y-39604170D02*
X165709335Y-39699408D01*
X165709335Y-39699408D02*
X165661716Y-39747028D01*
X165661716Y-39747028D02*
X165566478Y-39794647D01*
X165566478Y-39794647D02*
X165376002Y-39794647D01*
X165376002Y-39794647D02*
X165280764Y-39747028D01*
X165280764Y-39747028D02*
X165233145Y-39699408D01*
X165233145Y-39699408D02*
X165185526Y-39604170D01*
X165185526Y-39604170D02*
X165185526Y-39366075D01*
X165185526Y-39366075D02*
X165233145Y-39270837D01*
X165233145Y-39270837D02*
X165280764Y-39223218D01*
X165280764Y-39223218D02*
X165376002Y-39175599D01*
X165376002Y-39175599D02*
X165566478Y-39175599D01*
X165566478Y-39175599D02*
X165661716Y-39223218D01*
X165661716Y-39223218D02*
X165709335Y-39270837D01*
X165709335Y-39270837D02*
X165756954Y-39366075D01*
X181090288Y-40404591D02*
X180756955Y-41404591D01*
X180756955Y-41404591D02*
X180423622Y-40404591D01*
X179709336Y-41356972D02*
X179804574Y-41404591D01*
X179804574Y-41404591D02*
X179995050Y-41404591D01*
X179995050Y-41404591D02*
X180090288Y-41356972D01*
X180090288Y-41356972D02*
X180137907Y-41261733D01*
X180137907Y-41261733D02*
X180137907Y-40880781D01*
X180137907Y-40880781D02*
X180090288Y-40785543D01*
X180090288Y-40785543D02*
X179995050Y-40737924D01*
X179995050Y-40737924D02*
X179804574Y-40737924D01*
X179804574Y-40737924D02*
X179709336Y-40785543D01*
X179709336Y-40785543D02*
X179661717Y-40880781D01*
X179661717Y-40880781D02*
X179661717Y-40976019D01*
X179661717Y-40976019D02*
X180137907Y-41071257D01*
X179233145Y-41404591D02*
X179233145Y-40737924D01*
X179233145Y-40928400D02*
X179185526Y-40833162D01*
X179185526Y-40833162D02*
X179137907Y-40785543D01*
X179137907Y-40785543D02*
X179042669Y-40737924D01*
X179042669Y-40737924D02*
X178947431Y-40737924D01*
X178661716Y-41356972D02*
X178566478Y-41404591D01*
X178566478Y-41404591D02*
X178376002Y-41404591D01*
X178376002Y-41404591D02*
X178280764Y-41356972D01*
X178280764Y-41356972D02*
X178233145Y-41261733D01*
X178233145Y-41261733D02*
X178233145Y-41214114D01*
X178233145Y-41214114D02*
X178280764Y-41118876D01*
X178280764Y-41118876D02*
X178376002Y-41071257D01*
X178376002Y-41071257D02*
X178518859Y-41071257D01*
X178518859Y-41071257D02*
X178614097Y-41023638D01*
X178614097Y-41023638D02*
X178661716Y-40928400D01*
X178661716Y-40928400D02*
X178661716Y-40880781D01*
X178661716Y-40880781D02*
X178614097Y-40785543D01*
X178614097Y-40785543D02*
X178518859Y-40737924D01*
X178518859Y-40737924D02*
X178376002Y-40737924D01*
X178376002Y-40737924D02*
X178280764Y-40785543D01*
X177804573Y-41404591D02*
X177804573Y-40737924D01*
X177804573Y-40404591D02*
X177852192Y-40452210D01*
X177852192Y-40452210D02*
X177804573Y-40499829D01*
X177804573Y-40499829D02*
X177756954Y-40452210D01*
X177756954Y-40452210D02*
X177804573Y-40404591D01*
X177804573Y-40404591D02*
X177804573Y-40499829D01*
X177185526Y-41404591D02*
X177280764Y-41356972D01*
X177280764Y-41356972D02*
X177328383Y-41309352D01*
X177328383Y-41309352D02*
X177376002Y-41214114D01*
X177376002Y-41214114D02*
X177376002Y-40928400D01*
X177376002Y-40928400D02*
X177328383Y-40833162D01*
X177328383Y-40833162D02*
X177280764Y-40785543D01*
X177280764Y-40785543D02*
X177185526Y-40737924D01*
X177185526Y-40737924D02*
X177042669Y-40737924D01*
X177042669Y-40737924D02*
X176947431Y-40785543D01*
X176947431Y-40785543D02*
X176899812Y-40833162D01*
X176899812Y-40833162D02*
X176852193Y-40928400D01*
X176852193Y-40928400D02*
X176852193Y-41214114D01*
X176852193Y-41214114D02*
X176899812Y-41309352D01*
X176899812Y-41309352D02*
X176947431Y-41356972D01*
X176947431Y-41356972D02*
X177042669Y-41404591D01*
X177042669Y-41404591D02*
X177185526Y-41404591D01*
X176423621Y-40737924D02*
X176423621Y-41404591D01*
X176423621Y-40833162D02*
X176376002Y-40785543D01*
X176376002Y-40785543D02*
X176280764Y-40737924D01*
X176280764Y-40737924D02*
X176137907Y-40737924D01*
X176137907Y-40737924D02*
X176042669Y-40785543D01*
X176042669Y-40785543D02*
X175995050Y-40880781D01*
X175995050Y-40880781D02*
X175995050Y-41404591D01*
X175518859Y-41309352D02*
X175471240Y-41356972D01*
X175471240Y-41356972D02*
X175518859Y-41404591D01*
X175518859Y-41404591D02*
X175566478Y-41356972D01*
X175566478Y-41356972D02*
X175518859Y-41309352D01*
X175518859Y-41309352D02*
X175518859Y-41404591D01*
X175518859Y-40785543D02*
X175471240Y-40833162D01*
X175471240Y-40833162D02*
X175518859Y-40880781D01*
X175518859Y-40880781D02*
X175566478Y-40833162D01*
X175566478Y-40833162D02*
X175518859Y-40785543D01*
X175518859Y-40785543D02*
X175518859Y-40880781D01*
X175185526Y-40404591D02*
X174852193Y-41404591D01*
X174852193Y-41404591D02*
X174518860Y-40404591D01*
X173661717Y-41404591D02*
X174233145Y-41404591D01*
X173947431Y-41404591D02*
X173947431Y-40404591D01*
X173947431Y-40404591D02*
X174042669Y-40547448D01*
X174042669Y-40547448D02*
X174137907Y-40642686D01*
X174137907Y-40642686D02*
X174233145Y-40690305D01*
X173233145Y-41309352D02*
X173185526Y-41356972D01*
X173185526Y-41356972D02*
X173233145Y-41404591D01*
X173233145Y-41404591D02*
X173280764Y-41356972D01*
X173280764Y-41356972D02*
X173233145Y-41309352D01*
X173233145Y-41309352D02*
X173233145Y-41404591D01*
X172233146Y-41404591D02*
X172804574Y-41404591D01*
X172518860Y-41404591D02*
X172518860Y-40404591D01*
X172518860Y-40404591D02*
X172614098Y-40547448D01*
X172614098Y-40547448D02*
X172709336Y-40642686D01*
X172709336Y-40642686D02*
X172804574Y-40690305D01*
X180947431Y-43014535D02*
X180947431Y-42014535D01*
X180947431Y-42014535D02*
X180614098Y-42728820D01*
X180614098Y-42728820D02*
X180280765Y-42014535D01*
X180280765Y-42014535D02*
X180280765Y-43014535D01*
X179852193Y-42966916D02*
X179709336Y-43014535D01*
X179709336Y-43014535D02*
X179471241Y-43014535D01*
X179471241Y-43014535D02*
X179376003Y-42966916D01*
X179376003Y-42966916D02*
X179328384Y-42919296D01*
X179328384Y-42919296D02*
X179280765Y-42824058D01*
X179280765Y-42824058D02*
X179280765Y-42728820D01*
X179280765Y-42728820D02*
X179328384Y-42633582D01*
X179328384Y-42633582D02*
X179376003Y-42585963D01*
X179376003Y-42585963D02*
X179471241Y-42538344D01*
X179471241Y-42538344D02*
X179661717Y-42490725D01*
X179661717Y-42490725D02*
X179756955Y-42443106D01*
X179756955Y-42443106D02*
X179804574Y-42395487D01*
X179804574Y-42395487D02*
X179852193Y-42300249D01*
X179852193Y-42300249D02*
X179852193Y-42205011D01*
X179852193Y-42205011D02*
X179804574Y-42109773D01*
X179804574Y-42109773D02*
X179756955Y-42062154D01*
X179756955Y-42062154D02*
X179661717Y-42014535D01*
X179661717Y-42014535D02*
X179423622Y-42014535D01*
X179423622Y-42014535D02*
X179280765Y-42062154D01*
X178852193Y-43014535D02*
X178852193Y-42014535D01*
X178852193Y-42014535D02*
X178471241Y-42014535D01*
X178471241Y-42014535D02*
X178376003Y-42062154D01*
X178376003Y-42062154D02*
X178328384Y-42109773D01*
X178328384Y-42109773D02*
X178280765Y-42205011D01*
X178280765Y-42205011D02*
X178280765Y-42347868D01*
X178280765Y-42347868D02*
X178328384Y-42443106D01*
X178328384Y-42443106D02*
X178376003Y-42490725D01*
X178376003Y-42490725D02*
X178471241Y-42538344D01*
X178471241Y-42538344D02*
X178852193Y-42538344D01*
X177852193Y-43014535D02*
X177852193Y-42014535D01*
X177852193Y-42014535D02*
X177518860Y-42728820D01*
X177518860Y-42728820D02*
X177185527Y-42014535D01*
X177185527Y-42014535D02*
X177185527Y-43014535D01*
X176518860Y-42014535D02*
X176423622Y-42014535D01*
X176423622Y-42014535D02*
X176328384Y-42062154D01*
X176328384Y-42062154D02*
X176280765Y-42109773D01*
X176280765Y-42109773D02*
X176233146Y-42205011D01*
X176233146Y-42205011D02*
X176185527Y-42395487D01*
X176185527Y-42395487D02*
X176185527Y-42633582D01*
X176185527Y-42633582D02*
X176233146Y-42824058D01*
X176233146Y-42824058D02*
X176280765Y-42919296D01*
X176280765Y-42919296D02*
X176328384Y-42966916D01*
X176328384Y-42966916D02*
X176423622Y-43014535D01*
X176423622Y-43014535D02*
X176518860Y-43014535D01*
X176518860Y-43014535D02*
X176614098Y-42966916D01*
X176614098Y-42966916D02*
X176661717Y-42919296D01*
X176661717Y-42919296D02*
X176709336Y-42824058D01*
X176709336Y-42824058D02*
X176756955Y-42633582D01*
X176756955Y-42633582D02*
X176756955Y-42395487D01*
X176756955Y-42395487D02*
X176709336Y-42205011D01*
X176709336Y-42205011D02*
X176661717Y-42109773D01*
X176661717Y-42109773D02*
X176614098Y-42062154D01*
X176614098Y-42062154D02*
X176518860Y-42014535D01*
X175756955Y-42633582D02*
X174995051Y-42633582D01*
X174518860Y-43014535D02*
X174518860Y-42014535D01*
X174518860Y-42014535D02*
X174280765Y-42014535D01*
X174280765Y-42014535D02*
X174137908Y-42062154D01*
X174137908Y-42062154D02*
X174042670Y-42157392D01*
X174042670Y-42157392D02*
X173995051Y-42252630D01*
X173995051Y-42252630D02*
X173947432Y-42443106D01*
X173947432Y-42443106D02*
X173947432Y-42585963D01*
X173947432Y-42585963D02*
X173995051Y-42776439D01*
X173995051Y-42776439D02*
X174042670Y-42871677D01*
X174042670Y-42871677D02*
X174137908Y-42966916D01*
X174137908Y-42966916D02*
X174280765Y-43014535D01*
X174280765Y-43014535D02*
X174518860Y-43014535D01*
X173137908Y-42966916D02*
X173233146Y-43014535D01*
X173233146Y-43014535D02*
X173423622Y-43014535D01*
X173423622Y-43014535D02*
X173518860Y-42966916D01*
X173518860Y-42966916D02*
X173566479Y-42871677D01*
X173566479Y-42871677D02*
X173566479Y-42490725D01*
X173566479Y-42490725D02*
X173518860Y-42395487D01*
X173518860Y-42395487D02*
X173423622Y-42347868D01*
X173423622Y-42347868D02*
X173233146Y-42347868D01*
X173233146Y-42347868D02*
X173137908Y-42395487D01*
X173137908Y-42395487D02*
X173090289Y-42490725D01*
X173090289Y-42490725D02*
X173090289Y-42585963D01*
X173090289Y-42585963D02*
X173566479Y-42681201D01*
X172756955Y-42347868D02*
X172518860Y-43014535D01*
X172518860Y-43014535D02*
X172280765Y-42347868D01*
X171566479Y-42490725D02*
X171423622Y-42538344D01*
X171423622Y-42538344D02*
X171376003Y-42585963D01*
X171376003Y-42585963D02*
X171328384Y-42681201D01*
X171328384Y-42681201D02*
X171328384Y-42824058D01*
X171328384Y-42824058D02*
X171376003Y-42919296D01*
X171376003Y-42919296D02*
X171423622Y-42966916D01*
X171423622Y-42966916D02*
X171518860Y-43014535D01*
X171518860Y-43014535D02*
X171899812Y-43014535D01*
X171899812Y-43014535D02*
X171899812Y-42014535D01*
X171899812Y-42014535D02*
X171566479Y-42014535D01*
X171566479Y-42014535D02*
X171471241Y-42062154D01*
X171471241Y-42062154D02*
X171423622Y-42109773D01*
X171423622Y-42109773D02*
X171376003Y-42205011D01*
X171376003Y-42205011D02*
X171376003Y-42300249D01*
X171376003Y-42300249D02*
X171423622Y-42395487D01*
X171423622Y-42395487D02*
X171471241Y-42443106D01*
X171471241Y-42443106D02*
X171566479Y-42490725D01*
X171566479Y-42490725D02*
X171899812Y-42490725D01*
X170756955Y-43014535D02*
X170852193Y-42966916D01*
X170852193Y-42966916D02*
X170899812Y-42919296D01*
X170899812Y-42919296D02*
X170947431Y-42824058D01*
X170947431Y-42824058D02*
X170947431Y-42538344D01*
X170947431Y-42538344D02*
X170899812Y-42443106D01*
X170899812Y-42443106D02*
X170852193Y-42395487D01*
X170852193Y-42395487D02*
X170756955Y-42347868D01*
X170756955Y-42347868D02*
X170614098Y-42347868D01*
X170614098Y-42347868D02*
X170518860Y-42395487D01*
X170518860Y-42395487D02*
X170471241Y-42443106D01*
X170471241Y-42443106D02*
X170423622Y-42538344D01*
X170423622Y-42538344D02*
X170423622Y-42824058D01*
X170423622Y-42824058D02*
X170471241Y-42919296D01*
X170471241Y-42919296D02*
X170518860Y-42966916D01*
X170518860Y-42966916D02*
X170614098Y-43014535D01*
X170614098Y-43014535D02*
X170756955Y-43014535D01*
X169566479Y-43014535D02*
X169566479Y-42490725D01*
X169566479Y-42490725D02*
X169614098Y-42395487D01*
X169614098Y-42395487D02*
X169709336Y-42347868D01*
X169709336Y-42347868D02*
X169899812Y-42347868D01*
X169899812Y-42347868D02*
X169995050Y-42395487D01*
X169566479Y-42966916D02*
X169661717Y-43014535D01*
X169661717Y-43014535D02*
X169899812Y-43014535D01*
X169899812Y-43014535D02*
X169995050Y-42966916D01*
X169995050Y-42966916D02*
X170042669Y-42871677D01*
X170042669Y-42871677D02*
X170042669Y-42776439D01*
X170042669Y-42776439D02*
X169995050Y-42681201D01*
X169995050Y-42681201D02*
X169899812Y-42633582D01*
X169899812Y-42633582D02*
X169661717Y-42633582D01*
X169661717Y-42633582D02*
X169566479Y-42585963D01*
X169090288Y-43014535D02*
X169090288Y-42347868D01*
X169090288Y-42538344D02*
X169042669Y-42443106D01*
X169042669Y-42443106D02*
X168995050Y-42395487D01*
X168995050Y-42395487D02*
X168899812Y-42347868D01*
X168899812Y-42347868D02*
X168804574Y-42347868D01*
X168042669Y-43014535D02*
X168042669Y-42014535D01*
X168042669Y-42966916D02*
X168137907Y-43014535D01*
X168137907Y-43014535D02*
X168328383Y-43014535D01*
X168328383Y-43014535D02*
X168423621Y-42966916D01*
X168423621Y-42966916D02*
X168471240Y-42919296D01*
X168471240Y-42919296D02*
X168518859Y-42824058D01*
X168518859Y-42824058D02*
X168518859Y-42538344D01*
X168518859Y-42538344D02*
X168471240Y-42443106D01*
X168471240Y-42443106D02*
X168423621Y-42395487D01*
X168423621Y-42395487D02*
X168328383Y-42347868D01*
X168328383Y-42347868D02*
X168137907Y-42347868D01*
X168137907Y-42347868D02*
X168042669Y-42395487D01*
D11*
X181121671Y-61621428D02*
X181121671Y-62335714D01*
X181121671Y-62335714D02*
X182621671Y-62335714D01*
X181121671Y-61121428D02*
X182621671Y-61121428D01*
X181907385Y-61121428D02*
X181907385Y-60264285D01*
X181121671Y-60264285D02*
X182621671Y-60264285D01*
X121028328Y-31764286D02*
X119528328Y-31764286D01*
X119528328Y-31764286D02*
X120599757Y-32264286D01*
X120599757Y-32264286D02*
X119528328Y-32764286D01*
X119528328Y-32764286D02*
X121028328Y-32764286D01*
X120599757Y-33407144D02*
X120599757Y-34121430D01*
X121028328Y-33264287D02*
X119528328Y-33764287D01*
X119528328Y-33764287D02*
X121028328Y-34264287D01*
X119528328Y-34621429D02*
X121028328Y-35621429D01*
X119528328Y-35621429D02*
X121028328Y-34621429D01*
X120885471Y-36192857D02*
X120956900Y-36264286D01*
X120956900Y-36264286D02*
X121028328Y-36192857D01*
X121028328Y-36192857D02*
X120956900Y-36121429D01*
X120956900Y-36121429D02*
X120885471Y-36192857D01*
X120885471Y-36192857D02*
X121028328Y-36192857D01*
X120099757Y-36192857D02*
X120171185Y-36264286D01*
X120171185Y-36264286D02*
X120242614Y-36192857D01*
X120242614Y-36192857D02*
X120171185Y-36121429D01*
X120171185Y-36121429D02*
X120099757Y-36192857D01*
X120099757Y-36192857D02*
X120242614Y-36192857D01*
X119671185Y-36835715D02*
X119599757Y-36907143D01*
X119599757Y-36907143D02*
X119528328Y-37050001D01*
X119528328Y-37050001D02*
X119528328Y-37407143D01*
X119528328Y-37407143D02*
X119599757Y-37550001D01*
X119599757Y-37550001D02*
X119671185Y-37621429D01*
X119671185Y-37621429D02*
X119814042Y-37692858D01*
X119814042Y-37692858D02*
X119956900Y-37692858D01*
X119956900Y-37692858D02*
X120171185Y-37621429D01*
X120171185Y-37621429D02*
X121028328Y-36764286D01*
X121028328Y-36764286D02*
X121028328Y-37692858D01*
X120028328Y-38978572D02*
X121028328Y-38978572D01*
X119456900Y-38621429D02*
X120528328Y-38264286D01*
X120528328Y-38264286D02*
X120528328Y-39192857D01*
X119528328Y-39550000D02*
X121028328Y-40050000D01*
X121028328Y-40050000D02*
X119528328Y-40550000D01*
X182621671Y-56442856D02*
X182621671Y-55585714D01*
X181121671Y-56014285D02*
X182621671Y-56014285D01*
X181121671Y-54228571D02*
X181835957Y-54728571D01*
X181121671Y-55085714D02*
X182621671Y-55085714D01*
X182621671Y-55085714D02*
X182621671Y-54514285D01*
X182621671Y-54514285D02*
X182550242Y-54371428D01*
X182550242Y-54371428D02*
X182478814Y-54299999D01*
X182478814Y-54299999D02*
X182335957Y-54228571D01*
X182335957Y-54228571D02*
X182121671Y-54228571D01*
X182121671Y-54228571D02*
X181978814Y-54299999D01*
X181978814Y-54299999D02*
X181907385Y-54371428D01*
X181907385Y-54371428D02*
X181835957Y-54514285D01*
X181835957Y-54514285D02*
X181835957Y-55085714D01*
X182550242Y-52799999D02*
X182621671Y-52942857D01*
X182621671Y-52942857D02*
X182621671Y-53157142D01*
X182621671Y-53157142D02*
X182550242Y-53371428D01*
X182550242Y-53371428D02*
X182407385Y-53514285D01*
X182407385Y-53514285D02*
X182264528Y-53585714D01*
X182264528Y-53585714D02*
X181978814Y-53657142D01*
X181978814Y-53657142D02*
X181764528Y-53657142D01*
X181764528Y-53657142D02*
X181478814Y-53585714D01*
X181478814Y-53585714D02*
X181335957Y-53514285D01*
X181335957Y-53514285D02*
X181193100Y-53371428D01*
X181193100Y-53371428D02*
X181121671Y-53157142D01*
X181121671Y-53157142D02*
X181121671Y-53014285D01*
X181121671Y-53014285D02*
X181193100Y-52799999D01*
X181193100Y-52799999D02*
X181264528Y-52728571D01*
X181264528Y-52728571D02*
X181764528Y-52728571D01*
X181764528Y-52728571D02*
X181764528Y-53014285D01*
X182621671Y-51371428D02*
X182621671Y-52085714D01*
X182621671Y-52085714D02*
X181907385Y-52157142D01*
X181907385Y-52157142D02*
X181978814Y-52085714D01*
X181978814Y-52085714D02*
X182050242Y-51942857D01*
X182050242Y-51942857D02*
X182050242Y-51585714D01*
X182050242Y-51585714D02*
X181978814Y-51442857D01*
X181978814Y-51442857D02*
X181907385Y-51371428D01*
X181907385Y-51371428D02*
X181764528Y-51299999D01*
X181764528Y-51299999D02*
X181407385Y-51299999D01*
X181407385Y-51299999D02*
X181264528Y-51371428D01*
X181264528Y-51371428D02*
X181193100Y-51442857D01*
X181193100Y-51442857D02*
X181121671Y-51585714D01*
X181121671Y-51585714D02*
X181121671Y-51942857D01*
X181121671Y-51942857D02*
X181193100Y-52085714D01*
X181193100Y-52085714D02*
X181264528Y-52157142D01*
D13*
%TO.C,D14*%
X128340000Y-58350000D02*
X128340000Y-54590000D01*
X130360000Y-54590000D02*
X128340000Y-54590000D01*
X130360000Y-58350000D02*
X130360000Y-54590000D01*
%TO.C,R48*%
X146387258Y-86527500D02*
X145912742Y-86527500D01*
X146387258Y-87572500D02*
X145912742Y-87572500D01*
%TO.C,R47*%
X146387258Y-85027500D02*
X145912742Y-85027500D01*
X146387258Y-86072500D02*
X145912742Y-86072500D01*
%TD*%
M02*
