M48
; DRILL file {KiCad 8.0.3} date 2024-07-16T23:19:01+0800
; FORMAT={-:-/ absolute / inch / decimal}
; #@! TF.CreationDate,2024-07-16T23:19:01+08:00
; #@! TF.GenerationSoftware,Kicad,Pcbnew,8.0.3
; #@! TF.FileFunction,Plated,1,4,PTH
FMAT,2
INCH
; #@! TA.AperFunction,Plated,PTH,ViaDrill
T1C0.0118
; #@! TA.AperFunction,Plated,PTH,ComponentDrill
T2C0.0197
; #@! TA.AperFunction,Plated,PTH,ComponentDrill
T3C0.0236
; #@! TA.AperFunction,Plated,PTH,ComponentDrill
T4C0.0394
; #@! TA.AperFunction,Plated,PTH,ComponentDrill
T5C0.0433
; #@! TA.AperFunction,Plated,PTH,ComponentDrill
T6C0.1260
%
G90
G05
T1
X4.6417Y-1.2559
X4.6417Y-1.7795
X4.6417Y-2.1654
X4.6417Y-2.1929
X4.6417Y-2.2205
X4.6693Y-2.1654
X4.6693Y-2.1929
X4.6693Y-2.2205
X4.6841Y-3.811
X4.6841Y-4.0315
X4.685Y-3.5906
X4.6939Y-1.7362
X4.6969Y-2.1654
X4.6969Y-2.1929
X4.6969Y-2.2205
X4.7283Y-1.7402
X4.7323Y-2.4173
X4.7362Y-2.2598
X4.7402Y-1.7953
X4.754Y-3.3681
X4.7638Y-1.7953
X4.7638Y-3.0827
X4.7756Y-1.7402
X4.7825Y-1.6772
X4.7864Y-1.6457
X4.8071Y-2.0748
X4.8425Y-1.7992
X4.8465Y-1.8504
X4.8681Y-1.937
X4.872Y-3.3366
X4.872Y-3.3957
X4.9478Y-1.6929
X4.9744Y-1.9488
X4.9921Y-2.0354
X4.9921Y-2.0591
X4.9921Y-2.0827
X4.9921Y-2.1063
X4.9921Y-2.1299
X5.0039Y-2.3071
X5.0197Y-2.4016
X5.0276Y-2.3071
X5.0433Y-2.4016
X5.0512Y-2.3071
X5.0669Y-2.4016
X5.0684Y-2.0079
X5.0689Y-1.9764
X5.0827Y-3.6417
X5.0827Y-3.7008
X5.0827Y-3.7598
X5.0906Y-2.4016
X5.1142Y-2.4016
X5.122Y-3.1575
X5.1378Y-2.4016
X5.1457Y-2.3071
X5.1614Y-2.4016
X5.1654Y-1.685
X5.1654Y-2.1024
X5.1693Y-2.3071
X5.189Y-1.685
X5.1929Y-2.3071
X5.2126Y-1.685
X5.2126Y-2.1043
X5.2126Y-2.2539
X5.2283Y-1.9764
X5.2323Y-3.5984
X5.2539Y-1.9764
X5.2539Y-2.1673
X5.2795Y-1.9764
X5.3046Y-3.1654
X5.3361Y-3.1654
X5.3642Y-1.5256
X5.3642Y-1.5512
X5.3642Y-1.5768
X5.3642Y-1.6024
X5.3642Y-1.628
X5.3676Y-3.1654
X5.372Y-3.0945
X5.3834Y-2.0079
X5.3937Y-3.0728
X5.4055Y-3.3681
X5.4154Y-3.0945
X5.4285Y-3.389
X5.437Y-3.0728
X5.4449Y-3.2756
X5.4449Y-3.3071
X5.4449Y-3.3386
X5.4449Y-3.4961
X5.4449Y-3.5276
X5.4449Y-3.5591
X5.4449Y-3.5906
X5.4547Y-1.5256
X5.4547Y-1.5512
X5.4547Y-1.5768
X5.4547Y-1.6024
X5.4547Y-1.628
X5.4587Y-3.0945
X5.4764Y-3.2756
X5.4764Y-3.5906
X5.4783Y-3.748
X5.4803Y-3.0728
X5.502Y-3.0945
X5.5079Y-3.2756
X5.5079Y-3.5906
X5.5197Y-2.8937
X5.5236Y-2.9469
X5.5236Y-3.0728
X5.5394Y-3.2756
X5.5394Y-3.5906
X5.5453Y-3.0945
X5.5512Y-1.2638
X5.5669Y-3.0728
X5.5709Y-3.2756
X5.5709Y-3.5906
X5.6024Y-3.2756
X5.6024Y-3.3071
X5.6024Y-3.3386
X5.6024Y-3.5276
X5.6024Y-3.5591
X5.6024Y-3.5906
X5.6083Y-2.8701
X5.6299Y-3.3228
X5.6358Y-3.7146
X5.6457Y-1.5236
X5.6457Y-1.5492
X5.6457Y-1.5748
X5.6457Y-1.6004
X5.6457Y-1.626
X5.689Y-2.937
X5.7126Y-3.7441
X5.732Y-2.642
X5.7362Y-1.5236
X5.7362Y-1.5492
X5.7362Y-1.5748
X5.7362Y-1.6004
X5.7362Y-1.626
X5.7874Y-3.2008
X5.7874Y-3.4803
X5.8209Y-2.9764
X5.8224Y-3.2909
X5.8268Y-3.252
X5.8287Y-3.3819
X5.8287Y-3.4154
X5.8346Y-3.3228
X5.8504Y-1.9016
X5.8543Y-3.4409
X5.8583Y-3.2362
X5.859Y-2.784
X5.8602Y-3.7579
X5.8819Y-3.4134
X5.8839Y-2.2028
X5.8858Y-2.0197
X5.8878Y-3.8169
X5.9016Y-3.8878
X5.9055Y-3.2421
X5.9094Y-1.9685
X5.933Y-2.642
X5.939Y-3.2421
X5.939Y-3.4134
X5.9405Y-3.4413
X5.9587Y-3.0984
X5.9783Y-3.2421
X5.983Y-2.407
X5.983Y-2.465
X5.983Y-2.523
X5.983Y-2.581
X5.9843Y-1.2638
X5.9862Y-2.9764
X6.0Y-2.0866
X6.0Y-2.1634
X6.0079Y-3.6929
X6.0248Y-3.2618
X6.0315Y-3.4449
X6.0335Y-3.2343
X6.0394Y-2.3346
X6.0669Y-3.2008
X6.0709Y-3.4803
X6.0769Y-2.3366
X6.0866Y-2.8031
X6.1122Y-3.7638
X6.122Y-2.0866
X6.122Y-2.1681
X6.126Y-2.8031
X6.126Y-2.8819
X6.1398Y-3.0335
X6.1417Y-3.2008
X6.1594Y-2.6181
X6.1697Y-3.3905
X6.1752Y-3.7559
X6.185Y-2.8268
X6.2111Y-2.9744
X6.2126Y-3.3905
X6.2146Y-3.2756
X6.2323Y-2.6457
X6.2362Y-3.2106
X6.248Y-2.748
X6.25Y-3.3937
X6.2598Y-3.4921
X6.2953Y-2.0157
X6.3094Y-3.2756
X6.3346Y-3.3268
X6.3386Y-3.1969
X6.3406Y-2.1004
X6.3445Y-2.1358
X6.3448Y-2.0751
X6.3642Y-3.2972
X6.3748Y-1.9747
X6.4331Y-2.7283
X6.4429Y-1.6654
X6.4429Y-1.5669
X6.4705Y-1.4016
X6.4705Y-1.5394
X6.5177Y-3.2323
X6.5217Y-3.4764
X6.5315Y-2.75
X6.6063Y-1.9272
X6.6063Y-2.0079
X6.6063Y-2.0846
X6.6122Y-3.752
X6.6339Y-2.8071
X6.6614Y-1.4016
X6.689Y-1.4961
X6.689Y-1.7126
X6.7205Y-2.0079
X6.752Y-2.3661
X6.752Y-2.4291
X6.8406Y-2.8268
X6.8563Y-2.7677
X6.8565Y-3.5077
X6.9016Y-2.0157
X6.9016Y-2.0787
X6.9417Y-3.815
X6.9429Y-3.9791
X6.9508Y-3.4193
X6.9528Y-2.7008
X6.9724Y-2.3661
X6.9724Y-2.4744
X6.9734Y-2.44
X6.9735Y-2.3918
X6.9744Y-3.3071
X6.9783Y-2.5413
X6.9803Y-2.6732
X7.0039Y-2.0492
X7.0079Y-2.0984
X7.0089Y-2.1467
X7.0098Y-2.1949
X7.0551Y-2.5413
X7.0653Y-3.5351
X7.0669Y-3.4193
X7.0866Y-3.6634
X7.0906Y-2.7244
X7.0906Y-3.7087
X7.0945Y-2.6732
X7.122Y-2.0984
X7.1555Y-3.6994
X7.185Y-3.4114
T2
X4.6594Y-4.1969
X4.6614Y-1.0886
X4.6871Y-4.13
X4.6871Y-4.2637
X4.6891Y-1.0218
X4.6891Y-1.1554
X4.7539Y-4.1024
X4.7539Y-4.2913
X4.7559Y-0.9941
X4.7559Y-1.1831
X4.8208Y-4.13
X4.8208Y-4.2637
X4.8227Y-1.0218
X4.8227Y-1.1554
X4.8484Y-4.1969
X4.8504Y-1.0886
X7.0157Y-1.0886
X7.0157Y-4.1969
X7.0434Y-1.0218
X7.0434Y-1.1554
X7.0434Y-4.13
X7.0434Y-4.2637
X7.1102Y-0.9941
X7.1102Y-1.1831
X7.1102Y-4.1024
X7.1102Y-4.2913
X7.177Y-1.0218
X7.177Y-1.1554
X7.177Y-4.13
X7.177Y-4.2637
X7.2047Y-1.0886
X7.2047Y-4.1969
T4
X5.0827Y-2.6909
X5.0827Y-3.9902
X5.1827Y-2.6909
X5.1827Y-3.9902
X5.2827Y-2.6909
X5.2827Y-3.9902
X5.3209Y-1.3163
X5.3209Y-1.4163
X5.3827Y-2.6909
X5.3827Y-3.9902
X5.4827Y-2.6909
X5.4827Y-3.9902
X5.4843Y-1.9472
X5.4843Y-2.0472
X5.4843Y-2.1472
X5.4843Y-2.2472
X5.5827Y-2.6909
X5.5827Y-3.9902
X5.5843Y-1.9472
X5.5843Y-2.0472
X5.5843Y-2.1472
X5.5843Y-2.2472
X5.6827Y-2.6909
X5.6827Y-3.9902
X5.6843Y-1.9472
X5.6843Y-2.0472
X5.6843Y-2.1472
X5.6843Y-2.2472
X5.7827Y-2.6909
X5.7827Y-3.9902
X5.7843Y-1.9472
X5.7843Y-2.0472
X5.7843Y-2.1472
X5.7843Y-2.2472
X5.8827Y-2.6909
X5.8827Y-3.9902
X5.9827Y-2.6909
X5.9827Y-3.9902
X6.0827Y-2.6909
X6.0827Y-3.9902
X6.1827Y-2.6909
X6.1827Y-3.9902
X6.2827Y-2.6909
X6.2827Y-3.9902
X6.3827Y-2.6909
X6.3827Y-3.9902
X6.4827Y-2.6909
X6.4827Y-3.9902
X6.5827Y-2.6909
X6.5827Y-3.9902
X6.6827Y-2.6909
X6.6827Y-3.9902
X6.7827Y-2.6909
X6.7827Y-3.9902
T6
X4.7539Y-4.1969
X4.7559Y-1.0886
X7.1102Y-1.0886
X7.1102Y-4.1969
T3
G00X4.7392Y-2.5386
M15
G01X4.7156Y-2.5386
M16
G05
G00X4.7392Y-2.8787
M15
G01X4.7156Y-2.8787
M16
G05
G00X4.8888Y-2.5386
M15
G01X4.8652Y-2.5386
M16
G05
G00X4.8888Y-2.8787
M15
G01X4.8652Y-2.8787
M16
G05
T4
G00X4.9331Y-1.3819
M15
G01X4.9331Y-1.4606
M16
G05
G00X5.0118Y-1.6063
M15
G01X5.0906Y-1.6063
M16
G05
G00X5.1693Y-1.3819
M15
G01X5.1693Y-1.4606
M16
G05
T5
G00X5.4567Y-1.3425
M15
G01X5.4567Y-1.3898
M16
G05
G00X5.6457Y-1.3425
M15
G01X5.6457Y-1.3898
M16
G05
G00X5.8346Y-1.3425
M15
G01X5.8346Y-1.3898
M16
G05
M30
