G04 Layer: BottomSilkscreenLayer*
G04 EasyEDA v6.5.25, 2024-03-20 21:11:36*
G04 Gerber Generator version 0.2*
G04 Scale: 100 percent, Rotated: No, Reflected: No *
G04 Dimensions in millimeters  *
G04 leading zeros omitted , absolute positions ,3 integer and 6 decimal *
%TF.GenerationSoftware,KiCad,Pcbnew,8.0.3*%
%TF.CreationDate,2024-07-16T23:19:00+08:00*%
%TF.ProjectId,mspm0,6d73706d-302e-46b6-9963-61645f706362,rev?*%
%TF.SameCoordinates,Original*%
%TF.FileFunction,Paste,Top*%
%TF.FilePolarity,Positive*%
%FSLAX46Y46*%
G04 Gerber Fmt 4.6, Leading zero omitted, Abs format (unit mm)*
G04 Created by KiCad (PCBNEW 8.0.3) date 2024-07-16 23:19:00*
%MOMM*%
%LPD*%
G01*
G04 APERTURE LIST*
G04 Aperture macros list*
%AMRoundRect*
0 Rectangle with rounded corners*
0 $1 Rounding radius*
0 $2 $3 $4 $5 $6 $7 $8 $9 X,Y pos of 4 corners*
0 Add a 4 corners polygon primitive as box body*
4,1,4,$2,$3,$4,$5,$6,$7,$8,$9,$2,$3,0*
0 Add four circle primitives for the rounded corners*
1,1,$1+$1,$2,$3*
1,1,$1+$1,$4,$5*
1,1,$1+$1,$6,$7*
1,1,$1+$1,$8,$9*
0 Add four rect primitives between the rounded corners*
20,1,$1+$1,$2,$3,$4,$5,0*
20,1,$1+$1,$4,$5,$6,$7,0*
20,1,$1+$1,$6,$7,$8,$9,0*
20,1,$1+$1,$8,$9,$2,$3,0*%
G04 Aperture macros list end*
%ADD10RoundRect,0.225000X-0.250000X0.225000X-0.250000X-0.225000X0.250000X-0.225000X0.250000X0.225000X0*%
%ADD11O,4.000500X0.399000*%
%ADD12RoundRect,0.225000X-0.225000X-0.250000X0.225000X-0.250000X0.225000X0.250000X-0.225000X0.250000X0*%
%ADD13RoundRect,0.200000X0.200000X0.275000X-0.200000X0.275000X-0.200000X-0.275000X0.200000X-0.275000X0*%
%ADD14RoundRect,0.200000X0.275000X-0.200000X0.275000X0.200000X-0.275000X0.200000X-0.275000X-0.200000X0*%
%ADD15RoundRect,0.250000X0.450000X-0.400000X0.450000X0.400000X-0.450000X0.400000X-0.450000X-0.400000X0*%
%ADD16RoundRect,0.200000X-0.275000X0.200000X-0.275000X-0.200000X0.275000X-0.200000X0.275000X0.200000X0*%
%ADD17RoundRect,0.200000X-0.200000X-0.275000X0.200000X-0.275000X0.200000X0.275000X-0.200000X0.275000X0*%
%ADD18RoundRect,0.250000X0.250000X0.475000X-0.250000X0.475000X-0.250000X-0.475000X0.250000X-0.475000X0*%
%ADD19RoundRect,0.218750X0.218750X0.256250X-0.218750X0.256250X-0.218750X-0.256250X0.218750X-0.256250X0*%
%ADD20RoundRect,0.250000X-1.500000X-0.550000X1.500000X-0.550000X1.500000X0.550000X-1.500000X0.550000X0*%
%ADD21R,1.200000X1.400000*%
%ADD22RoundRect,0.225000X0.225000X0.250000X-0.225000X0.250000X-0.225000X-0.250000X0.225000X-0.250000X0*%
%ADD23R,0.850000X2.000000*%
%ADD24RoundRect,0.150000X0.587500X0.150000X-0.587500X0.150000X-0.587500X-0.150000X0.587500X-0.150000X0*%
%ADD25RoundRect,0.150000X-0.512500X-0.150000X0.512500X-0.150000X0.512500X0.150000X-0.512500X0.150000X0*%
%ADD26RoundRect,0.150000X0.512500X0.150000X-0.512500X0.150000X-0.512500X-0.150000X0.512500X-0.150000X0*%
%ADD27RoundRect,0.218750X-0.256250X0.218750X-0.256250X-0.218750X0.256250X-0.218750X0.256250X0.218750X0*%
%ADD28RoundRect,0.135000X0.135000X0.185000X-0.135000X0.185000X-0.135000X-0.185000X0.135000X-0.185000X0*%
%ADD29RoundRect,0.250000X-0.650000X1.000000X-0.650000X-1.000000X0.650000X-1.000000X0.650000X1.000000X0*%
%ADD30RoundRect,0.160000X-0.160000X-0.325000X0.160000X-0.325000X0.160000X0.325000X-0.160000X0.325000X0*%
%ADD31RoundRect,0.075000X-0.350000X-0.075000X0.350000X-0.075000X0.350000X0.075000X-0.350000X0.075000X0*%
%ADD32RoundRect,0.150000X0.150000X-0.512500X0.150000X0.512500X-0.150000X0.512500X-0.150000X-0.512500X0*%
%ADD33R,1.500000X1.500000*%
%ADD34RoundRect,0.250000X0.550000X-1.500000X0.550000X1.500000X-0.550000X1.500000X-0.550000X-1.500000X0*%
%ADD35RoundRect,0.250000X0.475000X-0.250000X0.475000X0.250000X-0.475000X0.250000X-0.475000X-0.250000X0*%
%ADD36RoundRect,0.250000X0.650000X-1.000000X0.650000X1.000000X-0.650000X1.000000X-0.650000X-1.000000X0*%
%ADD37RoundRect,0.150000X0.700000X-0.150000X0.700000X0.150000X-0.700000X0.150000X-0.700000X-0.150000X0*%
%ADD38RoundRect,0.250000X1.100000X-0.250000X1.100000X0.250000X-1.100000X0.250000X-1.100000X-0.250000X0*%
%ADD39RoundRect,0.250000X1.500000X0.550000X-1.500000X0.550000X-1.500000X-0.550000X1.500000X-0.550000X0*%
%ADD40RoundRect,0.225000X0.250000X-0.225000X0.250000X0.225000X-0.250000X0.225000X-0.250000X-0.225000X0*%
%ADD41RoundRect,0.150000X-0.587500X-0.150000X0.587500X-0.150000X0.587500X0.150000X-0.587500X0.150000X0*%
%ADD42RoundRect,0.250000X0.450000X-0.262500X0.450000X0.262500X-0.450000X0.262500X-0.450000X-0.262500X0*%
%ADD43R,2.950000X3.500000*%
%ADD44RoundRect,0.175000X-0.425000X0.175000X-0.425000X-0.175000X0.425000X-0.175000X0.425000X0.175000X0*%
%ADD45RoundRect,0.190000X0.410000X-0.190000X0.410000X0.190000X-0.410000X0.190000X-0.410000X-0.190000X0*%
%ADD46RoundRect,0.200000X0.400000X-0.200000X0.400000X0.200000X-0.400000X0.200000X-0.400000X-0.200000X0*%
%ADD47RoundRect,0.175000X0.425000X-0.175000X0.425000X0.175000X-0.425000X0.175000X-0.425000X-0.175000X0*%
%ADD48RoundRect,0.190000X-0.410000X0.190000X-0.410000X-0.190000X0.410000X-0.190000X0.410000X0.190000X0*%
%ADD49RoundRect,0.200000X-0.400000X0.200000X-0.400000X-0.200000X0.400000X-0.200000X0.400000X0.200000X0*%
%ADD50O,1.700000X1.100000*%
%ADD51RoundRect,0.200000X0.600000X-0.200000X0.600000X0.200000X-0.600000X0.200000X-0.600000X-0.200000X0*%
%ADD52RoundRect,0.250001X1.249999X-0.799999X1.249999X0.799999X-1.249999X0.799999X-1.249999X-0.799999X0*%
%ADD53R,1.955236X0.312473*%
%ADD54R,0.312473X1.955236*%
%ADD55RoundRect,0.112500X0.112500X-0.187500X0.112500X0.187500X-0.112500X0.187500X-0.112500X-0.187500X0*%
G04 APERTURE END LIST*
D10*
%TO.C,C4*%
X122224999Y-43324999D03*
X122224999Y-44874999D03*
%TD*%
D11*
%TO.C,S1*%
X166850250Y-44000500D03*
X166850250Y-43299500D03*
X166850250Y-42601000D03*
X166850250Y-41900000D03*
X166850250Y-41199000D03*
X166850250Y-40500500D03*
X166850250Y-39799500D03*
X166850250Y-39101000D03*
X166850250Y-38400000D03*
X166850250Y-37699000D03*
X166850250Y-37000500D03*
X166850250Y-36299500D03*
X166850250Y-35601000D03*
%TD*%
D12*
%TO.C,C28*%
X139625000Y-90100000D03*
X141175000Y-90100000D03*
%TD*%
D13*
%TO.C,R45*%
X124525000Y-96800000D03*
X122875000Y-96800000D03*
%TD*%
D14*
%TO.C,R3*%
X118224998Y-48399999D03*
X118224998Y-46749999D03*
%TD*%
D13*
%TO.C,R1*%
X122349999Y-41800000D03*
X120699999Y-41800000D03*
%TD*%
D15*
%TO.C,D8*%
X126400000Y-67250000D03*
X126400000Y-64350000D03*
%TD*%
D16*
%TO.C,R35*%
X177958400Y-89045000D03*
X177958400Y-90695000D03*
%TD*%
D17*
%TO.C,R9*%
X155731250Y-51468749D03*
X157381250Y-51468749D03*
%TD*%
D18*
%TO.C,C8*%
X125674999Y-48065000D03*
X123774999Y-48065000D03*
%TD*%
D19*
%TO.C,D5*%
X147966900Y-62603600D03*
X146391900Y-62603600D03*
%TD*%
D20*
%TO.C,C16*%
X121800000Y-59800000D03*
X127400000Y-59800000D03*
%TD*%
D16*
%TO.C,R34*%
X176458400Y-89045000D03*
X176458400Y-90695000D03*
%TD*%
D21*
%TO.C,Y1*%
X139650000Y-86100000D03*
X139650000Y-88300000D03*
X141350000Y-88300000D03*
X141350000Y-86100000D03*
%TD*%
D12*
%TO.C,C31*%
X119925000Y-102400000D03*
X121475000Y-102400000D03*
%TD*%
D22*
%TO.C,C25*%
X179483400Y-87653400D03*
X177933400Y-87653400D03*
%TD*%
D23*
%TO.C,L2*%
X136762499Y-53000000D03*
X135112499Y-53000000D03*
%TD*%
D24*
%TO.C,Q3*%
X183087500Y-94020000D03*
X183087500Y-92120000D03*
X181212500Y-93070000D03*
%TD*%
D16*
%TO.C,R19*%
X158200000Y-63975000D03*
X158200000Y-65625000D03*
%TD*%
D17*
%TO.C,R44*%
X131275000Y-95500000D03*
X132925000Y-95500000D03*
%TD*%
%TO.C,R4*%
X151156250Y-49931249D03*
X152806250Y-49931249D03*
%TD*%
D13*
%TO.C,R16*%
X150975000Y-62603600D03*
X149325000Y-62603600D03*
%TD*%
D25*
%TO.C,U5*%
X134400000Y-79450000D03*
X134400000Y-80400000D03*
X134400000Y-81350000D03*
X136675000Y-81350000D03*
X136675000Y-79450000D03*
%TD*%
D18*
%TO.C,C5*%
X125674999Y-46100000D03*
X123774999Y-46100000D03*
%TD*%
D26*
%TO.C,U3*%
X133475000Y-54400000D03*
X133475000Y-53450000D03*
X133475000Y-52500000D03*
X131200000Y-52500000D03*
X131200000Y-54400000D03*
%TD*%
D27*
%TO.C,D12*%
X180958400Y-89082501D03*
X180958400Y-90657501D03*
%TD*%
D10*
%TO.C,C21*%
X138337500Y-79625000D03*
X138337500Y-81175000D03*
%TD*%
D16*
%TO.C,R18*%
X156710000Y-63975000D03*
X156710000Y-65625000D03*
%TD*%
D17*
%TO.C,R41*%
X128275000Y-94000000D03*
X129925000Y-94000000D03*
%TD*%
%TO.C,R6*%
X127912500Y-51000000D03*
X129562500Y-51000000D03*
%TD*%
D14*
%TO.C,R37*%
X182458400Y-90695000D03*
X182458400Y-89045000D03*
%TD*%
D28*
%TO.C,R27*%
X118960000Y-74660001D03*
X117940000Y-74660001D03*
%TD*%
D12*
%TO.C,C30*%
X119925000Y-96800000D03*
X121475000Y-96800000D03*
%TD*%
D19*
%TO.C,D11*%
X124487500Y-85600000D03*
X122912500Y-85600000D03*
%TD*%
D22*
%TO.C,C14*%
X152756250Y-56468749D03*
X151206250Y-56468749D03*
%TD*%
D13*
%TO.C,R17*%
X150975000Y-64076800D03*
X149325000Y-64076800D03*
%TD*%
D17*
%TO.C,R33*%
X174883400Y-87653400D03*
X176533400Y-87653400D03*
%TD*%
D14*
%TO.C,C3*%
X119224999Y-44925000D03*
X119224999Y-43275000D03*
%TD*%
D29*
%TO.C,D1*%
X128300000Y-44399999D03*
X128300000Y-48400001D03*
%TD*%
D12*
%TO.C,C26*%
X180933400Y-87653400D03*
X182483400Y-87653400D03*
%TD*%
D30*
%TO.C,U4*%
X151968750Y-53368749D03*
X151968750Y-54568749D03*
X152768750Y-53368749D03*
X152768750Y-54568749D03*
D31*
X150918750Y-52993749D03*
X150918750Y-53643749D03*
X150918750Y-54293749D03*
X150918750Y-54943749D03*
X153818750Y-54943749D03*
X153818750Y-54293749D03*
X153818750Y-53643749D03*
X153818750Y-52993749D03*
%TD*%
D28*
%TO.C,R28*%
X118960000Y-75600000D03*
X117940000Y-75600000D03*
%TD*%
D13*
%TO.C,R46*%
X124525000Y-102400000D03*
X122875000Y-102400000D03*
%TD*%
D16*
%TO.C,R31*%
X131237500Y-79575000D03*
X131237500Y-81225000D03*
%TD*%
D13*
%TO.C,R38*%
X124525000Y-91200000D03*
X122875000Y-91200000D03*
%TD*%
D16*
%TO.C,R20*%
X159700000Y-63975000D03*
X159700000Y-65625000D03*
%TD*%
D17*
%TO.C,R39*%
X128275000Y-92500000D03*
X129925000Y-92500000D03*
%TD*%
D22*
%TO.C,C9*%
X157331250Y-49968749D03*
X155781250Y-49968749D03*
%TD*%
D32*
%TO.C,U2*%
X123764999Y-44187500D03*
X124714999Y-44187500D03*
X125664999Y-44187500D03*
X125664999Y-41912500D03*
X124714999Y-41912500D03*
X123764999Y-41912500D03*
%TD*%
D10*
%TO.C,C22*%
X139800000Y-79625000D03*
X139800000Y-81175000D03*
%TD*%
D33*
%TO.C,SW1*%
X118300000Y-88400000D03*
X126100000Y-88400000D03*
%TD*%
D34*
%TO.C,C1*%
X137400000Y-45650000D03*
X137400000Y-40050000D03*
%TD*%
D35*
%TO.C,C6*%
X120014999Y-48299999D03*
X120014999Y-46399999D03*
%TD*%
D22*
%TO.C,C11*%
X135812500Y-51000000D03*
X134262500Y-51000000D03*
%TD*%
D10*
%TO.C,C19*%
X150600000Y-76475000D03*
X150600000Y-78025000D03*
%TD*%
D33*
%TO.C,SW2*%
X118300000Y-94000000D03*
X126100000Y-94000000D03*
%TD*%
D36*
%TO.C,D2*%
X131800000Y-48400000D03*
X131800000Y-44400000D03*
%TD*%
D13*
%TO.C,R25*%
X176925000Y-70300000D03*
X175275000Y-70300000D03*
%TD*%
D10*
%TO.C,C13*%
X149456250Y-53193749D03*
X149456250Y-54743749D03*
%TD*%
D33*
%TO.C,SW5*%
X183050000Y-101070000D03*
X175250000Y-101070000D03*
%TD*%
D37*
%TO.C,J5*%
X179400000Y-55775000D03*
X179400000Y-54525000D03*
X179400000Y-53275000D03*
X179400000Y-52025000D03*
D38*
X182600000Y-57625000D03*
X182600000Y-50175000D03*
%TD*%
D13*
%TO.C,R11*%
X157381250Y-56468749D03*
X155731250Y-56468749D03*
%TD*%
D22*
%TO.C,C15*%
X157331250Y-57968749D03*
X155781250Y-57968749D03*
%TD*%
D13*
%TO.C,R10*%
X129562500Y-54000000D03*
X127912500Y-54000000D03*
%TD*%
D34*
%TO.C,C2*%
X144549999Y-45650000D03*
X144549999Y-40050000D03*
%TD*%
D17*
%TO.C,R42*%
X131275000Y-94000000D03*
X132925000Y-94000000D03*
%TD*%
D22*
%TO.C,C24*%
X141275000Y-84300000D03*
X139725000Y-84300000D03*
%TD*%
D19*
%TO.C,D9*%
X119787500Y-78350000D03*
X118212500Y-78350000D03*
%TD*%
D39*
%TO.C,C17*%
X136900000Y-59800000D03*
X131300000Y-59800000D03*
%TD*%
D16*
%TO.C,R2*%
X120724998Y-43274999D03*
X120724998Y-44924999D03*
%TD*%
D13*
%TO.C,R26*%
X176925000Y-71810001D03*
X175275000Y-71810001D03*
%TD*%
D17*
%TO.C,R43*%
X128275000Y-95500000D03*
X129925000Y-95500000D03*
%TD*%
D16*
%TO.C,R12*%
X154256250Y-56443749D03*
X154256250Y-58093749D03*
%TD*%
D19*
%TO.C,D7*%
X147966900Y-65552000D03*
X146391900Y-65552000D03*
%TD*%
D40*
%TO.C,C18*%
X147850000Y-78025000D03*
X147850000Y-76475000D03*
%TD*%
D41*
%TO.C,Q2*%
X175212500Y-92120000D03*
X175212500Y-94020000D03*
X177087500Y-93070000D03*
%TD*%
D42*
%TO.C,R15*%
X118800000Y-62425000D03*
X118800000Y-60600000D03*
%TD*%
D12*
%TO.C,C29*%
X119925000Y-91200000D03*
X121475000Y-91200000D03*
%TD*%
D24*
%TO.C,Q1*%
X167787500Y-51900000D03*
X167787500Y-50000000D03*
X165912500Y-50950000D03*
%TD*%
D10*
%TO.C,C20*%
X132737500Y-79625000D03*
X132737500Y-81175000D03*
%TD*%
D19*
%TO.C,D4*%
X147966900Y-61130400D03*
X146391900Y-61130400D03*
%TD*%
D16*
%TO.C,R23*%
X164200000Y-63975000D03*
X164200000Y-65625000D03*
%TD*%
D43*
%TO.C,L1*%
X124700000Y-52700000D03*
X119250000Y-52700000D03*
%TD*%
D19*
%TO.C,D10*%
X121487500Y-85600000D03*
X119912500Y-85600000D03*
%TD*%
D44*
%TO.C,J10*%
X123955000Y-68300000D03*
D45*
X123955000Y-70320000D03*
D46*
X123955000Y-71550000D03*
D47*
X123955000Y-69300000D03*
D48*
X123955000Y-67280000D03*
D49*
X123955000Y-66050000D03*
D50*
X123875000Y-64480000D03*
X120075000Y-64480000D03*
X123875000Y-73120000D03*
X120075000Y-73120000D03*
%TD*%
D17*
%TO.C,R13*%
X151156250Y-57931249D03*
X152806250Y-57931249D03*
%TD*%
D12*
%TO.C,C12*%
X127962500Y-52500000D03*
X129512500Y-52500000D03*
%TD*%
D33*
%TO.C,SW4*%
X118300000Y-99600000D03*
X126100000Y-99600000D03*
%TD*%
D10*
%TO.C,C23*%
X141250000Y-79625000D03*
X141250000Y-81175000D03*
%TD*%
D12*
%TO.C,C10*%
X131062500Y-51000000D03*
X132612500Y-51000000D03*
%TD*%
D19*
%TO.C,D6*%
X147966900Y-64076800D03*
X146391900Y-64076800D03*
%TD*%
D51*
%TO.C,J11*%
X178900000Y-71675000D03*
X178900000Y-70425000D03*
X178900000Y-69175000D03*
X178900000Y-67925000D03*
D52*
X181800000Y-74225000D03*
X181800000Y-65375000D03*
%TD*%
D16*
%TO.C,R30*%
X152059999Y-76425000D03*
X152059999Y-78075000D03*
%TD*%
D53*
%TO.C,U6*%
X146424517Y-82090000D03*
X146424517Y-82589999D03*
X146424517Y-83090001D03*
X146424517Y-83590000D03*
X146424517Y-84089999D03*
X146424517Y-84590000D03*
X146424517Y-85090000D03*
X146424517Y-85590001D03*
X146424517Y-86090000D03*
X146424517Y-86589999D03*
X146424517Y-87090001D03*
X146424517Y-87590000D03*
D54*
X147850000Y-89015483D03*
X148349999Y-89015483D03*
X148850001Y-89015483D03*
X149350000Y-89015483D03*
X149849999Y-89015483D03*
X150350000Y-89015483D03*
X150850000Y-89015483D03*
X151350001Y-89015483D03*
X151850000Y-89015483D03*
X152349999Y-89015483D03*
X152850001Y-89015483D03*
X153350000Y-89015483D03*
D53*
X154775483Y-87590000D03*
X154775483Y-87090001D03*
X154775483Y-86589999D03*
X154775483Y-86090000D03*
X154775483Y-85590001D03*
X154775483Y-85090000D03*
X154775483Y-84590000D03*
X154775483Y-84089999D03*
X154775483Y-83590000D03*
X154775483Y-83090001D03*
X154775483Y-82589999D03*
X154775483Y-82090000D03*
D54*
X153350000Y-80664517D03*
X152850001Y-80664517D03*
X152349999Y-80664517D03*
X151850000Y-80664517D03*
X151350001Y-80664517D03*
X150850000Y-80664517D03*
X150350000Y-80664517D03*
X149849999Y-80664517D03*
X149350000Y-80664517D03*
X148850001Y-80664517D03*
X148349999Y-80664517D03*
X147850000Y-80664517D03*
%TD*%
D16*
%TO.C,R7*%
X169550000Y-50125000D03*
X169550000Y-51775000D03*
%TD*%
D17*
%TO.C,R8*%
X151156250Y-51468749D03*
X152806250Y-51468749D03*
%TD*%
D24*
%TO.C,D3*%
X157393750Y-54918749D03*
X157393750Y-53018749D03*
X155518750Y-53968749D03*
%TD*%
D55*
%TO.C,D13*%
X179150000Y-94220000D03*
X179150000Y-92120000D03*
%TD*%
D13*
%TO.C,R24*%
X150975000Y-65550000D03*
X149325000Y-65550000D03*
%TD*%
D14*
%TO.C,R5*%
X154256250Y-51493749D03*
X154256250Y-49843749D03*
%TD*%
D35*
%TO.C,C7*%
X122024999Y-48300000D03*
X122024999Y-46400000D03*
%TD*%
D13*
%TO.C,R29*%
X119825000Y-76850000D03*
X118175000Y-76850000D03*
%TD*%
D37*
%TO.C,J8*%
X179400000Y-61975000D03*
X179400000Y-60725000D03*
D38*
X182600000Y-63825000D03*
X182600000Y-58875000D03*
%TD*%
D10*
%TO.C,C27*%
X174958400Y-89095000D03*
X174958400Y-90645000D03*
%TD*%
D17*
%TO.C,R32*%
X142975000Y-86200000D03*
X144625000Y-86200000D03*
%TD*%
%TO.C,R40*%
X131275000Y-92500000D03*
X132925000Y-92500000D03*
%TD*%
D16*
%TO.C,R22*%
X162700000Y-63975000D03*
X162700000Y-65625000D03*
%TD*%
D13*
%TO.C,R14*%
X150975000Y-61130400D03*
X149325000Y-61130400D03*
%TD*%
D33*
%TO.C,SW3*%
X183050000Y-96900000D03*
X175250000Y-96900000D03*
%TD*%
D16*
%TO.C,R21*%
X161200000Y-63975000D03*
X161200000Y-65625000D03*
%TD*%
%TO.C,R36*%
X179458400Y-89045000D03*
X179458400Y-90695000D03*
%TD*%
M02*
