G04 Layer: BottomSilkscreenLayer*
G04 EasyEDA v6.5.25, 2024-03-20 21:11:36*
G04 Gerber Generator version 0.2*
G04 Scale: 100 percent, Rotated: No, Reflected: No *
G04 Dimensions in millimeters  *
G04 leading zeros omitted , absolute positions ,3 integer and 6 decimal *
%TF.GenerationSoftware,KiCad,Pcbnew,8.0.3*%
%TF.CreationDate,2024-07-16T23:41:29+08:00*%
%TF.ProjectId,mspm0,6d73706d-302e-46b6-9963-61645f706362,rev?*%
%TF.SameCoordinates,Original*%
%TF.FileFunction,Copper,L2,Inr*%
%TF.FilePolarity,Positive*%
%FSLAX46Y46*%
G04 Gerber Fmt 4.6, Leading zero omitted, Abs format (unit mm)*
G04 Created by KiCad (PCBNEW 8.0.3) date 2024-07-16 23:41:29*
%MOMM*%
%LPD*%
G01*
G04 APERTURE LIST*
G04 Aperture macros list*
%AMRoundRect*
0 Rectangle with rounded corners*
0 $1 Rounding radius*
0 $2 $3 $4 $5 $6 $7 $8 $9 X,Y pos of 4 corners*
0 Add a 4 corners polygon primitive as box body*
4,1,4,$2,$3,$4,$5,$6,$7,$8,$9,$2,$3,0*
0 Add four circle primitives for the rounded corners*
1,1,$1+$1,$2,$3*
1,1,$1+$1,$4,$5*
1,1,$1+$1,$6,$7*
1,1,$1+$1,$8,$9*
0 Add four rect primitives between the rounded corners*
20,1,$1+$1,$2,$3,$4,$5,0*
20,1,$1+$1,$4,$5,$6,$7,0*
20,1,$1+$1,$6,$7,$8,$9,0*
20,1,$1+$1,$8,$9,$2,$3,0*%
G04 Aperture macros list end*
%TA.AperFunction,ComponentPad*%
%ADD10C,0.800000*%
%TD*%
%TA.AperFunction,ComponentPad*%
%ADD11C,6.400000*%
%TD*%
%TA.AperFunction,ComponentPad*%
%ADD12R,3.500000X3.500000*%
%TD*%
%TA.AperFunction,ComponentPad*%
%ADD13RoundRect,0.750000X-0.750000X-1.000000X0.750000X-1.000000X0.750000X1.000000X-0.750000X1.000000X0*%
%TD*%
%TA.AperFunction,ComponentPad*%
%ADD14RoundRect,0.875000X-0.875000X-0.875000X0.875000X-0.875000X0.875000X0.875000X-0.875000X0.875000X0*%
%TD*%
%TA.AperFunction,ComponentPad*%
%ADD15R,1.700000X1.700000*%
%TD*%
%TA.AperFunction,ComponentPad*%
%ADD16O,1.700000X1.700000*%
%TD*%
%TA.AperFunction,ComponentPad*%
%ADD17O,1.700000X1.100000*%
%TD*%
%TA.AperFunction,ComponentPad*%
%ADD18O,1.827000X3.027000*%
%TD*%
%TA.AperFunction,ViaPad*%
%ADD19C,0.500000*%
%TD*%
G04 APERTURE END LIST*
D10*
%TO.N,unconnected-(H2-Pad1)_2*%
%TO.C,H2*%
X178200000Y-27650000D03*
%TO.N,unconnected-(H2-Pad1)_1*%
X178902944Y-25952944D03*
%TO.N,unconnected-(H2-Pad1)_0*%
X178902944Y-29347056D03*
%TO.N,unconnected-(H2-Pad1)_4*%
X180600000Y-25250000D03*
D11*
%TO.N,unconnected-(H2-Pad1)_7*%
X180600000Y-27650000D03*
D10*
%TO.N,unconnected-(H2-Pad1)_3*%
X180600000Y-30050000D03*
%TO.N,unconnected-(H2-Pad1)_5*%
X182297056Y-25952944D03*
%TO.N,unconnected-(H2-Pad1)_6*%
X182297056Y-29347056D03*
%TO.N,unconnected-(H2-Pad1)*%
X183000000Y-27650000D03*
%TD*%
D12*
%TO.N,Net-(J2-Pin_2)*%
%TO.C,J1*%
X131300000Y-36100000D03*
D13*
%TO.N,GND*%
X125300000Y-36100000D03*
D14*
X128300000Y-40800000D03*
%TD*%
D10*
%TO.N,unconnected-(H1-Pad1)*%
%TO.C,H1*%
X118400000Y-27650000D03*
%TO.N,unconnected-(H1-Pad1)_0*%
X119102944Y-25952944D03*
%TO.N,unconnected-(H1-Pad1)_7*%
X119102944Y-29347056D03*
%TO.N,unconnected-(H1-Pad1)_2*%
X120800000Y-25250000D03*
D11*
%TO.N,unconnected-(H1-Pad1)_5*%
X120800000Y-27650000D03*
D10*
%TO.N,unconnected-(H1-Pad1)_6*%
X120800000Y-30050000D03*
%TO.N,unconnected-(H1-Pad1)_4*%
X122497056Y-25952944D03*
%TO.N,unconnected-(H1-Pad1)_3*%
X122497056Y-29347056D03*
%TO.N,unconnected-(H1-Pad1)_1*%
X123200000Y-27650000D03*
%TD*%
D15*
%TO.N,+3.3VP*%
%TO.C,J6*%
X139300000Y-54540000D03*
D16*
X141840000Y-54540000D03*
X144380000Y-54540000D03*
X146920000Y-54540000D03*
%TD*%
D15*
%TO.N,+5V*%
%TO.C,J4*%
X139300000Y-52000000D03*
D16*
X141840000Y-52000000D03*
X144380000Y-52000000D03*
X146920000Y-52000000D03*
%TD*%
D10*
%TO.N,unconnected-(H4-Pad1)*%
%TO.C,H4*%
X178200000Y-106600000D03*
%TO.N,unconnected-(H4-Pad1)_5*%
X178902944Y-104902944D03*
%TO.N,unconnected-(H4-Pad1)_2*%
X178902944Y-108297056D03*
%TO.N,unconnected-(H4-Pad1)_0*%
X180600000Y-104200000D03*
D11*
%TO.N,unconnected-(H4-Pad1)_4*%
X180600000Y-106600000D03*
D10*
%TO.N,unconnected-(H4-Pad1)_1*%
X180600000Y-109000000D03*
%TO.N,unconnected-(H4-Pad1)_3*%
X182297056Y-104902944D03*
%TO.N,unconnected-(H4-Pad1)_6*%
X182297056Y-108297056D03*
%TO.N,unconnected-(H4-Pad1)_7*%
X183000000Y-106600000D03*
%TD*%
D15*
%TO.N,GND*%
%TO.C,J7*%
X139300000Y-57080000D03*
D16*
X141840000Y-57080000D03*
X144380000Y-57080000D03*
X146920000Y-57080000D03*
%TD*%
D17*
%TO.N,GND*%
%TO.C,J10*%
X123875000Y-64480000D03*
X120075000Y-64480000D03*
X123875000Y-73120000D03*
X120075000Y-73120000D03*
%TD*%
D15*
%TO.N,GND*%
%TO.C,J12*%
X129100000Y-101350000D03*
D16*
%TO.N,/PA7*%
X131640000Y-101350000D03*
%TO.N,/PB2*%
X134180000Y-101350000D03*
%TO.N,/PB3*%
X136720000Y-101350000D03*
%TO.N,/PA8*%
X139260000Y-101350000D03*
%TO.N,/PA9*%
X141800000Y-101350000D03*
%TO.N,/PA10*%
X144340000Y-101350000D03*
%TO.N,/PA11*%
X146880000Y-101350000D03*
%TO.N,/PB6*%
X149420000Y-101350000D03*
%TO.N,/PB7*%
X151960000Y-101350000D03*
%TO.N,/PB8*%
X154500000Y-101350000D03*
%TO.N,/PB9*%
X157040000Y-101350000D03*
%TO.N,/PB14*%
X159580000Y-101350000D03*
%TO.N,/PB15*%
X162120000Y-101350000D03*
%TO.N,/PB16*%
X164660000Y-101350000D03*
%TO.N,/PA14*%
X167200000Y-101350000D03*
%TO.N,/PA15_A1_0*%
X169740000Y-101350000D03*
%TO.N,VBUS*%
X172280000Y-101350000D03*
%TD*%
D15*
%TO.N,GND*%
%TO.C,J2*%
X135150000Y-35975000D03*
D16*
%TO.N,Net-(J2-Pin_2)*%
X135150000Y-33435000D03*
%TD*%
D15*
%TO.N,+12V*%
%TO.C,J3*%
X139300000Y-49460000D03*
D16*
X141840000Y-49460000D03*
X144380000Y-49460000D03*
X146920000Y-49460000D03*
%TD*%
D10*
%TO.N,unconnected-(H3-Pad1)_2*%
%TO.C,H3*%
X118350000Y-106600000D03*
%TO.N,unconnected-(H3-Pad1)_5*%
X119052944Y-104902944D03*
%TO.N,unconnected-(H3-Pad1)_4*%
X119052944Y-108297056D03*
%TO.N,unconnected-(H3-Pad1)_3*%
X120750000Y-104200000D03*
D11*
%TO.N,unconnected-(H3-Pad1)_7*%
X120750000Y-106600000D03*
D10*
%TO.N,unconnected-(H3-Pad1)_1*%
X120750000Y-109000000D03*
%TO.N,unconnected-(H3-Pad1)*%
X122447056Y-104902944D03*
%TO.N,unconnected-(H3-Pad1)_6*%
X122447056Y-108297056D03*
%TO.N,unconnected-(H3-Pad1)_0*%
X123150000Y-106600000D03*
%TD*%
D15*
%TO.N,VBUS*%
%TO.C,J9*%
X129100000Y-68350000D03*
D16*
%TO.N,/PA31*%
X131640000Y-68350000D03*
%TO.N,/PA28*%
X134180000Y-68350000D03*
%TO.N,/PA1*%
X136720000Y-68350000D03*
%TO.N,/PA0*%
X139260000Y-68350000D03*
%TO.N,/PA27_A0_0*%
X141800000Y-68350000D03*
%TO.N,/PA26_A0_1*%
X144340000Y-68350000D03*
%TO.N,/PA25_A0_2*%
X146880000Y-68350000D03*
%TO.N,/PA24_A0_3*%
X149420000Y-68350000D03*
%TO.N,/PB24_A0_5*%
X151960000Y-68350000D03*
%TO.N,/PB20_A0_6*%
X154500000Y-68350000D03*
%TO.N,/PA22_A0_7*%
X157040000Y-68350000D03*
%TO.N,/PB19_A1_6*%
X159580000Y-68350000D03*
%TO.N,/PB18_A1_5*%
X162120000Y-68350000D03*
%TO.N,/PB17_A1_4*%
X164660000Y-68350000D03*
%TO.N,/LCD_BLK*%
X167200000Y-68350000D03*
%TO.N,/PA16_A1_1*%
X169740000Y-68350000D03*
%TO.N,GND*%
X172280000Y-68350000D03*
%TD*%
D18*
%TO.N,Net-(J2-Pin_2)*%
%TO.C,U1*%
X138600000Y-34700000D03*
%TO.N,+12V*%
X143400000Y-34700000D03*
X148200000Y-34700000D03*
%TD*%
D19*
%TO.N,GND*%
X169900000Y-43500000D03*
X169900000Y-38000000D03*
X128750000Y-50200000D03*
X158400000Y-81550000D03*
X165900000Y-69850000D03*
X161000000Y-81200000D03*
X165550000Y-82100000D03*
X160900000Y-84500000D03*
X165650000Y-88300000D03*
X158750000Y-86200000D03*
X159000000Y-88700000D03*
X156850000Y-95400000D03*
X155250000Y-95600000D03*
X152600000Y-93800000D03*
X149900000Y-98750000D03*
X149550000Y-96950000D03*
X148850000Y-95450000D03*
X145100000Y-95100000D03*
X143150000Y-94350000D03*
X139150000Y-95200000D03*
X142450000Y-72900000D03*
X140200000Y-73500000D03*
X140300000Y-74850000D03*
X177150000Y-84000000D03*
%TO.N,/BSL_invoke*%
X160258000Y-83200000D03*
X157850000Y-83200000D03*
%TO.N,/NRST*%
X180000000Y-93050000D03*
X161650000Y-83750000D03*
X147890000Y-83590000D03*
%TO.N,GND*%
X138550000Y-40700000D03*
X126800000Y-52900000D03*
X155600000Y-73200000D03*
X145700000Y-40000000D03*
X154200000Y-88400000D03*
X133450000Y-50200000D03*
X132400000Y-42800000D03*
X128700000Y-61000000D03*
X132800000Y-50200000D03*
X150000000Y-82350000D03*
X156000000Y-81300000D03*
X167800000Y-52950000D03*
X117900000Y-45200000D03*
X145700000Y-38700000D03*
X168500000Y-71300000D03*
X143400000Y-41300000D03*
X148200000Y-84400000D03*
X169200000Y-35600000D03*
X136250000Y-40050000D03*
X138300000Y-88800000D03*
X126350000Y-49500000D03*
X167950000Y-95300000D03*
X131100000Y-61000000D03*
X140700000Y-83200000D03*
X138300000Y-84800000D03*
X142300000Y-89600000D03*
X139900000Y-83200000D03*
X155950000Y-77050000D03*
X161150000Y-54250000D03*
X120400000Y-45600000D03*
X138550000Y-40050000D03*
X117900000Y-31900000D03*
X177250000Y-64550000D03*
X123650000Y-49200000D03*
X145700000Y-41300000D03*
X176320000Y-96900000D03*
X140700000Y-91200000D03*
X155500000Y-53000000D03*
X158700000Y-69800000D03*
X175300000Y-52800000D03*
X126800000Y-51700000D03*
X171500000Y-60100000D03*
X126800000Y-53500000D03*
X147850000Y-75600000D03*
X143400000Y-40000000D03*
X171500000Y-61700000D03*
X121000000Y-45600000D03*
X177100000Y-60100000D03*
X121000000Y-78300000D03*
X131300000Y-58600000D03*
X131900000Y-58600000D03*
X152000000Y-32100000D03*
X157763102Y-75550000D03*
X151968200Y-62611000D03*
X144500000Y-74600000D03*
X123000000Y-45700000D03*
X136250000Y-39400000D03*
X127700000Y-58600000D03*
X148600000Y-48300000D03*
X178000000Y-53300000D03*
X159900000Y-51200000D03*
X138300000Y-90400000D03*
X126800000Y-54100000D03*
X127500000Y-61000000D03*
X141000000Y-32100000D03*
X151968200Y-65557400D03*
X145700000Y-39350000D03*
X138300000Y-89600000D03*
X145700000Y-40650000D03*
X136250000Y-41350000D03*
X167800000Y-48950000D03*
X136250000Y-40700000D03*
X138550000Y-38750000D03*
X142300000Y-84000000D03*
X142300000Y-90400000D03*
X149450000Y-55950000D03*
X136250000Y-38750000D03*
X174155000Y-89095000D03*
X123100000Y-47000000D03*
X126800000Y-52300000D03*
X132400000Y-53450000D03*
X180100000Y-69200000D03*
X142300000Y-84800000D03*
X163400000Y-69300000D03*
X128100000Y-61000000D03*
X141500000Y-91200000D03*
X164350000Y-35600000D03*
X151968200Y-61137800D03*
X179200000Y-64550000D03*
X131200000Y-42800000D03*
X164350000Y-39100000D03*
X122100000Y-52700000D03*
X121300000Y-44200000D03*
X138300000Y-83200000D03*
X138300000Y-91200000D03*
X139100000Y-83200000D03*
X120300000Y-57400000D03*
X149500000Y-51300000D03*
X170700000Y-51000000D03*
X136337500Y-80400000D03*
X120100000Y-44200000D03*
X119000000Y-91200000D03*
X130500000Y-61000000D03*
X179500000Y-86850000D03*
X118975000Y-96800000D03*
X134100000Y-50200000D03*
X175300000Y-51200000D03*
X134737500Y-80400000D03*
X177100000Y-62850000D03*
X143400000Y-39350000D03*
X143400000Y-40650000D03*
X157100000Y-71800000D03*
X147000000Y-81300000D03*
X176550000Y-86850000D03*
X138550000Y-39400000D03*
X143000000Y-84400000D03*
X132400000Y-57250000D03*
X148700000Y-87400000D03*
X176600000Y-68600000D03*
X138300000Y-84000000D03*
X128300000Y-58600000D03*
X142300000Y-91200000D03*
X139100000Y-91200000D03*
X129900000Y-61000000D03*
X152400000Y-53000000D03*
X151968200Y-64084200D03*
X145592800Y-67106800D03*
X118975000Y-102400000D03*
X153200000Y-87500000D03*
X155500000Y-55069400D03*
X127100000Y-58600000D03*
X135537500Y-80400000D03*
X143400000Y-38700000D03*
X131800000Y-42800000D03*
X130100000Y-80200000D03*
X154100000Y-81300000D03*
X147000000Y-88400000D03*
X139900000Y-91200000D03*
X129300000Y-61000000D03*
X138550000Y-41350000D03*
X152400000Y-54950000D03*
X141500000Y-83200000D03*
X150698200Y-67106800D03*
X142300000Y-83200000D03*
X120200000Y-61400000D03*
X167800000Y-51000000D03*
X180900000Y-53300000D03*
X130700000Y-58600000D03*
%TO.N,+5V*%
X117900000Y-56400000D03*
X118600000Y-56400000D03*
X119300000Y-55000000D03*
X118600000Y-55000001D03*
X117900000Y-55700000D03*
X119300000Y-55700000D03*
X117900000Y-55000000D03*
X133450000Y-55050000D03*
X119300000Y-56400000D03*
X177900000Y-52050000D03*
X118600000Y-55700001D03*
%TO.N,+3.3V*%
X176349999Y-101070000D03*
X140300000Y-78050000D03*
X177300000Y-67900000D03*
X148818600Y-70713600D03*
X137000000Y-78050000D03*
X179458400Y-89791600D03*
X136450000Y-78600000D03*
X138650000Y-78600000D03*
X139200000Y-78050000D03*
X139750000Y-78600000D03*
X141400000Y-78050000D03*
X140850000Y-78600000D03*
X123750000Y-84750000D03*
X132900000Y-91400000D03*
X180200000Y-67900000D03*
X138100000Y-78050000D03*
X137550000Y-78600000D03*
X152050000Y-75600000D03*
%TO.N,Net-(C3-Pad1)*%
X119224999Y-44100000D03*
X121575000Y-41800000D03*
%TO.N,Net-(U2-FB)*%
X121475000Y-42600000D03*
X125675000Y-43000000D03*
%TO.N,/LCD_CS*%
X163650000Y-42300000D03*
X163650500Y-39799500D03*
%TO.N,/CANFD_RX*%
X154600000Y-71200000D03*
X156710000Y-86119401D03*
%TO.N,/CANFD_TX*%
X153400000Y-59300000D03*
X155600000Y-71200000D03*
X157800000Y-86119401D03*
X150100000Y-50000000D03*
%TO.N,/PB20_A0_6*%
X151350000Y-78700000D03*
%TO.N,/PB24_A0_5*%
X150850000Y-82350000D03*
X156450000Y-66500000D03*
%TO.N,Net-(J8-Pin_1)*%
X177125000Y-61975000D03*
X161050000Y-53350000D03*
%TO.N,Net-(D13-K)*%
X181750000Y-93965200D03*
X182500000Y-86650000D03*
X180100000Y-94200000D03*
%TO.N,Net-(D10-K)*%
X120752398Y-85550000D03*
X137300000Y-85550000D03*
%TO.N,Net-(D11-K)*%
X137883527Y-86079400D03*
X123750000Y-86250000D03*
%TO.N,/PA9*%
X129100000Y-92500000D03*
%TO.N,/PA3*%
X148050000Y-85900000D03*
%TO.N,/PA4*%
X148050000Y-86750000D03*
%TO.N,/PA22_A0_7*%
X151850000Y-82350000D03*
%TO.N,Net-(J8-Pin_2)*%
X177126075Y-60751882D03*
X161157254Y-52706474D03*
%TO.N,+3.3VP*%
X128737500Y-51000000D03*
X161920600Y-50156400D03*
X136737500Y-51000000D03*
X154353985Y-59350000D03*
%TO.N,Net-(U6-PA20_SWCLK)*%
X153250000Y-82150000D03*
X174150000Y-70300000D03*
%TO.N,Net-(U6-PA19_SWDIO)*%
X153029400Y-82850000D03*
X173750000Y-71800000D03*
%TO.N,/PA0*%
X148800000Y-82200000D03*
X129100000Y-94000000D03*
%TO.N,/PA1*%
X148000000Y-82600000D03*
X129100000Y-95500000D03*
%TO.N,/PA10*%
X150850000Y-86700000D03*
X178050000Y-55750000D03*
%TO.N,/PA11*%
X178025000Y-54525000D03*
X150889043Y-87409643D03*
%TO.N,/PA8*%
X149400000Y-86700000D03*
X158300000Y-67200000D03*
%TD*%
%TA.AperFunction,Conductor*%
%TO.N,Net-(J2-Pin_2)*%
G36*
X139665677Y-31519685D02*
G01*
X139686319Y-31536319D01*
X139863681Y-31713681D01*
X139897166Y-31775004D01*
X139900000Y-31801362D01*
X139900000Y-36548638D01*
X139880315Y-36615677D01*
X139863681Y-36636319D01*
X139686319Y-36813681D01*
X139624996Y-36847166D01*
X139598638Y-36850000D01*
X137759157Y-36850000D01*
X137692118Y-36830315D01*
X137662779Y-36804021D01*
X136264390Y-35076599D01*
X136245585Y-35036490D01*
X136244405Y-35036979D01*
X136239735Y-35025706D01*
X136239734Y-35025699D01*
X136183484Y-34941516D01*
X136137165Y-34910566D01*
X136109678Y-34885485D01*
X136000000Y-34750000D01*
X135150000Y-34750000D01*
X133350000Y-34750000D01*
X133349999Y-34750000D01*
X133100000Y-34999999D01*
X133100000Y-37776000D01*
X133080315Y-37843039D01*
X133027511Y-37888794D01*
X132976000Y-37900000D01*
X129624000Y-37900000D01*
X129556961Y-37880315D01*
X129511206Y-37827511D01*
X129500000Y-37776000D01*
X129500000Y-31801362D01*
X129519685Y-31734323D01*
X129536319Y-31713681D01*
X129713681Y-31536319D01*
X129775004Y-31502834D01*
X129801362Y-31500000D01*
X139598638Y-31500000D01*
X139665677Y-31519685D01*
G37*
%TD.AperFunction*%
%TD*%
%TA.AperFunction,Conductor*%
%TO.N,GND*%
G36*
X177203896Y-28488669D02*
G01*
X177256203Y-28536674D01*
X177269710Y-28568032D01*
X177321524Y-28754647D01*
X177374343Y-28887214D01*
X177460176Y-29102637D01*
X177635639Y-29433597D01*
X177845857Y-29743645D01*
X177845859Y-29743647D01*
X178088364Y-30029147D01*
X178360304Y-30286743D01*
X178360319Y-30286756D01*
X178658532Y-30513451D01*
X178979506Y-30706575D01*
X179021670Y-30726082D01*
X179319468Y-30863859D01*
X179319480Y-30863864D01*
X179674466Y-30983473D01*
X180040303Y-31063999D01*
X180412702Y-31104500D01*
X180412710Y-31104500D01*
X180787290Y-31104500D01*
X180787298Y-31104500D01*
X181159697Y-31063999D01*
X181525534Y-30983473D01*
X181880520Y-30863864D01*
X182220494Y-30706575D01*
X182541468Y-30513451D01*
X182839681Y-30286756D01*
X183111635Y-30029147D01*
X183354143Y-29743645D01*
X183564361Y-29433597D01*
X183739824Y-29102637D01*
X183806949Y-28934165D01*
X183850744Y-28878287D01*
X183917798Y-28854956D01*
X183986821Y-28871580D01*
X184035898Y-28922882D01*
X184050000Y-28980803D01*
X184050000Y-105269196D01*
X184029998Y-105337317D01*
X183976342Y-105383810D01*
X183906068Y-105393914D01*
X183841488Y-105364420D01*
X183806949Y-105315833D01*
X183739828Y-105147374D01*
X183739824Y-105147363D01*
X183564361Y-104816403D01*
X183354143Y-104506355D01*
X183269941Y-104407225D01*
X183111635Y-104220852D01*
X182839695Y-103963256D01*
X182839680Y-103963243D01*
X182541472Y-103736552D01*
X182541466Y-103736548D01*
X182488370Y-103704601D01*
X182220494Y-103543425D01*
X182220488Y-103543422D01*
X181880531Y-103386140D01*
X181880519Y-103386135D01*
X181525543Y-103266530D01*
X181525542Y-103266529D01*
X181525534Y-103266527D01*
X181525529Y-103266525D01*
X181525526Y-103266525D01*
X181159714Y-103186004D01*
X181159685Y-103185999D01*
X180787305Y-103145500D01*
X180787298Y-103145500D01*
X180412702Y-103145500D01*
X180412694Y-103145500D01*
X180040314Y-103185999D01*
X180040285Y-103186004D01*
X179674473Y-103266525D01*
X179674456Y-103266530D01*
X179319480Y-103386135D01*
X179319468Y-103386140D01*
X178979511Y-103543422D01*
X178979504Y-103543426D01*
X178658533Y-103736548D01*
X178658527Y-103736552D01*
X178360319Y-103963243D01*
X178360304Y-103963256D01*
X178088364Y-104220852D01*
X177845859Y-104506352D01*
X177845857Y-104506355D01*
X177635639Y-104816403D01*
X177635636Y-104816408D01*
X177635635Y-104816410D01*
X177460175Y-105147365D01*
X177460171Y-105147374D01*
X177321524Y-105495352D01*
X177269710Y-105681967D01*
X177232213Y-105742254D01*
X177168074Y-105772697D01*
X177097659Y-105763632D01*
X177043323Y-105717937D01*
X177028470Y-105687194D01*
X176923065Y-105362786D01*
X176923064Y-105362785D01*
X176881395Y-105269196D01*
X176776082Y-105032658D01*
X176776081Y-105032656D01*
X176776078Y-105032650D01*
X176651231Y-104816410D01*
X176595399Y-104719706D01*
X176382993Y-104427355D01*
X176141192Y-104158808D01*
X175872645Y-103917007D01*
X175580294Y-103704601D01*
X175508613Y-103663216D01*
X175267349Y-103523921D01*
X175267343Y-103523918D01*
X174937214Y-103376935D01*
X174937213Y-103376934D01*
X174593542Y-103265270D01*
X174593539Y-103265269D01*
X174593538Y-103265269D01*
X174501452Y-103245695D01*
X174240071Y-103190137D01*
X173880694Y-103152365D01*
X173880689Y-103152364D01*
X173880683Y-103152364D01*
X173844546Y-103151891D01*
X173700016Y-103150000D01*
X173700000Y-103150000D01*
X127650000Y-103150000D01*
X127649984Y-103150000D01*
X127497845Y-103151990D01*
X127469317Y-103152364D01*
X127469311Y-103152364D01*
X127469305Y-103152365D01*
X127109928Y-103190137D01*
X126756457Y-103265270D01*
X126412786Y-103376934D01*
X126412785Y-103376935D01*
X126082656Y-103523918D01*
X126082650Y-103523921D01*
X125769709Y-103704599D01*
X125769697Y-103704607D01*
X125477355Y-103917006D01*
X125477354Y-103917007D01*
X125208808Y-104158808D01*
X124967007Y-104427354D01*
X124967006Y-104427355D01*
X124754607Y-104719697D01*
X124754599Y-104719709D01*
X124573921Y-105032650D01*
X124573918Y-105032656D01*
X124426935Y-105362785D01*
X124426934Y-105362786D01*
X124321529Y-105687194D01*
X124281456Y-105745800D01*
X124216059Y-105773437D01*
X124146102Y-105761330D01*
X124093796Y-105713324D01*
X124080289Y-105681967D01*
X124028476Y-105495353D01*
X123889824Y-105147363D01*
X123714361Y-104816403D01*
X123504143Y-104506355D01*
X123419941Y-104407225D01*
X123261635Y-104220852D01*
X122989695Y-103963256D01*
X122989680Y-103963243D01*
X122691472Y-103736552D01*
X122691466Y-103736548D01*
X122638370Y-103704601D01*
X122370494Y-103543425D01*
X122370488Y-103543422D01*
X122030531Y-103386140D01*
X122030519Y-103386135D01*
X121675543Y-103266530D01*
X121675542Y-103266529D01*
X121675534Y-103266527D01*
X121675529Y-103266525D01*
X121675526Y-103266525D01*
X121309714Y-103186004D01*
X121309685Y-103185999D01*
X120937305Y-103145500D01*
X120937298Y-103145500D01*
X120562702Y-103145500D01*
X120562694Y-103145500D01*
X120190314Y-103185999D01*
X120190285Y-103186004D01*
X119824473Y-103266525D01*
X119824456Y-103266530D01*
X119469480Y-103386135D01*
X119469468Y-103386140D01*
X119129511Y-103543422D01*
X119129504Y-103543426D01*
X118808533Y-103736548D01*
X118808527Y-103736552D01*
X118510319Y-103963243D01*
X118510304Y-103963256D01*
X118238364Y-104220852D01*
X117995859Y-104506352D01*
X117995857Y-104506355D01*
X117785639Y-104816403D01*
X117785636Y-104816408D01*
X117785635Y-104816410D01*
X117610175Y-105147365D01*
X117610171Y-105147374D01*
X117543895Y-105313715D01*
X117500100Y-105369594D01*
X117433046Y-105392925D01*
X117364023Y-105376301D01*
X117314946Y-105324998D01*
X117300844Y-105266998D01*
X117300920Y-105147365D01*
X117303325Y-101349995D01*
X130530768Y-101349995D01*
X130530768Y-101350004D01*
X130549654Y-101553819D01*
X130605671Y-101750698D01*
X130605672Y-101750701D01*
X130696912Y-101933935D01*
X130696913Y-101933936D01*
X130820266Y-102097284D01*
X130971536Y-102235185D01*
X131145566Y-102342940D01*
X131145568Y-102342940D01*
X131145573Y-102342944D01*
X131336444Y-102416888D01*
X131537653Y-102454500D01*
X131537655Y-102454500D01*
X131742345Y-102454500D01*
X131742347Y-102454500D01*
X131943556Y-102416888D01*
X132134427Y-102342944D01*
X132308462Y-102235186D01*
X132459732Y-102097285D01*
X132583088Y-101933935D01*
X132674328Y-101750701D01*
X132730345Y-101553821D01*
X132749232Y-101350000D01*
X132749232Y-101349995D01*
X133070768Y-101349995D01*
X133070768Y-101350004D01*
X133089654Y-101553819D01*
X133145671Y-101750698D01*
X133145672Y-101750701D01*
X133236912Y-101933935D01*
X133236913Y-101933936D01*
X133360266Y-102097284D01*
X133511536Y-102235185D01*
X133685566Y-102342940D01*
X133685568Y-102342940D01*
X133685573Y-102342944D01*
X133876444Y-102416888D01*
X134077653Y-102454500D01*
X134077655Y-102454500D01*
X134282345Y-102454500D01*
X134282347Y-102454500D01*
X134483556Y-102416888D01*
X134674427Y-102342944D01*
X134848462Y-102235186D01*
X134999732Y-102097285D01*
X135123088Y-101933935D01*
X135214328Y-101750701D01*
X135270345Y-101553821D01*
X135289232Y-101350000D01*
X135289232Y-101349995D01*
X135610768Y-101349995D01*
X135610768Y-101350004D01*
X135629654Y-101553819D01*
X135685671Y-101750698D01*
X135685672Y-101750701D01*
X135776912Y-101933935D01*
X135776913Y-101933936D01*
X135900266Y-102097284D01*
X136051536Y-102235185D01*
X136225566Y-102342940D01*
X136225568Y-102342940D01*
X136225573Y-102342944D01*
X136416444Y-102416888D01*
X136617653Y-102454500D01*
X136617655Y-102454500D01*
X136822345Y-102454500D01*
X136822347Y-102454500D01*
X137023556Y-102416888D01*
X137214427Y-102342944D01*
X137388462Y-102235186D01*
X137539732Y-102097285D01*
X137663088Y-101933935D01*
X137754328Y-101750701D01*
X137810345Y-101553821D01*
X137829232Y-101350000D01*
X137829232Y-101349995D01*
X138150768Y-101349995D01*
X138150768Y-101350004D01*
X138169654Y-101553819D01*
X138225671Y-101750698D01*
X138225672Y-101750701D01*
X138316912Y-101933935D01*
X138316913Y-101933936D01*
X138440266Y-102097284D01*
X138591536Y-102235185D01*
X138765566Y-102342940D01*
X138765568Y-102342940D01*
X138765573Y-102342944D01*
X138956444Y-102416888D01*
X139157653Y-102454500D01*
X139157655Y-102454500D01*
X139362345Y-102454500D01*
X139362347Y-102454500D01*
X139563556Y-102416888D01*
X139754427Y-102342944D01*
X139928462Y-102235186D01*
X140079732Y-102097285D01*
X140203088Y-101933935D01*
X140294328Y-101750701D01*
X140350345Y-101553821D01*
X140369232Y-101350000D01*
X140369232Y-101349995D01*
X140690768Y-101349995D01*
X140690768Y-101350004D01*
X140709654Y-101553819D01*
X140765671Y-101750698D01*
X140765672Y-101750701D01*
X140856912Y-101933935D01*
X140856913Y-101933936D01*
X140980266Y-102097284D01*
X141131536Y-102235185D01*
X141305566Y-102342940D01*
X141305568Y-102342940D01*
X141305573Y-102342944D01*
X141496444Y-102416888D01*
X141697653Y-102454500D01*
X141697655Y-102454500D01*
X141902345Y-102454500D01*
X141902347Y-102454500D01*
X142103556Y-102416888D01*
X142294427Y-102342944D01*
X142468462Y-102235186D01*
X142619732Y-102097285D01*
X142743088Y-101933935D01*
X142834328Y-101750701D01*
X142890345Y-101553821D01*
X142909232Y-101350000D01*
X142909232Y-101349995D01*
X143230768Y-101349995D01*
X143230768Y-101350004D01*
X143249654Y-101553819D01*
X143305671Y-101750698D01*
X143305672Y-101750701D01*
X143396912Y-101933935D01*
X143396913Y-101933936D01*
X143520266Y-102097284D01*
X143671536Y-102235185D01*
X143845566Y-102342940D01*
X143845568Y-102342940D01*
X143845573Y-102342944D01*
X144036444Y-102416888D01*
X144237653Y-102454500D01*
X144237655Y-102454500D01*
X144442345Y-102454500D01*
X144442347Y-102454500D01*
X144643556Y-102416888D01*
X144834427Y-102342944D01*
X145008462Y-102235186D01*
X145159732Y-102097285D01*
X145283088Y-101933935D01*
X145374328Y-101750701D01*
X145430345Y-101553821D01*
X145449232Y-101350000D01*
X145449232Y-101349995D01*
X145770768Y-101349995D01*
X145770768Y-101350004D01*
X145789654Y-101553819D01*
X145845671Y-101750698D01*
X145845672Y-101750701D01*
X145936912Y-101933935D01*
X145936913Y-101933936D01*
X146060266Y-102097284D01*
X146211536Y-102235185D01*
X146385566Y-102342940D01*
X146385568Y-102342940D01*
X146385573Y-102342944D01*
X146576444Y-102416888D01*
X146777653Y-102454500D01*
X146777655Y-102454500D01*
X146982345Y-102454500D01*
X146982347Y-102454500D01*
X147183556Y-102416888D01*
X147374427Y-102342944D01*
X147548462Y-102235186D01*
X147699732Y-102097285D01*
X147823088Y-101933935D01*
X147914328Y-101750701D01*
X147970345Y-101553821D01*
X147989232Y-101350000D01*
X147989232Y-101349995D01*
X148310768Y-101349995D01*
X148310768Y-101350004D01*
X148329654Y-101553819D01*
X148385671Y-101750698D01*
X148385672Y-101750701D01*
X148476912Y-101933935D01*
X148476913Y-101933936D01*
X148600266Y-102097284D01*
X148751536Y-102235185D01*
X148925566Y-102342940D01*
X148925568Y-102342940D01*
X148925573Y-102342944D01*
X149116444Y-102416888D01*
X149317653Y-102454500D01*
X149317655Y-102454500D01*
X149522345Y-102454500D01*
X149522347Y-102454500D01*
X149723556Y-102416888D01*
X149914427Y-102342944D01*
X150088462Y-102235186D01*
X150239732Y-102097285D01*
X150363088Y-101933935D01*
X150454328Y-101750701D01*
X150510345Y-101553821D01*
X150529232Y-101350000D01*
X150529232Y-101349995D01*
X150850768Y-101349995D01*
X150850768Y-101350004D01*
X150869654Y-101553819D01*
X150925671Y-101750698D01*
X150925672Y-101750701D01*
X151016912Y-101933935D01*
X151016913Y-101933936D01*
X151140266Y-102097284D01*
X151291536Y-102235185D01*
X151465566Y-102342940D01*
X151465568Y-102342940D01*
X151465573Y-102342944D01*
X151656444Y-102416888D01*
X151857653Y-102454500D01*
X151857655Y-102454500D01*
X152062345Y-102454500D01*
X152062347Y-102454500D01*
X152263556Y-102416888D01*
X152454427Y-102342944D01*
X152628462Y-102235186D01*
X152779732Y-102097285D01*
X152903088Y-101933935D01*
X152994328Y-101750701D01*
X153050345Y-101553821D01*
X153069232Y-101350000D01*
X153069232Y-101349995D01*
X153390768Y-101349995D01*
X153390768Y-101350004D01*
X153409654Y-101553819D01*
X153465671Y-101750698D01*
X153465672Y-101750701D01*
X153556912Y-101933935D01*
X153556913Y-101933936D01*
X153680266Y-102097284D01*
X153831536Y-102235185D01*
X154005566Y-102342940D01*
X154005568Y-102342940D01*
X154005573Y-102342944D01*
X154196444Y-102416888D01*
X154397653Y-102454500D01*
X154397655Y-102454500D01*
X154602345Y-102454500D01*
X154602347Y-102454500D01*
X154803556Y-102416888D01*
X154994427Y-102342944D01*
X155168462Y-102235186D01*
X155319732Y-102097285D01*
X155443088Y-101933935D01*
X155534328Y-101750701D01*
X155590345Y-101553821D01*
X155609232Y-101350000D01*
X155609232Y-101349995D01*
X155930768Y-101349995D01*
X155930768Y-101350004D01*
X155949654Y-101553819D01*
X156005671Y-101750698D01*
X156005672Y-101750701D01*
X156096912Y-101933935D01*
X156096913Y-101933936D01*
X156220266Y-102097284D01*
X156371536Y-102235185D01*
X156545566Y-102342940D01*
X156545568Y-102342940D01*
X156545573Y-102342944D01*
X156736444Y-102416888D01*
X156937653Y-102454500D01*
X156937655Y-102454500D01*
X157142345Y-102454500D01*
X157142347Y-102454500D01*
X157343556Y-102416888D01*
X157534427Y-102342944D01*
X157708462Y-102235186D01*
X157859732Y-102097285D01*
X157983088Y-101933935D01*
X158074328Y-101750701D01*
X158130345Y-101553821D01*
X158149232Y-101350000D01*
X158149232Y-101349995D01*
X158470768Y-101349995D01*
X158470768Y-101350004D01*
X158489654Y-101553819D01*
X158545671Y-101750698D01*
X158545672Y-101750701D01*
X158636912Y-101933935D01*
X158636913Y-101933936D01*
X158760266Y-102097284D01*
X158911536Y-102235185D01*
X159085566Y-102342940D01*
X159085568Y-102342940D01*
X159085573Y-102342944D01*
X159276444Y-102416888D01*
X159477653Y-102454500D01*
X159477655Y-102454500D01*
X159682345Y-102454500D01*
X159682347Y-102454500D01*
X159883556Y-102416888D01*
X160074427Y-102342944D01*
X160248462Y-102235186D01*
X160399732Y-102097285D01*
X160523088Y-101933935D01*
X160614328Y-101750701D01*
X160670345Y-101553821D01*
X160689232Y-101350000D01*
X160689232Y-101349995D01*
X161010768Y-101349995D01*
X161010768Y-101350004D01*
X161029654Y-101553819D01*
X161085671Y-101750698D01*
X161085672Y-101750701D01*
X161176912Y-101933935D01*
X161176913Y-101933936D01*
X161300266Y-102097284D01*
X161451536Y-102235185D01*
X161625566Y-102342940D01*
X161625568Y-102342940D01*
X161625573Y-102342944D01*
X161816444Y-102416888D01*
X162017653Y-102454500D01*
X162017655Y-102454500D01*
X162222345Y-102454500D01*
X162222347Y-102454500D01*
X162423556Y-102416888D01*
X162614427Y-102342944D01*
X162788462Y-102235186D01*
X162939732Y-102097285D01*
X163063088Y-101933935D01*
X163154328Y-101750701D01*
X163210345Y-101553821D01*
X163229232Y-101350000D01*
X163229232Y-101349995D01*
X163550768Y-101349995D01*
X163550768Y-101350004D01*
X163569654Y-101553819D01*
X163625671Y-101750698D01*
X163625672Y-101750701D01*
X163716912Y-101933935D01*
X163716913Y-101933936D01*
X163840266Y-102097284D01*
X163991536Y-102235185D01*
X164165566Y-102342940D01*
X164165568Y-102342940D01*
X164165573Y-102342944D01*
X164356444Y-102416888D01*
X164557653Y-102454500D01*
X164557655Y-102454500D01*
X164762345Y-102454500D01*
X164762347Y-102454500D01*
X164963556Y-102416888D01*
X165154427Y-102342944D01*
X165328462Y-102235186D01*
X165479732Y-102097285D01*
X165603088Y-101933935D01*
X165694328Y-101750701D01*
X165750345Y-101553821D01*
X165769232Y-101350000D01*
X165769232Y-101349995D01*
X166090768Y-101349995D01*
X166090768Y-101350004D01*
X166109654Y-101553819D01*
X166165671Y-101750698D01*
X166165672Y-101750701D01*
X166256912Y-101933935D01*
X166256913Y-101933936D01*
X166380266Y-102097284D01*
X166531536Y-102235185D01*
X166705566Y-102342940D01*
X166705568Y-102342940D01*
X166705573Y-102342944D01*
X166896444Y-102416888D01*
X167097653Y-102454500D01*
X167097655Y-102454500D01*
X167302345Y-102454500D01*
X167302347Y-102454500D01*
X167503556Y-102416888D01*
X167694427Y-102342944D01*
X167868462Y-102235186D01*
X168019732Y-102097285D01*
X168143088Y-101933935D01*
X168234328Y-101750701D01*
X168290345Y-101553821D01*
X168309232Y-101350000D01*
X168309232Y-101349995D01*
X168630768Y-101349995D01*
X168630768Y-101350004D01*
X168649654Y-101553819D01*
X168705671Y-101750698D01*
X168705672Y-101750701D01*
X168796912Y-101933935D01*
X168796913Y-101933936D01*
X168920266Y-102097284D01*
X169071536Y-102235185D01*
X169245566Y-102342940D01*
X169245568Y-102342940D01*
X169245573Y-102342944D01*
X169436444Y-102416888D01*
X169637653Y-102454500D01*
X169637655Y-102454500D01*
X169842345Y-102454500D01*
X169842347Y-102454500D01*
X170043556Y-102416888D01*
X170234427Y-102342944D01*
X170408462Y-102235186D01*
X170559732Y-102097285D01*
X170683088Y-101933935D01*
X170774328Y-101750701D01*
X170830345Y-101553821D01*
X170849232Y-101350000D01*
X170849232Y-101349995D01*
X171170768Y-101349995D01*
X171170768Y-101350004D01*
X171189654Y-101553819D01*
X171245671Y-101750698D01*
X171245672Y-101750701D01*
X171336912Y-101933935D01*
X171336913Y-101933936D01*
X171460266Y-102097284D01*
X171611536Y-102235185D01*
X171785566Y-102342940D01*
X171785568Y-102342940D01*
X171785573Y-102342944D01*
X171976444Y-102416888D01*
X172177653Y-102454500D01*
X172177655Y-102454500D01*
X172382345Y-102454500D01*
X172382347Y-102454500D01*
X172583556Y-102416888D01*
X172774427Y-102342944D01*
X172948462Y-102235186D01*
X173099732Y-102097285D01*
X173223088Y-101933935D01*
X173314328Y-101750701D01*
X173370345Y-101553821D01*
X173389232Y-101350000D01*
X173388820Y-101345558D01*
X173370345Y-101146180D01*
X173348670Y-101070000D01*
X175840311Y-101070000D01*
X175860957Y-101213596D01*
X175921222Y-101345558D01*
X176016224Y-101455196D01*
X176138267Y-101533629D01*
X176277463Y-101574500D01*
X176422535Y-101574500D01*
X176561731Y-101533629D01*
X176683774Y-101455196D01*
X176778776Y-101345558D01*
X176839041Y-101213596D01*
X176859687Y-101070000D01*
X176839041Y-100926404D01*
X176778776Y-100794442D01*
X176683774Y-100684804D01*
X176683773Y-100684803D01*
X176622752Y-100645587D01*
X176561731Y-100606371D01*
X176561730Y-100606370D01*
X176561729Y-100606370D01*
X176422535Y-100565500D01*
X176277463Y-100565500D01*
X176138268Y-100606370D01*
X176138265Y-100606372D01*
X176016224Y-100684803D01*
X175921222Y-100794441D01*
X175921222Y-100794442D01*
X175860957Y-100926404D01*
X175840311Y-101070000D01*
X173348670Y-101070000D01*
X173314328Y-100949299D01*
X173223088Y-100766065D01*
X173161722Y-100684803D01*
X173099733Y-100602715D01*
X172948463Y-100464814D01*
X172774433Y-100357059D01*
X172774428Y-100357057D01*
X172774427Y-100357056D01*
X172583559Y-100283113D01*
X172583560Y-100283113D01*
X172583557Y-100283112D01*
X172583556Y-100283112D01*
X172382347Y-100245500D01*
X172177653Y-100245500D01*
X171976444Y-100283112D01*
X171976439Y-100283113D01*
X171785577Y-100357054D01*
X171785566Y-100357059D01*
X171611536Y-100464814D01*
X171460266Y-100602715D01*
X171336913Y-100766063D01*
X171245671Y-100949301D01*
X171189654Y-101146180D01*
X171170768Y-101349995D01*
X170849232Y-101349995D01*
X170848820Y-101345558D01*
X170830345Y-101146180D01*
X170808670Y-101070000D01*
X170774328Y-100949299D01*
X170683088Y-100766065D01*
X170621722Y-100684803D01*
X170559733Y-100602715D01*
X170408463Y-100464814D01*
X170234433Y-100357059D01*
X170234428Y-100357057D01*
X170234427Y-100357056D01*
X170043559Y-100283113D01*
X170043560Y-100283113D01*
X170043557Y-100283112D01*
X170043556Y-100283112D01*
X169842347Y-100245500D01*
X169637653Y-100245500D01*
X169436444Y-100283112D01*
X169436439Y-100283113D01*
X169245577Y-100357054D01*
X169245566Y-100357059D01*
X169071536Y-100464814D01*
X168920266Y-100602715D01*
X168796913Y-100766063D01*
X168705671Y-100949301D01*
X168649654Y-101146180D01*
X168630768Y-101349995D01*
X168309232Y-101349995D01*
X168308820Y-101345558D01*
X168290345Y-101146180D01*
X168268670Y-101070000D01*
X168234328Y-100949299D01*
X168143088Y-100766065D01*
X168081722Y-100684803D01*
X168019733Y-100602715D01*
X167868463Y-100464814D01*
X167694433Y-100357059D01*
X167694428Y-100357057D01*
X167694427Y-100357056D01*
X167503559Y-100283113D01*
X167503560Y-100283113D01*
X167503557Y-100283112D01*
X167503556Y-100283112D01*
X167302347Y-100245500D01*
X167097653Y-100245500D01*
X166896444Y-100283112D01*
X166896439Y-100283113D01*
X166705577Y-100357054D01*
X166705566Y-100357059D01*
X166531536Y-100464814D01*
X166380266Y-100602715D01*
X166256913Y-100766063D01*
X166165671Y-100949301D01*
X166109654Y-101146180D01*
X166090768Y-101349995D01*
X165769232Y-101349995D01*
X165768820Y-101345558D01*
X165750345Y-101146180D01*
X165728670Y-101070000D01*
X165694328Y-100949299D01*
X165603088Y-100766065D01*
X165541722Y-100684803D01*
X165479733Y-100602715D01*
X165328463Y-100464814D01*
X165154433Y-100357059D01*
X165154428Y-100357057D01*
X165154427Y-100357056D01*
X164963559Y-100283113D01*
X164963560Y-100283113D01*
X164963557Y-100283112D01*
X164963556Y-100283112D01*
X164762347Y-100245500D01*
X164557653Y-100245500D01*
X164356444Y-100283112D01*
X164356439Y-100283113D01*
X164165577Y-100357054D01*
X164165566Y-100357059D01*
X163991536Y-100464814D01*
X163840266Y-100602715D01*
X163716913Y-100766063D01*
X163625671Y-100949301D01*
X163569654Y-101146180D01*
X163550768Y-101349995D01*
X163229232Y-101349995D01*
X163228820Y-101345558D01*
X163210345Y-101146180D01*
X163188670Y-101070000D01*
X163154328Y-100949299D01*
X163063088Y-100766065D01*
X163001722Y-100684803D01*
X162939733Y-100602715D01*
X162788463Y-100464814D01*
X162614433Y-100357059D01*
X162614428Y-100357057D01*
X162614427Y-100357056D01*
X162423559Y-100283113D01*
X162423560Y-100283113D01*
X162423557Y-100283112D01*
X162423556Y-100283112D01*
X162222347Y-100245500D01*
X162017653Y-100245500D01*
X161816444Y-100283112D01*
X161816439Y-100283113D01*
X161625577Y-100357054D01*
X161625566Y-100357059D01*
X161451536Y-100464814D01*
X161300266Y-100602715D01*
X161176913Y-100766063D01*
X161085671Y-100949301D01*
X161029654Y-101146180D01*
X161010768Y-101349995D01*
X160689232Y-101349995D01*
X160688820Y-101345558D01*
X160670345Y-101146180D01*
X160648670Y-101070000D01*
X160614328Y-100949299D01*
X160523088Y-100766065D01*
X160461722Y-100684803D01*
X160399733Y-100602715D01*
X160248463Y-100464814D01*
X160074433Y-100357059D01*
X160074428Y-100357057D01*
X160074427Y-100357056D01*
X159883559Y-100283113D01*
X159883560Y-100283113D01*
X159883557Y-100283112D01*
X159883556Y-100283112D01*
X159682347Y-100245500D01*
X159477653Y-100245500D01*
X159276444Y-100283112D01*
X159276439Y-100283113D01*
X159085577Y-100357054D01*
X159085566Y-100357059D01*
X158911536Y-100464814D01*
X158760266Y-100602715D01*
X158636913Y-100766063D01*
X158545671Y-100949301D01*
X158489654Y-101146180D01*
X158470768Y-101349995D01*
X158149232Y-101349995D01*
X158148820Y-101345558D01*
X158130345Y-101146180D01*
X158108670Y-101070000D01*
X158074328Y-100949299D01*
X157983088Y-100766065D01*
X157921722Y-100684803D01*
X157859733Y-100602715D01*
X157708463Y-100464814D01*
X157534433Y-100357059D01*
X157534428Y-100357057D01*
X157534427Y-100357056D01*
X157343559Y-100283113D01*
X157343560Y-100283113D01*
X157343557Y-100283112D01*
X157343556Y-100283112D01*
X157142347Y-100245500D01*
X156937653Y-100245500D01*
X156736444Y-100283112D01*
X156736439Y-100283113D01*
X156545577Y-100357054D01*
X156545566Y-100357059D01*
X156371536Y-100464814D01*
X156220266Y-100602715D01*
X156096913Y-100766063D01*
X156005671Y-100949301D01*
X155949654Y-101146180D01*
X155930768Y-101349995D01*
X155609232Y-101349995D01*
X155608820Y-101345558D01*
X155590345Y-101146180D01*
X155568670Y-101070000D01*
X155534328Y-100949299D01*
X155443088Y-100766065D01*
X155381722Y-100684803D01*
X155319733Y-100602715D01*
X155168463Y-100464814D01*
X154994433Y-100357059D01*
X154994428Y-100357057D01*
X154994427Y-100357056D01*
X154803559Y-100283113D01*
X154803560Y-100283113D01*
X154803557Y-100283112D01*
X154803556Y-100283112D01*
X154602347Y-100245500D01*
X154397653Y-100245500D01*
X154196444Y-100283112D01*
X154196439Y-100283113D01*
X154005577Y-100357054D01*
X154005566Y-100357059D01*
X153831536Y-100464814D01*
X153680266Y-100602715D01*
X153556913Y-100766063D01*
X153465671Y-100949301D01*
X153409654Y-101146180D01*
X153390768Y-101349995D01*
X153069232Y-101349995D01*
X153068820Y-101345558D01*
X153050345Y-101146180D01*
X153028670Y-101070000D01*
X152994328Y-100949299D01*
X152903088Y-100766065D01*
X152841722Y-100684803D01*
X152779733Y-100602715D01*
X152628463Y-100464814D01*
X152454433Y-100357059D01*
X152454428Y-100357057D01*
X152454427Y-100357056D01*
X152263559Y-100283113D01*
X152263560Y-100283113D01*
X152263557Y-100283112D01*
X152263556Y-100283112D01*
X152062347Y-100245500D01*
X151857653Y-100245500D01*
X151656444Y-100283112D01*
X151656439Y-100283113D01*
X151465577Y-100357054D01*
X151465566Y-100357059D01*
X151291536Y-100464814D01*
X151140266Y-100602715D01*
X151016913Y-100766063D01*
X150925671Y-100949301D01*
X150869654Y-101146180D01*
X150850768Y-101349995D01*
X150529232Y-101349995D01*
X150528820Y-101345558D01*
X150510345Y-101146180D01*
X150488670Y-101070000D01*
X150454328Y-100949299D01*
X150363088Y-100766065D01*
X150301722Y-100684803D01*
X150239733Y-100602715D01*
X150088463Y-100464814D01*
X149914433Y-100357059D01*
X149914428Y-100357057D01*
X149914427Y-100357056D01*
X149723559Y-100283113D01*
X149723560Y-100283113D01*
X149723557Y-100283112D01*
X149723556Y-100283112D01*
X149522347Y-100245500D01*
X149317653Y-100245500D01*
X149116444Y-100283112D01*
X149116439Y-100283113D01*
X148925577Y-100357054D01*
X148925566Y-100357059D01*
X148751536Y-100464814D01*
X148600266Y-100602715D01*
X148476913Y-100766063D01*
X148385671Y-100949301D01*
X148329654Y-101146180D01*
X148310768Y-101349995D01*
X147989232Y-101349995D01*
X147988820Y-101345558D01*
X147970345Y-101146180D01*
X147948670Y-101070000D01*
X147914328Y-100949299D01*
X147823088Y-100766065D01*
X147761722Y-100684803D01*
X147699733Y-100602715D01*
X147548463Y-100464814D01*
X147374433Y-100357059D01*
X147374428Y-100357057D01*
X147374427Y-100357056D01*
X147183559Y-100283113D01*
X147183560Y-100283113D01*
X147183557Y-100283112D01*
X147183556Y-100283112D01*
X146982347Y-100245500D01*
X146777653Y-100245500D01*
X146576444Y-100283112D01*
X146576439Y-100283113D01*
X146385577Y-100357054D01*
X146385566Y-100357059D01*
X146211536Y-100464814D01*
X146060266Y-100602715D01*
X145936913Y-100766063D01*
X145845671Y-100949301D01*
X145789654Y-101146180D01*
X145770768Y-101349995D01*
X145449232Y-101349995D01*
X145448820Y-101345558D01*
X145430345Y-101146180D01*
X145408670Y-101070000D01*
X145374328Y-100949299D01*
X145283088Y-100766065D01*
X145221722Y-100684803D01*
X145159733Y-100602715D01*
X145008463Y-100464814D01*
X144834433Y-100357059D01*
X144834428Y-100357057D01*
X144834427Y-100357056D01*
X144643559Y-100283113D01*
X144643560Y-100283113D01*
X144643557Y-100283112D01*
X144643556Y-100283112D01*
X144442347Y-100245500D01*
X144237653Y-100245500D01*
X144036444Y-100283112D01*
X144036439Y-100283113D01*
X143845577Y-100357054D01*
X143845566Y-100357059D01*
X143671536Y-100464814D01*
X143520266Y-100602715D01*
X143396913Y-100766063D01*
X143305671Y-100949301D01*
X143249654Y-101146180D01*
X143230768Y-101349995D01*
X142909232Y-101349995D01*
X142908820Y-101345558D01*
X142890345Y-101146180D01*
X142868670Y-101070000D01*
X142834328Y-100949299D01*
X142743088Y-100766065D01*
X142681722Y-100684803D01*
X142619733Y-100602715D01*
X142468463Y-100464814D01*
X142294433Y-100357059D01*
X142294428Y-100357057D01*
X142294427Y-100357056D01*
X142103559Y-100283113D01*
X142103560Y-100283113D01*
X142103557Y-100283112D01*
X142103556Y-100283112D01*
X141902347Y-100245500D01*
X141697653Y-100245500D01*
X141496444Y-100283112D01*
X141496439Y-100283113D01*
X141305577Y-100357054D01*
X141305566Y-100357059D01*
X141131536Y-100464814D01*
X140980266Y-100602715D01*
X140856913Y-100766063D01*
X140765671Y-100949301D01*
X140709654Y-101146180D01*
X140690768Y-101349995D01*
X140369232Y-101349995D01*
X140368820Y-101345558D01*
X140350345Y-101146180D01*
X140328670Y-101070000D01*
X140294328Y-100949299D01*
X140203088Y-100766065D01*
X140141722Y-100684803D01*
X140079733Y-100602715D01*
X139928463Y-100464814D01*
X139754433Y-100357059D01*
X139754428Y-100357057D01*
X139754427Y-100357056D01*
X139563559Y-100283113D01*
X139563560Y-100283113D01*
X139563557Y-100283112D01*
X139563556Y-100283112D01*
X139362347Y-100245500D01*
X139157653Y-100245500D01*
X138956444Y-100283112D01*
X138956439Y-100283113D01*
X138765577Y-100357054D01*
X138765566Y-100357059D01*
X138591536Y-100464814D01*
X138440266Y-100602715D01*
X138316913Y-100766063D01*
X138225671Y-100949301D01*
X138169654Y-101146180D01*
X138150768Y-101349995D01*
X137829232Y-101349995D01*
X137828820Y-101345558D01*
X137810345Y-101146180D01*
X137788670Y-101070000D01*
X137754328Y-100949299D01*
X137663088Y-100766065D01*
X137601722Y-100684803D01*
X137539733Y-100602715D01*
X137388463Y-100464814D01*
X137214433Y-100357059D01*
X137214428Y-100357057D01*
X137214427Y-100357056D01*
X137023559Y-100283113D01*
X137023560Y-100283113D01*
X137023557Y-100283112D01*
X137023556Y-100283112D01*
X136822347Y-100245500D01*
X136617653Y-100245500D01*
X136416444Y-100283112D01*
X136416439Y-100283113D01*
X136225577Y-100357054D01*
X136225566Y-100357059D01*
X136051536Y-100464814D01*
X135900266Y-100602715D01*
X135776913Y-100766063D01*
X135685671Y-100949301D01*
X135629654Y-101146180D01*
X135610768Y-101349995D01*
X135289232Y-101349995D01*
X135288820Y-101345558D01*
X135270345Y-101146180D01*
X135248670Y-101070000D01*
X135214328Y-100949299D01*
X135123088Y-100766065D01*
X135061722Y-100684803D01*
X134999733Y-100602715D01*
X134848463Y-100464814D01*
X134674433Y-100357059D01*
X134674428Y-100357057D01*
X134674427Y-100357056D01*
X134483559Y-100283113D01*
X134483560Y-100283113D01*
X134483557Y-100283112D01*
X134483556Y-100283112D01*
X134282347Y-100245500D01*
X134077653Y-100245500D01*
X133876444Y-100283112D01*
X133876439Y-100283113D01*
X133685577Y-100357054D01*
X133685566Y-100357059D01*
X133511536Y-100464814D01*
X133360266Y-100602715D01*
X133236913Y-100766063D01*
X133145671Y-100949301D01*
X133089654Y-101146180D01*
X133070768Y-101349995D01*
X132749232Y-101349995D01*
X132748820Y-101345558D01*
X132730345Y-101146180D01*
X132708670Y-101070000D01*
X132674328Y-100949299D01*
X132583088Y-100766065D01*
X132521722Y-100684803D01*
X132459733Y-100602715D01*
X132308463Y-100464814D01*
X132134433Y-100357059D01*
X132134428Y-100357057D01*
X132134427Y-100357056D01*
X131943559Y-100283113D01*
X131943560Y-100283113D01*
X131943557Y-100283112D01*
X131943556Y-100283112D01*
X131742347Y-100245500D01*
X131537653Y-100245500D01*
X131336444Y-100283112D01*
X131336439Y-100283113D01*
X131145577Y-100357054D01*
X131145566Y-100357059D01*
X130971536Y-100464814D01*
X130820266Y-100602715D01*
X130696913Y-100766063D01*
X130605671Y-100949301D01*
X130549654Y-101146180D01*
X130530768Y-101349995D01*
X117303325Y-101349995D01*
X117307030Y-95500000D01*
X128590312Y-95500000D01*
X128610958Y-95643596D01*
X128671223Y-95775558D01*
X128766225Y-95885196D01*
X128888268Y-95963629D01*
X129027464Y-96004500D01*
X129172536Y-96004500D01*
X129311732Y-95963629D01*
X129433775Y-95885196D01*
X129528777Y-95775558D01*
X129589042Y-95643596D01*
X129609688Y-95500000D01*
X129589042Y-95356404D01*
X129528777Y-95224442D01*
X129433775Y-95114804D01*
X129433774Y-95114803D01*
X129372753Y-95075587D01*
X129311732Y-95036371D01*
X129311731Y-95036370D01*
X129311730Y-95036370D01*
X129172536Y-94995500D01*
X129027464Y-94995500D01*
X128888269Y-95036370D01*
X128888266Y-95036372D01*
X128766225Y-95114803D01*
X128671223Y-95224441D01*
X128671223Y-95224442D01*
X128610958Y-95356404D01*
X128590312Y-95500000D01*
X117307030Y-95500000D01*
X117307980Y-94000000D01*
X128590312Y-94000000D01*
X128610958Y-94143596D01*
X128671223Y-94275558D01*
X128766225Y-94385196D01*
X128888268Y-94463629D01*
X129027464Y-94504500D01*
X129172536Y-94504500D01*
X129311732Y-94463629D01*
X129433775Y-94385196D01*
X129528777Y-94275558D01*
X129589042Y-94143596D01*
X129609688Y-94000000D01*
X129589042Y-93856404D01*
X129528777Y-93724442D01*
X129433775Y-93614804D01*
X129433774Y-93614803D01*
X129334266Y-93550853D01*
X129311732Y-93536371D01*
X129311731Y-93536370D01*
X129311730Y-93536370D01*
X129172536Y-93495500D01*
X129027464Y-93495500D01*
X128888269Y-93536370D01*
X128888266Y-93536372D01*
X128766225Y-93614803D01*
X128671223Y-93724441D01*
X128626851Y-93821604D01*
X128610958Y-93856404D01*
X128590312Y-94000000D01*
X117307980Y-94000000D01*
X117308582Y-93050000D01*
X179490312Y-93050000D01*
X179510958Y-93193596D01*
X179571223Y-93325558D01*
X179666225Y-93435196D01*
X179788268Y-93513629D01*
X179825105Y-93524445D01*
X179830080Y-93525906D01*
X179889806Y-93564289D01*
X179919299Y-93628870D01*
X179909196Y-93699144D01*
X179862704Y-93752799D01*
X179766226Y-93814802D01*
X179766225Y-93814802D01*
X179671223Y-93924441D01*
X179636717Y-94000000D01*
X179610958Y-94056404D01*
X179590312Y-94200000D01*
X179610958Y-94343596D01*
X179671223Y-94475558D01*
X179766225Y-94585196D01*
X179888268Y-94663629D01*
X180027464Y-94704500D01*
X180172536Y-94704500D01*
X180311732Y-94663629D01*
X180433775Y-94585196D01*
X180528777Y-94475558D01*
X180589042Y-94343596D01*
X180609688Y-94200000D01*
X180589042Y-94056404D01*
X180547391Y-93965200D01*
X181240312Y-93965200D01*
X181260958Y-94108796D01*
X181321223Y-94240758D01*
X181416225Y-94350396D01*
X181538268Y-94428829D01*
X181677464Y-94469700D01*
X181822536Y-94469700D01*
X181961732Y-94428829D01*
X182083775Y-94350396D01*
X182178777Y-94240758D01*
X182239042Y-94108796D01*
X182259688Y-93965200D01*
X182239042Y-93821604D01*
X182178777Y-93689642D01*
X182083775Y-93580004D01*
X182083774Y-93580003D01*
X182015880Y-93536370D01*
X181961732Y-93501571D01*
X181961731Y-93501570D01*
X181961730Y-93501570D01*
X181822536Y-93460700D01*
X181677464Y-93460700D01*
X181538269Y-93501570D01*
X181538266Y-93501572D01*
X181416225Y-93580003D01*
X181321223Y-93689641D01*
X181260958Y-93821603D01*
X181246172Y-93924441D01*
X181240312Y-93965200D01*
X180547391Y-93965200D01*
X180528777Y-93924442D01*
X180433775Y-93814804D01*
X180433774Y-93814803D01*
X180337294Y-93752799D01*
X180311732Y-93736371D01*
X180269917Y-93724093D01*
X180210192Y-93685708D01*
X180180699Y-93621127D01*
X180190804Y-93550853D01*
X180237294Y-93497200D01*
X180333775Y-93435196D01*
X180428777Y-93325558D01*
X180489042Y-93193596D01*
X180509688Y-93050000D01*
X180489042Y-92906404D01*
X180428777Y-92774442D01*
X180333775Y-92664804D01*
X180333774Y-92664803D01*
X180272753Y-92625587D01*
X180211732Y-92586371D01*
X180211731Y-92586370D01*
X180211730Y-92586370D01*
X180072536Y-92545500D01*
X179927464Y-92545500D01*
X179788269Y-92586370D01*
X179788266Y-92586372D01*
X179666225Y-92664803D01*
X179571223Y-92774441D01*
X179510958Y-92906403D01*
X179502730Y-92963629D01*
X179490312Y-93050000D01*
X117308582Y-93050000D01*
X117308930Y-92500000D01*
X128590312Y-92500000D01*
X128610958Y-92643596D01*
X128671223Y-92775558D01*
X128766225Y-92885196D01*
X128888268Y-92963629D01*
X129027464Y-93004500D01*
X129172536Y-93004500D01*
X129311732Y-92963629D01*
X129433775Y-92885196D01*
X129528777Y-92775558D01*
X129589042Y-92643596D01*
X129609688Y-92500000D01*
X129589042Y-92356404D01*
X129528777Y-92224442D01*
X129433775Y-92114804D01*
X129433774Y-92114803D01*
X129372753Y-92075587D01*
X129311732Y-92036371D01*
X129311731Y-92036370D01*
X129311730Y-92036370D01*
X129172536Y-91995500D01*
X129027464Y-91995500D01*
X128888269Y-92036370D01*
X128888266Y-92036372D01*
X128766225Y-92114803D01*
X128671223Y-92224441D01*
X128671223Y-92224442D01*
X128610958Y-92356404D01*
X128590312Y-92500000D01*
X117308930Y-92500000D01*
X117309627Y-91400000D01*
X132390312Y-91400000D01*
X132410958Y-91543596D01*
X132471223Y-91675558D01*
X132566225Y-91785196D01*
X132688268Y-91863629D01*
X132827464Y-91904500D01*
X132972536Y-91904500D01*
X133111732Y-91863629D01*
X133233775Y-91785196D01*
X133328777Y-91675558D01*
X133389042Y-91543596D01*
X133409688Y-91400000D01*
X133389042Y-91256404D01*
X133328777Y-91124442D01*
X133233775Y-91014804D01*
X133233774Y-91014803D01*
X133172753Y-90975587D01*
X133111732Y-90936371D01*
X133111731Y-90936370D01*
X133111730Y-90936370D01*
X132972536Y-90895500D01*
X132827464Y-90895500D01*
X132688269Y-90936370D01*
X132688266Y-90936372D01*
X132566225Y-91014803D01*
X132471223Y-91124441D01*
X132471223Y-91124442D01*
X132410958Y-91256404D01*
X132390312Y-91400000D01*
X117309627Y-91400000D01*
X117310645Y-89791600D01*
X178948712Y-89791600D01*
X178969358Y-89935196D01*
X179029623Y-90067158D01*
X179124625Y-90176796D01*
X179246668Y-90255229D01*
X179385864Y-90296100D01*
X179530936Y-90296100D01*
X179670132Y-90255229D01*
X179792175Y-90176796D01*
X179887177Y-90067158D01*
X179947442Y-89935196D01*
X179968088Y-89791600D01*
X179947442Y-89648004D01*
X179887177Y-89516042D01*
X179792175Y-89406404D01*
X179792174Y-89406403D01*
X179731153Y-89367187D01*
X179670132Y-89327971D01*
X179670131Y-89327970D01*
X179670130Y-89327970D01*
X179530936Y-89287100D01*
X179385864Y-89287100D01*
X179246669Y-89327970D01*
X179246666Y-89327972D01*
X179124625Y-89406403D01*
X179029623Y-89516041D01*
X179029623Y-89516042D01*
X178969358Y-89648004D01*
X178948712Y-89791600D01*
X117310645Y-89791600D01*
X117312888Y-86250000D01*
X123240312Y-86250000D01*
X123260958Y-86393596D01*
X123321223Y-86525558D01*
X123416225Y-86635196D01*
X123538268Y-86713629D01*
X123677464Y-86754500D01*
X123822536Y-86754500D01*
X123961732Y-86713629D01*
X124083775Y-86635196D01*
X124178777Y-86525558D01*
X124239042Y-86393596D01*
X124259688Y-86250000D01*
X124239042Y-86106404D01*
X124178777Y-85974442D01*
X124083775Y-85864804D01*
X124083774Y-85864803D01*
X123988917Y-85803842D01*
X123961732Y-85786371D01*
X123961731Y-85786370D01*
X123961730Y-85786370D01*
X123822536Y-85745500D01*
X123677464Y-85745500D01*
X123538269Y-85786370D01*
X123538266Y-85786372D01*
X123416225Y-85864803D01*
X123321223Y-85974441D01*
X123284662Y-86054500D01*
X123260958Y-86106404D01*
X123240312Y-86250000D01*
X117312888Y-86250000D01*
X117313331Y-85550000D01*
X120242710Y-85550000D01*
X120263356Y-85693596D01*
X120323621Y-85825558D01*
X120418623Y-85935196D01*
X120540666Y-86013629D01*
X120679862Y-86054500D01*
X120824934Y-86054500D01*
X120964130Y-86013629D01*
X121086173Y-85935196D01*
X121181175Y-85825558D01*
X121241440Y-85693596D01*
X121262086Y-85550000D01*
X136790312Y-85550000D01*
X136810958Y-85693596D01*
X136871223Y-85825558D01*
X136966225Y-85935196D01*
X137088268Y-86013629D01*
X137227464Y-86054500D01*
X137261079Y-86054500D01*
X137329200Y-86074502D01*
X137375693Y-86128158D01*
X137385796Y-86162568D01*
X137394483Y-86222989D01*
X137394485Y-86222996D01*
X137454750Y-86354958D01*
X137549752Y-86464596D01*
X137671795Y-86543029D01*
X137810991Y-86583900D01*
X137956063Y-86583900D01*
X138095259Y-86543029D01*
X138217302Y-86464596D01*
X138312304Y-86354958D01*
X138372569Y-86222996D01*
X138393215Y-86079400D01*
X138372569Y-85935804D01*
X138356218Y-85900000D01*
X147540312Y-85900000D01*
X147560958Y-86043596D01*
X147621223Y-86175558D01*
X147621226Y-86175562D01*
X147679217Y-86242488D01*
X147708711Y-86307068D01*
X147698607Y-86377342D01*
X147679217Y-86407512D01*
X147621226Y-86474437D01*
X147621223Y-86474441D01*
X147571633Y-86583030D01*
X147560958Y-86606404D01*
X147540312Y-86750000D01*
X147560958Y-86893596D01*
X147621223Y-87025558D01*
X147716225Y-87135196D01*
X147838268Y-87213629D01*
X147977464Y-87254500D01*
X148122536Y-87254500D01*
X148261732Y-87213629D01*
X148383775Y-87135196D01*
X148478777Y-87025558D01*
X148539042Y-86893596D01*
X148559688Y-86750000D01*
X148552499Y-86700000D01*
X148890312Y-86700000D01*
X148910958Y-86843596D01*
X148971223Y-86975558D01*
X149066225Y-87085196D01*
X149188268Y-87163629D01*
X149327464Y-87204500D01*
X149472536Y-87204500D01*
X149611732Y-87163629D01*
X149733775Y-87085196D01*
X149828777Y-86975558D01*
X149889042Y-86843596D01*
X149909688Y-86700000D01*
X150340312Y-86700000D01*
X150360958Y-86843596D01*
X150421223Y-86975558D01*
X150441173Y-86998582D01*
X150470666Y-87063163D01*
X150460562Y-87133436D01*
X150428109Y-87204500D01*
X150400001Y-87266047D01*
X150379355Y-87409643D01*
X150400001Y-87553239D01*
X150460266Y-87685201D01*
X150555268Y-87794839D01*
X150677311Y-87873272D01*
X150816507Y-87914143D01*
X150961579Y-87914143D01*
X151100775Y-87873272D01*
X151222818Y-87794839D01*
X151317820Y-87685201D01*
X151378085Y-87553239D01*
X151398731Y-87409643D01*
X151378085Y-87266047D01*
X151317820Y-87134085D01*
X151297869Y-87111060D01*
X151268376Y-87046479D01*
X151278481Y-86976205D01*
X151278775Y-86975559D01*
X151278777Y-86975558D01*
X151339042Y-86843596D01*
X151359688Y-86700000D01*
X151352499Y-86650000D01*
X181990312Y-86650000D01*
X182010958Y-86793596D01*
X182071223Y-86925558D01*
X182166225Y-87035196D01*
X182288268Y-87113629D01*
X182427464Y-87154500D01*
X182572536Y-87154500D01*
X182711732Y-87113629D01*
X182833775Y-87035196D01*
X182928777Y-86925558D01*
X182989042Y-86793596D01*
X183009688Y-86650000D01*
X182989042Y-86506404D01*
X182928777Y-86374442D01*
X182833775Y-86264804D01*
X182833774Y-86264803D01*
X182768710Y-86222989D01*
X182711732Y-86186371D01*
X182711731Y-86186370D01*
X182711730Y-86186370D01*
X182572536Y-86145500D01*
X182427464Y-86145500D01*
X182288269Y-86186370D01*
X182288266Y-86186372D01*
X182166225Y-86264803D01*
X182071223Y-86374441D01*
X182025555Y-86474442D01*
X182010958Y-86506404D01*
X181990312Y-86650000D01*
X151352499Y-86650000D01*
X151339042Y-86556404D01*
X151278777Y-86424442D01*
X151183775Y-86314804D01*
X151183774Y-86314803D01*
X151105974Y-86264804D01*
X151061732Y-86236371D01*
X151061731Y-86236370D01*
X151061730Y-86236370D01*
X150922536Y-86195500D01*
X150777464Y-86195500D01*
X150638269Y-86236370D01*
X150638266Y-86236372D01*
X150516225Y-86314803D01*
X150421223Y-86424441D01*
X150360958Y-86556403D01*
X150340312Y-86700000D01*
X149909688Y-86700000D01*
X149889042Y-86556404D01*
X149828777Y-86424442D01*
X149733775Y-86314804D01*
X149733774Y-86314803D01*
X149655974Y-86264804D01*
X149611732Y-86236371D01*
X149611731Y-86236370D01*
X149611730Y-86236370D01*
X149472536Y-86195500D01*
X149327464Y-86195500D01*
X149188269Y-86236370D01*
X149188266Y-86236372D01*
X149066225Y-86314803D01*
X148971223Y-86424441D01*
X148925045Y-86525558D01*
X148910958Y-86556404D01*
X148890312Y-86700000D01*
X148552499Y-86700000D01*
X148539042Y-86606404D01*
X148478777Y-86474442D01*
X148420781Y-86407511D01*
X148391289Y-86342933D01*
X148401392Y-86272659D01*
X148420780Y-86242489D01*
X148478777Y-86175558D01*
X148504423Y-86119401D01*
X156200312Y-86119401D01*
X156220958Y-86262997D01*
X156281223Y-86394959D01*
X156376225Y-86504597D01*
X156498268Y-86583030D01*
X156637464Y-86623901D01*
X156782536Y-86623901D01*
X156921732Y-86583030D01*
X157043775Y-86504597D01*
X157138777Y-86394959D01*
X157140385Y-86391435D01*
X157142922Y-86388508D01*
X157143649Y-86387378D01*
X157143811Y-86387482D01*
X157186877Y-86337780D01*
X157254998Y-86317777D01*
X157323119Y-86337778D01*
X157366189Y-86387481D01*
X157366351Y-86387378D01*
X157367073Y-86388502D01*
X157369612Y-86391432D01*
X157371223Y-86394959D01*
X157466225Y-86504597D01*
X157588268Y-86583030D01*
X157727464Y-86623901D01*
X157872536Y-86623901D01*
X158011732Y-86583030D01*
X158133775Y-86504597D01*
X158228777Y-86394959D01*
X158289042Y-86262997D01*
X158309688Y-86119401D01*
X158289042Y-85975805D01*
X158228777Y-85843843D01*
X158133775Y-85734205D01*
X158133774Y-85734204D01*
X158070587Y-85693596D01*
X158011732Y-85655772D01*
X158011731Y-85655771D01*
X158011730Y-85655771D01*
X157872536Y-85614901D01*
X157727464Y-85614901D01*
X157588269Y-85655771D01*
X157588266Y-85655773D01*
X157466225Y-85734204D01*
X157371223Y-85843842D01*
X157371222Y-85843843D01*
X157369613Y-85847368D01*
X157367076Y-85850295D01*
X157366351Y-85851424D01*
X157366188Y-85851319D01*
X157323119Y-85901023D01*
X157254998Y-85921024D01*
X157186878Y-85901021D01*
X157143811Y-85851319D01*
X157143649Y-85851424D01*
X157142923Y-85850295D01*
X157140387Y-85847368D01*
X157138777Y-85843843D01*
X157138776Y-85843842D01*
X157063011Y-85756404D01*
X157043775Y-85734205D01*
X157043774Y-85734204D01*
X156980587Y-85693596D01*
X156921732Y-85655772D01*
X156921731Y-85655771D01*
X156921730Y-85655771D01*
X156782536Y-85614901D01*
X156637464Y-85614901D01*
X156498269Y-85655771D01*
X156498266Y-85655773D01*
X156376225Y-85734204D01*
X156281223Y-85843842D01*
X156220958Y-85975804D01*
X156206063Y-86079400D01*
X156200312Y-86119401D01*
X148504423Y-86119401D01*
X148539042Y-86043596D01*
X148559688Y-85900000D01*
X148539042Y-85756404D01*
X148478777Y-85624442D01*
X148383775Y-85514804D01*
X148383774Y-85514803D01*
X148309130Y-85466832D01*
X148261732Y-85436371D01*
X148261731Y-85436370D01*
X148261730Y-85436370D01*
X148122536Y-85395500D01*
X147977464Y-85395500D01*
X147838269Y-85436370D01*
X147838266Y-85436372D01*
X147716225Y-85514803D01*
X147621223Y-85624441D01*
X147560958Y-85756403D01*
X147540312Y-85900000D01*
X138356218Y-85900000D01*
X138312304Y-85803842D01*
X138217302Y-85694204D01*
X138217301Y-85694203D01*
X138108751Y-85624442D01*
X138095259Y-85615771D01*
X138095258Y-85615770D01*
X138095257Y-85615770D01*
X137956063Y-85574900D01*
X137922448Y-85574900D01*
X137854327Y-85554898D01*
X137807834Y-85501242D01*
X137797731Y-85466832D01*
X137789043Y-85406410D01*
X137789042Y-85406409D01*
X137789042Y-85406404D01*
X137728777Y-85274442D01*
X137633775Y-85164804D01*
X137633774Y-85164803D01*
X137572753Y-85125587D01*
X137511732Y-85086371D01*
X137511731Y-85086370D01*
X137511730Y-85086370D01*
X137372536Y-85045500D01*
X137227464Y-85045500D01*
X137088269Y-85086370D01*
X137088266Y-85086372D01*
X136966225Y-85164803D01*
X136871223Y-85274441D01*
X136810958Y-85406403D01*
X136806649Y-85436371D01*
X136790312Y-85550000D01*
X121262086Y-85550000D01*
X121241440Y-85406404D01*
X121181175Y-85274442D01*
X121086173Y-85164804D01*
X121086172Y-85164803D01*
X121025151Y-85125587D01*
X120964130Y-85086371D01*
X120964129Y-85086370D01*
X120964128Y-85086370D01*
X120824934Y-85045500D01*
X120679862Y-85045500D01*
X120540667Y-85086370D01*
X120540664Y-85086372D01*
X120418623Y-85164803D01*
X120323621Y-85274441D01*
X120263356Y-85406403D01*
X120259047Y-85436371D01*
X120242710Y-85550000D01*
X117313331Y-85550000D01*
X117313838Y-84750000D01*
X123240312Y-84750000D01*
X123260958Y-84893596D01*
X123321223Y-85025558D01*
X123416225Y-85135196D01*
X123538268Y-85213629D01*
X123677464Y-85254500D01*
X123822536Y-85254500D01*
X123961732Y-85213629D01*
X124083775Y-85135196D01*
X124178777Y-85025558D01*
X124239042Y-84893596D01*
X124259688Y-84750000D01*
X124239042Y-84606404D01*
X124178777Y-84474442D01*
X124083775Y-84364804D01*
X124083774Y-84364803D01*
X124022753Y-84325587D01*
X123961732Y-84286371D01*
X123961731Y-84286370D01*
X123961730Y-84286370D01*
X123822536Y-84245500D01*
X123677464Y-84245500D01*
X123538269Y-84286370D01*
X123538266Y-84286372D01*
X123416225Y-84364803D01*
X123321223Y-84474441D01*
X123321223Y-84474442D01*
X123260958Y-84606404D01*
X123240312Y-84750000D01*
X117313838Y-84750000D01*
X117314573Y-83590000D01*
X147380312Y-83590000D01*
X147400958Y-83733596D01*
X147461223Y-83865558D01*
X147556225Y-83975196D01*
X147678268Y-84053629D01*
X147817464Y-84094500D01*
X147962536Y-84094500D01*
X148101732Y-84053629D01*
X148223775Y-83975196D01*
X148318777Y-83865558D01*
X148371551Y-83750000D01*
X161140312Y-83750000D01*
X161160958Y-83893596D01*
X161221223Y-84025558D01*
X161316225Y-84135196D01*
X161438268Y-84213629D01*
X161577464Y-84254500D01*
X161722536Y-84254500D01*
X161861732Y-84213629D01*
X161983775Y-84135196D01*
X162078777Y-84025558D01*
X162139042Y-83893596D01*
X162159688Y-83750000D01*
X162139042Y-83606404D01*
X162078777Y-83474442D01*
X161983775Y-83364804D01*
X161983774Y-83364803D01*
X161904143Y-83313627D01*
X161861732Y-83286371D01*
X161861731Y-83286370D01*
X161861730Y-83286370D01*
X161722536Y-83245500D01*
X161577464Y-83245500D01*
X161438269Y-83286370D01*
X161438266Y-83286372D01*
X161316225Y-83364803D01*
X161221223Y-83474441D01*
X161160958Y-83606403D01*
X161152730Y-83663629D01*
X161140312Y-83750000D01*
X148371551Y-83750000D01*
X148379042Y-83733596D01*
X148399688Y-83590000D01*
X148379042Y-83446404D01*
X148318777Y-83314442D01*
X148236117Y-83219048D01*
X148206625Y-83154468D01*
X148216728Y-83084194D01*
X148263219Y-83030539D01*
X148333773Y-82985197D01*
X148333774Y-82985197D01*
X148346119Y-82970950D01*
X148428777Y-82875558D01*
X148487622Y-82746703D01*
X148534112Y-82693051D01*
X148602233Y-82673048D01*
X148637726Y-82678151D01*
X148727464Y-82704500D01*
X148727465Y-82704500D01*
X148872536Y-82704500D01*
X149011732Y-82663629D01*
X149133775Y-82585196D01*
X149228777Y-82475558D01*
X149286117Y-82350000D01*
X150340312Y-82350000D01*
X150360958Y-82493596D01*
X150421223Y-82625558D01*
X150516225Y-82735196D01*
X150638268Y-82813629D01*
X150777464Y-82854500D01*
X150922536Y-82854500D01*
X151061732Y-82813629D01*
X151183775Y-82735196D01*
X151254776Y-82653256D01*
X151314501Y-82614873D01*
X151385498Y-82614873D01*
X151445222Y-82653255D01*
X151516225Y-82735196D01*
X151638268Y-82813629D01*
X151777464Y-82854500D01*
X151922536Y-82854500D01*
X151937862Y-82850000D01*
X152519712Y-82850000D01*
X152540358Y-82993596D01*
X152600623Y-83125558D01*
X152695625Y-83235196D01*
X152817668Y-83313629D01*
X152956864Y-83354500D01*
X153101936Y-83354500D01*
X153241132Y-83313629D01*
X153363175Y-83235196D01*
X153393673Y-83200000D01*
X157340312Y-83200000D01*
X157360958Y-83343596D01*
X157421223Y-83475558D01*
X157516225Y-83585196D01*
X157638268Y-83663629D01*
X157777464Y-83704500D01*
X157922536Y-83704500D01*
X158061732Y-83663629D01*
X158183775Y-83585196D01*
X158278777Y-83475558D01*
X158339042Y-83343596D01*
X158359688Y-83200000D01*
X159748312Y-83200000D01*
X159768958Y-83343596D01*
X159829223Y-83475558D01*
X159924225Y-83585196D01*
X160046268Y-83663629D01*
X160185464Y-83704500D01*
X160330536Y-83704500D01*
X160469732Y-83663629D01*
X160591775Y-83585196D01*
X160686777Y-83475558D01*
X160747042Y-83343596D01*
X160767688Y-83200000D01*
X160747042Y-83056404D01*
X160686777Y-82924442D01*
X160591775Y-82814804D01*
X160591774Y-82814803D01*
X160480974Y-82743596D01*
X160469732Y-82736371D01*
X160469731Y-82736370D01*
X160469730Y-82736370D01*
X160330536Y-82695500D01*
X160185464Y-82695500D01*
X160046269Y-82736370D01*
X160046266Y-82736372D01*
X159924225Y-82814803D01*
X159829223Y-82924441D01*
X159768958Y-83056403D01*
X159754141Y-83159460D01*
X159748312Y-83200000D01*
X158359688Y-83200000D01*
X158339042Y-83056404D01*
X158278777Y-82924442D01*
X158183775Y-82814804D01*
X158183774Y-82814803D01*
X158072974Y-82743596D01*
X158061732Y-82736371D01*
X158061731Y-82736370D01*
X158061730Y-82736370D01*
X157922536Y-82695500D01*
X157777464Y-82695500D01*
X157638269Y-82736370D01*
X157638266Y-82736372D01*
X157516225Y-82814803D01*
X157421223Y-82924441D01*
X157360958Y-83056403D01*
X157346141Y-83159460D01*
X157340312Y-83200000D01*
X153393673Y-83200000D01*
X153458177Y-83125558D01*
X153518442Y-82993596D01*
X153539088Y-82850000D01*
X153518442Y-82706404D01*
X153518172Y-82705814D01*
X153518080Y-82705175D01*
X153515903Y-82697759D01*
X153516969Y-82697445D01*
X153508069Y-82635543D01*
X153537562Y-82570962D01*
X153564668Y-82547475D01*
X153583775Y-82535196D01*
X153678777Y-82425558D01*
X153739042Y-82293596D01*
X153759688Y-82150000D01*
X153739042Y-82006404D01*
X153678777Y-81874442D01*
X153583775Y-81764804D01*
X153583774Y-81764803D01*
X153522753Y-81725587D01*
X153461732Y-81686371D01*
X153461731Y-81686370D01*
X153461730Y-81686370D01*
X153322536Y-81645500D01*
X153177464Y-81645500D01*
X153038269Y-81686370D01*
X153038266Y-81686372D01*
X152916225Y-81764803D01*
X152821223Y-81874441D01*
X152779957Y-81964803D01*
X152760958Y-82006404D01*
X152742272Y-82136372D01*
X152740312Y-82150003D01*
X152760956Y-82293588D01*
X152760957Y-82293592D01*
X152760958Y-82293596D01*
X152761227Y-82294186D01*
X152761319Y-82294823D01*
X152763497Y-82302240D01*
X152762430Y-82302553D01*
X152771331Y-82364456D01*
X152741838Y-82429037D01*
X152714736Y-82452522D01*
X152695624Y-82464804D01*
X152600623Y-82574441D01*
X152540358Y-82706403D01*
X152534563Y-82746707D01*
X152519712Y-82850000D01*
X151937862Y-82850000D01*
X152061732Y-82813629D01*
X152183775Y-82735196D01*
X152278777Y-82625558D01*
X152339042Y-82493596D01*
X152359688Y-82350000D01*
X152339042Y-82206404D01*
X152278777Y-82074442D01*
X152183775Y-81964804D01*
X152183774Y-81964803D01*
X152120970Y-81924441D01*
X152061732Y-81886371D01*
X152061731Y-81886370D01*
X152061730Y-81886370D01*
X151922536Y-81845500D01*
X151777464Y-81845500D01*
X151638269Y-81886370D01*
X151638266Y-81886372D01*
X151516225Y-81964803D01*
X151445224Y-82046743D01*
X151385498Y-82085126D01*
X151314501Y-82085126D01*
X151254776Y-82046743D01*
X151183774Y-81964803D01*
X151120970Y-81924441D01*
X151061732Y-81886371D01*
X151061731Y-81886370D01*
X151061730Y-81886370D01*
X150922536Y-81845500D01*
X150777464Y-81845500D01*
X150638269Y-81886370D01*
X150638266Y-81886372D01*
X150516225Y-81964803D01*
X150421223Y-82074441D01*
X150363883Y-82200000D01*
X150360958Y-82206404D01*
X150340312Y-82350000D01*
X149286117Y-82350000D01*
X149289042Y-82343596D01*
X149309688Y-82200000D01*
X149289042Y-82056404D01*
X149228777Y-81924442D01*
X149133775Y-81814804D01*
X149133774Y-81814803D01*
X149055974Y-81764804D01*
X149011732Y-81736371D01*
X149011731Y-81736370D01*
X149011730Y-81736370D01*
X148872536Y-81695500D01*
X148727464Y-81695500D01*
X148588269Y-81736370D01*
X148588266Y-81736372D01*
X148466225Y-81814803D01*
X148371223Y-81924441D01*
X148312379Y-82053293D01*
X148265886Y-82106949D01*
X148197765Y-82126951D01*
X148162267Y-82121847D01*
X148072536Y-82095500D01*
X147927464Y-82095500D01*
X147788269Y-82136370D01*
X147788266Y-82136372D01*
X147666225Y-82214803D01*
X147571223Y-82324441D01*
X147510958Y-82456403D01*
X147499629Y-82535196D01*
X147490312Y-82600000D01*
X147510958Y-82743596D01*
X147571223Y-82875558D01*
X147613580Y-82924441D01*
X147653881Y-82970950D01*
X147683374Y-83035531D01*
X147673271Y-83105805D01*
X147626779Y-83159460D01*
X147556226Y-83204802D01*
X147556225Y-83204802D01*
X147461223Y-83314441D01*
X147438224Y-83364803D01*
X147400958Y-83446404D01*
X147380312Y-83590000D01*
X117314573Y-83590000D01*
X117317733Y-78600000D01*
X135940312Y-78600000D01*
X135960958Y-78743596D01*
X136021223Y-78875558D01*
X136116225Y-78985196D01*
X136238268Y-79063629D01*
X136377464Y-79104500D01*
X136522536Y-79104500D01*
X136661732Y-79063629D01*
X136783775Y-78985196D01*
X136878777Y-78875558D01*
X136885388Y-78861083D01*
X136931877Y-78807430D01*
X136999998Y-78787427D01*
X137068119Y-78807428D01*
X137114611Y-78861081D01*
X137121223Y-78875558D01*
X137216225Y-78985196D01*
X137338268Y-79063629D01*
X137477464Y-79104500D01*
X137622536Y-79104500D01*
X137761732Y-79063629D01*
X137883775Y-78985196D01*
X137978777Y-78875558D01*
X137985388Y-78861083D01*
X138031877Y-78807430D01*
X138099998Y-78787427D01*
X138168119Y-78807428D01*
X138214611Y-78861081D01*
X138221223Y-78875558D01*
X138316225Y-78985196D01*
X138438268Y-79063629D01*
X138577464Y-79104500D01*
X138722536Y-79104500D01*
X138861732Y-79063629D01*
X138983775Y-78985196D01*
X139078777Y-78875558D01*
X139085388Y-78861083D01*
X139131877Y-78807430D01*
X139199998Y-78787427D01*
X139268119Y-78807428D01*
X139314611Y-78861081D01*
X139321223Y-78875558D01*
X139416225Y-78985196D01*
X139538268Y-79063629D01*
X139677464Y-79104500D01*
X139822536Y-79104500D01*
X139961732Y-79063629D01*
X140083775Y-78985196D01*
X140178777Y-78875558D01*
X140185388Y-78861083D01*
X140231877Y-78807430D01*
X140299998Y-78787427D01*
X140368119Y-78807428D01*
X140414611Y-78861081D01*
X140421223Y-78875558D01*
X140516225Y-78985196D01*
X140638268Y-79063629D01*
X140777464Y-79104500D01*
X140922536Y-79104500D01*
X141061732Y-79063629D01*
X141183775Y-78985196D01*
X141278777Y-78875558D01*
X141339042Y-78743596D01*
X141339123Y-78743028D01*
X141345310Y-78700000D01*
X150840312Y-78700000D01*
X150860958Y-78843596D01*
X150921223Y-78975558D01*
X151016225Y-79085196D01*
X151138268Y-79163629D01*
X151277464Y-79204500D01*
X151422536Y-79204500D01*
X151561732Y-79163629D01*
X151683775Y-79085196D01*
X151778777Y-78975558D01*
X151839042Y-78843596D01*
X151859688Y-78700000D01*
X151839042Y-78556404D01*
X151778777Y-78424442D01*
X151683775Y-78314804D01*
X151683774Y-78314803D01*
X151622753Y-78275587D01*
X151561732Y-78236371D01*
X151561731Y-78236370D01*
X151561730Y-78236370D01*
X151422536Y-78195500D01*
X151277464Y-78195500D01*
X151138269Y-78236370D01*
X151138266Y-78236372D01*
X151016225Y-78314803D01*
X150921223Y-78424441D01*
X150861242Y-78555783D01*
X150860958Y-78556404D01*
X150840312Y-78700000D01*
X141345310Y-78700000D01*
X141350693Y-78662568D01*
X141380186Y-78597987D01*
X141439912Y-78559604D01*
X141463673Y-78556187D01*
X141463615Y-78555783D01*
X141472534Y-78554500D01*
X141472536Y-78554500D01*
X141611732Y-78513629D01*
X141733775Y-78435196D01*
X141828777Y-78325558D01*
X141889042Y-78193596D01*
X141909688Y-78050000D01*
X141889042Y-77906404D01*
X141828777Y-77774442D01*
X141733775Y-77664804D01*
X141733774Y-77664803D01*
X141672753Y-77625587D01*
X141611732Y-77586371D01*
X141611731Y-77586370D01*
X141611730Y-77586370D01*
X141472536Y-77545500D01*
X141327464Y-77545500D01*
X141188269Y-77586370D01*
X141188266Y-77586372D01*
X141066225Y-77664803D01*
X140971223Y-77774441D01*
X140964614Y-77788914D01*
X140918121Y-77842570D01*
X140850000Y-77862572D01*
X140781879Y-77842570D01*
X140735386Y-77788914D01*
X140728777Y-77774442D01*
X140633775Y-77664804D01*
X140633774Y-77664803D01*
X140572753Y-77625587D01*
X140511732Y-77586371D01*
X140511731Y-77586370D01*
X140511730Y-77586370D01*
X140372536Y-77545500D01*
X140227464Y-77545500D01*
X140088269Y-77586370D01*
X140088266Y-77586372D01*
X139966225Y-77664803D01*
X139871223Y-77774441D01*
X139864614Y-77788914D01*
X139818121Y-77842570D01*
X139750000Y-77862572D01*
X139681879Y-77842570D01*
X139635386Y-77788914D01*
X139628777Y-77774442D01*
X139533775Y-77664804D01*
X139533774Y-77664803D01*
X139472753Y-77625587D01*
X139411732Y-77586371D01*
X139411731Y-77586370D01*
X139411730Y-77586370D01*
X139272536Y-77545500D01*
X139127464Y-77545500D01*
X138988269Y-77586370D01*
X138988266Y-77586372D01*
X138866225Y-77664803D01*
X138771223Y-77774441D01*
X138764614Y-77788914D01*
X138718121Y-77842570D01*
X138650000Y-77862572D01*
X138581879Y-77842570D01*
X138535386Y-77788914D01*
X138528777Y-77774442D01*
X138433775Y-77664804D01*
X138433774Y-77664803D01*
X138372753Y-77625587D01*
X138311732Y-77586371D01*
X138311731Y-77586370D01*
X138311730Y-77586370D01*
X138172536Y-77545500D01*
X138027464Y-77545500D01*
X137888269Y-77586370D01*
X137888266Y-77586372D01*
X137766225Y-77664803D01*
X137671223Y-77774441D01*
X137664614Y-77788914D01*
X137618121Y-77842570D01*
X137550000Y-77862572D01*
X137481879Y-77842570D01*
X137435386Y-77788914D01*
X137428777Y-77774442D01*
X137333775Y-77664804D01*
X137333774Y-77664803D01*
X137272753Y-77625587D01*
X137211732Y-77586371D01*
X137211731Y-77586370D01*
X137211730Y-77586370D01*
X137072536Y-77545500D01*
X136927464Y-77545500D01*
X136788269Y-77586370D01*
X136788266Y-77586372D01*
X136666225Y-77664803D01*
X136571223Y-77774441D01*
X136510958Y-77906403D01*
X136510956Y-77906410D01*
X136499307Y-77987432D01*
X136469814Y-78052013D01*
X136410088Y-78090396D01*
X136386326Y-78093812D01*
X136386385Y-78094217D01*
X136377465Y-78095499D01*
X136238269Y-78136370D01*
X136238266Y-78136372D01*
X136116225Y-78214803D01*
X136021223Y-78324441D01*
X135960958Y-78456403D01*
X135952730Y-78513629D01*
X135940312Y-78600000D01*
X117317733Y-78600000D01*
X117319633Y-75600000D01*
X151540312Y-75600000D01*
X151560958Y-75743596D01*
X151621223Y-75875558D01*
X151716225Y-75985196D01*
X151838268Y-76063629D01*
X151977464Y-76104500D01*
X152122536Y-76104500D01*
X152261732Y-76063629D01*
X152383775Y-75985196D01*
X152478777Y-75875558D01*
X152539042Y-75743596D01*
X152559688Y-75600000D01*
X152539042Y-75456404D01*
X152478777Y-75324442D01*
X152383775Y-75214804D01*
X152383774Y-75214803D01*
X152322753Y-75175587D01*
X152261732Y-75136371D01*
X152261731Y-75136370D01*
X152261730Y-75136370D01*
X152122536Y-75095500D01*
X151977464Y-75095500D01*
X151838269Y-75136370D01*
X151838266Y-75136372D01*
X151716225Y-75214803D01*
X151621223Y-75324441D01*
X151621223Y-75324442D01*
X151560958Y-75456404D01*
X151540312Y-75600000D01*
X117319633Y-75600000D01*
X117322039Y-71800000D01*
X173240312Y-71800000D01*
X173260958Y-71943596D01*
X173321223Y-72075558D01*
X173416225Y-72185196D01*
X173538268Y-72263629D01*
X173677464Y-72304500D01*
X173822536Y-72304500D01*
X173961732Y-72263629D01*
X174083775Y-72185196D01*
X174178777Y-72075558D01*
X174239042Y-71943596D01*
X174259688Y-71800000D01*
X174239042Y-71656404D01*
X174178777Y-71524442D01*
X174083775Y-71414804D01*
X174083774Y-71414803D01*
X173972974Y-71343596D01*
X173961732Y-71336371D01*
X173961731Y-71336370D01*
X173961730Y-71336370D01*
X173822536Y-71295500D01*
X173677464Y-71295500D01*
X173538269Y-71336370D01*
X173538266Y-71336372D01*
X173416225Y-71414803D01*
X173321223Y-71524441D01*
X173293478Y-71585196D01*
X173260958Y-71656404D01*
X173240312Y-71800000D01*
X117322039Y-71800000D01*
X117322727Y-70713600D01*
X148308912Y-70713600D01*
X148329558Y-70857196D01*
X148389823Y-70989158D01*
X148484825Y-71098796D01*
X148606868Y-71177229D01*
X148746064Y-71218100D01*
X148891136Y-71218100D01*
X148952780Y-71200000D01*
X154090312Y-71200000D01*
X154110958Y-71343596D01*
X154171223Y-71475558D01*
X154266225Y-71585196D01*
X154388268Y-71663629D01*
X154527464Y-71704500D01*
X154672536Y-71704500D01*
X154811732Y-71663629D01*
X154933775Y-71585196D01*
X155004776Y-71503256D01*
X155064501Y-71464873D01*
X155135498Y-71464873D01*
X155195222Y-71503255D01*
X155266225Y-71585196D01*
X155388268Y-71663629D01*
X155527464Y-71704500D01*
X155672536Y-71704500D01*
X155811732Y-71663629D01*
X155933775Y-71585196D01*
X156028777Y-71475558D01*
X156089042Y-71343596D01*
X156109688Y-71200000D01*
X156089042Y-71056404D01*
X156028777Y-70924442D01*
X155933775Y-70814804D01*
X155933774Y-70814803D01*
X155854143Y-70763627D01*
X155811732Y-70736371D01*
X155811731Y-70736370D01*
X155811730Y-70736370D01*
X155672536Y-70695500D01*
X155527464Y-70695500D01*
X155388269Y-70736370D01*
X155388266Y-70736372D01*
X155266225Y-70814803D01*
X155195224Y-70896743D01*
X155135498Y-70935126D01*
X155064501Y-70935126D01*
X155004776Y-70896743D01*
X154933774Y-70814803D01*
X154854143Y-70763627D01*
X154811732Y-70736371D01*
X154811731Y-70736370D01*
X154811730Y-70736370D01*
X154672536Y-70695500D01*
X154527464Y-70695500D01*
X154388269Y-70736370D01*
X154388266Y-70736372D01*
X154266225Y-70814803D01*
X154171223Y-70924441D01*
X154166344Y-70935126D01*
X154110958Y-71056404D01*
X154090312Y-71200000D01*
X148952780Y-71200000D01*
X149030332Y-71177229D01*
X149152375Y-71098796D01*
X149247377Y-70989158D01*
X149307642Y-70857196D01*
X149328288Y-70713600D01*
X149307642Y-70570004D01*
X149247377Y-70438042D01*
X149152375Y-70328404D01*
X149152374Y-70328403D01*
X149108178Y-70300000D01*
X173640312Y-70300000D01*
X173660958Y-70443596D01*
X173721223Y-70575558D01*
X173816225Y-70685196D01*
X173938268Y-70763629D01*
X174077464Y-70804500D01*
X174222536Y-70804500D01*
X174361732Y-70763629D01*
X174483775Y-70685196D01*
X174578777Y-70575558D01*
X174639042Y-70443596D01*
X174659688Y-70300000D01*
X174639042Y-70156404D01*
X174578777Y-70024442D01*
X174483775Y-69914804D01*
X174483774Y-69914803D01*
X174422753Y-69875587D01*
X174361732Y-69836371D01*
X174361731Y-69836370D01*
X174361730Y-69836370D01*
X174222536Y-69795500D01*
X174077464Y-69795500D01*
X173938269Y-69836370D01*
X173938266Y-69836372D01*
X173816225Y-69914803D01*
X173721223Y-70024441D01*
X173721223Y-70024442D01*
X173660958Y-70156404D01*
X173640312Y-70300000D01*
X149108178Y-70300000D01*
X149091353Y-70289187D01*
X149030332Y-70249971D01*
X149030331Y-70249970D01*
X149030330Y-70249970D01*
X148891136Y-70209100D01*
X148746064Y-70209100D01*
X148606869Y-70249970D01*
X148606866Y-70249972D01*
X148484825Y-70328403D01*
X148389823Y-70438041D01*
X148387287Y-70443596D01*
X148329558Y-70570004D01*
X148308912Y-70713600D01*
X117322727Y-70713600D01*
X117324778Y-67474930D01*
X127995500Y-67474930D01*
X127995500Y-69225063D01*
X127995501Y-69225073D01*
X128010265Y-69299300D01*
X128066516Y-69383484D01*
X128150697Y-69439733D01*
X128150699Y-69439734D01*
X128224933Y-69454500D01*
X129975066Y-69454499D01*
X129975069Y-69454498D01*
X129975073Y-69454498D01*
X130024326Y-69444701D01*
X130049301Y-69439734D01*
X130133484Y-69383484D01*
X130189734Y-69299301D01*
X130204500Y-69225067D01*
X130204499Y-68349995D01*
X130530768Y-68349995D01*
X130530768Y-68350004D01*
X130549654Y-68553819D01*
X130549655Y-68553821D01*
X130605672Y-68750701D01*
X130696912Y-68933935D01*
X130696913Y-68933936D01*
X130820266Y-69097284D01*
X130971536Y-69235185D01*
X131145566Y-69342940D01*
X131145568Y-69342940D01*
X131145573Y-69342944D01*
X131336444Y-69416888D01*
X131537653Y-69454500D01*
X131537655Y-69454500D01*
X131742345Y-69454500D01*
X131742347Y-69454500D01*
X131943556Y-69416888D01*
X132134427Y-69342944D01*
X132308462Y-69235186D01*
X132459732Y-69097285D01*
X132583088Y-68933935D01*
X132674328Y-68750701D01*
X132730345Y-68553821D01*
X132747969Y-68363629D01*
X132749232Y-68350004D01*
X132749232Y-68349995D01*
X133070768Y-68349995D01*
X133070768Y-68350004D01*
X133089654Y-68553819D01*
X133089655Y-68553821D01*
X133145672Y-68750701D01*
X133236912Y-68933935D01*
X133236913Y-68933936D01*
X133360266Y-69097284D01*
X133511536Y-69235185D01*
X133685566Y-69342940D01*
X133685568Y-69342940D01*
X133685573Y-69342944D01*
X133876444Y-69416888D01*
X134077653Y-69454500D01*
X134077655Y-69454500D01*
X134282345Y-69454500D01*
X134282347Y-69454500D01*
X134483556Y-69416888D01*
X134674427Y-69342944D01*
X134848462Y-69235186D01*
X134999732Y-69097285D01*
X135123088Y-68933935D01*
X135214328Y-68750701D01*
X135270345Y-68553821D01*
X135287969Y-68363629D01*
X135289232Y-68350004D01*
X135289232Y-68349995D01*
X135610768Y-68349995D01*
X135610768Y-68350004D01*
X135629654Y-68553819D01*
X135629655Y-68553821D01*
X135685672Y-68750701D01*
X135776912Y-68933935D01*
X135776913Y-68933936D01*
X135900266Y-69097284D01*
X136051536Y-69235185D01*
X136225566Y-69342940D01*
X136225568Y-69342940D01*
X136225573Y-69342944D01*
X136416444Y-69416888D01*
X136617653Y-69454500D01*
X136617655Y-69454500D01*
X136822345Y-69454500D01*
X136822347Y-69454500D01*
X137023556Y-69416888D01*
X137214427Y-69342944D01*
X137388462Y-69235186D01*
X137539732Y-69097285D01*
X137663088Y-68933935D01*
X137754328Y-68750701D01*
X137810345Y-68553821D01*
X137827969Y-68363629D01*
X137829232Y-68350004D01*
X137829232Y-68349995D01*
X138150768Y-68349995D01*
X138150768Y-68350004D01*
X138169654Y-68553819D01*
X138169655Y-68553821D01*
X138225672Y-68750701D01*
X138316912Y-68933935D01*
X138316913Y-68933936D01*
X138440266Y-69097284D01*
X138591536Y-69235185D01*
X138765566Y-69342940D01*
X138765568Y-69342940D01*
X138765573Y-69342944D01*
X138956444Y-69416888D01*
X139157653Y-69454500D01*
X139157655Y-69454500D01*
X139362345Y-69454500D01*
X139362347Y-69454500D01*
X139563556Y-69416888D01*
X139754427Y-69342944D01*
X139928462Y-69235186D01*
X140079732Y-69097285D01*
X140203088Y-68933935D01*
X140294328Y-68750701D01*
X140350345Y-68553821D01*
X140367969Y-68363629D01*
X140369232Y-68350004D01*
X140369232Y-68349995D01*
X140690768Y-68349995D01*
X140690768Y-68350004D01*
X140709654Y-68553819D01*
X140709655Y-68553821D01*
X140765672Y-68750701D01*
X140856912Y-68933935D01*
X140856913Y-68933936D01*
X140980266Y-69097284D01*
X141131536Y-69235185D01*
X141305566Y-69342940D01*
X141305568Y-69342940D01*
X141305573Y-69342944D01*
X141496444Y-69416888D01*
X141697653Y-69454500D01*
X141697655Y-69454500D01*
X141902345Y-69454500D01*
X141902347Y-69454500D01*
X142103556Y-69416888D01*
X142294427Y-69342944D01*
X142468462Y-69235186D01*
X142619732Y-69097285D01*
X142743088Y-68933935D01*
X142834328Y-68750701D01*
X142890345Y-68553821D01*
X142907969Y-68363629D01*
X142909232Y-68350004D01*
X142909232Y-68349995D01*
X143230768Y-68349995D01*
X143230768Y-68350004D01*
X143249654Y-68553819D01*
X143249655Y-68553821D01*
X143305672Y-68750701D01*
X143396912Y-68933935D01*
X143396913Y-68933936D01*
X143520266Y-69097284D01*
X143671536Y-69235185D01*
X143845566Y-69342940D01*
X143845568Y-69342940D01*
X143845573Y-69342944D01*
X144036444Y-69416888D01*
X144237653Y-69454500D01*
X144237655Y-69454500D01*
X144442345Y-69454500D01*
X144442347Y-69454500D01*
X144643556Y-69416888D01*
X144834427Y-69342944D01*
X145008462Y-69235186D01*
X145159732Y-69097285D01*
X145283088Y-68933935D01*
X145374328Y-68750701D01*
X145430345Y-68553821D01*
X145447969Y-68363629D01*
X145449232Y-68350004D01*
X145449232Y-68349995D01*
X145770768Y-68349995D01*
X145770768Y-68350004D01*
X145789654Y-68553819D01*
X145789655Y-68553821D01*
X145845672Y-68750701D01*
X145936912Y-68933935D01*
X145936913Y-68933936D01*
X146060266Y-69097284D01*
X146211536Y-69235185D01*
X146385566Y-69342940D01*
X146385568Y-69342940D01*
X146385573Y-69342944D01*
X146576444Y-69416888D01*
X146777653Y-69454500D01*
X146777655Y-69454500D01*
X146982345Y-69454500D01*
X146982347Y-69454500D01*
X147183556Y-69416888D01*
X147374427Y-69342944D01*
X147548462Y-69235186D01*
X147699732Y-69097285D01*
X147823088Y-68933935D01*
X147914328Y-68750701D01*
X147970345Y-68553821D01*
X147987969Y-68363629D01*
X147989232Y-68350004D01*
X147989232Y-68349995D01*
X148310768Y-68349995D01*
X148310768Y-68350004D01*
X148329654Y-68553819D01*
X148329655Y-68553821D01*
X148385672Y-68750701D01*
X148476912Y-68933935D01*
X148476913Y-68933936D01*
X148600266Y-69097284D01*
X148751536Y-69235185D01*
X148925566Y-69342940D01*
X148925568Y-69342940D01*
X148925573Y-69342944D01*
X149116444Y-69416888D01*
X149317653Y-69454500D01*
X149317655Y-69454500D01*
X149522345Y-69454500D01*
X149522347Y-69454500D01*
X149723556Y-69416888D01*
X149914427Y-69342944D01*
X150088462Y-69235186D01*
X150239732Y-69097285D01*
X150363088Y-68933935D01*
X150454328Y-68750701D01*
X150510345Y-68553821D01*
X150527969Y-68363629D01*
X150529232Y-68350004D01*
X150529232Y-68349995D01*
X150850768Y-68349995D01*
X150850768Y-68350004D01*
X150869654Y-68553819D01*
X150869655Y-68553821D01*
X150925672Y-68750701D01*
X151016912Y-68933935D01*
X151016913Y-68933936D01*
X151140266Y-69097284D01*
X151291536Y-69235185D01*
X151465566Y-69342940D01*
X151465568Y-69342940D01*
X151465573Y-69342944D01*
X151656444Y-69416888D01*
X151857653Y-69454500D01*
X151857655Y-69454500D01*
X152062345Y-69454500D01*
X152062347Y-69454500D01*
X152263556Y-69416888D01*
X152454427Y-69342944D01*
X152628462Y-69235186D01*
X152779732Y-69097285D01*
X152903088Y-68933935D01*
X152994328Y-68750701D01*
X153050345Y-68553821D01*
X153067969Y-68363629D01*
X153069232Y-68350004D01*
X153069232Y-68349995D01*
X153390768Y-68349995D01*
X153390768Y-68350004D01*
X153409654Y-68553819D01*
X153409655Y-68553821D01*
X153465672Y-68750701D01*
X153556912Y-68933935D01*
X153556913Y-68933936D01*
X153680266Y-69097284D01*
X153831536Y-69235185D01*
X154005566Y-69342940D01*
X154005568Y-69342940D01*
X154005573Y-69342944D01*
X154196444Y-69416888D01*
X154397653Y-69454500D01*
X154397655Y-69454500D01*
X154602345Y-69454500D01*
X154602347Y-69454500D01*
X154803556Y-69416888D01*
X154994427Y-69342944D01*
X155168462Y-69235186D01*
X155319732Y-69097285D01*
X155443088Y-68933935D01*
X155534328Y-68750701D01*
X155590345Y-68553821D01*
X155607969Y-68363629D01*
X155609232Y-68350004D01*
X155609232Y-68349995D01*
X155930768Y-68349995D01*
X155930768Y-68350004D01*
X155949654Y-68553819D01*
X155949655Y-68553821D01*
X156005672Y-68750701D01*
X156096912Y-68933935D01*
X156096913Y-68933936D01*
X156220266Y-69097284D01*
X156371536Y-69235185D01*
X156545566Y-69342940D01*
X156545568Y-69342940D01*
X156545573Y-69342944D01*
X156736444Y-69416888D01*
X156937653Y-69454500D01*
X156937655Y-69454500D01*
X157142345Y-69454500D01*
X157142347Y-69454500D01*
X157343556Y-69416888D01*
X157534427Y-69342944D01*
X157708462Y-69235186D01*
X157859732Y-69097285D01*
X157983088Y-68933935D01*
X158074328Y-68750701D01*
X158130345Y-68553821D01*
X158147969Y-68363629D01*
X158149232Y-68350004D01*
X158149232Y-68349995D01*
X158130345Y-68146180D01*
X158074328Y-67949299D01*
X158074327Y-67949297D01*
X158033991Y-67868292D01*
X158021531Y-67798397D01*
X158048838Y-67732862D01*
X158107241Y-67692493D01*
X158178197Y-67690107D01*
X158182225Y-67691216D01*
X158227464Y-67704500D01*
X158227465Y-67704500D01*
X158372534Y-67704500D01*
X158372536Y-67704500D01*
X158441148Y-67684354D01*
X158512139Y-67684354D01*
X158571866Y-67722737D01*
X158601359Y-67787317D01*
X158591256Y-67857591D01*
X158589433Y-67861412D01*
X158545672Y-67949296D01*
X158545671Y-67949299D01*
X158489654Y-68146180D01*
X158470768Y-68349995D01*
X158470768Y-68350004D01*
X158489654Y-68553819D01*
X158489655Y-68553821D01*
X158545672Y-68750701D01*
X158636912Y-68933935D01*
X158636913Y-68933936D01*
X158760266Y-69097284D01*
X158911536Y-69235185D01*
X159085566Y-69342940D01*
X159085568Y-69342940D01*
X159085573Y-69342944D01*
X159276444Y-69416888D01*
X159477653Y-69454500D01*
X159477655Y-69454500D01*
X159682345Y-69454500D01*
X159682347Y-69454500D01*
X159883556Y-69416888D01*
X160074427Y-69342944D01*
X160248462Y-69235186D01*
X160399732Y-69097285D01*
X160523088Y-68933935D01*
X160614328Y-68750701D01*
X160670345Y-68553821D01*
X160687969Y-68363629D01*
X160689232Y-68350004D01*
X160689232Y-68349995D01*
X161010768Y-68349995D01*
X161010768Y-68350004D01*
X161029654Y-68553819D01*
X161029655Y-68553821D01*
X161085672Y-68750701D01*
X161176912Y-68933935D01*
X161176913Y-68933936D01*
X161300266Y-69097284D01*
X161451536Y-69235185D01*
X161625566Y-69342940D01*
X161625568Y-69342940D01*
X161625573Y-69342944D01*
X161816444Y-69416888D01*
X162017653Y-69454500D01*
X162017655Y-69454500D01*
X162222345Y-69454500D01*
X162222347Y-69454500D01*
X162423556Y-69416888D01*
X162614427Y-69342944D01*
X162788462Y-69235186D01*
X162939732Y-69097285D01*
X163063088Y-68933935D01*
X163154328Y-68750701D01*
X163210345Y-68553821D01*
X163227969Y-68363629D01*
X163229232Y-68350004D01*
X163229232Y-68349995D01*
X163550768Y-68349995D01*
X163550768Y-68350004D01*
X163569654Y-68553819D01*
X163569655Y-68553821D01*
X163625672Y-68750701D01*
X163716912Y-68933935D01*
X163716913Y-68933936D01*
X163840266Y-69097284D01*
X163991536Y-69235185D01*
X164165566Y-69342940D01*
X164165568Y-69342940D01*
X164165573Y-69342944D01*
X164356444Y-69416888D01*
X164557653Y-69454500D01*
X164557655Y-69454500D01*
X164762345Y-69454500D01*
X164762347Y-69454500D01*
X164963556Y-69416888D01*
X165154427Y-69342944D01*
X165328462Y-69235186D01*
X165479732Y-69097285D01*
X165603088Y-68933935D01*
X165694328Y-68750701D01*
X165750345Y-68553821D01*
X165767969Y-68363629D01*
X165769232Y-68350004D01*
X165769232Y-68349995D01*
X166090768Y-68349995D01*
X166090768Y-68350004D01*
X166109654Y-68553819D01*
X166109655Y-68553821D01*
X166165672Y-68750701D01*
X166256912Y-68933935D01*
X166256913Y-68933936D01*
X166380266Y-69097284D01*
X166531536Y-69235185D01*
X166705566Y-69342940D01*
X166705568Y-69342940D01*
X166705573Y-69342944D01*
X166896444Y-69416888D01*
X167097653Y-69454500D01*
X167097655Y-69454500D01*
X167302345Y-69454500D01*
X167302347Y-69454500D01*
X167503556Y-69416888D01*
X167694427Y-69342944D01*
X167868462Y-69235186D01*
X168019732Y-69097285D01*
X168143088Y-68933935D01*
X168234328Y-68750701D01*
X168290345Y-68553821D01*
X168307969Y-68363629D01*
X168309232Y-68350004D01*
X168309232Y-68349995D01*
X168630768Y-68349995D01*
X168630768Y-68350004D01*
X168649654Y-68553819D01*
X168649655Y-68553821D01*
X168705672Y-68750701D01*
X168796912Y-68933935D01*
X168796913Y-68933936D01*
X168920266Y-69097284D01*
X169071536Y-69235185D01*
X169245566Y-69342940D01*
X169245568Y-69342940D01*
X169245573Y-69342944D01*
X169436444Y-69416888D01*
X169637653Y-69454500D01*
X169637655Y-69454500D01*
X169842345Y-69454500D01*
X169842347Y-69454500D01*
X170043556Y-69416888D01*
X170234427Y-69342944D01*
X170408462Y-69235186D01*
X170559732Y-69097285D01*
X170683088Y-68933935D01*
X170774328Y-68750701D01*
X170830345Y-68553821D01*
X170847969Y-68363629D01*
X170849232Y-68350004D01*
X170849232Y-68349995D01*
X170830345Y-68146180D01*
X170830345Y-68146179D01*
X170774328Y-67949299D01*
X170749780Y-67900000D01*
X176790312Y-67900000D01*
X176810958Y-68043596D01*
X176871223Y-68175558D01*
X176966225Y-68285196D01*
X177088268Y-68363629D01*
X177227464Y-68404500D01*
X177372536Y-68404500D01*
X177511732Y-68363629D01*
X177633775Y-68285196D01*
X177728777Y-68175558D01*
X177789042Y-68043596D01*
X177809688Y-67900000D01*
X179690312Y-67900000D01*
X179710958Y-68043596D01*
X179771223Y-68175558D01*
X179866225Y-68285196D01*
X179988268Y-68363629D01*
X180127464Y-68404500D01*
X180272536Y-68404500D01*
X180411732Y-68363629D01*
X180533775Y-68285196D01*
X180628777Y-68175558D01*
X180689042Y-68043596D01*
X180709688Y-67900000D01*
X180689042Y-67756404D01*
X180628777Y-67624442D01*
X180533775Y-67514804D01*
X180533774Y-67514803D01*
X180412242Y-67436699D01*
X180411732Y-67436371D01*
X180411731Y-67436370D01*
X180411730Y-67436370D01*
X180272536Y-67395500D01*
X180127464Y-67395500D01*
X179988269Y-67436370D01*
X179988266Y-67436372D01*
X179866225Y-67514803D01*
X179771223Y-67624441D01*
X179734662Y-67704500D01*
X179710958Y-67756404D01*
X179690312Y-67900000D01*
X177809688Y-67900000D01*
X177789042Y-67756404D01*
X177728777Y-67624442D01*
X177633775Y-67514804D01*
X177633774Y-67514803D01*
X177512242Y-67436699D01*
X177511732Y-67436371D01*
X177511731Y-67436370D01*
X177511730Y-67436370D01*
X177372536Y-67395500D01*
X177227464Y-67395500D01*
X177088269Y-67436370D01*
X177088266Y-67436372D01*
X176966225Y-67514803D01*
X176871223Y-67624441D01*
X176834662Y-67704500D01*
X176810958Y-67756404D01*
X176790312Y-67900000D01*
X170749780Y-67900000D01*
X170683088Y-67766065D01*
X170605732Y-67663629D01*
X170559733Y-67602715D01*
X170408463Y-67464814D01*
X170234433Y-67357059D01*
X170234428Y-67357057D01*
X170234427Y-67357056D01*
X170199683Y-67343596D01*
X170043559Y-67283113D01*
X170043560Y-67283113D01*
X170043557Y-67283112D01*
X170043556Y-67283112D01*
X169842347Y-67245500D01*
X169637653Y-67245500D01*
X169436444Y-67283112D01*
X169436439Y-67283113D01*
X169245577Y-67357054D01*
X169245566Y-67357059D01*
X169071536Y-67464814D01*
X168920266Y-67602715D01*
X168796913Y-67766063D01*
X168705671Y-67949301D01*
X168649654Y-68146180D01*
X168630768Y-68349995D01*
X168309232Y-68349995D01*
X168290345Y-68146180D01*
X168290345Y-68146179D01*
X168234328Y-67949299D01*
X168143088Y-67766065D01*
X168065732Y-67663629D01*
X168019733Y-67602715D01*
X167868463Y-67464814D01*
X167694433Y-67357059D01*
X167694428Y-67357057D01*
X167694427Y-67357056D01*
X167659683Y-67343596D01*
X167503559Y-67283113D01*
X167503560Y-67283113D01*
X167503557Y-67283112D01*
X167503556Y-67283112D01*
X167302347Y-67245500D01*
X167097653Y-67245500D01*
X166896444Y-67283112D01*
X166896439Y-67283113D01*
X166705577Y-67357054D01*
X166705566Y-67357059D01*
X166531536Y-67464814D01*
X166380266Y-67602715D01*
X166256913Y-67766063D01*
X166165671Y-67949301D01*
X166109654Y-68146180D01*
X166090768Y-68349995D01*
X165769232Y-68349995D01*
X165750345Y-68146180D01*
X165750345Y-68146179D01*
X165694328Y-67949299D01*
X165603088Y-67766065D01*
X165525732Y-67663629D01*
X165479733Y-67602715D01*
X165328463Y-67464814D01*
X165154433Y-67357059D01*
X165154428Y-67357057D01*
X165154427Y-67357056D01*
X165119683Y-67343596D01*
X164963559Y-67283113D01*
X164963560Y-67283113D01*
X164963557Y-67283112D01*
X164963556Y-67283112D01*
X164762347Y-67245500D01*
X164557653Y-67245500D01*
X164356444Y-67283112D01*
X164356439Y-67283113D01*
X164165577Y-67357054D01*
X164165566Y-67357059D01*
X163991536Y-67464814D01*
X163840266Y-67602715D01*
X163716913Y-67766063D01*
X163625671Y-67949301D01*
X163569654Y-68146180D01*
X163550768Y-68349995D01*
X163229232Y-68349995D01*
X163210345Y-68146180D01*
X163210345Y-68146179D01*
X163154328Y-67949299D01*
X163063088Y-67766065D01*
X162985732Y-67663629D01*
X162939733Y-67602715D01*
X162788463Y-67464814D01*
X162614433Y-67357059D01*
X162614428Y-67357057D01*
X162614427Y-67357056D01*
X162579683Y-67343596D01*
X162423559Y-67283113D01*
X162423560Y-67283113D01*
X162423557Y-67283112D01*
X162423556Y-67283112D01*
X162222347Y-67245500D01*
X162017653Y-67245500D01*
X161816444Y-67283112D01*
X161816439Y-67283113D01*
X161625577Y-67357054D01*
X161625566Y-67357059D01*
X161451536Y-67464814D01*
X161300266Y-67602715D01*
X161176913Y-67766063D01*
X161085671Y-67949301D01*
X161029654Y-68146180D01*
X161010768Y-68349995D01*
X160689232Y-68349995D01*
X160670345Y-68146180D01*
X160670345Y-68146179D01*
X160614328Y-67949299D01*
X160523088Y-67766065D01*
X160445732Y-67663629D01*
X160399733Y-67602715D01*
X160248463Y-67464814D01*
X160074433Y-67357059D01*
X160074428Y-67357057D01*
X160074427Y-67357056D01*
X160039683Y-67343596D01*
X159883559Y-67283113D01*
X159883560Y-67283113D01*
X159883557Y-67283112D01*
X159883556Y-67283112D01*
X159682347Y-67245500D01*
X159477653Y-67245500D01*
X159276444Y-67283112D01*
X159276439Y-67283113D01*
X159085577Y-67357054D01*
X159085569Y-67357058D01*
X158987394Y-67417845D01*
X158918946Y-67436699D01*
X158851171Y-67415555D01*
X158805587Y-67361126D01*
X158796347Y-67292786D01*
X158809688Y-67200000D01*
X158789042Y-67056404D01*
X158728777Y-66924442D01*
X158633775Y-66814804D01*
X158633774Y-66814803D01*
X158572708Y-66775558D01*
X158511732Y-66736371D01*
X158511731Y-66736370D01*
X158511730Y-66736370D01*
X158372536Y-66695500D01*
X158227464Y-66695500D01*
X158088269Y-66736370D01*
X158088266Y-66736372D01*
X157966225Y-66814803D01*
X157871223Y-66924441D01*
X157810958Y-67056403D01*
X157790312Y-67200000D01*
X157801698Y-67279192D01*
X157791593Y-67349466D01*
X157745100Y-67403121D01*
X157676979Y-67423123D01*
X157610650Y-67404251D01*
X157534430Y-67357058D01*
X157534431Y-67357058D01*
X157534427Y-67357056D01*
X157499683Y-67343596D01*
X157343559Y-67283113D01*
X157343560Y-67283113D01*
X157343557Y-67283112D01*
X157343556Y-67283112D01*
X157142347Y-67245500D01*
X156937653Y-67245500D01*
X156736444Y-67283112D01*
X156736439Y-67283113D01*
X156545577Y-67357054D01*
X156545566Y-67357059D01*
X156371536Y-67464814D01*
X156220266Y-67602715D01*
X156096913Y-67766063D01*
X156005671Y-67949301D01*
X155949654Y-68146180D01*
X155930768Y-68349995D01*
X155609232Y-68349995D01*
X155590345Y-68146180D01*
X155590345Y-68146179D01*
X155534328Y-67949299D01*
X155443088Y-67766065D01*
X155365732Y-67663629D01*
X155319733Y-67602715D01*
X155168463Y-67464814D01*
X154994433Y-67357059D01*
X154994428Y-67357057D01*
X154994427Y-67357056D01*
X154959683Y-67343596D01*
X154803559Y-67283113D01*
X154803560Y-67283113D01*
X154803557Y-67283112D01*
X154803556Y-67283112D01*
X154602347Y-67245500D01*
X154397653Y-67245500D01*
X154196444Y-67283112D01*
X154196439Y-67283113D01*
X154005577Y-67357054D01*
X154005566Y-67357059D01*
X153831536Y-67464814D01*
X153680266Y-67602715D01*
X153556913Y-67766063D01*
X153465671Y-67949301D01*
X153409654Y-68146180D01*
X153390768Y-68349995D01*
X153069232Y-68349995D01*
X153050345Y-68146180D01*
X153050345Y-68146179D01*
X152994328Y-67949299D01*
X152903088Y-67766065D01*
X152825732Y-67663629D01*
X152779733Y-67602715D01*
X152628463Y-67464814D01*
X152454433Y-67357059D01*
X152454428Y-67357057D01*
X152454427Y-67357056D01*
X152419683Y-67343596D01*
X152263559Y-67283113D01*
X152263560Y-67283113D01*
X152263557Y-67283112D01*
X152263556Y-67283112D01*
X152062347Y-67245500D01*
X151857653Y-67245500D01*
X151656444Y-67283112D01*
X151656439Y-67283113D01*
X151465577Y-67357054D01*
X151465566Y-67357059D01*
X151291536Y-67464814D01*
X151140266Y-67602715D01*
X151016913Y-67766063D01*
X150925671Y-67949301D01*
X150869654Y-68146180D01*
X150850768Y-68349995D01*
X150529232Y-68349995D01*
X150510345Y-68146180D01*
X150510345Y-68146179D01*
X150454328Y-67949299D01*
X150363088Y-67766065D01*
X150285732Y-67663629D01*
X150239733Y-67602715D01*
X150088463Y-67464814D01*
X149914433Y-67357059D01*
X149914428Y-67357057D01*
X149914427Y-67357056D01*
X149879683Y-67343596D01*
X149723559Y-67283113D01*
X149723560Y-67283113D01*
X149723557Y-67283112D01*
X149723556Y-67283112D01*
X149522347Y-67245500D01*
X149317653Y-67245500D01*
X149116444Y-67283112D01*
X149116439Y-67283113D01*
X148925577Y-67357054D01*
X148925566Y-67357059D01*
X148751536Y-67464814D01*
X148600266Y-67602715D01*
X148476913Y-67766063D01*
X148385671Y-67949301D01*
X148329654Y-68146180D01*
X148310768Y-68349995D01*
X147989232Y-68349995D01*
X147970345Y-68146180D01*
X147970345Y-68146179D01*
X147914328Y-67949299D01*
X147823088Y-67766065D01*
X147745732Y-67663629D01*
X147699733Y-67602715D01*
X147548463Y-67464814D01*
X147374433Y-67357059D01*
X147374428Y-67357057D01*
X147374427Y-67357056D01*
X147339683Y-67343596D01*
X147183559Y-67283113D01*
X147183560Y-67283113D01*
X147183557Y-67283112D01*
X147183556Y-67283112D01*
X146982347Y-67245500D01*
X146777653Y-67245500D01*
X146576444Y-67283112D01*
X146576439Y-67283113D01*
X146385577Y-67357054D01*
X146385566Y-67357059D01*
X146211536Y-67464814D01*
X146060266Y-67602715D01*
X145936913Y-67766063D01*
X145845671Y-67949301D01*
X145789654Y-68146180D01*
X145770768Y-68349995D01*
X145449232Y-68349995D01*
X145430345Y-68146180D01*
X145430345Y-68146179D01*
X145374328Y-67949299D01*
X145283088Y-67766065D01*
X145205732Y-67663629D01*
X145159733Y-67602715D01*
X145008463Y-67464814D01*
X144834433Y-67357059D01*
X144834428Y-67357057D01*
X144834427Y-67357056D01*
X144799683Y-67343596D01*
X144643559Y-67283113D01*
X144643560Y-67283113D01*
X144643557Y-67283112D01*
X144643556Y-67283112D01*
X144442347Y-67245500D01*
X144237653Y-67245500D01*
X144036444Y-67283112D01*
X144036439Y-67283113D01*
X143845577Y-67357054D01*
X143845566Y-67357059D01*
X143671536Y-67464814D01*
X143520266Y-67602715D01*
X143396913Y-67766063D01*
X143305671Y-67949301D01*
X143249654Y-68146180D01*
X143230768Y-68349995D01*
X142909232Y-68349995D01*
X142890345Y-68146180D01*
X142890345Y-68146179D01*
X142834328Y-67949299D01*
X142743088Y-67766065D01*
X142665732Y-67663629D01*
X142619733Y-67602715D01*
X142468463Y-67464814D01*
X142294433Y-67357059D01*
X142294428Y-67357057D01*
X142294427Y-67357056D01*
X142259683Y-67343596D01*
X142103559Y-67283113D01*
X142103560Y-67283113D01*
X142103557Y-67283112D01*
X142103556Y-67283112D01*
X141902347Y-67245500D01*
X141697653Y-67245500D01*
X141496444Y-67283112D01*
X141496439Y-67283113D01*
X141305577Y-67357054D01*
X141305566Y-67357059D01*
X141131536Y-67464814D01*
X140980266Y-67602715D01*
X140856913Y-67766063D01*
X140765671Y-67949301D01*
X140709654Y-68146180D01*
X140690768Y-68349995D01*
X140369232Y-68349995D01*
X140350345Y-68146180D01*
X140350345Y-68146179D01*
X140294328Y-67949299D01*
X140203088Y-67766065D01*
X140125732Y-67663629D01*
X140079733Y-67602715D01*
X139928463Y-67464814D01*
X139754433Y-67357059D01*
X139754428Y-67357057D01*
X139754427Y-67357056D01*
X139719683Y-67343596D01*
X139563559Y-67283113D01*
X139563560Y-67283113D01*
X139563557Y-67283112D01*
X139563556Y-67283112D01*
X139362347Y-67245500D01*
X139157653Y-67245500D01*
X138956444Y-67283112D01*
X138956439Y-67283113D01*
X138765577Y-67357054D01*
X138765566Y-67357059D01*
X138591536Y-67464814D01*
X138440266Y-67602715D01*
X138316913Y-67766063D01*
X138225671Y-67949301D01*
X138169654Y-68146180D01*
X138150768Y-68349995D01*
X137829232Y-68349995D01*
X137810345Y-68146180D01*
X137810345Y-68146179D01*
X137754328Y-67949299D01*
X137663088Y-67766065D01*
X137585732Y-67663629D01*
X137539733Y-67602715D01*
X137388463Y-67464814D01*
X137214433Y-67357059D01*
X137214428Y-67357057D01*
X137214427Y-67357056D01*
X137179683Y-67343596D01*
X137023559Y-67283113D01*
X137023560Y-67283113D01*
X137023557Y-67283112D01*
X137023556Y-67283112D01*
X136822347Y-67245500D01*
X136617653Y-67245500D01*
X136416444Y-67283112D01*
X136416439Y-67283113D01*
X136225577Y-67357054D01*
X136225566Y-67357059D01*
X136051536Y-67464814D01*
X135900266Y-67602715D01*
X135776913Y-67766063D01*
X135685671Y-67949301D01*
X135629654Y-68146180D01*
X135610768Y-68349995D01*
X135289232Y-68349995D01*
X135270345Y-68146180D01*
X135270345Y-68146179D01*
X135214328Y-67949299D01*
X135123088Y-67766065D01*
X135045732Y-67663629D01*
X134999733Y-67602715D01*
X134848463Y-67464814D01*
X134674433Y-67357059D01*
X134674428Y-67357057D01*
X134674427Y-67357056D01*
X134639683Y-67343596D01*
X134483559Y-67283113D01*
X134483560Y-67283113D01*
X134483557Y-67283112D01*
X134483556Y-67283112D01*
X134282347Y-67245500D01*
X134077653Y-67245500D01*
X133876444Y-67283112D01*
X133876439Y-67283113D01*
X133685577Y-67357054D01*
X133685566Y-67357059D01*
X133511536Y-67464814D01*
X133360266Y-67602715D01*
X133236913Y-67766063D01*
X133145671Y-67949301D01*
X133089654Y-68146180D01*
X133070768Y-68349995D01*
X132749232Y-68349995D01*
X132730345Y-68146180D01*
X132730345Y-68146179D01*
X132674328Y-67949299D01*
X132583088Y-67766065D01*
X132505732Y-67663629D01*
X132459733Y-67602715D01*
X132308463Y-67464814D01*
X132134433Y-67357059D01*
X132134428Y-67357057D01*
X132134427Y-67357056D01*
X132099683Y-67343596D01*
X131943559Y-67283113D01*
X131943560Y-67283113D01*
X131943557Y-67283112D01*
X131943556Y-67283112D01*
X131742347Y-67245500D01*
X131537653Y-67245500D01*
X131336444Y-67283112D01*
X131336439Y-67283113D01*
X131145577Y-67357054D01*
X131145566Y-67357059D01*
X130971536Y-67464814D01*
X130820266Y-67602715D01*
X130696913Y-67766063D01*
X130605671Y-67949301D01*
X130549654Y-68146180D01*
X130530768Y-68349995D01*
X130204499Y-68349995D01*
X130204499Y-67474934D01*
X130204498Y-67474930D01*
X130204498Y-67474926D01*
X130189734Y-67400699D01*
X130160574Y-67357059D01*
X130133484Y-67316516D01*
X130133483Y-67316515D01*
X130049302Y-67260266D01*
X129975067Y-67245500D01*
X128224936Y-67245500D01*
X128224926Y-67245501D01*
X128150699Y-67260265D01*
X128066515Y-67316516D01*
X128010266Y-67400697D01*
X127995500Y-67474930D01*
X117324778Y-67474930D01*
X117325395Y-66500000D01*
X155940312Y-66500000D01*
X155960958Y-66643596D01*
X156021223Y-66775558D01*
X156116225Y-66885196D01*
X156238268Y-66963629D01*
X156377464Y-67004500D01*
X156522536Y-67004500D01*
X156661732Y-66963629D01*
X156783775Y-66885196D01*
X156878777Y-66775558D01*
X156939042Y-66643596D01*
X156959688Y-66500000D01*
X156939042Y-66356404D01*
X156878777Y-66224442D01*
X156783775Y-66114804D01*
X156783774Y-66114803D01*
X156722753Y-66075587D01*
X156661732Y-66036371D01*
X156661731Y-66036370D01*
X156661730Y-66036370D01*
X156522536Y-65995500D01*
X156377464Y-65995500D01*
X156238269Y-66036370D01*
X156238266Y-66036372D01*
X156116225Y-66114803D01*
X156021223Y-66224441D01*
X156021223Y-66224442D01*
X155960958Y-66356404D01*
X155940312Y-66500000D01*
X117325395Y-66500000D01*
X117328261Y-61975000D01*
X176615312Y-61975000D01*
X176635958Y-62118596D01*
X176696223Y-62250558D01*
X176791225Y-62360196D01*
X176913268Y-62438629D01*
X177052464Y-62479500D01*
X177197536Y-62479500D01*
X177336732Y-62438629D01*
X177458775Y-62360196D01*
X177553777Y-62250558D01*
X177614042Y-62118596D01*
X177634688Y-61975000D01*
X177614042Y-61831404D01*
X177553777Y-61699442D01*
X177458775Y-61589804D01*
X177458774Y-61589803D01*
X177397753Y-61550587D01*
X177336732Y-61511371D01*
X177292602Y-61498413D01*
X177245197Y-61484494D01*
X177185471Y-61446110D01*
X177155978Y-61381529D01*
X177166082Y-61311255D01*
X177212575Y-61257600D01*
X177245188Y-61242705D01*
X177337807Y-61215511D01*
X177459850Y-61137078D01*
X177554852Y-61027440D01*
X177615117Y-60895478D01*
X177635763Y-60751882D01*
X177615117Y-60608286D01*
X177554852Y-60476324D01*
X177459850Y-60366686D01*
X177459849Y-60366685D01*
X177398828Y-60327469D01*
X177337807Y-60288253D01*
X177337806Y-60288252D01*
X177337805Y-60288252D01*
X177198611Y-60247382D01*
X177053539Y-60247382D01*
X176914344Y-60288252D01*
X176914341Y-60288254D01*
X176792300Y-60366685D01*
X176697298Y-60476323D01*
X176697298Y-60476324D01*
X176637033Y-60608286D01*
X176616387Y-60751882D01*
X176637033Y-60895478D01*
X176697298Y-61027440D01*
X176792300Y-61137078D01*
X176914343Y-61215511D01*
X177005876Y-61242387D01*
X177065602Y-61280770D01*
X177095095Y-61345351D01*
X177084992Y-61415625D01*
X177038499Y-61469281D01*
X177005876Y-61484179D01*
X176913270Y-61511370D01*
X176913266Y-61511372D01*
X176791225Y-61589803D01*
X176696223Y-61699441D01*
X176696223Y-61699442D01*
X176635958Y-61831404D01*
X176615312Y-61975000D01*
X117328261Y-61975000D01*
X117329955Y-59300000D01*
X152890312Y-59300000D01*
X152910958Y-59443596D01*
X152971223Y-59575558D01*
X153066225Y-59685196D01*
X153188268Y-59763629D01*
X153327464Y-59804500D01*
X153472536Y-59804500D01*
X153611732Y-59763629D01*
X153733775Y-59685196D01*
X153760106Y-59654807D01*
X153819828Y-59616426D01*
X153890825Y-59616424D01*
X153950552Y-59654807D01*
X154020210Y-59735196D01*
X154142253Y-59813629D01*
X154281449Y-59854500D01*
X154426521Y-59854500D01*
X154565717Y-59813629D01*
X154687760Y-59735196D01*
X154782762Y-59625558D01*
X154843027Y-59493596D01*
X154863673Y-59350000D01*
X154843027Y-59206404D01*
X154782762Y-59074442D01*
X154687760Y-58964804D01*
X154687759Y-58964803D01*
X154609959Y-58914804D01*
X154565717Y-58886371D01*
X154565716Y-58886370D01*
X154565715Y-58886370D01*
X154426521Y-58845500D01*
X154281449Y-58845500D01*
X154142254Y-58886370D01*
X154142251Y-58886372D01*
X154020210Y-58964803D01*
X153993879Y-58995191D01*
X153934152Y-59033574D01*
X153863156Y-59033574D01*
X153803431Y-58995191D01*
X153733774Y-58914803D01*
X153672753Y-58875587D01*
X153611732Y-58836371D01*
X153611731Y-58836370D01*
X153611730Y-58836370D01*
X153472536Y-58795500D01*
X153327464Y-58795500D01*
X153188269Y-58836370D01*
X153188266Y-58836372D01*
X153066225Y-58914803D01*
X152971223Y-59024441D01*
X152911591Y-59155019D01*
X152910958Y-59156404D01*
X152890312Y-59300000D01*
X117329955Y-59300000D01*
X117331505Y-56852050D01*
X117351550Y-56783946D01*
X117405235Y-56737487D01*
X117475516Y-56727428D01*
X117540078Y-56756962D01*
X117552729Y-56769621D01*
X117566225Y-56785196D01*
X117688268Y-56863629D01*
X117827464Y-56904500D01*
X117972536Y-56904500D01*
X118111732Y-56863629D01*
X118181879Y-56818547D01*
X118249999Y-56798545D01*
X118318116Y-56818544D01*
X118350368Y-56839272D01*
X118388264Y-56863627D01*
X118388266Y-56863627D01*
X118388268Y-56863629D01*
X118527464Y-56904500D01*
X118672536Y-56904500D01*
X118811732Y-56863629D01*
X118881879Y-56818547D01*
X118949999Y-56798545D01*
X119018116Y-56818544D01*
X119050368Y-56839272D01*
X119088264Y-56863627D01*
X119088266Y-56863627D01*
X119088268Y-56863629D01*
X119227464Y-56904500D01*
X119372536Y-56904500D01*
X119511732Y-56863629D01*
X119633775Y-56785196D01*
X119728777Y-56675558D01*
X119789042Y-56543596D01*
X119809688Y-56400000D01*
X119789042Y-56256404D01*
X119728777Y-56124442D01*
X119728775Y-56124440D01*
X119724717Y-56118125D01*
X119704712Y-56050005D01*
X119724712Y-55981883D01*
X119724717Y-55981875D01*
X119728773Y-55975562D01*
X119728777Y-55975558D01*
X119789042Y-55843596D01*
X119809688Y-55700000D01*
X119789042Y-55556404D01*
X119728777Y-55424442D01*
X119728775Y-55424440D01*
X119724717Y-55418125D01*
X119704712Y-55350005D01*
X119724712Y-55281883D01*
X119724717Y-55281875D01*
X119728773Y-55275562D01*
X119728777Y-55275558D01*
X119789042Y-55143596D01*
X119802499Y-55050000D01*
X132940312Y-55050000D01*
X132960958Y-55193596D01*
X133021223Y-55325558D01*
X133116225Y-55435196D01*
X133238268Y-55513629D01*
X133377464Y-55554500D01*
X133522536Y-55554500D01*
X133661732Y-55513629D01*
X133783775Y-55435196D01*
X133878777Y-55325558D01*
X133939042Y-55193596D01*
X133959688Y-55050000D01*
X133939042Y-54906404D01*
X133878777Y-54774442D01*
X133783775Y-54664804D01*
X133783774Y-54664803D01*
X133705974Y-54614804D01*
X133661732Y-54586371D01*
X133661731Y-54586370D01*
X133661730Y-54586370D01*
X133522536Y-54545500D01*
X133377464Y-54545500D01*
X133238269Y-54586370D01*
X133238266Y-54586372D01*
X133116225Y-54664803D01*
X133021223Y-54774441D01*
X132983793Y-54856403D01*
X132960958Y-54906404D01*
X132940312Y-55050000D01*
X119802499Y-55050000D01*
X119809688Y-55000000D01*
X119789042Y-54856404D01*
X119728777Y-54724442D01*
X119633775Y-54614804D01*
X119633774Y-54614803D01*
X119572753Y-54575587D01*
X119511732Y-54536371D01*
X119511731Y-54536370D01*
X119511730Y-54536370D01*
X119372536Y-54495500D01*
X119227464Y-54495500D01*
X119088269Y-54536370D01*
X119088262Y-54536373D01*
X119018119Y-54581452D01*
X118949999Y-54601454D01*
X118881878Y-54581452D01*
X118811735Y-54536374D01*
X118811732Y-54536372D01*
X118811731Y-54536371D01*
X118811730Y-54536371D01*
X118672536Y-54495501D01*
X118527464Y-54495501D01*
X118388269Y-54536371D01*
X118388262Y-54536374D01*
X118318120Y-54581452D01*
X118249999Y-54601454D01*
X118181879Y-54581452D01*
X118126900Y-54546119D01*
X118111732Y-54536371D01*
X118111731Y-54536370D01*
X118111730Y-54536370D01*
X117972536Y-54495500D01*
X117827464Y-54495500D01*
X117688269Y-54536370D01*
X117688266Y-54536372D01*
X117566225Y-54614803D01*
X117554187Y-54628696D01*
X117494459Y-54667077D01*
X117423463Y-54667075D01*
X117363738Y-54628689D01*
X117334247Y-54564107D01*
X117332966Y-54546119D01*
X117333692Y-53400000D01*
X130790458Y-53400000D01*
X130810501Y-53526553D01*
X130868673Y-53640723D01*
X130959276Y-53731326D01*
X131016361Y-53760412D01*
X131073445Y-53789498D01*
X131200000Y-53809542D01*
X131326555Y-53789498D01*
X131440723Y-53731326D01*
X131507119Y-53664930D01*
X138195500Y-53664930D01*
X138195500Y-55415063D01*
X138195501Y-55415073D01*
X138210265Y-55489300D01*
X138266516Y-55573484D01*
X138350697Y-55629733D01*
X138350699Y-55629734D01*
X138424933Y-55644500D01*
X140175066Y-55644499D01*
X140175069Y-55644498D01*
X140175073Y-55644498D01*
X140224326Y-55634701D01*
X140249301Y-55629734D01*
X140333484Y-55573484D01*
X140389734Y-55489301D01*
X140404500Y-55415067D01*
X140404499Y-54539995D01*
X140730768Y-54539995D01*
X140730768Y-54540004D01*
X140749654Y-54743819D01*
X140805671Y-54940698D01*
X140805672Y-54940701D01*
X140896912Y-55123935D01*
X140896913Y-55123936D01*
X141020266Y-55287284D01*
X141171536Y-55425185D01*
X141345566Y-55532940D01*
X141345568Y-55532940D01*
X141345573Y-55532944D01*
X141536444Y-55606888D01*
X141737653Y-55644500D01*
X141737655Y-55644500D01*
X141942345Y-55644500D01*
X141942347Y-55644500D01*
X142143556Y-55606888D01*
X142334427Y-55532944D01*
X142508462Y-55425186D01*
X142659732Y-55287285D01*
X142660422Y-55286372D01*
X142690027Y-55247168D01*
X142783088Y-55123935D01*
X142874328Y-54940701D01*
X142930345Y-54743821D01*
X142942300Y-54614804D01*
X142949232Y-54540004D01*
X142949232Y-54539995D01*
X143270768Y-54539995D01*
X143270768Y-54540004D01*
X143289654Y-54743819D01*
X143345671Y-54940698D01*
X143345672Y-54940701D01*
X143436912Y-55123935D01*
X143436913Y-55123936D01*
X143560266Y-55287284D01*
X143711536Y-55425185D01*
X143885566Y-55532940D01*
X143885568Y-55532940D01*
X143885573Y-55532944D01*
X144076444Y-55606888D01*
X144277653Y-55644500D01*
X144277655Y-55644500D01*
X144482345Y-55644500D01*
X144482347Y-55644500D01*
X144683556Y-55606888D01*
X144874427Y-55532944D01*
X145048462Y-55425186D01*
X145199732Y-55287285D01*
X145200422Y-55286372D01*
X145230027Y-55247168D01*
X145323088Y-55123935D01*
X145414328Y-54940701D01*
X145470345Y-54743821D01*
X145482300Y-54614804D01*
X145489232Y-54540004D01*
X145489232Y-54539995D01*
X145810768Y-54539995D01*
X145810768Y-54540004D01*
X145829654Y-54743819D01*
X145885671Y-54940698D01*
X145885672Y-54940701D01*
X145976912Y-55123935D01*
X145976913Y-55123936D01*
X146100266Y-55287284D01*
X146251536Y-55425185D01*
X146425566Y-55532940D01*
X146425568Y-55532940D01*
X146425573Y-55532944D01*
X146616444Y-55606888D01*
X146817653Y-55644500D01*
X146817655Y-55644500D01*
X147022345Y-55644500D01*
X147022347Y-55644500D01*
X147223556Y-55606888D01*
X147414427Y-55532944D01*
X147588462Y-55425186D01*
X147739732Y-55287285D01*
X147740422Y-55286372D01*
X147770027Y-55247168D01*
X147863088Y-55123935D01*
X147954328Y-54940701D01*
X148010345Y-54743821D01*
X148022300Y-54614804D01*
X148029232Y-54540004D01*
X148029232Y-54539995D01*
X148027842Y-54525000D01*
X177515312Y-54525000D01*
X177535958Y-54668596D01*
X177596223Y-54800558D01*
X177691225Y-54910196D01*
X177813268Y-54988629D01*
X177851995Y-55000000D01*
X177921043Y-55020274D01*
X177980769Y-55058657D01*
X178010262Y-55123238D01*
X178000159Y-55193512D01*
X177953666Y-55247168D01*
X177921043Y-55262066D01*
X177838270Y-55286370D01*
X177838266Y-55286372D01*
X177716225Y-55364803D01*
X177621223Y-55474441D01*
X177575993Y-55573483D01*
X177560958Y-55606404D01*
X177540312Y-55750000D01*
X177560958Y-55893596D01*
X177621223Y-56025558D01*
X177716225Y-56135196D01*
X177838268Y-56213629D01*
X177977464Y-56254500D01*
X178122536Y-56254500D01*
X178261732Y-56213629D01*
X178383775Y-56135196D01*
X178478777Y-56025558D01*
X178539042Y-55893596D01*
X178559688Y-55750000D01*
X178539042Y-55606404D01*
X178478777Y-55474442D01*
X178383775Y-55364804D01*
X178383774Y-55364803D01*
X178263154Y-55287285D01*
X178261732Y-55286371D01*
X178261729Y-55286370D01*
X178153956Y-55254725D01*
X178094229Y-55216341D01*
X178064736Y-55151761D01*
X178074840Y-55081487D01*
X178121333Y-55027831D01*
X178153947Y-55012936D01*
X178236732Y-54988629D01*
X178358775Y-54910196D01*
X178453777Y-54800558D01*
X178514042Y-54668596D01*
X178534688Y-54525000D01*
X178514042Y-54381404D01*
X178453777Y-54249442D01*
X178358775Y-54139804D01*
X178358774Y-54139803D01*
X178297753Y-54100587D01*
X178236732Y-54061371D01*
X178236731Y-54061370D01*
X178236730Y-54061370D01*
X178097536Y-54020500D01*
X177952464Y-54020500D01*
X177813269Y-54061370D01*
X177813266Y-54061372D01*
X177691225Y-54139803D01*
X177596223Y-54249441D01*
X177556612Y-54336179D01*
X177535958Y-54381404D01*
X177515312Y-54525000D01*
X148027842Y-54525000D01*
X148010345Y-54336180D01*
X147985666Y-54249441D01*
X147954328Y-54139299D01*
X147863088Y-53956065D01*
X147786390Y-53854500D01*
X147739733Y-53792715D01*
X147588463Y-53654814D01*
X147414433Y-53547059D01*
X147414428Y-53547057D01*
X147414427Y-53547056D01*
X147361503Y-53526553D01*
X147223559Y-53473113D01*
X147223560Y-53473113D01*
X147223557Y-53473112D01*
X147223556Y-53473112D01*
X147022347Y-53435500D01*
X146817653Y-53435500D01*
X146616444Y-53473112D01*
X146616439Y-53473113D01*
X146425577Y-53547054D01*
X146425566Y-53547059D01*
X146251536Y-53654814D01*
X146100266Y-53792715D01*
X145976913Y-53956063D01*
X145885671Y-54139301D01*
X145829654Y-54336180D01*
X145810768Y-54539995D01*
X145489232Y-54539995D01*
X145470345Y-54336180D01*
X145445666Y-54249441D01*
X145414328Y-54139299D01*
X145323088Y-53956065D01*
X145246390Y-53854500D01*
X145199733Y-53792715D01*
X145048463Y-53654814D01*
X144874433Y-53547059D01*
X144874428Y-53547057D01*
X144874427Y-53547056D01*
X144821503Y-53526553D01*
X144683559Y-53473113D01*
X144683560Y-53473113D01*
X144683557Y-53473112D01*
X144683556Y-53473112D01*
X144482347Y-53435500D01*
X144277653Y-53435500D01*
X144076444Y-53473112D01*
X144076439Y-53473113D01*
X143885577Y-53547054D01*
X143885566Y-53547059D01*
X143711536Y-53654814D01*
X143560266Y-53792715D01*
X143436913Y-53956063D01*
X143345671Y-54139301D01*
X143289654Y-54336180D01*
X143270768Y-54539995D01*
X142949232Y-54539995D01*
X142930345Y-54336180D01*
X142905666Y-54249441D01*
X142874328Y-54139299D01*
X142783088Y-53956065D01*
X142706390Y-53854500D01*
X142659733Y-53792715D01*
X142508463Y-53654814D01*
X142334433Y-53547059D01*
X142334428Y-53547057D01*
X142334427Y-53547056D01*
X142281503Y-53526553D01*
X142143559Y-53473113D01*
X142143560Y-53473113D01*
X142143557Y-53473112D01*
X142143556Y-53473112D01*
X141942347Y-53435500D01*
X141737653Y-53435500D01*
X141536444Y-53473112D01*
X141536439Y-53473113D01*
X141345577Y-53547054D01*
X141345566Y-53547059D01*
X141171536Y-53654814D01*
X141020266Y-53792715D01*
X140896913Y-53956063D01*
X140805671Y-54139301D01*
X140749654Y-54336180D01*
X140730768Y-54539995D01*
X140404499Y-54539995D01*
X140404499Y-53664934D01*
X140404498Y-53664930D01*
X140404498Y-53664926D01*
X140389734Y-53590699D01*
X140333483Y-53506515D01*
X140249302Y-53450266D01*
X140175067Y-53435500D01*
X138424936Y-53435500D01*
X138424926Y-53435501D01*
X138350699Y-53450265D01*
X138266515Y-53506516D01*
X138210266Y-53590697D01*
X138195500Y-53664930D01*
X131507119Y-53664930D01*
X131531326Y-53640723D01*
X131589498Y-53526555D01*
X131609542Y-53400000D01*
X131601623Y-53350000D01*
X160540312Y-53350000D01*
X160560958Y-53493596D01*
X160621223Y-53625558D01*
X160716225Y-53735196D01*
X160838268Y-53813629D01*
X160977464Y-53854500D01*
X161122536Y-53854500D01*
X161261732Y-53813629D01*
X161383775Y-53735196D01*
X161478777Y-53625558D01*
X161539042Y-53493596D01*
X161559688Y-53350000D01*
X161539042Y-53206404D01*
X161521795Y-53168639D01*
X161511691Y-53098369D01*
X161541181Y-53033790D01*
X161586031Y-52982032D01*
X161646296Y-52850070D01*
X161666942Y-52706474D01*
X161646296Y-52562878D01*
X161586031Y-52430916D01*
X161491029Y-52321278D01*
X161491028Y-52321277D01*
X161430007Y-52282061D01*
X161368986Y-52242845D01*
X161368985Y-52242844D01*
X161368984Y-52242844D01*
X161229790Y-52201974D01*
X161084718Y-52201974D01*
X160945523Y-52242844D01*
X160945520Y-52242846D01*
X160823479Y-52321277D01*
X160728477Y-52430915D01*
X160728477Y-52430916D01*
X160668212Y-52562878D01*
X160647566Y-52706474D01*
X160668212Y-52850070D01*
X160684248Y-52885185D01*
X160685458Y-52887833D01*
X160695561Y-52958107D01*
X160666068Y-53022688D01*
X160621223Y-53074441D01*
X160578203Y-53168643D01*
X160560958Y-53206404D01*
X160540312Y-53350000D01*
X131601623Y-53350000D01*
X131589498Y-53273445D01*
X131555338Y-53206403D01*
X131531326Y-53159276D01*
X131440723Y-53068673D01*
X131326553Y-53010501D01*
X131200000Y-52990458D01*
X131073446Y-53010501D01*
X130959276Y-53068673D01*
X130868673Y-53159276D01*
X130810501Y-53273446D01*
X130790458Y-53400000D01*
X117333692Y-53400000D01*
X117335212Y-51000000D01*
X128227812Y-51000000D01*
X128248458Y-51143596D01*
X128308723Y-51275558D01*
X128403725Y-51385196D01*
X128525768Y-51463629D01*
X128664964Y-51504500D01*
X128810036Y-51504500D01*
X128949232Y-51463629D01*
X129071275Y-51385196D01*
X129166277Y-51275558D01*
X129226542Y-51143596D01*
X129247188Y-51000000D01*
X136227812Y-51000000D01*
X136248458Y-51143596D01*
X136308723Y-51275558D01*
X136403725Y-51385196D01*
X136525768Y-51463629D01*
X136664964Y-51504500D01*
X136810036Y-51504500D01*
X136949232Y-51463629D01*
X137071275Y-51385196D01*
X137166277Y-51275558D01*
X137226542Y-51143596D01*
X137229226Y-51124930D01*
X138195500Y-51124930D01*
X138195500Y-52875063D01*
X138195501Y-52875073D01*
X138210265Y-52949300D01*
X138266516Y-53033484D01*
X138350697Y-53089733D01*
X138350699Y-53089734D01*
X138424933Y-53104500D01*
X140175066Y-53104499D01*
X140175069Y-53104498D01*
X140175073Y-53104498D01*
X140239567Y-53091670D01*
X140249301Y-53089734D01*
X140333484Y-53033484D01*
X140389734Y-52949301D01*
X140404500Y-52875067D01*
X140404499Y-51999995D01*
X140730768Y-51999995D01*
X140730768Y-52000004D01*
X140749654Y-52203819D01*
X140783074Y-52321277D01*
X140805672Y-52400701D01*
X140896912Y-52583935D01*
X140896913Y-52583936D01*
X141020266Y-52747284D01*
X141171536Y-52885185D01*
X141345566Y-52992940D01*
X141345568Y-52992940D01*
X141345573Y-52992944D01*
X141536444Y-53066888D01*
X141737653Y-53104500D01*
X141737655Y-53104500D01*
X141942345Y-53104500D01*
X141942347Y-53104500D01*
X142143556Y-53066888D01*
X142334427Y-52992944D01*
X142508462Y-52885186D01*
X142659732Y-52747285D01*
X142783088Y-52583935D01*
X142874328Y-52400701D01*
X142930345Y-52203821D01*
X142949232Y-52000000D01*
X142949232Y-51999995D01*
X143270768Y-51999995D01*
X143270768Y-52000004D01*
X143289654Y-52203819D01*
X143323074Y-52321277D01*
X143345672Y-52400701D01*
X143436912Y-52583935D01*
X143436913Y-52583936D01*
X143560266Y-52747284D01*
X143711536Y-52885185D01*
X143885566Y-52992940D01*
X143885568Y-52992940D01*
X143885573Y-52992944D01*
X144076444Y-53066888D01*
X144277653Y-53104500D01*
X144277655Y-53104500D01*
X144482345Y-53104500D01*
X144482347Y-53104500D01*
X144683556Y-53066888D01*
X144874427Y-52992944D01*
X145048462Y-52885186D01*
X145199732Y-52747285D01*
X145323088Y-52583935D01*
X145414328Y-52400701D01*
X145470345Y-52203821D01*
X145489232Y-52000000D01*
X145489232Y-51999995D01*
X145810768Y-51999995D01*
X145810768Y-52000004D01*
X145829654Y-52203819D01*
X145863074Y-52321277D01*
X145885672Y-52400701D01*
X145976912Y-52583935D01*
X145976913Y-52583936D01*
X146100266Y-52747284D01*
X146251536Y-52885185D01*
X146425566Y-52992940D01*
X146425568Y-52992940D01*
X146425573Y-52992944D01*
X146616444Y-53066888D01*
X146817653Y-53104500D01*
X146817655Y-53104500D01*
X147022345Y-53104500D01*
X147022347Y-53104500D01*
X147223556Y-53066888D01*
X147414427Y-52992944D01*
X147588462Y-52885186D01*
X147739732Y-52747285D01*
X147863088Y-52583935D01*
X147954328Y-52400701D01*
X148010345Y-52203821D01*
X148024599Y-52050000D01*
X177390312Y-52050000D01*
X177410958Y-52193596D01*
X177471223Y-52325558D01*
X177566225Y-52435196D01*
X177688268Y-52513629D01*
X177827464Y-52554500D01*
X177972536Y-52554500D01*
X178111732Y-52513629D01*
X178233775Y-52435196D01*
X178328777Y-52325558D01*
X178389042Y-52193596D01*
X178409688Y-52050000D01*
X178389042Y-51906404D01*
X178328777Y-51774442D01*
X178233775Y-51664804D01*
X178233774Y-51664803D01*
X178131848Y-51599299D01*
X178111732Y-51586371D01*
X178111731Y-51586370D01*
X178111730Y-51586370D01*
X177972536Y-51545500D01*
X177827464Y-51545500D01*
X177688269Y-51586370D01*
X177688266Y-51586372D01*
X177566225Y-51664803D01*
X177471223Y-51774441D01*
X177461296Y-51796180D01*
X177410958Y-51906404D01*
X177390312Y-52050000D01*
X148024599Y-52050000D01*
X148029232Y-52000000D01*
X148010345Y-51796179D01*
X147954328Y-51599299D01*
X147863088Y-51416065D01*
X147822538Y-51362368D01*
X147739733Y-51252715D01*
X147588463Y-51114814D01*
X147414433Y-51007059D01*
X147414428Y-51007057D01*
X147414427Y-51007056D01*
X147414422Y-51007054D01*
X147223559Y-50933113D01*
X147223560Y-50933113D01*
X147223557Y-50933112D01*
X147223556Y-50933112D01*
X147022347Y-50895500D01*
X146817653Y-50895500D01*
X146616444Y-50933112D01*
X146616439Y-50933113D01*
X146425577Y-51007054D01*
X146425566Y-51007059D01*
X146251536Y-51114814D01*
X146100266Y-51252715D01*
X145976913Y-51416063D01*
X145885671Y-51599301D01*
X145829654Y-51796180D01*
X145810768Y-51999995D01*
X145489232Y-51999995D01*
X145470345Y-51796179D01*
X145414328Y-51599299D01*
X145323088Y-51416065D01*
X145282538Y-51362368D01*
X145199733Y-51252715D01*
X145048463Y-51114814D01*
X144874433Y-51007059D01*
X144874428Y-51007057D01*
X144874427Y-51007056D01*
X144874422Y-51007054D01*
X144683559Y-50933113D01*
X144683560Y-50933113D01*
X144683557Y-50933112D01*
X144683556Y-50933112D01*
X144482347Y-50895500D01*
X144277653Y-50895500D01*
X144076444Y-50933112D01*
X144076439Y-50933113D01*
X143885577Y-51007054D01*
X143885566Y-51007059D01*
X143711536Y-51114814D01*
X143560266Y-51252715D01*
X143436913Y-51416063D01*
X143345671Y-51599301D01*
X143289654Y-51796180D01*
X143270768Y-51999995D01*
X142949232Y-51999995D01*
X142930345Y-51796179D01*
X142874328Y-51599299D01*
X142783088Y-51416065D01*
X142742538Y-51362368D01*
X142659733Y-51252715D01*
X142508463Y-51114814D01*
X142334433Y-51007059D01*
X142334428Y-51007057D01*
X142334427Y-51007056D01*
X142334422Y-51007054D01*
X142143559Y-50933113D01*
X142143560Y-50933113D01*
X142143557Y-50933112D01*
X142143556Y-50933112D01*
X141942347Y-50895500D01*
X141737653Y-50895500D01*
X141536444Y-50933112D01*
X141536439Y-50933113D01*
X141345577Y-51007054D01*
X141345566Y-51007059D01*
X141171536Y-51114814D01*
X141020266Y-51252715D01*
X140896913Y-51416063D01*
X140805671Y-51599301D01*
X140749654Y-51796180D01*
X140730768Y-51999995D01*
X140404499Y-51999995D01*
X140404499Y-51124934D01*
X140404498Y-51124930D01*
X140404498Y-51124926D01*
X140389734Y-51050699D01*
X140360571Y-51007054D01*
X140333484Y-50966516D01*
X140283494Y-50933113D01*
X140249302Y-50910266D01*
X140175067Y-50895500D01*
X138424936Y-50895500D01*
X138424926Y-50895501D01*
X138350699Y-50910265D01*
X138266515Y-50966516D01*
X138210266Y-51050697D01*
X138195500Y-51124930D01*
X137229226Y-51124930D01*
X137247188Y-51000000D01*
X137226542Y-50856404D01*
X137166277Y-50724442D01*
X137071275Y-50614804D01*
X137071274Y-50614803D01*
X136993001Y-50564500D01*
X136949232Y-50536371D01*
X136949231Y-50536370D01*
X136949230Y-50536370D01*
X136810036Y-50495500D01*
X136664964Y-50495500D01*
X136525769Y-50536370D01*
X136525766Y-50536372D01*
X136403725Y-50614803D01*
X136308723Y-50724441D01*
X136308723Y-50724442D01*
X136248458Y-50856404D01*
X136227812Y-51000000D01*
X129247188Y-51000000D01*
X129226542Y-50856404D01*
X129166277Y-50724442D01*
X129071275Y-50614804D01*
X129071274Y-50614803D01*
X128993001Y-50564500D01*
X128949232Y-50536371D01*
X128949231Y-50536370D01*
X128949230Y-50536370D01*
X128810036Y-50495500D01*
X128664964Y-50495500D01*
X128525769Y-50536370D01*
X128525766Y-50536372D01*
X128403725Y-50614803D01*
X128308723Y-50724441D01*
X128308723Y-50724442D01*
X128248458Y-50856404D01*
X128227812Y-51000000D01*
X117335212Y-51000000D01*
X117336742Y-48584930D01*
X138195500Y-48584930D01*
X138195500Y-50335063D01*
X138195501Y-50335073D01*
X138210265Y-50409300D01*
X138266516Y-50493484D01*
X138350697Y-50549733D01*
X138350699Y-50549734D01*
X138424933Y-50564500D01*
X140175066Y-50564499D01*
X140175069Y-50564498D01*
X140175073Y-50564498D01*
X140224326Y-50554701D01*
X140249301Y-50549734D01*
X140333484Y-50493484D01*
X140389734Y-50409301D01*
X140404500Y-50335067D01*
X140404499Y-49459995D01*
X140730768Y-49459995D01*
X140730768Y-49460004D01*
X140749654Y-49663819D01*
X140780208Y-49771204D01*
X140805672Y-49860701D01*
X140896912Y-50043935D01*
X140896913Y-50043936D01*
X141020266Y-50207284D01*
X141171536Y-50345185D01*
X141345566Y-50452940D01*
X141345568Y-50452940D01*
X141345573Y-50452944D01*
X141536444Y-50526888D01*
X141737653Y-50564500D01*
X141737655Y-50564500D01*
X141942345Y-50564500D01*
X141942347Y-50564500D01*
X142143556Y-50526888D01*
X142334427Y-50452944D01*
X142508462Y-50345186D01*
X142659732Y-50207285D01*
X142783088Y-50043935D01*
X142874328Y-49860701D01*
X142930345Y-49663821D01*
X142942155Y-49536370D01*
X142949232Y-49460004D01*
X142949232Y-49459995D01*
X143270768Y-49459995D01*
X143270768Y-49460004D01*
X143289654Y-49663819D01*
X143320208Y-49771204D01*
X143345672Y-49860701D01*
X143436912Y-50043935D01*
X143436913Y-50043936D01*
X143560266Y-50207284D01*
X143711536Y-50345185D01*
X143885566Y-50452940D01*
X143885568Y-50452940D01*
X143885573Y-50452944D01*
X144076444Y-50526888D01*
X144277653Y-50564500D01*
X144277655Y-50564500D01*
X144482345Y-50564500D01*
X144482347Y-50564500D01*
X144683556Y-50526888D01*
X144874427Y-50452944D01*
X145048462Y-50345186D01*
X145199732Y-50207285D01*
X145323088Y-50043935D01*
X145414328Y-49860701D01*
X145470345Y-49663821D01*
X145482155Y-49536370D01*
X145489232Y-49460004D01*
X145489232Y-49459995D01*
X145810768Y-49459995D01*
X145810768Y-49460004D01*
X145829654Y-49663819D01*
X145860208Y-49771204D01*
X145885672Y-49860701D01*
X145976912Y-50043935D01*
X145976913Y-50043936D01*
X146100266Y-50207284D01*
X146251536Y-50345185D01*
X146425566Y-50452940D01*
X146425568Y-50452940D01*
X146425573Y-50452944D01*
X146616444Y-50526888D01*
X146817653Y-50564500D01*
X146817655Y-50564500D01*
X147022345Y-50564500D01*
X147022347Y-50564500D01*
X147223556Y-50526888D01*
X147414427Y-50452944D01*
X147588462Y-50345186D01*
X147739732Y-50207285D01*
X147863088Y-50043935D01*
X147884965Y-50000000D01*
X149590312Y-50000000D01*
X149610958Y-50143596D01*
X149671223Y-50275558D01*
X149766225Y-50385196D01*
X149888268Y-50463629D01*
X150027464Y-50504500D01*
X150172536Y-50504500D01*
X150311732Y-50463629D01*
X150433775Y-50385196D01*
X150528777Y-50275558D01*
X150583195Y-50156400D01*
X161410912Y-50156400D01*
X161431558Y-50299996D01*
X161491823Y-50431958D01*
X161586825Y-50541596D01*
X161708868Y-50620029D01*
X161848064Y-50660900D01*
X161993136Y-50660900D01*
X162132332Y-50620029D01*
X162254375Y-50541596D01*
X162349377Y-50431958D01*
X162409642Y-50299996D01*
X162430288Y-50156400D01*
X162409642Y-50012804D01*
X162349377Y-49880842D01*
X162254375Y-49771204D01*
X162254374Y-49771203D01*
X162193353Y-49731987D01*
X162132332Y-49692771D01*
X162132331Y-49692770D01*
X162132330Y-49692770D01*
X161993136Y-49651900D01*
X161848064Y-49651900D01*
X161708869Y-49692770D01*
X161708866Y-49692772D01*
X161586825Y-49771203D01*
X161491823Y-49880841D01*
X161491823Y-49880842D01*
X161431558Y-50012804D01*
X161410912Y-50156400D01*
X150583195Y-50156400D01*
X150589042Y-50143596D01*
X150609688Y-50000000D01*
X150589042Y-49856404D01*
X150528777Y-49724442D01*
X150433775Y-49614804D01*
X150433774Y-49614803D01*
X150372753Y-49575587D01*
X150311732Y-49536371D01*
X150311731Y-49536370D01*
X150311730Y-49536370D01*
X150172536Y-49495500D01*
X150027464Y-49495500D01*
X149888269Y-49536370D01*
X149888266Y-49536372D01*
X149766225Y-49614803D01*
X149671223Y-49724441D01*
X149610958Y-49856403D01*
X149610340Y-49860701D01*
X149590312Y-50000000D01*
X147884965Y-50000000D01*
X147954328Y-49860701D01*
X148010345Y-49663821D01*
X148022155Y-49536370D01*
X148029232Y-49460004D01*
X148029232Y-49459995D01*
X148010345Y-49256180D01*
X148010345Y-49256179D01*
X147954328Y-49059299D01*
X147863088Y-48876065D01*
X147822538Y-48822368D01*
X147739733Y-48712715D01*
X147588463Y-48574814D01*
X147414433Y-48467059D01*
X147414428Y-48467057D01*
X147414427Y-48467056D01*
X147414422Y-48467054D01*
X147223559Y-48393113D01*
X147223560Y-48393113D01*
X147223557Y-48393112D01*
X147223556Y-48393112D01*
X147022347Y-48355500D01*
X146817653Y-48355500D01*
X146616444Y-48393112D01*
X146616439Y-48393113D01*
X146425577Y-48467054D01*
X146425566Y-48467059D01*
X146251536Y-48574814D01*
X146100266Y-48712715D01*
X145976913Y-48876063D01*
X145885671Y-49059301D01*
X145829654Y-49256180D01*
X145810768Y-49459995D01*
X145489232Y-49459995D01*
X145470345Y-49256180D01*
X145470345Y-49256179D01*
X145414328Y-49059299D01*
X145323088Y-48876065D01*
X145282538Y-48822368D01*
X145199733Y-48712715D01*
X145048463Y-48574814D01*
X144874433Y-48467059D01*
X144874428Y-48467057D01*
X144874427Y-48467056D01*
X144874422Y-48467054D01*
X144683559Y-48393113D01*
X144683560Y-48393113D01*
X144683557Y-48393112D01*
X144683556Y-48393112D01*
X144482347Y-48355500D01*
X144277653Y-48355500D01*
X144076444Y-48393112D01*
X144076439Y-48393113D01*
X143885577Y-48467054D01*
X143885566Y-48467059D01*
X143711536Y-48574814D01*
X143560266Y-48712715D01*
X143436913Y-48876063D01*
X143345671Y-49059301D01*
X143289654Y-49256180D01*
X143270768Y-49459995D01*
X142949232Y-49459995D01*
X142930345Y-49256180D01*
X142930345Y-49256179D01*
X142874328Y-49059299D01*
X142783088Y-48876065D01*
X142742538Y-48822368D01*
X142659733Y-48712715D01*
X142508463Y-48574814D01*
X142334433Y-48467059D01*
X142334428Y-48467057D01*
X142334427Y-48467056D01*
X142334422Y-48467054D01*
X142143559Y-48393113D01*
X142143560Y-48393113D01*
X142143557Y-48393112D01*
X142143556Y-48393112D01*
X141942347Y-48355500D01*
X141737653Y-48355500D01*
X141536444Y-48393112D01*
X141536439Y-48393113D01*
X141345577Y-48467054D01*
X141345566Y-48467059D01*
X141171536Y-48574814D01*
X141020266Y-48712715D01*
X140896913Y-48876063D01*
X140805671Y-49059301D01*
X140749654Y-49256180D01*
X140730768Y-49459995D01*
X140404499Y-49459995D01*
X140404499Y-48584934D01*
X140404498Y-48584930D01*
X140404498Y-48584926D01*
X140389734Y-48510699D01*
X140333483Y-48426515D01*
X140249302Y-48370266D01*
X140175067Y-48355500D01*
X138424936Y-48355500D01*
X138424926Y-48355501D01*
X138350699Y-48370265D01*
X138266515Y-48426516D01*
X138210266Y-48510697D01*
X138195500Y-48584930D01*
X117336742Y-48584930D01*
X117339582Y-44100000D01*
X118715311Y-44100000D01*
X118735957Y-44243596D01*
X118796222Y-44375558D01*
X118891224Y-44485196D01*
X119013267Y-44563629D01*
X119152463Y-44604500D01*
X119297535Y-44604500D01*
X119436731Y-44563629D01*
X119558774Y-44485196D01*
X119653776Y-44375558D01*
X119714041Y-44243596D01*
X119734687Y-44100000D01*
X119714041Y-43956404D01*
X119653776Y-43824442D01*
X119558774Y-43714804D01*
X119558773Y-43714803D01*
X119497752Y-43675587D01*
X119436731Y-43636371D01*
X119436730Y-43636370D01*
X119436729Y-43636370D01*
X119297535Y-43595500D01*
X119152463Y-43595500D01*
X119013268Y-43636370D01*
X119013265Y-43636372D01*
X118891224Y-43714803D01*
X118796222Y-43824441D01*
X118796222Y-43824442D01*
X118735957Y-43956404D01*
X118715311Y-44100000D01*
X117339582Y-44100000D01*
X117340532Y-42600000D01*
X120965312Y-42600000D01*
X120985958Y-42743596D01*
X121046223Y-42875558D01*
X121141225Y-42985196D01*
X121263268Y-43063629D01*
X121402464Y-43104500D01*
X121547536Y-43104500D01*
X121686732Y-43063629D01*
X121785740Y-43000000D01*
X125165312Y-43000000D01*
X125185958Y-43143596D01*
X125246223Y-43275558D01*
X125341225Y-43385196D01*
X125463268Y-43463629D01*
X125602464Y-43504500D01*
X125747536Y-43504500D01*
X125886732Y-43463629D01*
X126008775Y-43385196D01*
X126103777Y-43275558D01*
X126164042Y-43143596D01*
X126184688Y-43000000D01*
X126164042Y-42856404D01*
X126103777Y-42724442D01*
X126008775Y-42614804D01*
X126008774Y-42614803D01*
X125947708Y-42575558D01*
X125886732Y-42536371D01*
X125886731Y-42536370D01*
X125886730Y-42536370D01*
X125747536Y-42495500D01*
X125602464Y-42495500D01*
X125463269Y-42536370D01*
X125463266Y-42536372D01*
X125341225Y-42614803D01*
X125246223Y-42724441D01*
X125209662Y-42804500D01*
X125185958Y-42856404D01*
X125165312Y-43000000D01*
X121785740Y-43000000D01*
X121808775Y-42985196D01*
X121903777Y-42875558D01*
X121964042Y-42743596D01*
X121984688Y-42600000D01*
X121964042Y-42456404D01*
X121903777Y-42324442D01*
X121903776Y-42324441D01*
X121900033Y-42316244D01*
X121902046Y-42315324D01*
X121897546Y-42300000D01*
X163140312Y-42300000D01*
X163160958Y-42443596D01*
X163221223Y-42575558D01*
X163316225Y-42685196D01*
X163438268Y-42763629D01*
X163577464Y-42804500D01*
X163722536Y-42804500D01*
X163861732Y-42763629D01*
X163983775Y-42685196D01*
X164078777Y-42575558D01*
X164139042Y-42443596D01*
X164159688Y-42300000D01*
X164139042Y-42156404D01*
X164078777Y-42024442D01*
X163983775Y-41914804D01*
X163983774Y-41914803D01*
X163922753Y-41875587D01*
X163861732Y-41836371D01*
X163861731Y-41836370D01*
X163861730Y-41836370D01*
X163722536Y-41795500D01*
X163577464Y-41795500D01*
X163438269Y-41836370D01*
X163438266Y-41836372D01*
X163316225Y-41914803D01*
X163221223Y-42024441D01*
X163168007Y-42140969D01*
X163160958Y-42156404D01*
X163140312Y-42300000D01*
X121897546Y-42300000D01*
X121885517Y-42259036D01*
X121905517Y-42190915D01*
X121916288Y-42176524D01*
X122003777Y-42075558D01*
X122064042Y-41943596D01*
X122084688Y-41800000D01*
X122064042Y-41656404D01*
X122003777Y-41524442D01*
X121908775Y-41414804D01*
X121908774Y-41414803D01*
X121847753Y-41375587D01*
X121786732Y-41336371D01*
X121786731Y-41336370D01*
X121786730Y-41336370D01*
X121647536Y-41295500D01*
X121502464Y-41295500D01*
X121363269Y-41336370D01*
X121363266Y-41336372D01*
X121241225Y-41414803D01*
X121146223Y-41524441D01*
X121085958Y-41656403D01*
X121065312Y-41800000D01*
X121085958Y-41943596D01*
X121149967Y-42083756D01*
X121147953Y-42084675D01*
X121164482Y-42140969D01*
X121144479Y-42209090D01*
X121133707Y-42223479D01*
X121046223Y-42324441D01*
X121046223Y-42324442D01*
X120985958Y-42456404D01*
X120965312Y-42600000D01*
X117340532Y-42600000D01*
X117342305Y-39799500D01*
X163140812Y-39799500D01*
X163161458Y-39943096D01*
X163221723Y-40075058D01*
X163316725Y-40184696D01*
X163438768Y-40263129D01*
X163577964Y-40304000D01*
X163723036Y-40304000D01*
X163862232Y-40263129D01*
X163984275Y-40184696D01*
X164079277Y-40075058D01*
X164139542Y-39943096D01*
X164160188Y-39799500D01*
X164139542Y-39655904D01*
X164079277Y-39523942D01*
X163984275Y-39414304D01*
X163984274Y-39414303D01*
X163923253Y-39375087D01*
X163862232Y-39335871D01*
X163862231Y-39335870D01*
X163862230Y-39335870D01*
X163723036Y-39295000D01*
X163577964Y-39295000D01*
X163438769Y-39335870D01*
X163438766Y-39335872D01*
X163316725Y-39414303D01*
X163221723Y-39523941D01*
X163221723Y-39523942D01*
X163161458Y-39655904D01*
X163140812Y-39799500D01*
X117342305Y-39799500D01*
X117349158Y-28978608D01*
X117369203Y-28910502D01*
X117422888Y-28864043D01*
X117493169Y-28853984D01*
X117557731Y-28883518D01*
X117592209Y-28932053D01*
X117660176Y-29102637D01*
X117835639Y-29433597D01*
X118045857Y-29743645D01*
X118045859Y-29743647D01*
X118288364Y-30029147D01*
X118560304Y-30286743D01*
X118560319Y-30286756D01*
X118858532Y-30513451D01*
X119179506Y-30706575D01*
X119221670Y-30726082D01*
X119519468Y-30863859D01*
X119519480Y-30863864D01*
X119874466Y-30983473D01*
X120240303Y-31063999D01*
X120612702Y-31104500D01*
X120612710Y-31104500D01*
X120987290Y-31104500D01*
X120987298Y-31104500D01*
X121359697Y-31063999D01*
X121725534Y-30983473D01*
X122080520Y-30863864D01*
X122420494Y-30706575D01*
X122741468Y-30513451D01*
X123039681Y-30286756D01*
X123311635Y-30029147D01*
X123554143Y-29743645D01*
X123764361Y-29433597D01*
X123939824Y-29102637D01*
X124078476Y-28754647D01*
X124130289Y-28568032D01*
X124167786Y-28507746D01*
X124231924Y-28477302D01*
X124302339Y-28486367D01*
X124356676Y-28532062D01*
X124371529Y-28562805D01*
X124476934Y-28887213D01*
X124476935Y-28887214D01*
X124623918Y-29217343D01*
X124623921Y-29217349D01*
X124748768Y-29433589D01*
X124804601Y-29530294D01*
X125017007Y-29822645D01*
X125258808Y-30091192D01*
X125527355Y-30332993D01*
X125819706Y-30545399D01*
X125989297Y-30643312D01*
X126132650Y-30726078D01*
X126132656Y-30726081D01*
X126132658Y-30726082D01*
X126462782Y-30873063D01*
X126462784Y-30873063D01*
X126462785Y-30873064D01*
X126462786Y-30873065D01*
X126686523Y-30945760D01*
X126806462Y-30984731D01*
X127159931Y-31059863D01*
X127519317Y-31097636D01*
X127669693Y-31099603D01*
X127699984Y-31100000D01*
X129489351Y-31100000D01*
X129557472Y-31120002D01*
X129603965Y-31173658D01*
X129614069Y-31243932D01*
X129584575Y-31308512D01*
X129564862Y-31326867D01*
X129530184Y-31352826D01*
X129352839Y-31530171D01*
X129334259Y-31550855D01*
X129317622Y-31571501D01*
X129317621Y-31571503D01*
X129270701Y-31661199D01*
X129270698Y-31661208D01*
X129251011Y-31728254D01*
X129240500Y-31801356D01*
X129240500Y-37776007D01*
X129246432Y-37831172D01*
X129257630Y-37882647D01*
X129264986Y-37909462D01*
X129315088Y-37997446D01*
X129315091Y-37997450D01*
X129360837Y-38050244D01*
X129360849Y-38050257D01*
X129394129Y-38082370D01*
X129394131Y-38082371D01*
X129483849Y-38129303D01*
X129550888Y-38148988D01*
X129624000Y-38159500D01*
X132975995Y-38159500D01*
X132976000Y-38159500D01*
X133031163Y-38153569D01*
X133052221Y-38148988D01*
X133082647Y-38142369D01*
X133082649Y-38142368D01*
X133082674Y-38142363D01*
X133109461Y-38135014D01*
X133197448Y-38084911D01*
X133250252Y-38039156D01*
X133282371Y-38005869D01*
X133329303Y-37916151D01*
X133348988Y-37849112D01*
X133359500Y-37776000D01*
X133359500Y-35159677D01*
X133379502Y-35091556D01*
X133396405Y-35070582D01*
X133420582Y-35046405D01*
X133482894Y-35012379D01*
X133509677Y-35009500D01*
X135816591Y-35009500D01*
X135884712Y-35029502D01*
X135908278Y-35049075D01*
X135934765Y-35077177D01*
X135934770Y-35077182D01*
X135934771Y-35077183D01*
X135962244Y-35102251D01*
X135962264Y-35102268D01*
X135981065Y-35116991D01*
X136008139Y-35146182D01*
X136010454Y-35149646D01*
X136019777Y-35166165D01*
X136029432Y-35186758D01*
X136062695Y-35239876D01*
X137461084Y-36967298D01*
X137489587Y-36997269D01*
X137517597Y-37022372D01*
X137518936Y-37023572D01*
X137526897Y-37030339D01*
X137529288Y-37032371D01*
X137619006Y-37079303D01*
X137686045Y-37098988D01*
X137759157Y-37109500D01*
X139598649Y-37109500D01*
X139619896Y-37108360D01*
X139626379Y-37108013D01*
X139652737Y-37105179D01*
X139652743Y-37105176D01*
X139652748Y-37105176D01*
X139749357Y-37074926D01*
X139749359Y-37074925D01*
X139810686Y-37041438D01*
X139834563Y-37023563D01*
X139869813Y-36997175D01*
X140047175Y-36819813D01*
X140065740Y-36799145D01*
X140082374Y-36778503D01*
X140082378Y-36778496D01*
X140129298Y-36688800D01*
X140129299Y-36688796D01*
X140129303Y-36688789D01*
X140148988Y-36621750D01*
X140159500Y-36548638D01*
X140159500Y-34008076D01*
X142232000Y-34008076D01*
X142232000Y-35391924D01*
X142260760Y-35573507D01*
X142260761Y-35573512D01*
X142317570Y-35748352D01*
X142317572Y-35748357D01*
X142401037Y-35912166D01*
X142509099Y-36060901D01*
X142509101Y-36060903D01*
X142509103Y-36060906D01*
X142639093Y-36190896D01*
X142639096Y-36190898D01*
X142639099Y-36190901D01*
X142787834Y-36298963D01*
X142951643Y-36382428D01*
X143126493Y-36439240D01*
X143308076Y-36468000D01*
X143308079Y-36468000D01*
X143491921Y-36468000D01*
X143491924Y-36468000D01*
X143673507Y-36439240D01*
X143848357Y-36382428D01*
X144012166Y-36298963D01*
X144160901Y-36190901D01*
X144290901Y-36060901D01*
X144398963Y-35912166D01*
X144482428Y-35748357D01*
X144539240Y-35573507D01*
X144568000Y-35391924D01*
X144568000Y-34008076D01*
X147032000Y-34008076D01*
X147032000Y-35391924D01*
X147060760Y-35573507D01*
X147060761Y-35573512D01*
X147117570Y-35748352D01*
X147117572Y-35748357D01*
X147201037Y-35912166D01*
X147309099Y-36060901D01*
X147309101Y-36060903D01*
X147309103Y-36060906D01*
X147439093Y-36190896D01*
X147439096Y-36190898D01*
X147439099Y-36190901D01*
X147587834Y-36298963D01*
X147751643Y-36382428D01*
X147926493Y-36439240D01*
X148108076Y-36468000D01*
X148108079Y-36468000D01*
X148291921Y-36468000D01*
X148291924Y-36468000D01*
X148473507Y-36439240D01*
X148648357Y-36382428D01*
X148812166Y-36298963D01*
X148960901Y-36190901D01*
X149090901Y-36060901D01*
X149198963Y-35912166D01*
X149282428Y-35748357D01*
X149339240Y-35573507D01*
X149368000Y-35391924D01*
X149368000Y-34008076D01*
X149339240Y-33826493D01*
X149282428Y-33651643D01*
X149198963Y-33487834D01*
X149090901Y-33339099D01*
X149090898Y-33339096D01*
X149090896Y-33339093D01*
X148960906Y-33209103D01*
X148960903Y-33209101D01*
X148960901Y-33209099D01*
X148812166Y-33101037D01*
X148648357Y-33017572D01*
X148648354Y-33017571D01*
X148648352Y-33017570D01*
X148473512Y-32960761D01*
X148473508Y-32960760D01*
X148473507Y-32960760D01*
X148291924Y-32932000D01*
X148108076Y-32932000D01*
X147926493Y-32960760D01*
X147926487Y-32960761D01*
X147751647Y-33017570D01*
X147751641Y-33017573D01*
X147587830Y-33101039D01*
X147439096Y-33209101D01*
X147439093Y-33209103D01*
X147309103Y-33339093D01*
X147309101Y-33339096D01*
X147201039Y-33487830D01*
X147117573Y-33651641D01*
X147117570Y-33651647D01*
X147060761Y-33826487D01*
X147060760Y-33826492D01*
X147060760Y-33826493D01*
X147032000Y-34008076D01*
X144568000Y-34008076D01*
X144539240Y-33826493D01*
X144482428Y-33651643D01*
X144398963Y-33487834D01*
X144290901Y-33339099D01*
X144290898Y-33339096D01*
X144290896Y-33339093D01*
X144160906Y-33209103D01*
X144160903Y-33209101D01*
X144160901Y-33209099D01*
X144012166Y-33101037D01*
X143848357Y-33017572D01*
X143848354Y-33017571D01*
X143848352Y-33017570D01*
X143673512Y-32960761D01*
X143673508Y-32960760D01*
X143673507Y-32960760D01*
X143491924Y-32932000D01*
X143308076Y-32932000D01*
X143126493Y-32960760D01*
X143126487Y-32960761D01*
X142951647Y-33017570D01*
X142951641Y-33017573D01*
X142787830Y-33101039D01*
X142639096Y-33209101D01*
X142639093Y-33209103D01*
X142509103Y-33339093D01*
X142509101Y-33339096D01*
X142401039Y-33487830D01*
X142317573Y-33651641D01*
X142317570Y-33651647D01*
X142260761Y-33826487D01*
X142260760Y-33826492D01*
X142260760Y-33826493D01*
X142232000Y-34008076D01*
X140159500Y-34008076D01*
X140159500Y-31801362D01*
X140159500Y-31801356D01*
X140159500Y-31801350D01*
X140158014Y-31773642D01*
X140158013Y-31773621D01*
X140155179Y-31747263D01*
X140155177Y-31747258D01*
X140155176Y-31747251D01*
X140124926Y-31650642D01*
X140124925Y-31650640D01*
X140091438Y-31589313D01*
X140047178Y-31530191D01*
X140047168Y-31530179D01*
X139869828Y-31352839D01*
X139869814Y-31352826D01*
X139869813Y-31352825D01*
X139849145Y-31334260D01*
X139849135Y-31334251D01*
X139836550Y-31324110D01*
X139796058Y-31265793D01*
X139793522Y-31194841D01*
X139829749Y-31133783D01*
X139893235Y-31102002D01*
X139915609Y-31100000D01*
X173700016Y-31100000D01*
X173729991Y-31099607D01*
X173880683Y-31097636D01*
X174240069Y-31059863D01*
X174593538Y-30984731D01*
X174817279Y-30912033D01*
X174937213Y-30873065D01*
X174937213Y-30873064D01*
X174937218Y-30873063D01*
X175267342Y-30726082D01*
X175580294Y-30545399D01*
X175872645Y-30332993D01*
X176141192Y-30091192D01*
X176382993Y-29822645D01*
X176595399Y-29530294D01*
X176776082Y-29217342D01*
X176923063Y-28887218D01*
X176924266Y-28883518D01*
X176966139Y-28754643D01*
X177028471Y-28562802D01*
X177068543Y-28504200D01*
X177133939Y-28476562D01*
X177203896Y-28488669D01*
G37*
%TD.AperFunction*%
%TD*%
M02*
